<svg width="38" height="38" viewBox="0 0 38 38" fill="none" xmlns="http://www.w3.org/2000/svg">
<path fill-rule="evenodd" clip-rule="evenodd" d="M18.8332 0C19.2676 0 20.0898 0.0465401 20.6483 0.108594C21.2145 0.170647 22.0445 0.294754 22.4944 0.380078C22.9443 0.465401 23.6889 0.643805 24.1621 0.775669C24.6352 0.907532 25.3333 1.14023 25.7134 1.28761C26.0935 1.42723 26.8692 1.77628 27.4199 2.04777C27.9706 2.31925 28.7928 2.78465 29.2427 3.0794C29.6926 3.37416 30.3519 3.84732 30.7165 4.13431C31.081 4.42131 31.593 4.8712 32.3609 5.61584L30.1347 7.81098L29.5297 7.27577C29.2039 6.98102 28.6454 6.52337 28.2886 6.2674C27.9396 6.00367 27.319 5.59257 26.9157 5.35987C26.5123 5.11941 25.8298 4.77036 25.4031 4.5842C24.9765 4.39804 24.2629 4.1188 23.813 3.97142C23.3631 3.82405 22.5797 3.62237 22.0678 3.52154C21.5558 3.41294 20.6483 3.29659 20.051 3.25005C19.2909 3.19575 18.6393 3.19575 17.8792 3.25005C17.2819 3.29659 16.3588 3.4207 15.8236 3.52929C15.2884 3.63013 14.4352 3.86283 13.9232 4.03348C13.4113 4.20412 12.5658 4.55317 12.0384 4.80914C11.5187 5.05736 10.6965 5.53052 10.2156 5.8563C9.7424 6.18208 9.08308 6.67075 8.76505 6.93448C8.44703 7.1982 7.91958 7.69463 7.60155 8.02817C7.28353 8.36946 6.7871 8.9357 6.5001 9.30027C6.22086 9.66483 5.81751 10.2388 5.60033 10.5801C5.3909 10.9214 5.04184 11.5497 4.83241 11.9763C4.61523 12.4029 4.31272 13.101 4.14983 13.5277C3.99469 13.9543 3.76199 14.7067 3.63789 15.1953C3.52153 15.684 3.3664 16.4985 3.29659 17.0027C3.23454 17.4991 3.18024 18.3989 3.18024 18.9961C3.18024 19.5934 3.23454 20.4932 3.29659 20.9973C3.3664 21.4938 3.52153 22.3082 3.63789 22.7969C3.76199 23.2856 3.99469 24.038 4.14983 24.4646C4.31272 24.8912 4.61523 25.5893 4.83241 26.0159C5.04184 26.4425 5.3909 27.0708 5.60033 27.4121C5.81751 27.7534 6.22086 28.3274 6.50786 28.692C6.7871 29.0565 7.26026 29.6073 7.56277 29.9253C7.85752 30.2356 8.38498 30.732 8.72627 31.019C9.06756 31.306 9.7424 31.8102 10.2156 32.1359C10.6965 32.4617 11.5187 32.9349 12.0384 33.1831C12.5658 33.4391 13.4191 33.7881 13.9388 33.9588C14.4662 34.1372 15.3195 34.3621 15.8392 34.4707C16.3666 34.5715 17.2741 34.6957 17.8559 34.7422C18.5928 34.7965 19.2676 34.7965 20.0278 34.7422C20.6405 34.6957 21.5558 34.5715 22.0678 34.4707C22.5797 34.3699 23.3631 34.1682 23.813 34.0208C24.2629 33.8734 24.9765 33.5942 25.4031 33.408C25.8298 33.2219 26.5123 32.8728 26.9157 32.6324C27.319 32.3997 27.9396 31.9886 28.2886 31.7248C28.6454 31.4689 29.2039 31.0112 30.1347 30.1813L32.3609 32.3764L31.8645 32.8573C31.593 33.121 31.081 33.5709 30.7165 33.8579C30.3519 34.1372 29.6926 34.6181 29.2427 34.9128C28.7928 35.2076 27.9706 35.673 27.4199 35.9445C26.8692 36.216 26.0857 36.5573 25.6901 36.7124C25.3023 36.8675 24.6042 37.1002 24.1388 37.2243C23.6812 37.3562 22.9443 37.5268 22.4944 37.6122C22.0445 37.6975 21.2145 37.8216 20.6483 37.8837C20.0898 37.9457 19.3297 38 18.9651 38C18.6005 38 17.8404 37.9457 17.2741 37.8837C16.7157 37.8216 15.8702 37.6897 15.397 37.6044C14.9239 37.5191 14.1404 37.3252 13.6518 37.1856C13.1631 37.0382 12.3564 36.7589 11.8677 36.565C11.3791 36.3711 10.6111 36.0143 10.1613 35.7816C9.71137 35.5411 8.95897 35.0912 8.49357 34.781C8.02041 34.4707 7.34558 33.9743 6.98102 33.6795C6.62421 33.3925 5.99592 32.8185 5.58481 32.4152C5.18147 32.0118 4.57644 31.3448 4.25066 30.9414C3.92488 30.5381 3.42845 29.8555 3.14146 29.4289C2.85446 29.0022 2.33476 28.0637 1.97795 27.3346C1.61339 26.5977 1.17126 25.5505 0.977342 24.9688C0.791182 24.3948 0.558481 23.5803 0.473158 23.1615C0.380078 22.7504 0.240457 21.9282 0.155134 21.3386C0.0542968 20.625 0 19.8649 0 19.0349C0 18.2282 0.0542968 17.4138 0.147377 16.7079C0.232701 16.1106 0.372321 15.2729 0.465401 14.8463C0.558481 14.4197 0.791182 13.5975 0.977342 13.0235C1.17126 12.4417 1.61339 11.3946 1.97795 10.6577C2.33476 9.93631 2.85446 8.99 3.14146 8.56338C3.42845 8.13676 3.90937 7.46969 4.21964 7.08961C4.5299 6.70178 5.08839 6.07348 5.47622 5.69341C5.8563 5.30557 6.47683 4.73158 6.86467 4.4058C7.24474 4.08777 7.96611 3.56032 8.45479 3.23454C8.94346 2.90876 9.75015 2.4356 10.2388 2.17963C10.7275 1.92366 11.5497 1.55134 12.0616 1.34966C12.5736 1.14799 13.4113 0.868749 13.9232 0.729128C14.4352 0.589508 15.1876 0.418861 15.5909 0.349051C15.9943 0.271484 16.7079 0.170647 17.1811 0.11635C17.6542 0.0620535 18.3911 0.00775669 18.8255 0L18.8332 0ZM31.5775 14.2645H34.7577V17.4448H37.9379V20.5475H34.7577V23.7277H31.5775V20.5475H28.4748V17.4448H31.5775V14.2645ZM9.47091 11.0843H12.6512V23.7277H14.2025V26.9079H7.91958V23.7277H9.47091V15.8159H7.91958V12.7132H9.47091V11.0843ZM21.2999 11.0921C22.1066 11.0921 22.7271 11.1231 23.0839 11.2007C23.3864 11.2627 23.9061 11.4489 24.2474 11.6195C24.5887 11.7902 25.0541 12.1004 25.2868 12.3021C25.5117 12.5038 25.8763 12.9382 26.0857 13.2562C26.2952 13.5742 26.5434 14.0629 26.6287 14.3421C26.714 14.6214 26.7993 15.1643 26.8304 15.5444C26.8536 15.971 26.8304 16.4442 26.7683 16.7467C26.7218 17.0259 26.5744 17.4758 26.4425 17.7551C26.3184 18.0343 26.0935 18.4221 25.6824 18.9961L25.9461 19.3607C26.0935 19.5701 26.3184 19.958 26.4425 20.2372C26.5744 20.5164 26.7218 20.9663 26.7683 21.2456C26.8304 21.5481 26.8536 22.0212 26.8304 22.4478C26.7993 22.8279 26.714 23.3709 26.6287 23.6501C26.5434 23.9294 26.2952 24.418 26.0857 24.7361C25.8763 25.0541 25.5117 25.4885 25.2868 25.6901C25.0541 25.8918 24.5887 26.2021 24.2474 26.3727C23.9061 26.5434 23.3864 26.7295 23.0839 26.7916C22.7426 26.8614 22.0988 26.9079 21.3386 26.9079C20.5707 26.9079 19.9424 26.8614 19.5934 26.7916C19.2909 26.7295 18.8022 26.5589 18.5075 26.4115C18.2049 26.2719 17.7706 26.0004 17.5379 25.8065C17.3052 25.6203 16.9871 25.2868 16.8242 25.0774C16.6691 24.8679 16.4364 24.4801 16.3046 24.2086C16.1727 23.9449 16.0098 23.5105 15.9477 23.239C15.8857 22.9753 15.8314 22.4944 15.8314 22.1764C15.8314 21.8583 15.8934 21.3309 15.9788 21.0129C16.0563 20.6948 16.2037 20.276 16.2968 20.0821C16.3899 19.8881 16.5915 19.5701 16.9949 18.9961L16.7312 18.6238C16.5915 18.4221 16.3899 18.1041 16.2968 17.9102C16.2037 17.7163 16.0563 17.2974 15.9788 16.9794C15.8934 16.6614 15.8314 16.1339 15.8314 15.8159C15.8314 15.4979 15.8857 15.0247 15.9477 14.7687C16.002 14.5128 16.1339 14.1249 16.227 13.9155C16.3201 13.6983 16.5373 13.3182 16.7234 13.0623C16.9018 12.8063 17.2509 12.4262 17.5068 12.2168C17.7551 12.0073 18.2049 11.7204 18.5075 11.573C18.8022 11.4334 19.2754 11.2705 19.5546 11.2084C19.8649 11.1386 20.5319 11.0921 21.2999 11.0921ZM19.2909 14.9083C19.0892 15.1643 19.0427 15.2962 19.0194 15.7228C18.9884 16.1727 19.0116 16.289 19.19 16.6071C19.3219 16.8475 19.5158 17.0492 19.7253 17.1733C20.0433 17.3517 20.1131 17.3672 21.3386 17.3672C22.5409 17.3672 22.6418 17.3517 22.9288 17.1811C23.0994 17.0802 23.3244 16.863 23.4329 16.7001C23.5338 16.5373 23.6424 16.258 23.6734 16.0874C23.6967 15.9167 23.6889 15.6375 23.6579 15.4668C23.6191 15.2962 23.4717 15.0169 23.3321 14.8541C23.2002 14.6834 22.9443 14.4817 22.7736 14.4042C22.5254 14.2956 22.2539 14.2645 21.3386 14.2645C20.3225 14.2645 20.1829 14.2801 19.8726 14.4352C19.6787 14.536 19.415 14.7455 19.2909 14.9083ZM19.19 21.3774C19.0116 21.7032 18.9884 21.8196 19.0194 22.2694C19.0427 22.6961 19.0892 22.8279 19.2909 23.0839C19.415 23.2468 19.6787 23.4562 19.8726 23.5571C20.1829 23.7122 20.3225 23.7277 21.3386 23.7277C22.2539 23.7277 22.5254 23.6967 22.7736 23.5881C22.9443 23.5105 23.2002 23.3088 23.3321 23.1382C23.4717 22.9753 23.6191 22.6961 23.6579 22.5254C23.6889 22.3548 23.6967 22.0755 23.6734 21.9049C23.6424 21.7342 23.5338 21.455 23.4329 21.2921C23.3244 21.1292 23.0994 20.912 22.9288 20.8112C22.6418 20.6405 22.5409 20.625 21.3386 20.625C20.1131 20.625 20.0433 20.6328 19.7253 20.8189C19.5158 20.9431 19.3219 21.1447 19.19 21.3774Z" fill="#D2DCF7"/>
</svg>
