<svg width="120" height="24" viewBox="0 0 120 24" fill="none" xmlns="http://www.w3.org/2000/svg">
<g clip-path="url(#clip0_429_4306)">
<path d="M77.6051 20.0526L76.4999 16.0263H71.2893L70.1841 20.0526H68.0525L72.3156 4.97363H75.4735L79.7367 20.0526H77.4472H77.6051ZM71.842 14.2894H76.0262L73.8946 6.39469L71.763 14.2894H71.842Z" fill="#D2DCF7"/>
<path d="M88.4211 20.0528L86.4475 12.3159H86.2896L84.3159 20.0528H82.1843L79.4211 9.31592H81.5527L83.2896 17.0528H83.4475L85.4211 9.31592H87.4738L89.3685 17.0528H89.5264L91.3422 9.31592H93.2369L90.4738 20.0528H88.3422H88.4211Z" fill="#D2DCF7"/>
<path d="M97.1053 20.2895C95.1317 20.2895 93.7896 19.0263 93.7896 17.2105C93.7896 15.3947 95.6053 14.3684 96.7106 14.0526L100.184 13.1053V12.6316C100.184 11.4474 99.4738 10.7368 98.1317 10.7368C96.7896 10.7368 96.079 11.5263 95.6843 12.2368L94.1053 11.4474V11.2895C94.7369 10.1842 96.079 9 98.3685 9C100.658 9 102.316 10.2632 102.316 12.3947V18.1579C102.316 18.9474 102.316 19.5 102.474 19.8947C102.474 19.9737 100.342 19.9737 100.342 19.9737C100.342 19.5789 100.263 19.3421 100.184 19.0263V18.8684L100.026 19.0263C99.2369 19.8947 98.2895 20.2895 97.1053 20.2895ZM97.7369 15.3158C97.0264 15.5526 96.0001 16.0263 96.0001 17.0526C96.0001 18.0789 96.7106 18.7105 97.7369 18.7105C98.7632 18.7105 99.7106 18.0789 100.184 17.4474V14.5263L97.7369 15.2368V15.3158Z" fill="#D2DCF7"/>
<path d="M104.605 20.0524V9.31561H106.579V11.5261L106.737 11.3682C107.921 9.94719 109.184 9.23666 110.447 9.15771V11.1314C108.868 11.1314 107.684 12.0788 106.816 12.8682V20.0524H104.684H104.605Z" fill="#D2DCF7"/>
<path d="M115.5 20.2891C112.579 20.2891 110.842 18.1576 110.842 14.8418C110.842 11.526 112.658 9.07861 115.5 9.07861C118.342 9.07861 117.474 9.23651 118.421 10.1839C119.289 11.0523 119.763 12.3944 119.763 14.2102V15.1576H112.895V15.3944C112.895 17.447 113.921 18.7891 115.579 18.7891C117.237 18.7891 117.474 18.3155 117.947 17.3681V17.2102C118.026 17.2102 119.684 17.9207 119.684 17.9207V18.0786C118.816 19.6576 117.474 20.447 115.5 20.447V20.2891ZM115.5 10.7365C114.947 10.7365 113.21 10.9733 112.974 13.6576C112.974 13.7365 117.789 13.7365 117.789 13.7365V13.4997C117.789 11.7628 116.921 10.7365 115.5 10.7365Z" fill="#D2DCF7"/>
<path d="M0.394775 12.7896C0.394775 7.34226 2.7632 4.5791 6.55267 4.5791C10.3421 4.5791 11.1316 5.84226 11.6842 8.68437V9.15805C11.7632 9.15805 9.55267 9.63173 9.55267 9.63173V9.237C9.07899 7.34226 7.97372 6.55279 6.55267 6.55279C5.13162 6.55279 2.92109 8.28963 2.92109 12.6317C2.92109 16.9738 4.42109 18.3949 6.39478 18.3949C8.36846 18.3949 9.55267 17.6054 9.55267 14.9212V14.4475H6.31583V12.5528H11.7632V20.0528H9.78951L9.63162 18.237C8.92109 19.737 7.50004 20.3686 5.84214 20.3686C2.52635 20.3686 0.394775 17.7633 0.394775 12.7896Z" fill="#D2DCF7"/>
<path d="M20.1316 19.1053C19.421 19.8158 18.5526 20.3684 17.1316 20.4474C15.0789 20.4474 13.7368 19.1053 13.7368 17.2895C13.7368 15.4737 15.3158 14.4474 16.7368 14.0526L20.1316 13.1053V12.7105C20.1316 11.5263 19.3421 10.8947 18.1579 10.8947C16.9737 10.8947 16.1842 11.6053 15.7894 12.3947V12.5526L13.9737 11.6053V11.3684C14.5263 10.4211 15.8684 9 18.3947 9C20.921 9 22.421 10.2632 22.421 12.4737V18.2368C22.421 18.7895 22.421 19.5 22.5789 19.9737V20.1316H20.3684C20.3684 19.7368 20.2894 19.4211 20.2105 19.1053H20.1316ZM17.6842 18.6316C18.7105 18.6316 19.5789 18.0789 20.0526 17.4474V14.6842L17.6842 15.3947C16.8158 15.7105 16.0263 16.1053 16.0263 17.0526C16.0263 18 16.6579 18.6316 17.6842 18.6316Z" fill="#D2DCF7"/>
<path d="M35.5264 10.8949C34.658 10.8949 33.7106 11.5265 33.158 12.0002V20.0528H30.8685V12.5528C30.8685 11.4475 30.3159 10.8949 29.2106 10.8949C28.1054 10.8949 27.3948 11.5265 26.8422 12.0002V20.0528H24.5527V9.15808H26.6843V10.3423C27.4738 9.47387 28.658 8.84229 29.9212 8.84229C31.1843 8.84229 32.3685 9.55281 32.7633 10.5002C33.5527 9.55281 34.8948 8.84229 36.158 8.84229C38.3685 8.84229 39.3159 10.3423 39.3159 12.0002V20.0528H37.0264V12.5528C37.0264 11.4475 36.4738 10.8949 35.3685 10.8949H35.5264Z" fill="#D2DCF7"/>
<path d="M44.0527 19.1051L43.8159 20.1314H41.9211V4.89453H44.2106V10.184C44.8422 9.47348 45.8685 8.99979 46.8948 8.99979C49.3422 8.99979 51.079 10.8156 51.079 14.5261C51.079 18.2366 49.3422 20.3682 46.8159 20.3682C44.2896 20.3682 44.6843 19.8945 44.0527 19.1051ZM46.4211 18.5524C47.6843 18.5524 48.7896 17.3682 48.7896 14.6051C48.7896 11.8419 47.6843 10.8156 46.3422 10.8156C45.0001 10.8156 44.7632 11.2893 44.2106 11.8419V17.5261C44.7632 18.0787 45.5527 18.5524 46.4211 18.5524Z" fill="#D2DCF7"/>
<path d="M52.9739 4.81592H55.2634V20.0528H52.9739V4.81592Z" fill="#D2DCF7"/>
<path d="M57.2368 14.8421C57.2368 11.3684 58.9737 9 61.9737 9C64.9737 9 66.3158 10.2632 66.3158 14.2105V15.2368H59.4473V15.3947C59.4473 17.5263 60.5526 18.7105 62.0526 18.7105C63.5526 18.7105 63.7894 18.3158 64.3421 17.3684L64.5 17.1316L66.3158 17.9211V18.1579C65.3684 19.7368 63.9473 20.6053 62.0526 20.6053C59.2894 20.6053 57.3158 18.6316 57.3158 15.0789L57.2368 14.8421ZM64.1842 13.6579V13.5C64.1842 11.5263 63.1579 10.7368 61.9737 10.7368C60.7894 10.7368 59.6842 11.6053 59.5263 13.5789H64.1842V13.6579Z" fill="#D2DCF7"/>
</g>
<defs>
<clipPath id="clip0_429_4306">
<rect width="120" height="24" fill="white"/>
</clipPath>
</defs>
</svg>
