<svg width="60" height="35" viewBox="0 0 60 35" fill="none" xmlns="http://www.w3.org/2000/svg">
<path d="M19.4693 9.10445C19.7285 9.10445 19.952 9.32792 19.952 9.55587V19.7911C19.952 20.0816 19.7911 20.3721 19.5676 20.5643C17.6368 22.2047 14.678 23.1701 11.585 23.1701C4.63491 23.1701 0 18.5352 0 11.585C0 4.63491 4.63491 0 11.585 0C13.9673 0 16.4747 0.706187 18.343 1.86827C18.6022 1.99788 18.6961 2.25265 18.6335 2.44931L17.0245 7.17808C16.9261 7.40155 16.7027 7.49988 16.4121 7.43731C15.0936 6.73112 13.3863 6.31099 11.7772 6.31099C8.8184 6.31099 6.82051 8.43402 6.82051 11.5895C6.82051 14.745 8.81393 16.9306 11.7772 16.9306C12.9661 16.9306 13.7706 16.7071 14.1282 16.3183V14.45H11.1694C10.8789 14.45 10.6867 14.3204 10.6554 14.0969L10.2352 9.6542C10.204 9.33239 10.3961 9.10892 10.7492 9.10892H19.4693V9.10445ZM39.6805 20.7565C39.7789 20.9845 39.6493 21.2079 39.39 21.3376C37.5218 22.4952 35.0143 23.2058 32.6321 23.2058C26.0038 23.2058 21.561 18.5709 21.561 11.6208C21.561 4.67067 26.0038 0.0357563 32.6321 0.0357563C35.0143 0.0357563 37.5218 0.741943 39.39 1.90402C39.6493 2.03364 39.7744 2.25712 39.6805 2.48506L37.5575 6.95907C37.4279 7.24959 37.2044 7.34345 36.9452 7.2183C35.7563 6.5434 34.5942 6.31545 33.2131 6.31545C30.3169 6.31545 28.386 8.43848 28.386 11.6253C28.386 14.812 30.3169 16.9351 33.2131 16.9351C34.5987 16.9351 35.7563 16.7116 36.9452 16.0322C37.2044 15.9026 37.4279 16.0009 37.5575 16.2915L39.6805 20.7655V20.7565ZM51.65 0.513997C55.8647 0.513997 58.6671 3.02588 58.6671 6.78923C58.6671 9.10445 57.5408 10.8118 55.8022 11.3258C57.8313 11.8398 59.1498 13.7706 59.1498 16.4434C59.1498 20.2068 56.3519 22.7187 52.1684 22.7187H41.9645C41.7097 22.7187 41.5131 22.4952 41.5131 22.2672V0.996707C41.5131 0.77323 41.7052 0.513997 41.9645 0.513997H51.6544H51.65ZM50.1705 9.23406C51.136 9.23406 51.7796 8.65302 51.7796 7.75465C51.7796 6.85627 51.136 6.27523 50.1705 6.27523H48.1414V9.23406H50.1705ZM50.7471 16.9574C51.6812 16.9574 52.3249 16.3451 52.3249 15.411C52.3249 14.4768 51.6812 13.8645 50.7471 13.8645H48.1414V16.953H50.7471V16.9574ZM11.4956 32.06C11.518 32.1002 11.4956 32.1583 11.4465 32.1985C11.0129 32.4712 10.414 32.6589 9.95813 32.6589C8.50106 32.6589 7.53564 31.7248 7.53564 30.3258C7.53564 28.9268 8.50106 27.9927 9.95813 27.9927C10.4185 27.9927 11.0129 28.176 11.4465 28.4531C11.4956 28.4933 11.518 28.5514 11.4956 28.5916L11.0308 29.5749C10.9995 29.6375 10.9414 29.6643 10.8878 29.6241C10.6867 29.4811 10.3827 29.3827 10.1146 29.3827C9.52905 29.3827 9.1402 29.7626 9.1402 30.3303C9.1402 30.8979 9.52458 31.2778 10.1146 31.2778C10.3783 31.2778 10.6867 31.1795 10.8878 31.0365C10.9459 30.9962 10.9995 31.0186 11.0308 31.0856L11.4956 32.0689V32.06ZM15.6791 32.0779C15.697 32.136 15.6791 32.1673 15.621 32.1985C15.192 32.4801 14.5752 32.65 13.9539 32.65C12.5281 32.65 11.5806 31.7158 11.5806 30.3258C11.5806 28.9358 12.5147 27.9927 13.9137 27.9927C15.3126 27.9927 16.0367 28.8553 16.0367 30.3169C16.0367 30.4375 16.0278 30.5582 16.0054 30.6789C15.9965 30.7415 15.9562 30.7772 15.8847 30.7772H13.3013C13.3013 30.7772 13.3013 31.2823 13.9762 31.2823C14.3874 31.2823 14.8433 31.184 15.2098 31.0186C15.2679 30.9962 15.3126 31.0275 15.3305 31.0812L15.6747 32.0779H15.6791ZM14.4411 29.928C14.4411 29.5749 14.2221 29.3425 13.9003 29.3425C13.5382 29.3425 13.2969 29.5749 13.2969 29.928H14.4411ZM19.0402 28.1C19.1028 28.1 19.152 28.1491 19.152 28.2117V29.2576C19.152 29.3202 19.1028 29.3693 19.0402 29.3693H18.8302C18.5262 29.3693 18.2491 29.5079 18.1463 29.709V32.4041C18.1463 32.4667 18.0882 32.5248 18.0256 32.5248H16.6088C16.5462 32.5248 16.4881 32.4667 16.4881 32.4041V28.2206C16.4881 28.1625 16.5462 28.1089 16.6088 28.1089H17.5161C17.5787 28.1089 17.6189 28.167 17.6457 28.2296L17.7664 28.5827C18.0078 28.2832 18.4011 28.1 18.8302 28.1H19.0402ZM22.227 28.1C22.2985 28.1 22.3477 28.1491 22.3477 28.2117L22.2583 28.9939C22.2494 29.0565 22.2002 29.1146 22.1376 29.1146H21.6236V32.4041C21.6236 32.4667 21.5655 32.5248 21.5029 32.5248H20.0861C20.0235 32.5248 19.9654 32.4667 19.9654 32.4041V29.1146H19.5051C19.447 29.1146 19.3933 29.0654 19.3933 29.0028V28.2206C19.3933 28.1491 19.4514 28.1 19.5051 28.1H19.9654V27.2239C19.9654 27.1658 20.0235 27.1211 20.0861 27.1122L21.5029 26.9737C21.5655 26.9647 21.6236 27.0318 21.6236 27.0854V28.1H22.227ZM23.322 32.641C22.8974 32.641 22.6159 32.3773 22.6159 31.9795C22.6159 31.5817 22.8974 31.3046 23.322 31.3046C23.7466 31.3046 24.0282 31.5773 24.0282 31.9795C24.0282 32.3818 23.7466 32.641 23.322 32.641ZM27.2955 31.9482C27.1658 32.2075 26.7815 32.3729 26.33 32.3729C25.1546 32.3729 24.3724 31.5281 24.3724 30.2543C24.3724 28.8285 25.0964 27.9838 26.33 27.9838C26.9513 27.9838 27.443 28.1536 27.6486 28.4441L27.7916 28.2206C27.8407 28.1491 27.9123 28.1 27.9793 28.1H28.833C28.9045 28.1 28.9537 28.1491 28.9537 28.2206V32.1136C28.9537 33.3293 27.8497 34.1428 26.482 34.1428C25.6864 34.1428 24.9758 33.9595 24.5825 33.6377C24.5333 33.5975 24.5199 33.5394 24.5333 33.4992L24.9445 32.5025C24.9668 32.4444 25.016 32.422 25.0652 32.4533C25.4093 32.7349 25.9412 32.9047 26.482 32.9047C26.9871 32.9047 27.2955 32.6366 27.2955 32.1807V31.9482ZM27.2955 29.8565C27.2955 29.8565 27.1748 29.4945 26.7412 29.4945C26.339 29.4945 26.1066 29.7761 26.1066 30.2588C26.1066 30.7415 26.339 31.032 26.7412 31.032C27.1748 31.032 27.2955 30.67 27.2955 30.67V29.8565ZM33.3606 32.06C33.383 32.1002 33.3606 32.1583 33.3115 32.1985C32.8779 32.4712 32.279 32.6589 31.8231 32.6589C30.366 32.6589 29.4006 31.7248 29.4006 30.3258C29.4006 28.9268 30.366 27.9927 31.8231 27.9927C32.2835 27.9927 32.8779 28.176 33.3115 28.4531C33.3606 28.4933 33.383 28.5514 33.3606 28.5916L32.8958 29.5749C32.8645 29.6375 32.8064 29.6643 32.7528 29.6241C32.5516 29.4811 32.2432 29.3827 31.9795 29.3827C31.394 29.3827 31.0052 29.7626 31.0052 30.3303C31.0052 30.8979 31.3896 31.2778 31.9795 31.2778C32.2432 31.2778 32.5516 31.1795 32.7528 31.0365C32.8109 30.9962 32.8645 31.0186 32.8958 31.0856L33.3606 32.0689V32.06ZM35.4792 28.2922C35.7205 28.1 36.0826 27.9882 36.4625 27.9882C37.7363 27.9882 38.5855 28.9224 38.5855 30.3124C38.5855 31.7024 37.7318 32.6455 36.4625 32.6455C35.9217 32.6455 35.4077 32.4354 35.1037 32.1136L34.9831 32.4041C34.9518 32.4757 34.9115 32.5248 34.8534 32.5248H33.9417C33.8791 32.5248 33.821 32.4667 33.821 32.4041V26.8038C33.821 26.7457 33.8791 26.6921 33.9417 26.6921H35.3585C35.4211 26.6921 35.4792 26.7502 35.4792 26.8038V28.2922ZM35.4792 30.8309C35.5775 31.0946 35.8323 31.2733 36.1139 31.2733C36.5563 31.2733 36.8558 30.889 36.8558 30.3079C36.8558 29.7269 36.5563 29.3738 36.1139 29.3738C35.8323 29.3738 35.573 29.5526 35.4792 29.8163V30.8309ZM39.6358 32.641C39.2112 32.641 38.9297 32.3773 38.9297 31.9795C38.9297 31.5817 39.2112 31.3046 39.6358 31.3046C40.0605 31.3046 40.342 31.5773 40.342 31.9795C40.342 32.3818 40.0605 32.641 39.6358 32.641ZM44.6507 32.06C44.673 32.1002 44.6507 32.1583 44.6015 32.1985C44.168 32.4712 43.569 32.6589 43.1131 32.6589C41.6561 32.6589 40.6907 31.7248 40.6907 30.3258C40.6907 28.9268 41.6561 27.9927 43.1131 27.9927C43.5735 27.9927 44.168 28.176 44.6015 28.4531C44.6507 28.4933 44.673 28.5514 44.6507 28.5916L44.1858 29.5749C44.1546 29.6375 44.0964 29.6643 44.0428 29.6241C43.8417 29.4811 43.5378 29.3827 43.2696 29.3827C42.6841 29.3827 42.2952 29.7626 42.2952 30.3303C42.2952 30.8979 42.6796 31.2778 43.2696 31.2778C43.5378 31.2778 43.8417 31.1795 44.0428 31.0365C44.1009 30.9962 44.1546 31.0186 44.1858 31.0856L44.6507 32.0689V32.06ZM51.7125 28.1C51.7751 28.1 51.8153 28.1581 51.793 28.2117L50.4834 32.4131C50.4655 32.4712 50.403 32.5248 50.3404 32.5248H49.0934C49.0308 32.5248 48.9548 32.4667 48.9325 32.4131L48.3112 30.2722L47.69 32.4131C47.6676 32.4712 47.5916 32.5248 47.529 32.5248H46.282C46.2195 32.5248 46.1524 32.4667 46.139 32.4131L44.8294 28.2117C44.8071 28.1536 44.8473 28.1 44.9099 28.1H46.5368C46.6083 28.1 46.6754 28.1491 46.6888 28.2117L47.1089 29.9727L47.5425 28.2117C47.5603 28.1313 47.6318 28.1 47.6855 28.1H48.9414C49.0621 28.1 49.071 28.1313 49.0844 28.2117L49.518 29.9727L49.9381 28.2117C49.956 28.1491 50.0186 28.1 50.0901 28.1H51.717H51.7125Z" fill="#D2DCF7"/>
</svg>
