<svg width="132" height="50" viewBox="0 0 132 50" fill="none" xmlns="http://www.w3.org/2000/svg">
<path d="M5.65311 44.988L5.15465 48.9789C5.13377 49.1525 4.98763 49.2814 4.81277 49.2814H1.34441C1.13041 49.2814 0.968601 49.0867 1.00514 48.8736L3.11904 36.8327C3.17124 36.5407 3.5366 36.4434 3.7245 36.6722L8.50297 42.5467C8.64128 42.7151 8.89704 42.7151 9.03536 42.5467L13.8138 36.6722C13.9991 36.4434 14.3671 36.5407 14.4193 36.8327L16.5332 48.8736C16.5697 49.0867 16.4079 49.2814 16.1939 49.2814H12.7229C12.5507 49.2814 12.4046 49.1525 12.3811 48.9789L11.8826 44.988C11.8435 44.6802 11.4546 44.575 11.2693 44.8197L9.0458 47.7529C8.90748 47.9345 8.63606 47.9345 8.50036 47.7529L6.27423 44.8197C6.08633 44.5724 5.69748 44.6802 5.66094 44.988H5.65311Z" fill="white"/>
<path d="M18.7228 36.7202H22.0398C22.2303 36.7202 22.3843 36.8754 22.3843 37.0675V48.9348C22.3843 49.1268 22.2303 49.282 22.0398 49.282H18.7228C18.5323 49.282 18.3783 49.1268 18.3783 48.9348V37.0675C18.3783 36.8754 18.5323 36.7202 18.7228 36.7202Z" fill="white"/>
<path d="M31.286 44.6281V42.4499C31.286 42.2578 31.44 42.1026 31.6305 42.1026H37.5807C37.7634 42.1026 37.9226 42.2499 37.9331 42.4367C37.9853 43.389 37.8991 44.2835 37.6695 45.1174C37.4137 46.0513 37.0014 46.8695 36.4325 47.5772C35.8635 48.2822 35.1458 48.8347 34.2794 49.2293C33.413 49.6239 32.416 49.8212 31.2886 49.8212C29.9002 49.8212 28.671 49.5371 27.6037 48.9688C26.5363 48.4006 25.6959 47.6035 25.0852 46.5828C24.4746 45.562 24.1692 44.3677 24.1692 43.0023C24.1692 41.9737 24.3545 41.0503 24.7199 40.2295C25.0878 39.4087 25.602 38.7116 26.2596 38.1381C26.9173 37.5646 27.6898 37.1252 28.5745 36.8201C29.4592 36.5149 30.4222 36.3623 31.4661 36.3623C32.4134 36.3623 33.2538 36.507 33.9845 36.7937C34.7152 37.0805 35.3546 37.462 35.9053 37.9329C36.3437 38.3091 36.7404 38.7195 37.0927 39.1667C37.231 39.3429 37.1606 39.6086 36.957 39.7007L33.7079 41.1713C33.4965 40.7767 33.2172 40.4294 32.8701 40.1322C32.5257 39.8323 32.0559 39.6823 31.4661 39.6823C30.8763 39.6823 30.3517 39.8033 29.8637 40.0506C29.3757 40.2953 28.9868 40.6636 28.6971 41.1555C28.4048 41.6475 28.2613 42.2604 28.2613 43.0023C28.2613 44.1046 28.5536 44.9622 29.1408 45.5778C29.728 46.1934 30.5031 46.5012 31.4635 46.5012C32.1759 46.5012 32.737 46.3644 33.1546 46.0882C33.5696 45.8146 33.8853 45.4436 34.0993 44.9754H31.6305C31.44 44.9754 31.286 44.8202 31.286 44.6281Z" fill="white"/>
<path d="M40.1384 36.7202H43.3667C43.5572 36.7202 43.7112 36.8754 43.7112 37.0675V40.6795C43.7112 40.8715 43.8651 41.0267 44.0556 41.0267H47.8189C48.0094 41.0267 48.1634 40.8715 48.1634 40.6795V37.0675C48.1634 36.8754 48.3174 36.7202 48.5079 36.7202H51.7362C51.9267 36.7202 52.0806 36.8754 52.0806 37.0675V48.9348C52.0806 49.1268 51.9267 49.282 51.7362 49.282H48.5079C48.3174 49.282 48.1634 49.1268 48.1634 48.9348V44.8729C48.1634 44.6809 48.0094 44.5256 47.8189 44.5256H44.0556C43.8651 44.5256 43.7112 44.6809 43.7112 44.8729V48.9348C43.7112 49.1268 43.5572 49.282 43.3667 49.282H40.1384C39.9479 49.282 39.7939 49.1268 39.7939 48.9348V37.0675C39.7939 36.8754 39.9479 36.7202 40.1384 36.7202Z" fill="white"/>
<path d="M53.3255 39.8745V37.0675C53.3255 36.8754 53.4795 36.7202 53.67 36.7202H64.0203C64.2108 36.7202 64.3648 36.8754 64.3648 37.0675V39.8745C64.3648 40.0665 64.2108 40.2217 64.0203 40.2217H61.1469C60.9564 40.2217 60.8024 40.377 60.8024 40.569V48.9374C60.8024 49.1295 60.6485 49.2847 60.4579 49.2847H57.2297C57.0392 49.2847 56.8852 49.1295 56.8852 48.9374V40.569C56.8852 40.377 56.7312 40.2217 56.5407 40.2217H53.6674C53.4768 40.2217 53.3229 40.0665 53.3229 39.8745H53.3255Z" fill="white"/>
<path d="M73.478 36.7202H77.1969C77.4631 36.7202 77.6276 37.0122 77.4918 37.2437L73.3632 44.2652C73.3319 44.3178 73.3162 44.381 73.3162 44.4415V48.9348C73.3162 49.1268 73.1623 49.282 72.9717 49.282H69.6521C69.4616 49.282 69.3076 49.1268 69.3076 48.9348V44.4783C69.3076 44.4152 69.292 44.3546 69.2607 44.302L65.1138 37.2464C64.9781 37.0149 65.1425 36.7228 65.4087 36.7228H69.1302C69.2607 36.7228 69.3807 36.7991 69.4381 36.9175L70.9936 40.1376C71.1188 40.398 71.4868 40.398 71.6121 40.1376L73.1675 36.9175C73.2249 36.7991 73.3449 36.7228 73.4754 36.7228L73.478 36.7202Z" fill="white"/>
<path d="M91.5899 45.9611H87.2055C87.015 45.9611 86.861 45.8058 86.861 45.6138V37.0665C86.861 36.8745 86.7071 36.7192 86.5166 36.7192H83.2883C83.0978 36.7192 82.9438 36.8745 82.9438 37.0665V48.9338C82.9438 49.1258 83.0978 49.2811 83.2883 49.2811H91.5899C91.7804 49.2811 91.9344 49.1258 91.9344 48.9338V46.3083C91.9344 46.1163 91.7804 45.9611 91.5899 45.9611Z" fill="white"/>
<path d="M91.5899 45.9611H87.2055C87.015 45.9611 86.861 45.8058 86.861 45.6138V37.0665C86.861 36.8745 86.7071 36.7192 86.5166 36.7192H83.2883C83.0978 36.7192 82.9438 36.8745 82.9438 37.0665V48.9338C82.9438 49.1258 83.0978 49.2811 83.2883 49.2811H91.5899C91.7804 49.2811 91.9344 49.1258 91.9344 48.9338V46.3083C91.9344 46.1163 91.7804 45.9611 91.5899 45.9611Z" fill="url(#paint0_linear_429_4277)"/>
<path d="M103.715 36.7192H100.487C100.296 36.7192 100.142 36.8745 100.142 37.0665V44.7956C100.142 45.2981 100.014 45.7085 99.7585 46.0242C99.5027 46.3425 99.1086 46.5004 98.5762 46.5004C98.0439 46.5004 97.6472 46.3425 97.3914 46.0242C97.1357 45.7085 97.0078 45.2981 97.0078 44.7956V37.0665C97.0078 36.8745 96.8538 36.7192 96.6633 36.7192H93.435C93.2445 36.7192 93.0905 36.8745 93.0905 37.0665V45.1534C93.0905 46.0505 93.2367 46.8082 93.5264 47.4238C93.8187 48.0393 94.2179 48.5366 94.7295 48.9128C95.241 49.289 95.8256 49.5652 96.4832 49.7388C97.1409 49.9124 97.8403 49.9993 98.5762 49.9993C99.3122 49.9993 100.009 49.9124 100.667 49.7388C101.324 49.5652 101.909 49.289 102.42 48.9128C102.932 48.5366 103.331 48.0393 103.624 47.4238C103.916 46.8082 104.059 46.0505 104.059 45.1534V37.0665C104.059 36.8745 103.905 36.7192 103.715 36.7192Z" fill="white"/>
<path d="M103.715 36.7192H100.487C100.296 36.7192 100.142 36.8745 100.142 37.0665V44.7956C100.142 45.2981 100.014 45.7085 99.7585 46.0242C99.5027 46.3425 99.1086 46.5004 98.5762 46.5004C98.0439 46.5004 97.6472 46.3425 97.3914 46.0242C97.1357 45.7085 97.0078 45.2981 97.0078 44.7956V37.0665C97.0078 36.8745 96.8538 36.7192 96.6633 36.7192H93.435C93.2445 36.7192 93.0905 36.8745 93.0905 37.0665V45.1534C93.0905 46.0505 93.2367 46.8082 93.5264 47.4238C93.8187 48.0393 94.2179 48.5366 94.7295 48.9128C95.241 49.289 95.8256 49.5652 96.4832 49.7388C97.1409 49.9124 97.8403 49.9993 98.5762 49.9993C99.3122 49.9993 100.009 49.9124 100.667 49.7388C101.324 49.5652 101.909 49.289 102.42 48.9128C102.932 48.5366 103.331 48.0393 103.624 47.4238C103.916 46.8082 104.059 46.0505 104.059 45.1534V37.0665C104.059 36.8745 103.905 36.7192 103.715 36.7192Z" fill="url(#paint1_linear_429_4277)"/>
<path d="M115.192 36.7014C114.616 36.4751 113.872 36.3594 112.958 36.3594C111.51 36.3594 110.247 36.633 109.167 37.1854C108.086 37.7353 107.246 38.5087 106.648 39.5005C106.048 40.4949 105.748 41.6603 105.748 42.9994C105.748 44.3384 106.048 45.5065 106.648 46.4983C107.248 47.4927 108.089 48.2635 109.167 48.8133C110.244 49.3632 111.51 49.6394 112.958 49.6394C113.872 49.6394 114.618 49.5236 115.192 49.2895C115.707 49.0817 116.184 48.8318 116.628 48.5424C116.727 48.4766 116.784 48.3635 116.784 48.2451V44.7909C116.784 44.4279 116.229 44.8751 115.902 45.1092C115.576 45.3407 115.198 45.5381 114.772 45.6906C114.344 45.8458 113.835 45.9248 113.24 45.9248C112.645 45.9248 112.129 45.8169 111.648 45.6012C111.168 45.3881 110.782 45.0619 110.49 44.6252C110.2 44.1885 110.054 43.6465 110.054 42.9994C110.054 42.3522 110.197 41.8129 110.49 41.3736C110.779 40.9369 111.168 40.6107 111.648 40.3976C112.129 40.1818 112.658 40.074 113.24 40.074C113.822 40.074 114.344 40.1503 114.772 40.2976C115.2 40.4476 115.576 40.6422 115.902 40.8816C116.229 41.121 116.784 41.584 116.784 41.221V37.751C116.784 37.6327 116.727 37.5222 116.63 37.4564C116.187 37.1565 115.707 36.9039 115.19 36.7014H115.192Z" fill="white"/>
<path d="M115.192 36.7014C114.616 36.4751 113.872 36.3594 112.958 36.3594C111.51 36.3594 110.247 36.633 109.167 37.1854C108.086 37.7353 107.246 38.5087 106.648 39.5005C106.048 40.4949 105.748 41.6603 105.748 42.9994C105.748 44.3384 106.048 45.5065 106.648 46.4983C107.248 47.4927 108.089 48.2635 109.167 48.8133C110.244 49.3632 111.51 49.6394 112.958 49.6394C113.872 49.6394 114.618 49.5236 115.192 49.2895C115.707 49.0817 116.184 48.8318 116.628 48.5424C116.727 48.4766 116.784 48.3635 116.784 48.2451V44.7909C116.784 44.4279 116.229 44.8751 115.902 45.1092C115.576 45.3407 115.198 45.5381 114.772 45.6906C114.344 45.8458 113.835 45.9248 113.24 45.9248C112.645 45.9248 112.129 45.8169 111.648 45.6012C111.168 45.3881 110.782 45.0619 110.49 44.6252C110.2 44.1885 110.054 43.6465 110.054 42.9994C110.054 42.3522 110.197 41.8129 110.49 41.3736C110.779 40.9369 111.168 40.6107 111.648 40.3976C112.129 40.1818 112.658 40.074 113.24 40.074C113.822 40.074 114.344 40.1503 114.772 40.2976C115.2 40.4476 115.576 40.6422 115.902 40.8816C116.229 41.121 116.784 41.584 116.784 41.221V37.751C116.784 37.6327 116.727 37.5222 116.63 37.4564C116.187 37.1565 115.707 36.9039 115.19 36.7014H115.192Z" fill="url(#paint2_linear_429_4277)"/>
<path d="M131.415 48.7241L126.887 42.8286C126.788 42.6997 126.79 42.5208 126.895 42.3945L131.109 37.2909C131.297 37.0647 131.136 36.7227 130.846 36.7227H127.184C127.093 36.7674 127.012 36.8042 126.921 36.8489L123.805 40.6319C123.599 40.8819 123.197 40.7345 123.197 40.411V37.0699C123.197 36.8779 123.043 36.7227 122.852 36.7227H119.446C119.256 36.7227 119.102 36.8779 119.102 37.0699V48.9372C119.102 49.1293 119.256 49.2845 119.446 49.2845H122.852C123.043 49.2845 123.197 49.1293 123.197 48.9372V45.2016C123.197 44.8701 123.612 44.728 123.813 44.9885L127.009 49.1503C127.106 49.1977 127.187 49.2371 127.281 49.2845H131.146C131.43 49.2845 131.592 48.953 131.417 48.7268L131.415 48.7241Z" fill="white"/>
<path d="M131.415 48.7241L126.887 42.8286C126.788 42.6997 126.79 42.5208 126.895 42.3945L131.109 37.2909C131.297 37.0647 131.136 36.7227 130.846 36.7227H127.184C127.093 36.7674 127.012 36.8042 126.921 36.8489L123.805 40.6319C123.599 40.8819 123.197 40.7345 123.197 40.411V37.0699C123.197 36.8779 123.043 36.7227 122.852 36.7227H119.446C119.256 36.7227 119.102 36.8779 119.102 37.0699V48.9372C119.102 49.1293 119.256 49.2845 119.446 49.2845H122.852C123.043 49.2845 123.197 49.1293 123.197 48.9372V45.2016C123.197 44.8701 123.612 44.728 123.813 44.9885L127.009 49.1503C127.106 49.1977 127.187 49.2371 127.281 49.2845H131.146C131.43 49.2845 131.592 48.953 131.417 48.7268L131.415 48.7241Z" fill="url(#paint3_linear_429_4277)"/>
<path d="M81.6519 7.13433L73.1336 10.6306C72.8727 10.7385 72.5751 10.6359 72.4316 10.3912L66.7293 0.281229C66.5075 -0.100229 65.9542 -0.0923369 65.7454 0.297014L59.7665 10.4175C59.6281 10.6753 59.315 10.7858 59.0462 10.6701L50.8437 7.13433C50.4001 6.94228 49.9381 7.36583 50.0817 7.82885L54.9306 23.395C55.0037 23.6318 55.2229 23.7949 55.4708 23.7949L76.2288 23.8001C76.4663 23.8001 76.6777 23.6502 76.7612 23.4266L82.3983 7.85778C82.5653 7.39214 82.1086 6.94755 81.6545 7.13433H81.6519ZM69.7096 14.6819L65.6541 21.9165C65.5967 22.0191 65.4453 21.9796 65.4401 21.8639L65.2757 17.4837H63.8586V17.4679C63.822 17.4732 63.7855 17.4837 63.7463 17.4837H60.8051C60.719 17.4837 60.6642 17.389 60.7034 17.3127L65.0747 9.14948C65.2287 8.88114 65.5105 8.71804 65.8159 8.71804H68.7571C68.8432 8.71804 68.898 8.81275 68.8589 8.88904L65.8472 14.5109H69.6079C69.6966 14.5109 69.7514 14.6057 69.707 14.6846L69.7096 14.6819Z" fill="white"/>
<path d="M81.6519 7.13433L73.1336 10.6306C72.8727 10.7385 72.5751 10.6359 72.4316 10.3912L66.7293 0.281229C66.5075 -0.100229 65.9542 -0.0923369 65.7454 0.297014L59.7665 10.4175C59.6281 10.6753 59.315 10.7858 59.0462 10.6701L50.8437 7.13433C50.4001 6.94228 49.9381 7.36583 50.0817 7.82885L54.9306 23.395C55.0037 23.6318 55.2229 23.7949 55.4708 23.7949L76.2288 23.8001C76.4663 23.8001 76.6777 23.6502 76.7612 23.4266L82.3983 7.85778C82.5653 7.39214 82.1086 6.94755 81.6545 7.13433H81.6519ZM69.7096 14.6819L65.6541 21.9165C65.5967 22.0191 65.4453 21.9796 65.4401 21.8639L65.2757 17.4837H63.8586V17.4679C63.822 17.4732 63.7855 17.4837 63.7463 17.4837H60.8051C60.719 17.4837 60.6642 17.389 60.7034 17.3127L65.0747 9.14948C65.2287 8.88114 65.5105 8.71804 65.8159 8.71804H68.7571C68.8432 8.71804 68.898 8.81275 68.8589 8.88904L65.8472 14.5109H69.6079C69.6966 14.5109 69.7514 14.6057 69.707 14.6846L69.7096 14.6819Z" fill="url(#paint4_linear_429_4277)"/>
<defs>
<linearGradient id="paint0_linear_429_4277" x1="84.023" y1="43.0008" x2="90.7369" y2="43.0008" gradientUnits="userSpaceOnUse">
<stop stop-color="#FFD85A"/>
<stop offset="1" stop-color="#FFB800"/>
</linearGradient>
<linearGradient id="paint1_linear_429_4277" x1="94.4072" y1="43.3599" x2="102.598" y2="43.3599" gradientUnits="userSpaceOnUse">
<stop stop-color="#FFD85A"/>
<stop offset="1" stop-color="#FFB800"/>
</linearGradient>
<linearGradient id="paint2_linear_429_4277" x1="107.072" y1="43" x2="115.314" y2="43" gradientUnits="userSpaceOnUse">
<stop stop-color="#FFD85A"/>
<stop offset="1" stop-color="#FFB800"/>
</linearGradient>
<linearGradient id="paint3_linear_429_4277" x1="120.589" y1="43.0042" x2="129.84" y2="43.0042" gradientUnits="userSpaceOnUse">
<stop stop-color="#FFD85A"/>
<stop offset="1" stop-color="#FFB800"/>
</linearGradient>
<linearGradient id="paint4_linear_429_4277" x1="53.9415" y1="11.9012" x2="78.1209" y2="11.9012" gradientUnits="userSpaceOnUse">
<stop stop-color="#FFD85A"/>
<stop offset="1" stop-color="#FFB800"/>
</linearGradient>
</defs>
</svg>
