<svg width="20" height="16" viewBox="0 0 20 16" fill="none" xmlns="http://www.w3.org/2000/svg">
<path d="M0.483243 6.71594C0.173807 7.02576 0 7.44574 0 7.88362C0 8.3215 0.173807 8.74148 0.483243 9.0513L6.7138 15.2841C6.86729 15.4375 7.0495 15.5593 7.25004 15.6424C7.45058 15.7254 7.66552 15.7682 7.88258 15.7682C8.09964 15.7682 8.31458 15.7254 8.51512 15.6424C8.71566 15.5593 8.89787 15.4375 9.05136 15.2841C9.20485 15.1306 9.3266 14.9484 9.40966 14.7478C9.49273 14.5473 9.53548 14.3323 9.53548 14.1153C9.53548 13.8982 9.49273 13.6833 9.40966 13.4827C9.3266 13.2822 9.20485 13.1 9.05136 12.9465L5.64086 9.536H18.3476C18.7859 9.536 19.2061 9.36191 19.516 9.05203C19.8259 8.74215 20 8.32186 20 7.88362C20 7.44539 19.8259 7.0251 19.516 6.71522C19.2061 6.40534 18.7859 6.23125 18.3476 6.23125H5.64086L9.05136 2.82074C9.36119 2.51076 9.5352 2.0904 9.5351 1.65213C9.53499 1.21385 9.36079 0.793569 9.05081 0.483735C8.74083 0.173901 8.32047 -0.000103248 7.88219 4.59619e-08C7.44392 0.000103339 7.02363 0.174306 6.7138 0.484286L0.483243 6.71594Z" fill="#D2DCF7"/>
</svg>
