<svg width="14" height="16" viewBox="0 0 14 16" fill="none" xmlns="http://www.w3.org/2000/svg">
<path d="M5.83375 0.293344C5.94091 0.229046 6.14453 0.139743 6.28027 0.0897327C6.46959 0.0218622 6.6089 0.000429465 6.85181 0.000429465C7.109 -0.00314267 7.22688 0.014718 7.44121 0.0861606C7.58767 0.13617 7.79128 0.221902 7.88772 0.275483C7.98774 0.329065 8.18064 0.482667 8.31995 0.62198C8.45569 0.761293 8.62716 0.968477 8.69503 1.08636C8.76647 1.20424 8.86292 1.39713 8.99508 1.73648L9.33444 1.9008C9.52019 1.99011 9.79524 2.14371 9.9417 2.24015C10.0882 2.3366 10.3132 2.50092 10.4418 2.61166C10.5704 2.71882 10.7776 2.93315 10.9026 3.09032C11.0276 3.24392 11.1705 3.43682 11.2205 3.51541C11.2705 3.59399 11.3741 3.78689 11.4527 3.94406C11.5313 4.10123 11.642 4.36557 11.6992 4.53346C11.7528 4.70135 11.8314 4.99784 11.8706 5.19431C11.9099 5.39077 11.9564 5.71941 11.9778 5.92659C11.9992 6.13378 12.0135 6.541 12.0135 6.83749C12.0135 7.1304 12.0314 7.5662 12.0493 7.80196C12.0707 8.03772 12.1136 8.38422 12.1421 8.56997C12.1743 8.75572 12.2386 9.03792 12.2886 9.19509C12.3386 9.35227 12.435 9.5916 12.5065 9.73091C12.5744 9.87022 12.6922 10.0703 12.7637 10.1774C12.8387 10.2846 13.0459 10.5596 13.2281 10.7847C13.4102 11.0097 13.5817 11.2384 13.6067 11.2955C13.6353 11.3491 13.6781 11.492 13.7067 11.6134C13.7496 11.8099 13.7496 11.8706 13.7067 12.0707C13.6781 12.1993 13.6103 12.3814 13.5567 12.4779C13.5031 12.5743 13.3817 12.7244 13.2816 12.8101C13.1852 12.8958 13.0137 13.003 12.7101 13.1244H1.02923L0.832767 13.0458C0.725604 13.003 0.557713 12.8958 0.457694 12.8101C0.361246 12.7244 0.236222 12.5743 0.18264 12.4779C0.129058 12.3814 0.0647594 12.1993 0.0326103 12.0707C-0.0102553 11.8742 -0.0102553 11.8063 0.0290381 11.6241C0.054043 11.5063 0.0969086 11.3598 0.125486 11.3026C0.157635 11.2455 0.329097 11.0097 0.511276 10.7847C0.693454 10.5596 0.900638 10.2846 0.975653 10.1774C1.0471 10.0703 1.1614 9.87737 1.2257 9.74877C1.29 9.62018 1.3793 9.41299 1.42217 9.2844C1.46503 9.1558 1.52933 8.92361 1.55791 8.76644C1.59006 8.60926 1.63292 8.34493 1.65436 8.17704C1.67579 8.00914 1.70794 7.40546 1.7258 6.83749C1.74723 6.21951 1.78295 5.66583 1.8151 5.46222C1.84725 5.27647 1.90441 4.99427 1.9437 4.83709C1.98657 4.67992 2.07587 4.40487 2.14731 4.22983C2.21875 4.0548 2.35449 3.77974 2.45094 3.62257C2.54739 3.4654 2.71528 3.22606 2.82602 3.09032C2.93675 2.95458 3.17608 2.71882 3.35469 2.57236C3.53687 2.42233 3.80835 2.22587 3.96195 2.13299C4.11913 2.04012 4.35846 1.91509 4.4942 1.85436C4.74276 1.74784 4.74424 1.74368 4.82144 1.52608L4.82284 1.52216C4.86927 1.4007 4.98358 1.17923 5.08003 1.03278C5.17291 0.886318 5.3408 0.682706 5.44439 0.586259C5.55155 0.486239 5.72659 0.357643 5.83375 0.293344Z" fill="#D2DCF7"/>
<path d="M4.32631 14.4175C4.32274 14.3925 4.3406 14.3532 4.36918 14.3282C4.40847 14.2961 5.01573 14.2854 6.8661 14.2854C8.79862 14.2854 9.32729 14.2925 9.36301 14.3282C9.38802 14.3532 9.40588 14.3961 9.40588 14.4175C9.40588 14.4426 9.33444 14.5711 9.25228 14.7033C9.16655 14.8391 9.00223 15.0391 8.88435 15.157C8.77004 15.2713 8.57715 15.432 8.45927 15.5106C8.34138 15.5928 8.14135 15.6999 8.01275 15.7535C7.88415 15.8071 7.65554 15.8857 7.50551 15.925C7.31261 15.9786 7.11614 16 6.86967 16C6.62676 16 6.42672 15.9786 6.24454 15.9286C6.09809 15.8893 5.88376 15.8214 5.77302 15.775C5.65872 15.7285 5.45153 15.6178 5.31579 15.5285C5.18005 15.4392 4.96929 15.2713 4.85499 15.157C4.73711 15.0391 4.57279 14.8391 4.48706 14.7033C4.4049 14.5711 4.32988 14.4426 4.32631 14.4175Z" fill="#D2DCF7"/>
</svg>
