<svg width="181" height="25" viewBox="0 0 181 25" fill="none" xmlns="http://www.w3.org/2000/svg">
<path d="M48.2366 19.5397L47.7141 23.6896C47.6922 23.8701 47.539 24.0041 47.3557 24.0041H43.7202C43.4959 24.0041 43.3263 23.8017 43.3645 23.5801L45.5803 11.0595C45.635 10.7559 46.018 10.6547 46.215 10.8927L51.2238 17.0011C51.3688 17.1762 51.6368 17.1762 51.7818 17.0011L56.7906 10.8927C56.9848 10.6547 57.3705 10.7559 57.4252 11.0595L59.641 23.5801C59.6793 23.8017 59.5097 24.0041 59.2854 24.0041H55.6471C55.4666 24.0041 55.3134 23.8701 55.2888 23.6896L54.7663 19.5397C54.7253 19.2197 54.3177 19.1103 54.1234 19.3647L51.7928 22.4148C51.6478 22.6035 51.3633 22.6035 51.221 22.4148L48.8876 19.3647C48.6907 19.1075 48.2831 19.2197 48.2448 19.5397H48.2366Z" fill="white"/>
<path d="M61.936 10.9419H65.4129C65.6126 10.9419 65.774 11.1033 65.774 11.303V23.643C65.774 23.8427 65.6126 24.0041 65.4129 24.0041H61.936C61.7364 24.0041 61.575 23.8427 61.575 23.643V11.303C61.575 11.1033 61.7364 10.9419 61.936 10.9419Z" fill="white"/>
<path d="M75.1078 19.165V16.8999C75.1078 16.7002 75.2692 16.5388 75.4689 16.5388H81.7059C81.8974 16.5388 82.0643 16.692 82.0752 16.8863C82.1299 17.8765 82.0396 18.8066 81.7989 19.6738C81.5308 20.6449 81.0986 21.4957 80.5023 22.2315C79.9059 22.9646 79.1536 23.5391 78.2454 23.9494C77.3372 24.3598 76.2923 24.5649 75.1105 24.5649C73.6552 24.5649 72.3668 24.2695 71.2479 23.6786C70.1291 23.0877 69.2482 22.2589 68.6081 21.1975C67.968 20.1334 67.6479 18.8941 67.6479 17.4744C67.6479 16.4048 67.8422 15.4446 68.2251 14.5911C68.6109 13.7376 69.1498 13.0127 69.8391 12.4164C70.5285 11.82 71.3382 11.3632 72.2656 11.0459C73.1929 10.7285 74.2023 10.5699 75.2965 10.5699C76.2895 10.5699 77.1704 10.7203 77.9363 11.0185C78.7023 11.3167 79.3725 11.7133 79.9497 12.203C80.4093 12.5942 80.8251 13.0209 81.1944 13.486C81.3393 13.6693 81.2655 13.9455 81.0521 14.0413L77.6464 15.5705C77.4248 15.1601 77.1321 14.799 76.7683 14.4899C76.4072 14.1781 75.9148 14.0221 75.2965 14.0221C74.6783 14.0221 74.1285 14.148 73.6169 14.4051C73.1054 14.6595 72.6978 15.0425 72.3941 15.554C72.0877 16.0656 71.9373 16.703 71.9373 17.4744C71.9373 18.6206 72.2437 19.5124 72.8592 20.1525C73.4747 20.7926 74.2871 21.1127 75.2938 21.1127C76.0406 21.1127 76.6287 20.9704 77.0664 20.6832C77.5014 20.3987 77.8324 20.013 78.0567 19.5261H75.4689C75.2692 19.5261 75.1078 19.3647 75.1078 19.165Z" fill="white"/>
<path d="M84.384 10.9419H87.7679C87.9676 10.9419 88.129 11.1033 88.129 11.303V15.0589C88.129 15.2586 88.2904 15.42 88.4901 15.42H92.4348C92.6344 15.42 92.7958 15.2586 92.7958 15.0589V11.303C92.7958 11.1033 92.9572 10.9419 93.1569 10.9419H96.5408C96.7405 10.9419 96.9019 11.1033 96.9019 11.303V23.643C96.9019 23.8427 96.7405 24.0041 96.5408 24.0041H93.1569C92.9572 24.0041 92.7958 23.8427 92.7958 23.643V19.4193C92.7958 19.2197 92.6344 19.0583 92.4348 19.0583H88.4901C88.2904 19.0583 88.129 19.2197 88.129 19.4193V23.643C88.129 23.8427 87.9676 24.0041 87.7679 24.0041H84.384C84.1843 24.0041 84.0229 23.8427 84.0229 23.643V11.303C84.0229 11.1033 84.1843 10.9419 84.384 10.9419Z" fill="white"/>
<path d="M98.2066 14.2191V11.3002C98.2066 11.1005 98.368 10.9391 98.5677 10.9391H109.417C109.617 10.9391 109.778 11.1005 109.778 11.3002V14.2191C109.778 14.4188 109.617 14.5802 109.417 14.5802H106.405C106.205 14.5802 106.044 14.7416 106.044 14.9412V23.643C106.044 23.8427 105.883 24.0041 105.683 24.0041H102.299C102.099 24.0041 101.938 23.8427 101.938 23.643V14.9412C101.938 14.7416 101.776 14.5802 101.577 14.5802H98.565C98.3653 14.5802 98.2039 14.4188 98.2039 14.2191H98.2066Z" fill="white"/>
<path d="M119.331 10.9419H123.229C123.508 10.9419 123.68 11.2455 123.538 11.4863L119.21 18.7874C119.177 18.8421 119.161 18.9078 119.161 18.9707V23.643C119.161 23.8427 119 24.0041 118.8 24.0041H115.32C115.121 24.0041 114.959 23.8427 114.959 23.643V19.009C114.959 18.9434 114.943 18.8804 114.91 18.8257L110.563 11.489C110.421 11.2483 110.593 10.9446 110.872 10.9446H114.773C114.91 10.9446 115.036 11.024 115.096 11.1471L116.726 14.4954C116.858 14.7662 117.243 14.7662 117.375 14.4954L119.005 11.1471C119.065 11.024 119.191 10.9446 119.328 10.9446L119.331 10.9419Z" fill="white"/>
<path d="M138.315 20.5519H133.72C133.52 20.5519 133.358 20.3905 133.358 20.1908V11.303C133.358 11.1033 133.197 10.9419 132.997 10.9419H129.614C129.414 10.9419 129.252 11.1033 129.252 11.303V23.643C129.252 23.8427 129.414 24.0041 129.614 24.0041H138.315C138.515 24.0041 138.676 23.8427 138.676 23.643V20.913C138.676 20.7133 138.515 20.5519 138.315 20.5519Z" fill="url(#paint0_linear_721_558)"/>
<path d="M151.025 10.9419H147.641C147.441 10.9419 147.28 11.1033 147.28 11.303V19.34C147.28 19.8625 147.146 20.2893 146.877 20.6175C146.609 20.9485 146.196 21.1126 145.638 21.1126C145.08 21.1126 144.664 20.9485 144.396 20.6175C144.128 20.2893 143.994 19.8625 143.994 19.34V11.303C143.994 11.1033 143.833 10.9419 143.633 10.9419H140.249C140.05 10.9419 139.888 11.1033 139.888 11.303V19.7121C139.888 20.6449 140.041 21.4327 140.345 22.0728C140.651 22.7129 141.07 23.23 141.606 23.6211C142.142 24.0123 142.755 24.2996 143.444 24.4801C144.134 24.6607 144.867 24.7509 145.638 24.7509C146.41 24.7509 147.14 24.6607 147.829 24.4801C148.519 24.2996 149.132 24.0123 149.668 23.6211C150.204 23.23 150.622 22.7129 150.929 22.0728C151.235 21.4327 151.386 20.6449 151.386 19.7121V11.303C151.386 11.1033 151.224 10.9419 151.025 10.9419Z" fill="url(#paint1_linear_721_558)"/>
<path d="M163.055 10.9228C162.451 10.6875 161.671 10.5671 160.714 10.5671C159.196 10.5671 157.872 10.8516 156.739 11.4261C155.607 11.9978 154.726 12.8021 154.099 13.8334C153.47 14.8674 153.156 16.0793 153.156 17.4717C153.156 18.864 153.47 20.0786 154.099 21.1099C154.728 22.144 155.609 22.9455 156.739 23.5172C157.869 24.0889 159.196 24.3762 160.714 24.3762C161.671 24.3762 162.454 24.2558 163.055 24.0123C163.594 23.7962 164.095 23.5364 164.56 23.2354C164.664 23.1671 164.724 23.0494 164.724 22.9263V19.3346C164.724 18.9571 164.141 19.4221 163.8 19.6656C163.458 19.9063 163.061 20.1115 162.615 20.2701C162.166 20.4315 161.633 20.5136 161.009 20.5136C160.386 20.5136 159.844 20.4014 159.341 20.1771C158.837 19.9555 158.432 19.6163 158.126 19.1622C157.822 18.7081 157.669 18.1446 157.669 17.4717C157.669 16.7987 157.82 16.2379 158.126 15.7811C158.43 15.327 158.837 14.9878 159.341 14.7662C159.844 14.5419 160.399 14.4297 161.009 14.4297C161.619 14.4297 162.166 14.5091 162.615 14.6622C163.064 14.8182 163.458 15.0206 163.8 15.2695C164.141 15.5185 164.724 15.9999 164.724 15.6224V12.0142C164.724 11.8911 164.664 11.7762 164.563 11.7079C164.098 11.396 163.594 11.1334 163.053 10.9228H163.055Z" fill="url(#paint2_linear_721_558)"/>
<path d="M180.06 23.4214L175.313 17.2911C175.21 17.1571 175.212 16.971 175.322 16.8397L179.74 11.5328C179.937 11.2975 179.767 10.9419 179.463 10.9419H175.625C175.53 10.9884 175.445 11.0267 175.349 11.0732L172.083 15.0069C171.867 15.2668 171.445 15.1136 171.445 14.7771V11.303C171.445 11.1033 171.284 10.9419 171.084 10.9419H167.514C167.315 10.9419 167.153 11.1033 167.153 11.303V23.643C167.153 23.8427 167.315 24.0041 167.514 24.0041H171.084C171.284 24.0041 171.445 23.8427 171.445 23.643V19.7586C171.445 19.4139 171.88 19.2662 172.091 19.537L175.442 23.8646C175.543 23.9138 175.628 23.9549 175.727 24.0041H179.778C180.076 24.0041 180.246 23.6594 180.062 23.4242L180.06 23.4214Z" fill="url(#paint3_linear_721_558)"/>
<path d="M33.1198 7.41853L24.191 11.0541C23.9175 11.1662 23.6056 11.0595 23.4552 10.8051L17.478 0.292432C17.2455 -0.104222 16.6655 -0.0960149 16.4467 0.308846L10.1796 10.8325C10.0346 11.1006 9.70631 11.2155 9.42455 11.0951L0.826733 7.41853C0.36169 7.21883 -0.122501 7.65925 0.027954 8.14071L5.1106 24.3269C5.18719 24.5731 5.41698 24.7427 5.67685 24.7427L27.4354 24.7482C27.6843 24.7482 27.9059 24.5923 27.9934 24.3598L33.9022 8.1708C34.0773 7.68661 33.5986 7.2243 33.1226 7.41853H33.1198ZM20.602 15.2668L16.351 22.7896C16.2908 22.8962 16.1321 22.8552 16.1266 22.7348L15.9543 18.1802H14.4689V18.1637C14.4306 18.1692 14.3923 18.1802 14.3513 18.1802H11.2683C11.178 18.1802 11.1206 18.0817 11.1616 18.0023L15.7437 9.51395C15.9051 9.23493 16.2005 9.06532 16.5206 9.06532H19.6035C19.6938 9.06532 19.7512 9.1638 19.7102 9.24313L16.5534 15.089H20.4953C20.5883 15.089 20.6458 15.1875 20.5993 15.2695L20.602 15.2668Z" fill="url(#paint4_linear_721_558)"/>
<defs>
<linearGradient id="paint0_linear_721_558" x1="130.384" y1="17.4737" x2="137.421" y2="17.4737" gradientUnits="userSpaceOnUse">
<stop stop-color="#FFD85A"/>
<stop offset="1" stop-color="#FFB800"/>
</linearGradient>
<linearGradient id="paint1_linear_721_558" x1="141.268" y1="17.8471" x2="149.854" y2="17.8471" gradientUnits="userSpaceOnUse">
<stop stop-color="#FFD85A"/>
<stop offset="1" stop-color="#FFB800"/>
</linearGradient>
<linearGradient id="paint2_linear_721_558" x1="154.544" y1="17.4723" x2="163.183" y2="17.4723" gradientUnits="userSpaceOnUse">
<stop stop-color="#FFD85A"/>
<stop offset="1" stop-color="#FFB800"/>
</linearGradient>
<linearGradient id="paint3_linear_721_558" x1="168.712" y1="17.4737" x2="178.409" y2="17.4737" gradientUnits="userSpaceOnUse">
<stop stop-color="#FFD85A"/>
<stop offset="1" stop-color="#FFB800"/>
</linearGradient>
<linearGradient id="paint4_linear_721_558" x1="4.07382" y1="12.3753" x2="29.4186" y2="12.3753" gradientUnits="userSpaceOnUse">
<stop stop-color="#FFD85A"/>
<stop offset="1" stop-color="#FFB800"/>
</linearGradient>
</defs>
</svg>
