<svg width="16" height="16" viewBox="0 0 16 16" fill="none" xmlns="http://www.w3.org/2000/svg">
<path fill-rule="evenodd" clip-rule="evenodd" d="M5.56062 0.0340211C4.17153 0.209513 2.8583 0.854746 1.86152 1.85153C-0.0244081 3.73746 -0.533254 6.59644 0.592316 8.98278C1.52242 10.9547 3.37731 12.3191 5.50751 12.5983C7.08812 12.8054 8.70657 12.3994 9.99856 11.4717C10.1521 11.3614 10.2888 11.2712 10.3023 11.2712C10.3158 11.2712 11.3609 12.3044 12.6248 13.5672C15.047 15.9872 15.0496 15.9895 15.3293 15.9904C15.4673 15.9908 15.7372 15.8774 15.8199 15.7842C15.91 15.6827 16 15.4504 16 15.3193C16 15.0401 15.9977 15.0375 13.5772 12.6148C12.3144 11.3509 11.2812 10.3072 11.2812 10.2955C11.2812 10.2838 11.3725 10.1451 11.4842 9.98741C12.2609 8.88997 12.6544 7.66572 12.656 6.34152C12.6581 4.62864 12.001 3.04421 10.7892 1.83968C9.83489 0.891132 8.65696 0.289913 7.31116 0.0644368C6.88662 -0.0067104 6.00429 -0.0220277 5.56062 0.0340211ZM7.06108 1.3785C8.48659 1.60745 9.70353 2.37803 10.4761 3.54099C11.0507 4.40595 11.3146 5.27094 11.3181 6.30085C11.3198 6.79682 11.2844 7.09735 11.1706 7.55209C10.7305 9.31048 9.32048 10.7205 7.56208 11.1606C7.10735 11.2744 6.80682 11.3098 6.31085 11.3081C5.28094 11.3046 4.41595 11.0407 3.55099 10.4661C2.17053 9.54902 1.34117 7.99479 1.34067 6.32395C1.34042 5.48344 1.51282 4.77919 1.90407 4.02223C2.53623 2.7992 3.65868 1.88879 5.01357 1.5001C5.58484 1.33624 6.47046 1.28363 7.06108 1.3785Z" fill="white"/>
</svg>
