<svg width="16" height="15" viewBox="0 0 16 15" fill="none" xmlns="http://www.w3.org/2000/svg">
<path fill-rule="evenodd" clip-rule="evenodd" d="M7.34375 0C7.9875 0 8.70625 0.0125 8.9375 0.03125C9.16875 0.05 9.6375 0.090625 9.97812 0.125C10.425 0.16875 10.6625 0.20625 10.8531 0.265625C10.9937 0.3125 11.1938 0.390625 11.2969 0.440625C11.4 0.49375 11.5813 0.6 11.7031 0.68125C11.8219 0.759375 12.0312 0.9375 12.1687 1.075C12.3031 1.2125 12.4969 1.45 12.6 1.60625C12.7 1.7625 12.8219 1.975 12.8687 2.08125C12.9156 2.19062 12.9469 2.28437 12.9375 2.29375C12.9281 2.30313 12.6062 2.29063 12.2188 2.2625C11.8313 2.2375 11.2125 2.2 10.8438 2.18438C10.475 2.16563 9.475 2.14375 8.625 2.13125C7.66875 2.12187 6.7125 2.12813 6.125 2.15C5.6 2.16875 4.89687 2.2 4.5625 2.21875C4.22813 2.23438 3.6875 2.26875 3.35938 2.29688C3.03437 2.32188 2.675 2.35625 2.5625 2.375C2.45 2.39062 2.275 2.42812 2.17188 2.45312C2.06875 2.48125 1.92188 2.525 1.84375 2.55C1.76562 2.575 1.57812 2.65937 1.42188 2.7375C1.26562 2.81562 1.07187 2.92812 0.984375 2.98438C0.9 3.04375 0.825 3.08125 0.81875 3.06875C0.8125 3.05312 0.834375 2.93125 0.86875 2.79375C0.903125 2.65625 0.971875 2.4375 1.02813 2.30938C1.08125 2.18125 1.20625 1.95 1.30625 1.79375C1.40937 1.6375 1.60625 1.39687 1.74688 1.25312C1.88438 1.1125 2.10313 0.925 2.22813 0.8375C2.35 0.75 2.55312 0.628125 2.67188 0.56875C2.79063 0.50625 2.99062 0.421875 3.10938 0.38125C3.22813 0.340625 3.55938 0.271875 3.84375 0.23125C4.12813 0.1875 4.64062 0.13125 4.98438 0.10625C5.32812 0.078125 5.7375 0.04375 5.89062 0.03125C6.04375 0.015625 6.7 0.003125 7.34375 0V0ZM7.8125 2.94062C8.525 2.9375 9.525 2.95 10.0312 2.96563C10.5375 2.98125 11.2344 3.0125 11.5781 3.02813C11.9219 3.04688 12.4781 3.08125 12.8125 3.10938C13.1469 3.13438 13.5125 3.175 13.625 3.19688C13.7375 3.22188 13.9406 3.28437 14.0781 3.33437C14.2156 3.3875 14.4406 3.50312 14.5781 3.59375C14.7156 3.68438 14.925 3.85 15.0437 3.9625C15.1594 4.075 15.3188 4.25312 15.3906 4.35625C15.4656 4.45937 15.5812 4.6625 15.65 4.80937C15.7188 4.95625 15.7969 5.175 15.8219 5.29375C15.85 5.41562 15.8875 5.68125 15.9062 5.8875C15.925 6.09375 15.9531 6.4 15.9688 6.56875C15.9875 6.73438 16 7.31875 16 7.86562C16 8.56875 15.9812 9.07812 15.9375 9.62187C15.9031 10.0437 15.8531 10.5562 15.8281 10.7625C15.8 10.9688 15.7594 11.2656 15.7344 11.4187C15.7094 11.5719 15.6594 11.7969 15.6219 11.9187C15.5875 12.0406 15.4937 12.2562 15.4187 12.4031C15.3438 12.55 15.1875 12.7875 15.0688 12.9344C14.95 13.0813 14.7375 13.2969 14.5906 13.4125C14.4469 13.5281 14.2094 13.6844 14.0625 13.7625C13.9156 13.8375 13.7094 13.9281 13.6 13.9625C13.4938 14 13.275 14.05 13.1187 14.075C12.9594 14.1 12.5906 14.1406 12.2969 14.1656C12.0031 14.1906 11.4219 14.2344 11 14.2594C10.5781 14.2844 9.95312 14.3219 9.60938 14.3438C9.21562 14.3656 8.49687 14.375 7.67188 14.3625C6.95 14.3562 5.99375 14.325 5.54688 14.2969C5.1 14.2719 4.45312 14.225 4.10938 14.1969C3.76562 14.1719 3.33125 14.1312 3.14062 14.1062C2.95312 14.0844 2.69688 14.0406 2.57812 14.0125C2.45937 13.9812 2.24062 13.9031 2.09375 13.8344C1.94687 13.7656 1.73125 13.6469 1.60938 13.5656C1.49063 13.4844 1.2875 13.3125 1.15625 13.1844C1.02813 13.0562 0.85625 12.8531 0.778125 12.7312C0.696875 12.6094 0.5875 12.425 0.534375 12.3188C0.48125 12.2094 0.403125 12 0.359375 11.85C0.31875 11.6969 0.25625 11.3781 0.221875 11.1375C0.1875 10.8969 0.1375 10.4688 0.1125 10.1844C0.084375 9.9 0.05 9.49688 0.03125 9.2875C0.015625 9.075 0 8.45625 0 7.9125C0 7.36562 0.0125 6.76562 0.03125 6.575C0.05 6.38437 0.078125 6.06875 0.096875 5.87187C0.115625 5.675 0.15 5.42188 0.175 5.30937C0.2 5.19687 0.25625 5.01562 0.303125 4.90312C0.346875 4.79062 0.45 4.6 0.525 4.48125C0.603125 4.3625 0.75 4.17188 0.85625 4.0625C0.9625 3.95312 1.125 3.80625 1.21875 3.73125C1.3125 3.65937 1.46875 3.55625 1.5625 3.50312C1.65625 3.45 1.85 3.3625 1.99375 3.30938C2.13438 3.25938 2.38125 3.19688 2.54063 3.17188C2.69688 3.14687 3.04063 3.1125 3.29688 3.09375C3.55625 3.075 4.075 3.04375 4.45312 3.025C4.83125 3.00625 5.45 2.98125 5.82812 2.96875C6.20625 2.95625 7.1 2.94062 7.8125 2.94062ZM12.7031 7.66563C12.6187 7.70937 12.4844 7.80938 12.4062 7.89375C12.3313 7.975 12.2375 8.11562 12.1969 8.2C12.1594 8.2875 12.1187 8.43437 12.1062 8.52812C12.0938 8.64687 12.1031 8.76562 12.1375 8.90312C12.1656 9.01562 12.2375 9.18125 12.2969 9.27188C12.3562 9.35938 12.4656 9.47812 12.5406 9.52812C12.6125 9.58125 12.75 9.65312 12.8438 9.6875C12.9812 9.74063 13.0656 9.75 13.2656 9.74063C13.4312 9.73125 13.5625 9.70312 13.6562 9.65938C13.7344 9.62187 13.8656 9.53438 13.95 9.45938C14.0437 9.375 14.1375 9.25 14.2 9.12187C14.2875 8.94063 14.2969 8.89062 14.2969 8.6375C14.2937 8.41562 14.2781 8.325 14.225 8.20938C14.1875 8.125 14.0906 7.9875 14.0094 7.9C13.925 7.8125 13.7969 7.70625 13.7188 7.66875C13.6406 7.62812 13.4937 7.58125 13.3906 7.5625C13.2875 7.54375 13.1906 7.52812 13.1719 7.53125C13.1531 7.53438 13.0781 7.54688 13 7.5625C12.9219 7.57812 12.7906 7.625 12.7031 7.66563Z" fill="#1A1404"/>
</svg>
