<svg width="16" height="16" viewBox="0 0 16 16" fill="none" xmlns="http://www.w3.org/2000/svg">
<path fill-rule="evenodd" clip-rule="evenodd" d="M7.95312 0.000448895C8.44063 -0.00267611 8.675 0.0098239 9.01562 0.0598239C9.25625 0.0973239 9.60625 0.159824 9.79688 0.203574C9.9875 0.244199 10.275 0.322324 10.4375 0.375449C10.6 0.428574 10.8875 0.534824 11.0781 0.612949C11.2688 0.687949 11.5625 0.825449 11.7344 0.919199C11.9062 1.00982 12.1938 1.1817 12.375 1.30045C12.5562 1.4192 12.8438 1.6317 13.0156 1.7692C13.1875 1.9067 13.475 2.16607 13.6531 2.3442C13.8313 2.52232 14.0906 2.80982 14.2281 2.9817C14.3656 3.15357 14.5594 3.41295 14.6562 3.55982C14.7563 3.7067 14.9125 3.96607 15.0094 4.13795C15.1062 4.30982 15.2531 4.61295 15.3375 4.80982C15.4219 5.0067 15.55 5.3442 15.6187 5.55982C15.6875 5.77545 15.7719 6.08482 15.8062 6.24732C15.8438 6.40982 15.9 6.7442 15.9344 6.99107C15.9812 7.30357 16 7.5942 16 7.97545C16 8.27857 15.9781 8.67545 15.9531 8.88795C15.925 9.0942 15.8687 9.4317 15.8281 9.63795C15.7875 9.8442 15.6937 10.1973 15.6219 10.4192C15.55 10.6411 15.4219 10.9879 15.3375 11.1848C15.2531 11.3817 15.1062 11.6848 15.0094 11.8567C14.9125 12.0286 14.7563 12.2879 14.6562 12.4348C14.5594 12.5817 14.3781 12.8286 14.2531 12.9817C14.1313 13.1348 13.8719 13.4223 13.6781 13.6192C13.4875 13.8129 13.1875 14.0879 13.0156 14.2254C12.8438 14.3629 12.55 14.5786 12.3594 14.7036C12.1687 14.8254 11.8687 15.0036 11.6875 15.1004C11.5063 15.1942 11.1906 15.3379 10.9844 15.4223C10.7781 15.5036 10.4563 15.6161 10.2656 15.6692C10.075 15.7254 9.80937 15.7942 9.67188 15.8223C9.53438 15.8504 9.23125 15.9004 9 15.9348C8.69375 15.9817 8.41875 15.9973 8 15.9973C7.575 15.9973 7.30625 15.9817 6.98438 15.9317C6.74375 15.8973 6.4125 15.8379 6.25 15.8036C6.0875 15.7692 5.77812 15.6848 5.5625 15.6161C5.34688 15.5473 5.01875 15.4223 4.82812 15.3442C4.6375 15.2629 4.3375 15.1129 4.15625 15.0129C3.975 14.9129 3.70937 14.7536 3.5625 14.6536C3.41563 14.5567 3.15625 14.3629 2.98438 14.2254C2.8125 14.0879 2.525 13.8286 2.34687 13.6504C2.16875 13.4723 1.90938 13.1848 1.77188 13.0129C1.63437 12.8411 1.44062 12.5817 1.34375 12.4348C1.24688 12.2879 1.09375 12.0411 1.00625 11.8879C0.91875 11.7348 0.78125 11.4598 0.703125 11.2786C0.621875 11.0973 0.496875 10.7754 0.421875 10.5598C0.35 10.3442 0.253125 10.0067 0.20625 9.80982C0.1625 9.61295 0.096875 9.24732 0.0625 8.99732C0.01875 8.68795 0 8.37545 0 8.01295C0 7.66607 0.01875 7.32545 0.059375 7.02857C0.09375 6.77857 0.15625 6.4067 0.203125 6.20045C0.25 5.9942 0.35 5.65045 0.421875 5.43482C0.496875 5.2192 0.621875 4.89732 0.703125 4.71607C0.78125 4.53482 0.91875 4.25982 1.00625 4.1067C1.09375 3.95045 1.24688 3.7067 1.34375 3.55982C1.44062 3.41295 1.63437 3.15357 1.77188 2.9817C1.90938 2.80982 2.16875 2.52232 2.34687 2.3442C2.525 2.16607 2.8125 1.9067 2.98438 1.7692C3.15625 1.6317 3.41563 1.43795 3.5625 1.34107C3.70937 1.24107 3.96875 1.08482 4.14062 0.987949C4.3125 0.891074 4.61562 0.744199 4.8125 0.659824C5.00938 0.575449 5.34688 0.447324 5.5625 0.378574C5.77812 0.309824 6.1 0.222324 6.28125 0.181699C6.4625 0.144199 6.77187 0.0879489 6.96875 0.0598239C7.20312 0.0254489 7.54375 0.00357389 7.95312 0.000448895ZM6.85938 2.34107C6.6875 2.37545 6.4125 2.45045 6.25 2.50357C6.0875 2.5567 5.81875 2.6567 5.65625 2.72857C5.49375 2.80045 5.23125 2.93482 5.07812 3.02545C4.925 3.1192 4.66875 3.28795 4.51562 3.4067C4.3625 3.52232 4.10313 3.74732 3.94062 3.9067C3.77813 4.0692 3.55938 4.31295 3.45312 4.45045C3.34375 4.58795 3.18125 4.8192 3.09063 4.96607C3 5.11295 2.85938 5.37232 2.77813 5.5442C2.69688 5.71607 2.5875 5.99107 2.53125 6.15357C2.475 6.31607 2.39688 6.60357 2.35625 6.7942C2.31562 6.98482 2.26875 7.33482 2.24688 7.57545C2.21875 7.91295 2.21875 8.10982 2.24688 8.43482C2.26875 8.66607 2.31875 9.00982 2.35625 9.20045C2.39688 9.39107 2.47187 9.66295 2.52187 9.80982C2.575 9.9567 2.65938 10.1817 2.7125 10.3098C2.76875 10.4379 2.88437 10.6723 2.975 10.8317C3.06562 10.9911 3.24688 11.2629 3.375 11.4379C3.50312 11.6129 3.75 11.8942 3.92188 12.0661C4.09375 12.2379 4.3625 12.4754 4.51562 12.5911C4.66875 12.7067 4.90938 12.8692 5.04688 12.9504C5.18437 13.0348 5.40938 13.1536 5.54688 13.2192C5.68437 13.2817 5.9375 13.3848 6.10938 13.4442C6.28125 13.5036 6.58437 13.5879 6.78125 13.6317C6.97813 13.6786 7.33125 13.7286 7.5625 13.7504C7.87813 13.7754 8.09375 13.7754 8.42188 13.7473C8.6625 13.7286 8.99375 13.6848 9.15625 13.6504C9.31875 13.6161 9.62187 13.5317 9.82812 13.4629C10.0344 13.3942 10.3313 13.2786 10.4844 13.2036C10.6375 13.1317 10.8625 13.0098 10.9844 12.9348C11.1062 12.8629 11.3313 12.7067 11.4844 12.5911C11.6375 12.4754 11.9031 12.2411 12.075 12.0723C12.2437 11.9004 12.475 11.6348 12.5938 11.4817C12.7094 11.3286 12.875 11.0817 12.9625 10.9348C13.05 10.7879 13.1687 10.5629 13.2281 10.4348C13.2906 10.3067 13.3875 10.0598 13.4469 9.88795C13.5062 9.71607 13.5906 9.41295 13.6344 9.21607C13.6812 9.0192 13.7312 8.67232 13.75 8.45045C13.7719 8.22857 13.7781 7.90982 13.7656 7.74732C13.7563 7.58482 13.7312 7.33795 13.7156 7.20045C13.6969 7.06295 13.6406 6.78795 13.5906 6.59107C13.5406 6.3942 13.4469 6.09107 13.3781 5.9192C13.3125 5.74732 13.2125 5.51607 13.1562 5.40357C13.1 5.29107 12.9969 5.10982 12.9281 4.99732C12.8563 4.88482 12.7063 4.66607 12.5906 4.51295C12.4781 4.35982 12.2437 4.0942 12.075 3.92232C11.9031 3.75357 11.6219 3.5067 11.4469 3.37545C11.2719 3.2442 11.0125 3.07232 10.8687 2.99107C10.725 2.90982 10.4812 2.78795 10.3281 2.7192C10.175 2.65357 9.91875 2.5567 9.76562 2.50357C9.6125 2.45357 9.3375 2.3817 9.15625 2.3442C8.975 2.30982 8.675 2.26607 8.48438 2.24732C8.29375 2.2317 8.05 2.2192 7.9375 2.2192C7.825 2.22232 7.60625 2.23795 7.45312 2.25045C7.3 2.26607 7.03125 2.3067 6.85938 2.34107ZM8.14062 3.17232C8.34688 3.17857 8.64375 3.2067 8.79688 3.2317C8.95 3.25982 9.19687 3.31295 9.34375 3.3567C9.49063 3.39732 9.72812 3.4817 9.875 3.54107C10.0219 3.60357 10.275 3.7317 10.4375 3.82857C10.6 3.92545 10.8469 4.09107 10.9844 4.20045C11.1219 4.3067 11.3406 4.5067 11.4688 4.64107C11.5969 4.77857 11.7688 4.97232 11.8469 5.07545C11.925 5.17857 12.0531 5.3692 12.1344 5.49732C12.2125 5.62545 12.3406 5.87232 12.4187 6.0442C12.4937 6.21607 12.5938 6.48482 12.6375 6.63795C12.6812 6.79107 12.7406 7.05357 12.7688 7.21607C12.8063 7.40982 12.8219 7.67857 12.8219 7.99732C12.8219 8.31607 12.8063 8.58482 12.7688 8.77857C12.7406 8.94107 12.6812 9.20357 12.6375 9.3567C12.5938 9.50982 12.4906 9.78482 12.4125 9.96607C12.3313 10.1473 12.1594 10.4567 12.0281 10.6536C11.8969 10.8504 11.6625 11.1442 11.5125 11.3067C11.3594 11.4692 11.1219 11.6879 10.9844 11.7973C10.8469 11.9036 10.6 12.0692 10.4375 12.1661C10.275 12.2629 10.0219 12.3911 9.875 12.4536C9.72812 12.5129 9.49063 12.5973 9.34375 12.6379C9.19687 12.6817 8.94375 12.7379 8.78125 12.7661C8.5875 12.8036 8.31875 12.8192 8 12.8192C7.68125 12.8192 7.4125 12.8036 7.21875 12.7661C7.05625 12.7379 6.79375 12.6786 6.64062 12.6348C6.4875 12.5911 6.2125 12.4879 6.03125 12.4098C5.85 12.3286 5.54063 12.1567 5.34375 12.0254C5.14687 11.8942 4.85938 11.6692 4.70625 11.5254C4.55313 11.3817 4.3375 11.1504 4.22813 11.0129C4.11875 10.8754 3.95625 10.6442 3.86562 10.4973C3.77812 10.3504 3.64688 10.0973 3.575 9.93482C3.50312 9.77232 3.40625 9.50982 3.3625 9.3567C3.31875 9.20357 3.25938 8.94107 3.23125 8.77857C3.19375 8.58482 3.17812 8.31607 3.17812 7.99732C3.17812 7.67857 3.19375 7.40982 3.23125 7.21607C3.25938 7.05357 3.31875 6.79107 3.3625 6.63795C3.40625 6.48482 3.50312 6.22232 3.575 6.05982C3.64688 5.89732 3.77188 5.65045 3.85625 5.51295C3.94062 5.37545 4.09688 5.15045 4.20312 5.01295C4.30937 4.87545 4.50938 4.6567 4.64375 4.52857C4.78125 4.40045 4.975 4.22857 5.07812 4.15045C5.18125 4.07232 5.37187 3.9442 5.5 3.86295C5.62813 3.78482 5.875 3.6567 6.04688 3.57857C6.21875 3.50357 6.47813 3.4067 6.625 3.36295C6.77187 3.32232 7.03125 3.26295 7.20312 3.23482C7.375 3.2067 7.57188 3.17857 7.64062 3.17232C7.70937 3.16607 7.93437 3.16607 8.14062 3.17232ZM7.50625 4.78482C7.40625 4.8817 7.35625 4.96607 7.32188 5.09107C7.29375 5.1942 7.28125 5.30982 7.29375 5.37857C7.30312 5.4442 7.33438 5.5442 7.3625 5.59732C7.39062 5.65357 7.44688 5.73482 7.4875 5.77857L7.55937 5.8567C6.84687 7.15045 6.62813 7.52545 6.60938 7.52545C6.59062 7.52545 6.4 7.4192 6.18125 7.28482L5.78438 7.0442C5.8125 6.80045 5.80313 6.67232 5.78438 6.59732C5.76562 6.52545 5.69688 6.40982 5.63125 6.33795C5.56875 6.26607 5.45937 6.17857 5.39062 6.1442C5.30937 6.10357 5.20312 6.0817 5.09375 6.0817C4.97188 6.07857 4.875 6.10357 4.76875 6.1567C4.68438 6.19732 4.57812 6.27232 4.5375 6.32545C4.49375 6.37545 4.4375 6.4692 4.4125 6.52857C4.3875 6.58795 4.36562 6.71607 4.36562 6.80982C4.36562 6.92232 4.3875 7.02545 4.42812 7.1067C4.4625 7.17545 4.55 7.28482 4.62187 7.34732C4.69062 7.41295 4.80312 7.47857 4.86875 7.49732C4.93125 7.51295 5.02187 7.52857 5.07188 7.52857C5.11875 7.52857 5.15625 7.5317 5.15625 7.53482C5.15625 7.54107 5.34062 8.24107 5.5625 9.09107C5.7875 9.94107 5.98438 10.6911 6 10.7536L6.03125 10.8723C9.87813 10.8723 10 10.8692 10.0156 10.8161C10.0219 10.7879 10.2188 10.0411 10.4531 9.15982C10.6844 8.2817 10.875 7.55357 10.875 7.5442C10.875 7.53482 10.9062 7.52857 10.9469 7.52857C10.9844 7.52857 11.0687 7.51295 11.1344 7.49732C11.1969 7.47857 11.3094 7.41295 11.3781 7.34732C11.45 7.28482 11.5375 7.17545 11.5719 7.1067C11.6125 7.02545 11.6344 6.92232 11.6344 6.80982C11.6344 6.71607 11.6125 6.58795 11.5875 6.52857C11.5625 6.4692 11.5062 6.37857 11.4625 6.32545C11.4219 6.27232 11.3156 6.19732 11.2312 6.1567C11.125 6.10357 11.0281 6.07857 10.9062 6.0817C10.7969 6.0817 10.6906 6.10357 10.6094 6.1442C10.5406 6.17857 10.4312 6.26607 10.3687 6.33795C10.3 6.40982 10.2344 6.52545 10.2156 6.59732C10.1969 6.67232 10.1875 6.8067 10.1938 6.90045L10.2031 7.07232C9.59688 7.4317 9.4125 7.52232 9.4 7.50982C9.3875 7.4942 9.17188 7.11607 8.925 6.6692L8.475 5.8567C8.64688 5.6567 8.7 5.54732 8.72188 5.45045C8.75 5.33482 8.75 5.25357 8.72188 5.13795C8.70312 5.05045 8.65312 4.9317 8.60625 4.87232C8.5625 4.81295 8.48125 4.7317 8.42813 4.69107C8.37188 4.65357 8.27812 4.6067 8.21875 4.59107C8.15938 4.57232 8.05937 4.55982 8 4.56295C7.94063 4.56295 7.83437 4.58482 7.76562 4.6067C7.69688 4.6317 7.58125 4.70982 7.50625 4.78482ZM8.05313 7.0442C8.075 7.07857 8.30937 7.49107 8.57187 7.96295C8.83437 8.4317 9.05625 8.82232 9.06875 8.82857C9.08438 8.83482 9.2125 8.76607 9.35938 8.67545C9.50625 8.58795 9.63125 8.5192 9.6375 8.52857C9.64375 8.53795 9.575 8.8192 9.48438 9.15357C9.39688 9.48795 9.3125 9.80045 9.28125 9.93482H6.75L6.70312 9.73795C6.675 9.6317 6.59375 9.3192 6.51875 9.0442C6.44375 8.7692 6.39062 8.53795 6.39375 8.52857C6.4 8.5192 6.525 8.58795 6.67188 8.67545C6.81875 8.76607 6.94688 8.84107 6.95937 8.84107C6.975 8.84107 7.17188 8.49732 7.4 8.0817C7.62813 7.66607 7.85625 7.24732 7.90938 7.15357C8.00313 6.99107 8.00938 6.98482 8.05313 7.0442Z" fill="#A5B8EF"/>
</svg>
