<svg width="16" height="16" viewBox="0 0 16 16" fill="none" xmlns="http://www.w3.org/2000/svg">
<path fill-rule="evenodd" clip-rule="evenodd" d="M14.0763 0.000390943C14.4297 -0.0027366 14.6298 0.0129011 14.7925 0.0473041C14.9176 0.0754519 15.0958 0.131748 15.1834 0.172406C15.2741 0.213064 15.4274 0.322528 15.5243 0.413226C15.6213 0.500798 15.737 0.638409 15.7808 0.716598C15.8246 0.794786 15.8902 0.941781 15.9215 1.04499C15.9684 1.18573 15.9872 1.35774 15.9966 1.74869C16.006 2.10523 15.9966 2.41485 15.9622 2.7495C15.934 3.01534 15.8683 3.43756 15.8183 3.68776C15.7683 3.93797 15.6776 4.3164 15.615 4.5322C15.5525 4.748 15.4242 5.11392 15.3335 5.34536C15.2428 5.5768 15.099 5.91457 15.0145 6.09597C14.9301 6.27737 14.7706 6.57761 14.6642 6.76839C14.5548 6.95917 14.3452 7.29382 14.1982 7.519C14.0481 7.74418 13.7917 8.09447 13.629 8.30089C13.4633 8.5073 13.1317 8.88886 12.8909 9.14532C12.6501 9.40491 12.2248 9.82712 11.4429 10.5527L11.4397 11.491C11.4397 12.007 11.4241 12.5137 11.4085 12.6169C11.3897 12.7201 11.3428 12.8796 11.299 12.9703C11.2552 13.0579 11.1489 13.2049 11.0644 13.2893C10.93 13.4238 10.7423 13.527 9.67894 14.0587C8.59056 14.6029 8.43418 14.6717 8.29657 14.6748C8.209 14.6748 8.09641 14.6529 8.03698 14.6248C7.98381 14.5966 7.89937 14.5184 7.76489 14.3433L7.7555 13.5176C7.75238 12.8765 7.73987 12.6982 7.70859 12.7076C7.68982 12.7138 7.55221 12.7357 7.40522 12.7576C7.21131 12.7827 7.07995 12.7827 6.92045 12.7576C6.78909 12.7389 6.6077 12.6794 6.46696 12.6106C6.24803 12.5043 6.1542 12.4199 4.95323 11.2283C4.24953 10.5308 3.61464 9.87404 3.53645 9.77083C3.46139 9.66762 3.36756 9.50499 3.33316 9.41116C3.27999 9.27668 3.26435 9.16721 3.26435 8.89512C3.26123 8.70434 3.27061 8.49166 3.30814 8.28525L2.51687 8.27899C1.83507 8.26961 1.71622 8.26335 1.62552 8.21644C1.57235 8.18517 1.48791 8.10698 1.43787 8.04443C1.37845 7.96311 1.3503 7.88179 1.34092 7.77233C1.33153 7.61908 1.35655 7.56279 1.97268 6.33053C2.5544 5.16083 2.62634 5.03573 2.76395 4.91376C2.84839 4.8387 2.99539 4.74174 3.26123 4.61039L5.45363 4.57911L5.91025 4.09434C6.16046 3.8285 6.49198 3.4876 6.64523 3.3406C6.79535 3.19361 7.0174 2.98407 7.13938 2.8746C7.25822 2.76514 7.52094 2.54621 7.71797 2.38983C7.91501 2.23033 8.23089 1.99576 8.42167 1.86753C8.60932 1.7393 8.90644 1.55165 9.07845 1.44844C9.25047 1.34836 9.61639 1.15758 9.89161 1.02622C10.1668 0.894868 10.5609 0.722853 10.7673 0.644664C10.9737 0.566476 11.3115 0.453884 11.5179 0.394461C11.7244 0.335038 12.0778 0.247467 12.2998 0.203681C12.5219 0.156768 12.9034 0.0942172 13.1443 0.0629418C13.3851 0.0316664 13.8042 0.00351848 14.0731 0.000390943H14.0763ZM11.0519 2.10523C10.9487 2.1365 10.7736 2.20843 10.661 2.26786C10.5484 2.32415 10.3639 2.44926 10.245 2.54621C10.1293 2.64004 9.9698 2.8058 9.89161 2.91213C9.8103 3.0216 9.69771 3.20925 9.64141 3.32809C9.58512 3.44694 9.51631 3.63772 9.48503 3.75031C9.45063 3.88167 9.43186 4.07558 9.43186 4.29763C9.42874 4.56347 9.44438 4.69796 9.50067 4.89187C9.5382 5.02948 9.6289 5.25466 9.70083 5.39227C9.79779 5.57992 9.89787 5.71128 10.098 5.90832C10.245 6.05531 10.4546 6.22732 10.5672 6.293C10.6798 6.35868 10.883 6.44625 11.0207 6.49004C11.1895 6.54321 11.3741 6.57761 11.5836 6.58699C11.8088 6.5995 11.9683 6.59012 12.1622 6.55259C12.3248 6.51819 12.5344 6.44625 12.7095 6.36181C12.8628 6.28675 13.0817 6.14914 13.1943 6.05844C13.3069 5.96461 13.4633 5.79885 13.5446 5.68939C13.6259 5.5768 13.7385 5.37976 13.7979 5.25153C13.8573 5.1233 13.9324 4.90438 13.9605 4.76676C14.0043 4.57911 14.0137 4.43524 13.9981 4.18817C13.9887 3.96611 13.9574 3.78159 13.9074 3.62521C13.8667 3.49698 13.776 3.29056 13.7103 3.17172C13.6415 3.05287 13.4883 2.84958 13.3663 2.72448C13.2475 2.59625 13.0567 2.43675 12.9441 2.36794C12.8315 2.29601 12.6501 2.20531 12.5375 2.16152C12.4249 2.12086 12.2279 2.0677 12.0997 2.04268C11.9714 2.02078 11.7932 2.00202 11.7087 2.00514C11.6211 2.00514 11.4804 2.01765 11.396 2.03016C11.3084 2.04268 11.1551 2.07708 11.0519 2.10523ZM2.67012 11.247C2.78897 11.2533 2.99226 11.2877 3.11423 11.3221C3.23933 11.3534 3.43637 11.4284 3.55209 11.4878C3.67093 11.5473 3.8492 11.663 3.95241 11.7474C4.05249 11.8288 4.20574 11.982 4.28706 12.0852C4.3715 12.1884 4.48722 12.3698 4.54665 12.4918C4.60607 12.6138 4.67487 12.7952 4.70302 12.8984C4.73117 13.0016 4.76245 13.2111 4.77183 13.3675C4.78434 13.5708 4.77496 13.724 4.73743 13.9148C4.70302 14.0806 4.63109 14.287 4.54665 14.4621C4.47158 14.6154 4.34961 14.8156 4.27455 14.9031C4.19949 14.9907 4.06813 15.1252 3.98369 15.1971C3.89612 15.269 3.73661 15.3848 3.62402 15.4504C3.51143 15.5161 3.30814 15.6131 3.17053 15.6694C3.03292 15.7225 2.78584 15.8007 2.62321 15.8445C2.46058 15.8852 2.2479 15.9227 1.98206 15.9321L1.88824 15.7444C1.81317 15.5881 1.79441 15.5099 1.78503 15.2753C1.77564 15.1189 1.76001 14.9688 1.74437 14.9375C1.72873 14.9094 1.68182 14.8687 1.63803 14.8531C1.58591 14.8322 1.52857 14.8322 1.46602 14.8531C1.40034 14.875 1.3503 14.9281 1.29713 15.0314C1.25647 15.1158 1.19079 15.2659 1.15014 15.3691C1.10322 15.4911 1.03129 15.6068 0.937463 15.7006C0.843637 15.7913 0.727918 15.8695 0.605943 15.9133C0.502735 15.954 0.361995 15.9946 0.293189 16.004C0.196236 16.0165 0.15245 16.0071 0.102409 15.9602C0.0523686 15.9133 0.0304758 15.8445 0.0117106 15.6506C-0.000799609 15.513 -0.00392715 15.1252 0.00545547 14.7905C0.0148381 14.3871 0.042986 14.0587 0.083644 13.821C0.121175 13.624 0.193108 13.3206 0.249404 13.1486C0.302572 12.9766 0.408908 12.717 0.480842 12.57C0.555903 12.423 0.690387 12.2072 0.784213 12.0852C0.878039 11.9632 1.04693 11.7975 1.15639 11.713C1.26585 11.6286 1.45351 11.5129 1.57548 11.4566C1.69433 11.4034 1.85696 11.3409 1.93515 11.319C2.01334 11.2971 2.16033 11.2689 2.26354 11.2564C2.36675 11.2408 2.54815 11.2376 2.67012 11.247Z" fill="#A5B8EF"/>
</svg>
