<svg width="16" height="15" viewBox="0 0 16 15" fill="none" xmlns="http://www.w3.org/2000/svg">
<path d="M4.10938 0.0597145C4.2625 0.0409645 4.43125 0.0190895 4.48438 0.0128395C4.5375 0.00971452 4.60625 0.000339522 4.64062 0.000339522C4.675 -0.00278548 4.88438 0.0159645 5.10938 0.0440895C5.33437 0.0690895 5.65625 0.12534 5.82812 0.16909C6 0.21284 6.24687 0.290965 6.375 0.34409C6.50313 0.39409 6.71562 0.49409 6.84375 0.56284C6.97188 0.634714 7.17812 0.75659 7.29688 0.83784C7.41563 0.91909 7.62187 1.08159 7.75 1.19409C7.87813 1.30659 7.99062 1.40034 8 1.40034C8.00937 1.40034 8.12187 1.30659 8.25 1.19409C8.37813 1.08159 8.58125 0.91909 8.70312 0.83784C8.825 0.75659 9.02812 0.634714 9.15625 0.56284C9.28438 0.49409 9.49687 0.39409 9.625 0.34409C9.75313 0.290965 10 0.21284 10.1719 0.16909C10.3438 0.12534 10.675 0.0690895 10.9062 0.0409645C11.1375 0.0159645 11.3969 0.000339522 11.4844 0.00971452C11.5688 0.0190895 11.7594 0.0440895 11.9062 0.0597145C12.0531 0.0784645 12.2844 0.122215 12.4219 0.153465C12.5594 0.18784 12.7844 0.25659 12.9219 0.303465C13.0594 0.353465 13.2781 0.44409 13.4062 0.509715C13.5344 0.57534 13.7531 0.70034 13.8906 0.790965C14.0281 0.88159 14.2531 1.05346 14.3875 1.16909C14.525 1.28784 14.7344 1.49721 14.8531 1.63471C14.9719 1.77221 15.1281 1.97534 15.2031 2.08784C15.2781 2.20034 15.4031 2.40971 15.4812 2.55659C15.5594 2.70346 15.6781 2.99096 15.7469 3.19721C15.8156 3.40346 15.9 3.73784 15.9375 3.94096C15.975 4.17221 16 4.44409 16 4.68159C16 4.88784 15.9781 5.20034 15.9531 5.37846C15.925 5.55346 15.875 5.82534 15.8375 5.97846C15.8031 6.13159 15.725 6.40034 15.6656 6.57221C15.6062 6.74409 15.4937 7.02534 15.4187 7.19721C15.3438 7.36909 15.1937 7.66284 15.0875 7.85346C14.9844 8.04409 14.7969 8.34409 14.6781 8.52534C14.5563 8.70659 14.3375 9.01596 14.1844 9.21284C14.0344 9.40971 13.7094 9.79721 13.4625 10.0722C13.2125 10.3472 12.8 10.7753 12.5437 11.0222C12.2875 11.2691 11.8938 11.6285 11.6719 11.8222C11.45 12.0128 11.1187 12.291 10.9375 12.4378C10.7563 12.5847 10.35 12.8972 10.0312 13.1316C9.7125 13.3691 9.125 13.7816 8 14.541L7.27187 14.0503C6.875 13.7816 6.2875 13.3691 5.96875 13.1316C5.65 12.8972 5.24375 12.5847 5.0625 12.4378C4.88461 12.2937 4.56523 12.0231 4.34073 11.8329L4.32812 11.8222C4.10313 11.6285 3.7125 11.2691 3.45625 11.0222C3.2 10.7753 2.7875 10.3472 2.5375 10.0722C2.29062 9.79721 1.96562 9.40971 1.81562 9.21284C1.6625 9.01596 1.44375 8.70659 1.32187 8.52534C1.20312 8.34409 1.03125 8.06909 0.94375 7.91596C0.85625 7.76284 0.721875 7.50034 0.646875 7.33784C0.56875 7.17534 0.45625 6.90034 0.390625 6.72846C0.328125 6.55659 0.240625 6.28784 0.2 6.13471C0.159375 5.98159 0.096875 5.68471 0.0625 5.47846C0.025 5.24096 0 4.95971 0 4.71284C0 4.46596 0.021875 4.18471 0.0625 3.94721C0.1 3.74096 0.184375 3.40346 0.253125 3.19721C0.321875 2.99096 0.440625 2.70346 0.51875 2.55659C0.596875 2.40971 0.721875 2.20034 0.796875 2.08784C0.871875 1.97534 1.02813 1.77221 1.14688 1.63471C1.26562 1.49721 1.475 1.28784 1.6125 1.16909C1.74687 1.05346 1.97187 0.88159 2.10938 0.790965C2.24688 0.70034 2.46563 0.57534 2.59375 0.509715C2.72187 0.44409 2.94062 0.353465 3.07812 0.303465C3.21563 0.25659 3.44062 0.18784 3.57812 0.153465C3.71563 0.11909 3.95312 0.0784645 4.10938 0.0597145Z" fill="#A5B8EF"/>
</svg>
