<svg width="16" height="20" viewBox="0 0 16 20" fill="none" xmlns="http://www.w3.org/2000/svg">
<path d="M6.39453 0.332031C6.41797 0.289062 6.50391 0.195312 6.58594 0.125C6.71094 0.0234375 6.76953 0 6.92578 0C7.08594 0 7.17188 0.0390625 7.57031 0.277344C7.82031 0.429688 8.16016 0.652344 8.32031 0.773438C8.48047 0.890625 8.85938 1.23828 9.16016 1.53906C9.46875 1.84766 9.81641 2.24609 9.96094 2.44922C10.1016 2.64844 10.3086 2.97266 10.4258 3.17188C10.543 3.37109 10.7227 3.73828 10.8281 3.98438C10.9375 4.23047 11.082 4.64453 11.1562 4.90234C11.2344 5.16016 11.332 5.57422 11.375 5.82031C11.4453 6.1875 11.4609 6.42578 11.4609 7.15625C11.4648 7.90625 11.4727 8.03516 11.5195 7.99609C11.5508 7.96875 11.6914 7.80078 11.832 7.61719C11.9727 7.4375 12.207 7.09375 12.3477 6.85547C12.5117 6.58203 12.6523 6.39453 12.7383 6.33594C12.8281 6.27734 12.9258 6.25 13.0469 6.25C13.1445 6.25 13.2734 6.28125 13.3398 6.32031C13.4023 6.35938 13.6016 6.55469 13.7812 6.75C13.957 6.94922 14.1953 7.23828 14.3086 7.39453C14.4219 7.54688 14.5859 7.78906 14.6758 7.92969C14.7617 8.07031 14.9219 8.35938 15.0273 8.57422C15.1367 8.78906 15.2852 9.13281 15.3633 9.33594C15.4375 9.53906 15.5469 9.89062 15.6016 10.1172C15.6562 10.3438 15.7383 10.7656 15.7812 11.0547C15.8242 11.3516 15.8594 11.7812 15.8594 12.0312C15.8594 12.2773 15.8438 12.6289 15.8203 12.8125C15.7969 12.9961 15.7539 13.3047 15.7188 13.4961C15.6836 13.6875 15.6055 14.0273 15.543 14.25C15.4805 14.4687 15.375 14.7852 15.3086 14.9531C15.2422 15.1172 15.1016 15.4297 14.9922 15.6445C14.8828 15.8594 14.6875 16.2031 14.5547 16.4062C14.4219 16.6094 14.1797 16.9375 14.0156 17.1289C13.8555 17.3203 13.5664 17.6289 13.375 17.8125C13.1836 17.9961 12.8789 18.2617 12.6953 18.3984C12.5117 18.5352 12.1602 18.7695 11.9141 18.9141C11.668 19.0625 11.2812 19.2578 11.0547 19.3516C10.8281 19.4453 10.4766 19.5781 10.2734 19.6406C10.0703 19.707 9.71094 19.7969 9.47266 19.8398C9.23438 19.8867 8.94531 19.9375 8.82812 19.9609C8.71094 19.9805 8.31641 20 7.94922 20C7.58594 20 7.17188 19.9805 7.03125 19.957C6.89062 19.9336 6.59375 19.8789 6.36719 19.8359C6.14062 19.793 5.73047 19.6836 5.44922 19.5898C5.17188 19.5 4.73828 19.3281 4.49219 19.2109C4.24609 19.0898 3.85938 18.8711 3.63281 18.7227C3.40625 18.5742 3.08984 18.3438 2.92969 18.2148C2.76953 18.082 2.46094 17.7969 2.24609 17.5742C2.03125 17.3516 1.77344 17.0625 1.67578 16.9336C1.57422 16.8047 1.40234 16.5586 1.28906 16.3867C1.17969 16.2148 0.972656 15.8438 0.835938 15.5664C0.695312 15.2891 0.515625 14.8477 0.429688 14.5898C0.347656 14.332 0.242188 13.9609 0.199219 13.7695C0.15625 13.5781 0.09375 13.2148 0.0625 12.9688C0.0273438 12.7227 0 12.3125 0 12.0586C0 11.8086 0.0273438 11.4023 0.0625 11.1641C0.09375 10.9219 0.15625 10.5547 0.203125 10.3516C0.246094 10.1484 0.351562 9.77734 0.4375 9.53125C0.523438 9.28516 0.675781 8.90625 0.777344 8.69141C0.878906 8.47656 1.0625 8.14062 1.17969 7.94922C1.30078 7.75781 1.52734 7.42969 1.68359 7.22656C1.83984 7.02344 2.14453 6.67969 2.35938 6.46484C2.57812 6.25 3 5.88672 3.30078 5.66406C3.60156 5.4375 3.96875 5.14844 4.12109 5.01953C4.26953 4.89062 4.51953 4.63672 4.67969 4.45312C4.83984 4.26953 5.08203 3.95312 5.21484 3.75C5.35156 3.54688 5.55078 3.20312 5.65625 2.98828C5.76172 2.77344 5.89844 2.46484 5.95703 2.30469C6.01172 2.14453 6.10156 1.84375 6.15234 1.64062C6.20703 1.4375 6.27344 1.07812 6.30078 0.839844C6.33203 0.601562 6.375 0.375 6.39453 0.332031Z" fill="#FFBF1F"/>
</svg>
