<svg width="16" height="12" viewBox="0 0 16 12" fill="none" xmlns="http://www.w3.org/2000/svg">
<path fill-rule="evenodd" clip-rule="evenodd" d="M4.04641 0.00300807C4.17876 0 4.38933 0.0210565 4.51266 0.0481291C4.63599 0.0721936 4.79843 0.111298 4.87363 0.132355C4.94883 0.156419 5.19549 0.24967 5.4241 0.34292C5.64971 0.43617 5.94751 0.54446 6.08287 0.583565C6.22124 0.62267 6.46489 0.670799 6.62733 0.688847C6.78676 0.706896 7.27106 0.721936 7.70121 0.721936C8.13136 0.721936 8.61566 0.706896 8.7781 0.688847C8.93752 0.670799 9.18419 0.62267 9.32557 0.580557C9.46694 0.541452 9.76474 0.433162 9.98734 0.339912C10.2099 0.24967 10.4536 0.156419 10.5288 0.132355C10.604 0.111298 10.7664 0.0721936 10.8898 0.0481291C11.0131 0.0210565 11.2086 0 11.3259 0C11.4432 0 11.6448 0.0210565 11.7771 0.045121C11.9095 0.0661775 12.0779 0.0992662 12.1531 0.117315C12.2283 0.132355 12.3908 0.183492 12.5141 0.228613C12.6374 0.270726 12.827 0.351944 12.9352 0.406089C13.0435 0.460234 13.224 0.574541 13.3413 0.655759C13.4586 0.736976 13.6391 0.890388 13.7444 0.99567C13.8527 1.10095 14.0151 1.29046 14.1054 1.41379C14.1986 1.53712 14.331 1.74769 14.4002 1.88004C14.4664 2.0124 14.5656 2.23499 14.6137 2.37637C14.6649 2.51775 14.7311 2.77945 14.7672 2.96295C14.8002 3.14644 14.8634 3.49838 14.9055 3.74504C14.9446 3.99471 15.0048 4.37975 15.0379 4.60234C15.071 4.82494 15.1251 5.23103 15.1582 5.50476C15.1913 5.7785 15.2394 6.22971 15.2665 6.51246C15.2906 6.79522 15.3267 7.21334 15.3447 7.44496C15.3597 7.67659 15.3838 8.14885 15.3928 8.49779C15.4049 9.00314 15.3989 9.1746 15.3597 9.35509C15.3357 9.47842 15.2545 9.70102 15.1793 9.85142C15.1041 9.99881 14.9657 10.2154 14.8694 10.3327C14.7702 10.45 14.5777 10.6305 14.4363 10.7358C14.2979 10.8411 14.1024 10.9674 14.0031 11.0185C13.9038 11.0667 13.7685 11.1268 13.7023 11.1509C13.6361 11.175 13.4827 11.2201 13.3624 11.2532C13.2451 11.2833 13.0856 11.3103 13.0104 11.3103C12.9352 11.3103 12.7758 11.2833 12.6555 11.2502C12.5382 11.2171 12.3517 11.1479 12.2434 11.0968C12.1351 11.0456 11.9456 10.9343 11.8223 10.8501C11.6989 10.7629 11.3741 10.4711 11.1003 10.1943C10.8266 9.9206 10.3543 9.43931 10.0475 9.12647C9.65946 8.72941 9.43686 8.52486 9.13305 8.34739L6.34758 8.33235L6.18815 8.40755C6.10393 8.44665 5.9445 8.55193 5.83621 8.64217C5.72792 8.72941 5.45719 8.99713 5.2346 9.23477C5.012 9.47541 4.639 9.86345 4.40738 10.1011C4.17576 10.3387 3.87796 10.6185 3.7456 10.7238C3.61325 10.829 3.39065 10.9734 3.24927 11.0486C3.10789 11.1238 2.8883 11.2141 2.75896 11.2472C2.63262 11.2833 2.46717 11.3103 2.39197 11.3103C2.31677 11.3103 2.15133 11.2833 2.02198 11.2472C1.89564 11.2141 1.70313 11.1479 1.59483 11.1058C1.48654 11.0607 1.285 10.9464 1.14362 10.8531C0.999238 10.7599 0.782657 10.5764 0.647294 10.432C0.472826 10.2515 0.367544 10.1071 0.268277 9.91158C0.190068 9.76118 0.0968176 9.52655 0.0577128 9.38517C-0.00545662 9.14753 -0.00846469 9.09038 0.00958371 8.51283C0.0186079 8.17292 0.0426724 7.70065 0.0577128 7.46001C0.0757612 7.21936 0.111858 6.79522 0.135923 6.51246C0.162995 6.22971 0.21714 5.73037 0.259253 5.39948C0.298358 5.06859 0.367544 4.57527 0.409657 4.30154C0.45177 4.0278 0.532987 3.54049 0.590141 3.21863C0.647294 2.89677 0.734528 2.51474 0.782657 2.37036C0.833794 2.22296 0.908996 2.03345 0.951109 1.94923C0.99623 1.86199 1.10151 1.68151 1.18574 1.54915C1.27297 1.4168 1.42939 1.21526 1.53768 1.10095C1.64296 0.986646 1.83247 0.818194 1.9558 0.724944C2.07913 0.631694 2.30173 0.493323 2.45213 0.418121C2.59953 0.339912 2.83115 0.243653 2.96351 0.20154C3.09586 0.159428 3.27935 0.111298 3.36959 0.0932501C3.45984 0.0752017 3.5952 0.0481291 3.6704 0.0330887C3.7456 0.0180484 3.91405 0.00601613 4.04641 0.00300807ZM3.77568 2.55385L3.68544 2.6832L3.6704 3.73C2.72587 3.73 2.68375 3.73301 2.55742 3.79919C2.48221 3.83829 2.38295 3.92553 2.33181 3.99772C2.25059 4.11203 2.24157 4.15113 2.24157 4.34666C2.24157 4.54218 2.25059 4.58129 2.33181 4.69559C2.37994 4.76779 2.47018 4.85201 2.52734 4.8851C2.61758 4.93925 2.6988 4.95128 3.14399 4.96331L3.65536 4.97835L3.68544 6.01012C3.82682 6.21467 3.92308 6.3019 3.98625 6.338C4.05242 6.37409 4.1547 6.41019 4.21185 6.41921C4.26901 6.42824 4.38331 6.41621 4.46754 6.39214C4.56079 6.36507 4.66306 6.30491 4.73225 6.23271C4.80444 6.16353 4.8616 6.06727 4.88867 5.97101C4.91875 5.86874 4.93379 5.68224 4.93379 5.39346V4.96331C5.74897 4.96331 5.92645 4.95128 5.99263 4.9242C6.04677 4.90014 6.14303 4.82494 6.20319 4.75876C6.26636 4.68958 6.32953 4.58129 6.34758 4.52112C6.36262 4.45795 6.37766 4.37975 6.37766 4.34666C6.37766 4.31357 6.36262 4.23536 6.34758 4.1752C6.32953 4.11203 6.27238 4.01276 6.21823 3.9526C6.1671 3.89244 6.07084 3.81724 6.00767 3.78716C5.91442 3.73903 5.82418 3.73 5.41508 3.73H4.93379C4.93379 3.01709 4.91875 2.82157 4.89168 2.7223C4.8616 2.61702 4.81046 2.53881 4.72623 2.4606C4.65705 2.39743 4.56981 2.33426 4.5277 2.31621C4.48559 2.30117 4.3803 2.28613 4.29307 2.28613C4.18478 2.28613 4.09153 2.30719 4.00129 2.35532C3.92609 2.39442 3.82682 2.48466 3.77568 2.55385ZM11.732 2.4606C11.6749 2.50873 11.5816 2.61401 11.5275 2.69523C11.4733 2.77945 11.4162 2.91482 11.3981 3.00807C11.3771 3.12538 11.3771 3.21562 11.3981 3.3179C11.4162 3.39611 11.4583 3.51041 11.4884 3.57358C11.5184 3.63374 11.5967 3.73602 11.6628 3.79919C11.726 3.86236 11.8373 3.94057 11.9125 3.97666C12.0088 4.02179 12.108 4.04284 12.2584 4.04284C12.4148 4.04284 12.5081 4.0278 12.6194 3.97666C12.7036 3.93756 12.827 3.85033 12.8991 3.78114C12.9683 3.71195 13.0556 3.58862 13.0887 3.5044C13.1338 3.40212 13.1548 3.29082 13.1548 3.15847C13.1548 3.03213 13.1338 2.91482 13.0947 2.82758C13.0616 2.75238 12.9894 2.64108 12.9322 2.5749C12.8751 2.51174 12.7698 2.4245 12.6946 2.38239C12.5863 2.31922 12.5111 2.30117 12.3186 2.29516C12.1562 2.28914 12.0388 2.30117 11.9576 2.33125C11.8914 2.35532 11.7892 2.41548 11.732 2.4606ZM10.3844 4.74974C10.3152 4.78283 10.2099 4.86404 10.1498 4.92721C10.0926 4.98737 10.0144 5.09867 9.97832 5.17387C9.93019 5.27615 9.91515 5.36639 9.91515 5.53484C9.91515 5.71533 9.93019 5.79053 9.98734 5.91085C10.0295 5.99508 10.1107 6.10638 10.1678 6.16353C10.225 6.22068 10.3483 6.3019 10.4385 6.34401C10.5619 6.40117 10.6521 6.41921 10.7995 6.41621C10.9259 6.41621 11.0432 6.39515 11.1304 6.35604C11.2056 6.32596 11.3199 6.25076 11.3861 6.1906C11.4523 6.13044 11.5395 6.01613 11.5816 5.93792C11.6297 5.84167 11.6598 5.72435 11.6658 5.595C11.6749 5.46867 11.6628 5.34834 11.6328 5.24908C11.6057 5.16485 11.5275 5.0355 11.4553 4.95429C11.3831 4.87006 11.2598 4.77681 11.1755 4.73771C11.0913 4.6986 10.965 4.6625 10.8898 4.65348C10.8146 4.64445 10.7003 4.64746 10.6341 4.6625C10.5679 4.67454 10.4566 4.71364 10.3844 4.74974Z" fill="#A5B8EF"/>
</svg>
