<svg width="15" height="20" viewBox="0 0 15 20" fill="none" xmlns="http://www.w3.org/2000/svg">
<path d="M6.04614 0.179152C6.26493 0.12557 6.50605 0.0630581 6.58196 0.0407323C6.65786 0.0228717 6.97489 0.00501102 7.29638 0.000545855C7.7295 -0.00391931 7.98848 0.0184065 8.32337 0.0898491C8.56895 0.143431 8.89937 0.232734 9.06012 0.295246C9.22087 0.353294 9.52896 0.496179 9.74775 0.612273C9.96208 0.728367 10.297 0.942695 10.4845 1.09004C10.672 1.24186 10.9533 1.50977 11.1096 1.69284C11.2704 1.87591 11.4624 2.13043 11.5383 2.25099C11.6187 2.37601 11.7571 2.62159 11.8464 2.8002C11.9357 2.97434 12.0562 3.27797 12.1232 3.46551C12.1857 3.65751 12.2661 4.0058 12.2974 4.23798C12.3331 4.47017 12.3643 4.82292 12.3643 5.01939C12.3643 5.21585 12.3331 5.55967 12.2974 5.77846C12.2572 5.99726 12.1857 6.32321 12.1321 6.49289C12.083 6.66257 11.9312 7.01531 11.8017 7.27429C11.6678 7.53327 11.4267 7.91281 11.2614 8.11821C11.0918 8.32807 10.8194 8.61831 10.6453 8.76566C10.4711 8.91301 10.2211 9.10054 10.0871 9.18985C9.95315 9.27468 9.65845 9.43096 9.43966 9.53366C9.22087 9.63636 8.87705 9.76585 8.68058 9.81497L8.68053 9.81498C8.48408 9.86409 8.26977 9.91767 8.07778 9.95339V14.999L8.56449 15.0124C8.98421 15.0213 9.07351 15.0347 9.18068 15.1151C9.24766 15.1687 9.34589 15.2669 9.39501 15.3294C9.46198 15.4187 9.48431 15.5214 9.48431 15.7134C9.48431 15.9099 9.46198 16.0037 9.39054 16.1019C9.33696 16.1689 9.23873 16.2671 9.17621 16.3162C9.06012 16.4011 8.98421 16.4055 7.36336 16.4055C5.71125 16.4055 5.67106 16.4055 5.54604 16.3118C5.47906 16.2582 5.38083 16.16 5.33171 16.0975C5.26473 16.0081 5.24241 15.9054 5.24241 15.7134C5.24241 15.517 5.26473 15.4232 5.33618 15.325C5.38976 15.258 5.48799 15.1598 5.5505 15.1106C5.6532 15.0347 5.7559 15.0213 6.64893 14.999V9.95339L6.52837 9.9266C6.45693 9.9132 6.2426 9.85962 6.04614 9.81497C5.84967 9.76585 5.50585 9.64083 5.28706 9.53366C5.06827 9.43096 4.77357 9.27468 4.63961 9.18985C4.50566 9.10054 4.25114 8.91301 4.08147 8.76566C3.91179 8.61831 3.63941 8.337 3.47867 8.13607C3.31792 7.9396 3.08574 7.57792 2.95625 7.3368C2.83122 7.09122 2.67494 6.73401 2.60796 6.53754C2.54545 6.34107 2.46508 5.99726 2.42936 5.77846C2.39364 5.55967 2.36238 5.20692 2.36238 4.99706C2.36238 4.7872 2.39364 4.43445 2.42936 4.21566C2.46508 3.9924 2.54545 3.65751 2.60796 3.46551C2.67048 3.27797 2.79103 2.97434 2.88034 2.8002C2.96964 2.62159 3.10806 2.37155 3.18843 2.25099C3.26434 2.13043 3.44741 1.88484 3.59476 1.71517C3.74211 1.54549 4.03235 1.26419 4.24221 1.09898C4.4744 0.911439 4.81375 0.697111 5.13078 0.536365C5.42548 0.39348 5.81395 0.241665 6.04614 0.179152Z" fill="#FFC83D"/>
<path d="M2.54099 11.6189C2.62582 11.5832 2.7955 11.5251 2.92052 11.4939C3.0768 11.4492 3.45188 11.4314 5.22008 11.4269V13.6818L4.93878 13.8247C4.7825 13.9051 4.55477 14.0792 4.41189 14.2265C4.27347 14.3694 4.10826 14.5927 4.04574 14.7177C3.97877 14.8472 3.89393 15.0705 3.85821 15.2089C3.82249 15.3518 3.79123 15.5795 3.79123 15.7134C3.79123 15.8474 3.82249 16.0796 3.86267 16.2269C3.89839 16.3743 3.99663 16.6154 4.07254 16.7583C4.15291 16.9056 4.33151 17.1289 4.48333 17.2673C4.63068 17.4013 4.84501 17.5576 4.9611 17.6156C5.08166 17.6737 5.29152 17.754 5.42994 17.7897C5.63981 17.8433 6.01488 17.8567 7.36336 17.8567C8.71184 17.8567 9.08691 17.8433 9.29231 17.7897C9.43519 17.754 9.65845 17.6692 9.78348 17.6022C9.91296 17.5397 10.1318 17.379 10.2657 17.2539C10.3997 17.1244 10.5738 16.9012 10.6542 16.7583C10.7301 16.6109 10.8283 16.3743 10.864 16.2269C10.9042 16.0796 10.9355 15.8474 10.9355 15.7134C10.9355 15.5795 10.9042 15.3518 10.8685 15.2089C10.8328 15.0705 10.748 14.8472 10.681 14.7177C10.6185 14.5927 10.4532 14.3694 10.3148 14.2265C10.1719 14.0792 9.94422 13.9051 9.50664 13.6818V11.4269L10.6319 11.4403C11.5963 11.4537 11.7928 11.4671 11.9848 11.5385C12.1054 11.5832 12.3152 11.6859 12.4402 11.7707C12.5697 11.8511 12.7662 12.0118 12.8778 12.1279C12.9895 12.2485 13.1368 12.4628 13.2083 12.6102C13.2797 12.7575 13.6503 13.9274 14.0343 15.2089C14.6103 17.1378 14.7309 17.5933 14.7309 17.821C14.7309 17.9773 14.6996 18.2184 14.6639 18.3568C14.6282 18.4997 14.5433 18.723 14.4764 18.848C14.4138 18.9775 14.2576 19.1918 14.1325 19.3258C14.0075 19.4552 13.8244 19.6115 13.7262 19.6696C13.628 19.7276 13.4181 19.8259 12.9671 20H1.75958L1.46935 19.8884C1.3086 19.8259 1.09874 19.7276 1.0005 19.6696C0.902271 19.6115 0.7192 19.4552 0.594175 19.3258C0.469151 19.1918 0.317335 18.9819 0.254823 18.8614C0.192311 18.7364 0.103008 18.5176 0.0628213 18.3702C0.00477424 18.1782 -0.00862125 18.0041 0.00477424 17.7674C0.0226349 17.504 0.17445 16.9458 0.71027 15.1553C1.08534 13.9006 1.43809 12.7754 1.49614 12.6548C1.54972 12.5298 1.67028 12.3422 1.75958 12.2306C1.85335 12.119 2.03196 11.9538 2.15698 11.8555C2.28201 11.7618 2.45615 11.6546 2.54099 11.6189Z" fill="#FFC83D"/>
</svg>
