<svg width="16" height="16" viewBox="0 0 16 16" fill="none" xmlns="http://www.w3.org/2000/svg">
<path d="M6.6541 0.231673C6.78225 0.18479 7.03543 0.116029 7.21673 0.0753966C7.46366 0.019137 7.6512 0.000383743 7.9669 0.000383743C8.27635 -0.00274179 8.47014 0.0128859 8.70144 0.0597689C8.87336 0.0941498 9.12654 0.159786 9.26407 0.203544C9.4016 0.250427 9.64854 0.353569 9.81107 0.437959C9.97361 0.519223 10.2018 0.653621 10.3143 0.73801C10.43 0.819274 10.5925 0.953672 10.6738 1.03181C10.7582 1.10995 10.9019 1.25685 10.9957 1.35999C11.0895 1.46001 11.2302 1.64442 11.3114 1.76319C11.3927 1.88508 11.5083 2.08199 11.5677 2.20076C11.6302 2.31953 11.7209 2.53832 11.774 2.68522C11.824 2.83212 11.8928 3.06966 11.9241 3.21656C11.9678 3.41659 11.9803 3.61038 11.9803 4.01357C11.9803 4.44802 11.9647 4.6043 11.9053 4.87309C11.8678 5.05437 11.8303 5.23253 11.824 5.27316C11.8115 5.3388 11.8178 5.34192 12.0772 5.34192C12.2241 5.34192 12.4523 5.35755 12.5836 5.3763C12.718 5.39506 12.9462 5.44507 13.0931 5.48882C13.24 5.52946 13.4557 5.60759 13.5776 5.65448C13.6995 5.70449 13.8933 5.8045 14.0152 5.87639C14.1371 5.94828 14.3465 6.09518 14.484 6.20145C14.6216 6.30771 14.8216 6.49212 14.931 6.61089C15.0373 6.72966 15.1967 6.92657 15.278 7.04534C15.3624 7.16411 15.4936 7.39227 15.5718 7.54543C15.6499 7.69858 15.7499 7.93924 15.7968 8.07677C15.8406 8.21429 15.9062 8.46746 15.9375 8.63936C15.9781 8.84252 16 9.07694 16 9.31135C16 9.50826 15.9781 9.79894 15.95 9.95209C15.9219 10.1052 15.8656 10.3522 15.825 10.4991C15.7812 10.646 15.6718 10.9179 15.578 11.1085C15.4843 11.2992 15.3155 11.5711 15.2061 11.718C15.0967 11.8649 14.8904 12.0962 14.7435 12.2337C14.5997 12.3713 14.3746 12.5525 14.2465 12.64C14.1183 12.7244 13.8964 12.8526 13.7495 12.9245C13.6026 12.9964 13.3713 13.0901 13.2337 13.1339C13.0962 13.1776 12.8555 13.237 12.7024 13.2683C12.5242 13.3027 12.2741 13.3214 12.0147 13.3214C11.774 13.3214 11.4802 13.2995 11.2958 13.2683C11.1239 13.237 10.8207 13.1589 10.6238 13.0933C10.4268 13.0307 10.1455 12.9151 9.99862 12.8432C9.85171 12.7682 9.67979 12.6776 9.61415 12.6369C9.55164 12.5963 9.48912 12.5682 9.4735 12.5775C9.46099 12.5869 9.49225 12.7401 9.53914 12.9151C9.58602 13.0901 9.68292 13.3745 9.75169 13.5465C9.82045 13.7184 9.93923 13.9559 10.0142 14.0778C10.0893 14.1997 10.2268 14.3716 10.3237 14.4622C10.4206 14.5498 10.53 14.631 10.5675 14.6373C10.6081 14.6466 10.7175 14.6685 10.8113 14.6904C10.9488 14.7185 11.0114 14.756 11.1239 14.8717C11.227 14.9717 11.2802 15.0592 11.3052 15.1655C11.327 15.2467 11.3333 15.3655 11.3239 15.4312C11.3145 15.4937 11.2739 15.6031 11.2333 15.6718C11.1926 15.7468 11.0989 15.8375 10.8426 16H5.15375L4.99434 15.9C4.89744 15.8375 4.80367 15.7468 4.76303 15.6718C4.7224 15.6031 4.68177 15.4905 4.67239 15.4218C4.65676 15.3436 4.66926 15.2374 4.70052 15.1342C4.73803 15.0061 4.78179 14.9404 4.89432 14.8436C5.00372 14.7498 5.09124 14.7092 5.21626 14.6841C5.31004 14.6654 5.42881 14.6341 5.47882 14.6123C5.52884 14.5935 5.63511 14.506 5.71325 14.4154C5.7914 14.3278 5.92268 14.1309 6.00395 13.9778C6.08209 13.8278 6.18836 13.584 6.2415 13.4371C6.29151 13.2902 6.3634 13.037 6.40091 12.8745C6.43842 12.7119 6.46343 12.5744 6.4603 12.5713C6.45405 12.565 6.3384 12.6307 6.20087 12.7119C6.06333 12.7932 5.82265 12.9151 5.66949 12.9776C5.51633 13.0432 5.23502 13.137 5.04435 13.187C4.85368 13.2339 4.53798 13.2902 4.34106 13.312C4.0785 13.337 3.89096 13.337 3.6534 13.312C3.47211 13.2933 3.21268 13.2527 3.07515 13.2214C2.93761 13.187 2.73444 13.1276 2.62192 13.0839C2.50939 13.0432 2.31247 12.9557 2.18432 12.8901C2.05616 12.8245 1.84986 12.7057 1.73109 12.6244C1.60918 12.5432 1.39351 12.365 1.24973 12.2306C1.10594 12.0962 0.899645 11.8649 0.787119 11.718C0.677718 11.5711 0.512055 11.2992 0.418284 11.1085C0.324512 10.9179 0.215112 10.646 0.174477 10.4991C0.130717 10.3522 0.0713286 10.099 0.0431971 9.93646C-0.000562976 9.70517 -0.00681442 9.54264 0.00568846 9.20196C0.0150656 8.96129 0.0463228 8.65812 0.0744543 8.52997C0.102586 8.40182 0.158849 8.19241 0.202609 8.06739C0.243243 7.94549 0.330763 7.73296 0.393278 7.60169C0.455792 7.46729 0.590198 7.23912 0.687096 7.09222C0.787119 6.94532 0.949656 6.73591 1.0528 6.62339C1.15283 6.51087 1.35287 6.32959 1.49353 6.21707C1.63731 6.10455 1.86549 5.94828 2.00615 5.86389C2.14681 5.78262 2.37498 5.67323 2.51252 5.6201C2.65005 5.56696 2.89698 5.48882 3.05952 5.44507C3.25956 5.39506 3.49399 5.36068 3.77218 5.34817C4.16915 5.3263 4.1879 5.32317 4.1754 5.26379C4.16915 5.2294 4.12851 5.05437 4.09101 4.87309C4.03162 4.6043 4.01599 4.44802 4.01599 4.01357C4.01599 3.61038 4.02849 3.41659 4.07225 3.21656C4.10351 3.06966 4.17227 2.83212 4.22229 2.68522C4.27542 2.53832 4.36607 2.31953 4.42546 2.20076C4.48797 2.08199 4.61925 1.8632 4.71927 1.7163C4.8193 1.5694 5.01622 1.33499 5.16 1.19434C5.30378 1.05369 5.46007 0.906789 5.51321 0.863032C5.56635 0.8224 5.69137 0.731759 5.79452 0.662997C5.89767 0.594235 6.08209 0.487967 6.20087 0.428582C6.31964 0.366071 6.52594 0.278556 6.6541 0.231673Z" fill="#A5B8EF"/>
</svg>
