<svg width="16" height="14" viewBox="0 0 16 14" fill="none" xmlns="http://www.w3.org/2000/svg">
<path d="M12.8355 0.71131C12.9777 0.335106 13.0884 0.09168 13.1326 0.0569048C13.1674 0.025291 13.2211 0 13.2464 0C13.2717 0 13.3223 0.025291 13.3571 0.0537434C13.3919 0.0853572 13.4614 0.218135 13.512 0.347752C13.5626 0.477368 13.6701 0.755569 13.7491 0.96422C13.8313 1.17919 13.9483 1.41946 14.021 1.5143C14.0905 1.60914 14.2107 1.73876 14.2897 1.80199C14.3687 1.86205 14.6185 2.00431 14.8429 2.1118C15.0706 2.22245 15.2792 2.33626 15.3108 2.36471C15.3424 2.39316 15.3677 2.45323 15.3677 2.49749C15.3677 2.54175 15.3329 2.60498 15.295 2.64291C15.2539 2.67769 15.0295 2.80098 14.7955 2.91479C14.4604 3.07602 14.3308 3.15822 14.1949 3.29416C14.1 3.389 13.9767 3.55023 13.9198 3.65455C13.8661 3.75572 13.7333 4.07502 13.6258 4.3627C13.5183 4.65039 13.4077 4.90962 13.3792 4.94123C13.3508 4.97285 13.2907 4.99814 13.2464 4.99814C13.2022 4.99814 13.1421 4.97285 13.1137 4.94123C13.0852 4.90962 12.9682 4.6409 12.8576 4.3469C12.7469 4.05289 12.6236 3.74623 12.5826 3.6672C12.5415 3.58816 12.4245 3.43326 12.317 3.32577C12.1494 3.15189 12.0609 3.09183 11.6499 2.88634C11.3907 2.75672 11.1663 2.63343 11.1536 2.61446C11.141 2.59233 11.1283 2.54175 11.1283 2.49749C11.1283 2.45323 11.1504 2.39632 11.1821 2.36471C11.2137 2.33626 11.4318 2.21929 11.6657 2.10548C11.8997 1.99167 12.1558 1.84308 12.2348 1.77669C12.3138 1.71031 12.4276 1.57753 12.494 1.48269C12.5573 1.38468 12.7058 1.05274 12.8355 0.71131Z" fill="#A5B8EF"/>
<path d="M5.24183 0.89467C5.26396 0.853572 5.3177 0.799829 5.36828 0.774538C5.42203 0.742924 5.50422 0.730278 5.5959 0.739762C5.68758 0.749247 5.76346 0.78086 5.81088 0.828281C5.85514 0.87254 6.08276 1.43527 6.41786 2.32361C6.71503 3.10763 7.01852 3.87585 7.09124 4.03076C7.16711 4.18566 7.30621 4.42909 7.39789 4.56819C7.49273 4.70729 7.65712 4.92227 7.76145 5.0424C7.86893 5.16253 8.0681 5.35537 8.2072 5.46602C8.34314 5.57667 8.55495 5.73474 8.67825 5.81377C8.80154 5.88965 9.34846 6.17417 9.89538 6.43973C10.4423 6.70528 10.9291 6.95187 10.9797 6.98665C11.0272 7.02142 11.0809 7.10362 11.0999 7.17001C11.1315 7.26801 11.1252 7.30594 11.0777 7.41027C11.0208 7.5304 10.9766 7.55253 9.87957 8.09313C9.08923 8.48514 8.65612 8.71592 8.46011 8.85502C8.30521 8.96567 8.04281 9.19961 7.87526 9.37349C7.7077 9.54736 7.48957 9.80976 7.39157 9.95834C7.29673 10.1069 7.16395 10.3251 7.10388 10.4484C7.04382 10.5716 6.74348 11.3367 6.43683 12.1555C5.98159 13.3695 5.86146 13.6572 5.78559 13.7267C5.73184 13.7773 5.65281 13.8247 5.60539 13.8342C5.54848 13.8468 5.47893 13.831 5.40938 13.7963C5.35248 13.7615 5.28609 13.7077 5.26396 13.673C5.23867 13.6382 4.97311 12.949 4.66962 12.1397C4.36613 11.3304 4.07212 10.578 4.01521 10.4642C3.95831 10.3504 3.84766 10.1607 3.76863 10.0374C3.69275 9.91408 3.53785 9.70859 3.43036 9.57898C3.32287 9.44936 3.13003 9.25019 3.00041 9.13954C2.8708 9.0289 2.65898 8.8645 2.52937 8.77599C2.39975 8.69063 1.80857 8.38081 1.2174 8.09313C0.439696 7.7106 0.123558 7.53989 0.0698149 7.4735C0.0223942 7.41343 -0.00289684 7.34072 0.000264542 7.26485C0.000264542 7.17949 0.0255556 7.11626 0.0887831 7.04987C0.145688 6.98348 0.496601 6.79696 1.16997 6.46818C1.71689 6.20262 2.24484 5.93707 2.33968 5.88016C2.43453 5.8201 2.61472 5.69996 2.73486 5.60828C2.85815 5.5166 3.08577 5.31112 3.24384 5.14988C3.40191 4.98549 3.6232 4.71045 3.74017 4.53658C3.85398 4.3627 3.99309 4.11928 4.04999 3.99914C4.10373 3.87901 4.38826 3.14557 4.6791 2.37103C4.96995 1.5965 5.22286 0.932607 5.24183 0.89467Z" fill="#A5B8EF"/>
</svg>
