<svg width="12" height="16" viewBox="0 0 12 16" fill="none" xmlns="http://www.w3.org/2000/svg">
<path d="M3.02262 0.344124C3.12905 0.227051 3.23902 0.149002 3.38803 0.0886918L3.60089 0H6.30421C8.97916 0 9.01463 0 9.2133 0.0745011C9.35521 0.127716 9.47228 0.205765 9.58581 0.322838C9.71353 0.454102 9.77029 0.546341 9.81286 0.698891C9.84834 0.82306 9.86253 0.968514 9.85188 1.0643C9.84124 1.16718 9.40133 2.19956 8.6031 3.99113C7.9255 5.51308 7.36497 6.7796 7.35787 6.80443C7.34723 6.83636 7.66652 6.84701 8.87628 6.84701H8.8763C10.4124 6.84701 10.4124 6.84701 10.5898 6.93215C10.6856 6.97472 10.8239 7.07406 10.8949 7.15211C10.9623 7.22661 11.0475 7.37206 11.0865 7.46785C11.1361 7.59911 11.1468 7.702 11.1326 7.85809C11.122 7.97517 11.0865 8.12417 11.0545 8.18448C11.0226 8.24834 9.60355 9.97251 7.90066 12.016C6.19778 14.063 4.75743 15.7694 4.70066 15.8084C4.64035 15.851 4.53038 15.9113 4.45233 15.9432C4.37428 15.9752 4.23592 16 4.14013 16C4.0408 16 3.89889 15.9645 3.78537 15.9149C3.68603 15.8652 3.53348 15.7552 3.44834 15.6665C3.35255 15.5601 3.2816 15.4395 3.24612 15.3153C3.21774 15.216 3.1929 15.0989 3.1929 15.0599C3.1929 15.0208 3.42705 13.9246 4.23947 10.2563L0.727273 10.235L0.532151 10.1428C0.425721 10.0896 0.287361 9.9867 0.223503 9.9122C0.163193 9.83415 0.0851441 9.70288 0.0567628 9.61419C0.0248337 9.5255 0 9.38359 0 9.2949C0 9.18137 0.407982 7.90776 1.43326 4.82483C2.85233 0.571175 2.87361 0.510865 3.02262 0.344124Z" fill="#A5B8EF"/>
</svg>
