<svg width="16" height="16" viewBox="0 0 16 16" fill="none" xmlns="http://www.w3.org/2000/svg">
<path fill-rule="evenodd" clip-rule="evenodd" d="M7.95866 0.000499213C8.54092 -0.0030729 8.72667 0.0112155 9.18747 0.0862299C9.48753 0.136239 9.90904 0.225542 10.1269 0.286268C10.3448 0.346994 10.7056 0.468446 10.9307 0.557749C11.1557 0.647051 11.4522 0.775647 11.5915 0.84709C11.7308 0.91496 11.988 1.05784 12.163 1.16858C12.3381 1.27574 12.6381 1.47578 12.8239 1.61867C13.0096 1.75798 13.3383 2.04017 13.5526 2.24736C13.7669 2.45454 14.0634 2.77603 14.2134 2.96178C14.3635 3.14753 14.5778 3.43687 14.6849 3.60476C14.7957 3.77265 14.9671 4.06199 15.0672 4.24774C15.1672 4.43349 15.3208 4.76212 15.4065 4.98002C15.4958 5.19792 15.6173 5.54084 15.6744 5.74803C15.7351 5.95521 15.7994 6.20168 15.8209 6.3017C15.8423 6.39815 15.8852 6.63391 15.9173 6.81966C15.9459 7.00541 15.9816 7.4555 15.9923 7.81985C16.0102 8.39139 15.9995 8.55571 15.9316 9.03437C15.8888 9.338 15.8066 9.76308 15.753 9.98098C15.6959 10.1989 15.5923 10.5347 15.5208 10.7311C15.4494 10.9276 15.2886 11.2991 15.1636 11.5527C15.035 11.8063 14.8243 12.1814 14.6921 12.3814C14.5599 12.5815 14.3277 12.8922 14.1813 13.0744C14.0348 13.253 13.7455 13.5638 13.5383 13.7638C13.3311 13.9603 13.0096 14.2389 12.8239 14.3782C12.6381 14.5211 12.3309 14.7283 12.1452 14.8426C11.9594 14.9534 11.6451 15.1248 11.4486 15.2177C11.2522 15.3106 10.9307 15.4463 10.7342 15.5177C10.5377 15.5892 10.1912 15.6964 9.96619 15.7535C9.74115 15.8071 9.3375 15.8892 9.07316 15.9285C8.73381 15.9786 8.41589 16 7.99081 16C7.5693 16 7.2621 15.9786 6.93704 15.9285C6.68699 15.8892 6.36907 15.8321 6.23333 15.7999C6.09402 15.7714 5.82254 15.6964 5.62608 15.6356C5.42961 15.5749 5.10098 15.457 4.89379 15.3677C4.68661 15.282 4.38298 15.1355 4.21509 15.0462C4.0472 14.9569 3.76501 14.7855 3.58997 14.6676C3.41137 14.5533 3.12203 14.339 2.94699 14.1961C2.76839 14.0532 2.45761 13.7603 2.25043 13.5495C2.04325 13.3352 1.76105 13.0066 1.62174 12.8208C1.47885 12.6351 1.27882 12.335 1.17165 12.16C1.06092 11.9849 0.921605 11.7349 0.857307 11.6063C0.793009 11.4777 0.671557 11.2062 0.589398 10.999C0.503668 10.7918 0.392932 10.4882 0.342923 10.3203C0.292913 10.1524 0.217899 9.8631 0.182178 9.67735C0.142884 9.4916 0.0857307 9.16296 0.0535817 8.94507C0.0250048 8.72717 0 8.38067 0 7.78413L0.150029 7.62696C0.260764 7.51265 0.342923 7.46264 0.446514 7.44478C0.5251 7.43049 0.64298 7.43049 0.703706 7.44121C0.768004 7.45192 0.878739 7.51622 0.950182 7.57695C1.01805 7.64124 1.08949 7.74126 1.10735 7.80199C1.12164 7.86272 1.14665 8.10205 1.15736 8.33781C1.16808 8.57357 1.20737 8.95221 1.24667 9.17725C1.28596 9.4023 1.36455 9.74879 1.42527 9.94526C1.48243 10.1417 1.60745 10.4882 1.7039 10.7133C1.80034 10.9383 1.96823 11.2777 2.07897 11.4634C2.18613 11.6492 2.37903 11.9385 2.50048 12.1064C2.62193 12.2743 2.93628 12.6208 3.19347 12.8744C3.45066 13.1316 3.79715 13.4388 3.96504 13.5567C4.13293 13.6745 4.36512 13.8281 4.483 13.8996C4.60088 13.971 4.86522 14.1103 5.0724 14.2104C5.27958 14.3068 5.6225 14.4461 5.8404 14.5211C6.0583 14.5926 6.41908 14.689 6.64413 14.7355C6.86917 14.7819 7.2621 14.8355 7.51929 14.8533C7.79435 14.8748 8.16585 14.8748 8.43018 14.8569C8.67666 14.839 9.02315 14.7998 9.19819 14.7712C9.37322 14.739 9.68757 14.6676 9.89475 14.6104C10.1019 14.5533 10.4627 14.4247 10.6985 14.3247C10.9342 14.2246 11.295 14.0425 11.5022 13.9174C11.7094 13.796 12.013 13.5924 12.1809 13.4638C12.3488 13.3388 12.656 13.0673 12.8632 12.8601C13.0704 12.6529 13.3526 12.3279 13.4919 12.1421C13.6276 11.9564 13.8134 11.6813 13.9027 11.5348C13.992 11.3884 14.0991 11.1955 14.1456 11.1062C14.192 11.0169 14.2992 10.7704 14.3849 10.5525C14.4706 10.3346 14.5814 10.0131 14.6278 9.83809C14.6778 9.66306 14.7421 9.38086 14.7707 9.21297C14.7993 9.04508 14.8385 8.69859 14.8564 8.44497C14.8778 8.1592 14.8778 7.80199 14.8564 7.51622C14.8385 7.25903 14.785 6.8661 14.7385 6.64105C14.6921 6.41601 14.5956 6.05523 14.5242 5.83733C14.4528 5.61943 14.292 5.23721 14.167 4.98002C14.0384 4.72283 13.8455 4.37991 13.7312 4.21202C13.6205 4.04413 13.4347 3.79408 13.324 3.65834C13.2097 3.5226 12.9596 3.25469 12.7667 3.06537C12.5703 2.87962 12.2773 2.62243 12.1095 2.50098C11.9416 2.37595 11.6594 2.1902 11.4843 2.08661C11.3057 1.97945 11.0021 1.82228 10.8056 1.73655C10.6092 1.64724 10.2948 1.52936 10.1091 1.46864C9.92332 1.40791 9.60898 1.32575 9.41251 1.28646C9.21605 1.24717 8.89813 1.19716 8.70523 1.1793C8.51591 1.15786 8.20871 1.14 8.02653 1.14C7.84793 1.14 7.53001 1.15786 7.32283 1.17572C7.11565 1.19716 6.79416 1.24717 6.60841 1.28646C6.42266 1.32932 6.09045 1.41863 5.87612 1.4865C5.65822 1.55794 5.32959 1.68296 5.14384 1.77227C4.95809 1.858 4.67589 2.00445 4.23295 2.26522L4.508 2.28308C4.71161 2.29737 4.80806 2.3188 4.88308 2.37595C4.93666 2.41882 5.01524 2.4974 5.05454 2.54741C5.10812 2.61886 5.12598 2.70102 5.12598 2.85462C5.12598 3.01179 5.10812 3.0868 5.05096 3.16539C5.0081 3.21897 4.92951 3.29756 4.8795 3.33685C4.78663 3.40472 4.7259 3.40829 3.715 3.40829C2.70409 3.40829 2.64336 3.40472 2.55049 3.33685C2.50048 3.29756 2.42189 3.21897 2.37903 3.16539C2.30758 3.06537 2.30401 3.02965 2.30401 1.99731C2.30401 0.986402 2.30758 0.925676 2.37545 0.832801C2.41475 0.782792 2.49333 0.704205 2.54692 0.66134C2.6255 0.604186 2.70052 0.586325 2.85769 0.586325C3.01129 0.586325 3.09345 0.604186 3.16489 0.657768C3.2149 0.697061 3.29349 0.775647 3.33635 0.829229C3.38993 0.900671 3.41494 1.00426 3.44709 1.4222L3.715 1.25074C3.86145 1.15429 4.1365 0.997118 4.32225 0.897099C4.508 0.79708 4.84735 0.647051 5.0724 0.557749C5.29744 0.468446 5.67608 0.343422 5.91184 0.282696C6.1476 0.218398 6.54768 0.129095 6.80487 0.0862299C7.16566 0.025504 7.42285 0.00407132 7.95509 0.000499213H7.95866ZM7.93366 2.85819C8.11941 2.85819 8.41947 2.87248 8.5945 2.89034C8.76953 2.91177 9.06959 2.96535 9.25534 3.01536C9.44109 3.0618 9.72329 3.1511 9.88046 3.21183C10.0376 3.27255 10.3127 3.40472 10.4877 3.50117C10.6628 3.59762 10.9199 3.76193 11.0593 3.86552C11.195 3.96554 11.4272 4.16558 11.5736 4.30132C11.7165 4.44063 11.963 4.71926 12.1166 4.92644C12.2738 5.13362 12.4881 5.48012 12.5953 5.69444C12.7024 5.91234 12.8382 6.23383 12.8953 6.40887C12.9525 6.58747 13.0275 6.8911 13.0632 7.08757C13.1132 7.34833 13.1311 7.60195 13.1311 8.03418C13.1275 8.45211 13.1096 8.71645 13.0632 8.94507C13.0275 9.12367 12.9525 9.41301 12.8917 9.58805C12.8346 9.76665 12.7239 10.0453 12.6453 10.2132C12.5667 10.3811 12.3952 10.6775 12.2631 10.874C12.113 11.1026 11.8844 11.3741 11.6308 11.6241C11.3807 11.8778 11.1093 12.1064 10.8807 12.2564C10.6842 12.3886 10.3877 12.56 10.2198 12.6386C10.0519 12.7172 9.78759 12.8244 9.63041 12.8744C9.47324 12.928 9.19104 13.003 9.00529 13.0458C8.73024 13.1066 8.54449 13.1209 8.0051 13.1209C7.46571 13.1209 7.27996 13.1066 7.00491 13.0458C6.81916 13.003 6.53696 12.928 6.37979 12.8744C6.22262 12.8244 5.95828 12.7172 5.79039 12.6386C5.6225 12.56 5.32602 12.3886 5.12955 12.26C4.90094 12.1064 4.62946 11.8813 4.37584 11.6277C4.12222 11.3741 3.89717 11.1026 3.74357 10.874C3.61498 10.6775 3.44352 10.3811 3.36493 10.2132C3.28634 10.0453 3.17918 9.78094 3.12917 9.62377C3.07559 9.46659 3.00057 9.1844 2.95771 8.99865C2.89698 8.72717 2.88269 8.5307 2.88269 8.01632C2.88269 7.53051 2.89698 7.29475 2.94699 7.05185C2.98271 6.87681 3.05773 6.58747 3.11845 6.40887C3.17561 6.23383 3.28634 5.95164 3.36493 5.78375C3.44352 5.61586 3.61498 5.31937 3.74714 5.12291C3.87931 4.92644 4.12222 4.62281 4.29011 4.44778C4.45799 4.27274 4.7259 4.03341 4.88308 3.91196C5.04382 3.79408 5.30101 3.62262 5.45461 3.53332C5.61179 3.44401 5.8797 3.31542 6.0583 3.2404C6.23333 3.16896 6.54054 3.06894 6.737 3.01893C6.93347 2.96892 7.20495 2.91177 7.34426 2.89391C7.48 2.87605 7.74791 2.86176 7.93366 2.85819ZM7.55144 4.77998C7.50858 4.84071 7.46214 4.9443 7.45142 5.0086C7.44071 5.06932 7.43356 5.8159 7.44071 6.66606C7.45142 8.15206 7.455 8.21278 7.52287 8.30923C7.56573 8.36281 8.02296 8.69502 8.54092 9.04508C9.3375 9.5809 9.51253 9.68449 9.64827 9.69878C9.76972 9.71307 9.84831 9.69878 9.96976 9.63448C10.0876 9.57376 10.1519 9.50946 10.2127 9.39158C10.277 9.26298 10.2913 9.19869 10.2734 9.07009C10.2627 8.98079 10.2162 8.85933 10.1698 8.80218C10.1234 8.74503 9.74829 8.46997 9.33393 8.19492L8.58021 7.69483C8.55878 4.96931 8.55521 4.93001 8.48376 4.82999C8.4409 4.77641 8.36946 4.7014 8.32302 4.66568C8.27658 4.62996 8.15513 4.59066 8.05868 4.58352C7.95152 4.5728 7.83007 4.58709 7.75863 4.61924C7.69076 4.64424 7.59788 4.71569 7.55144 4.77998Z" fill="#A5B8EF"/>
</svg>
