<svg width="16" height="16" viewBox="0 0 16 16" fill="none" xmlns="http://www.w3.org/2000/svg">
<path d="M9.56391 0.219548C9.67643 0.182042 9.92021 0.119533 10.1109 0.0789019C10.3765 0.0226436 10.5578 0.00389088 10.9141 0.000765419C11.3548 -0.00236004 11.3829 0.000765413 11.5017 0.0757765C11.5798 0.125784 11.6486 0.20392 11.6892 0.285182C11.7361 0.391448 11.7517 0.488337 11.7517 0.732123C11.7517 0.904024 11.7361 1.16344 11.7205 1.31033C11.7017 1.45723 11.6517 1.71664 11.6111 1.88854C11.5673 2.06044 11.4986 2.29173 11.4517 2.40424C11.4079 2.51676 11.311 2.70741 11.2423 2.82618C11.1704 2.94495 11.0141 3.1481 10.8922 3.27625C10.7735 3.40127 10.5891 3.56067 10.4859 3.62943C10.3828 3.69819 10.1953 3.80133 10.0702 3.86071C9.94834 3.92009 9.73894 3.99823 9.61079 4.03574C9.48265 4.07637 9.37638 4.11387 9.37638 4.12325C9.37326 4.13262 9.45452 4.20451 9.55453 4.28265C9.65455 4.36391 9.88896 4.57957 10.0765 4.76709C10.264 4.95462 10.5078 5.22028 10.6172 5.3578C10.7297 5.49533 10.9235 5.76099 11.0485 5.95164C11.1766 6.1423 11.3642 6.46422 11.4642 6.6705C11.5673 6.87678 11.7049 7.1862 11.7674 7.3581C11.833 7.53 11.9299 7.85192 11.9861 8.07696C12.0424 8.29886 12.108 8.60828 12.1299 8.75831C12.1643 8.98021 12.183 9.0271 12.2206 9.01147C12.2456 8.99897 12.38 8.95521 12.5175 8.91145C12.7331 8.84269 12.83 8.83332 13.2051 8.83019C13.5708 8.83019 13.6833 8.83957 13.8927 8.89895C14.0302 8.93958 14.2552 9.0271 14.3927 9.09586C14.5303 9.16462 14.7303 9.28964 14.8366 9.37402C14.946 9.46154 15.121 9.63969 15.2272 9.77721C15.3366 9.9116 15.4835 10.1398 15.5523 10.2835C15.6242 10.4273 15.7117 10.6367 15.7492 10.7492C15.7836 10.8617 15.843 11.0993 15.8773 11.2806C15.918 11.4931 15.9399 11.74 15.9399 11.9775C15.9399 12.2244 15.918 12.4464 15.8742 12.662C15.8398 12.8402 15.7805 13.0683 15.7461 13.1715C15.7117 13.2746 15.6273 13.4778 15.5585 13.6246C15.4898 13.7715 15.3554 14.0091 15.2585 14.156C15.1616 14.3029 14.9335 14.5685 14.7522 14.7498C14.5709 14.9311 14.3177 15.153 14.1896 15.2405C14.0615 15.328 13.8208 15.4655 13.6583 15.5468C13.4957 15.6281 13.2426 15.7343 13.0957 15.7812C12.9488 15.8312 12.6769 15.8969 12.4862 15.9344C12.2424 15.9812 12.0174 16 11.7111 16C11.3829 16 11.1985 15.9812 10.9141 15.925C10.7141 15.8844 10.4359 15.8125 10.2984 15.7656C10.1609 15.7187 9.91396 15.6124 9.75144 15.5312C9.58891 15.4468 9.35138 15.3093 9.22636 15.2218C9.10447 15.1342 8.90444 14.9717 8.56376 14.6561L8.6419 14.5248C8.68878 14.4498 8.78567 14.2716 8.85756 14.1247C8.93257 13.9778 9.04508 13.7122 9.10759 13.5309C9.1701 13.3496 9.25449 13.0621 9.28887 12.8902C9.34513 12.6339 9.35763 12.4714 9.35763 11.9838C9.35763 11.4962 9.34513 11.3306 9.28887 11.0461C9.25136 10.8555 9.17948 10.5836 9.12947 10.4367C9.08259 10.2898 9.00445 10.0929 8.96382 9.99911C8.92007 9.90535 8.82943 9.73345 8.75754 9.61781C8.68566 9.49904 8.62627 9.3959 8.62627 9.3834C8.62315 9.36777 8.71066 9.29901 8.82005 9.22713C8.92944 9.15211 9.12947 9.04897 9.26699 8.99584C9.40451 8.94271 9.62329 8.8802 9.75144 8.8552C9.87958 8.83332 10.0796 8.81456 10.1953 8.81144C10.314 8.81144 10.5109 8.82707 10.6328 8.84582C10.7578 8.86457 10.9391 8.90833 11.0329 8.93958C11.1266 8.97396 11.2079 8.99897 11.211 8.99897C11.2173 8.99897 11.211 8.95208 11.2017 8.89895C11.1923 8.84269 11.1548 8.66142 11.1235 8.49889C11.0891 8.33637 11.0141 8.05508 10.9516 7.8738C10.8922 7.69252 10.761 7.37685 10.6609 7.17057C10.5578 6.96429 10.389 6.66112 10.2828 6.4986C10.1734 6.33607 10.0077 6.10167 9.91084 5.9829C9.81395 5.86413 9.62955 5.65472 9.5014 5.5172C9.37326 5.38281 9.1326 5.15778 8.97007 5.02338C8.80755 4.88586 8.51376 4.6702 7.96993 4.31078L7.61675 4.53893C7.4261 4.66395 7.13855 4.87336 6.98541 5.00463C6.83226 5.13277 6.56972 5.37968 6.40407 5.54846C6.24155 5.71723 5.99463 6.0079 5.85711 6.1923C5.72272 6.37671 5.52894 6.6705 5.43205 6.84865C5.33204 7.0268 5.19452 7.31122 5.12263 7.48312C5.05387 7.65502 4.95386 7.94256 4.90385 8.12384C4.85384 8.30511 4.79446 8.57078 4.76945 8.71768C4.74445 8.86457 4.7257 8.98647 4.72882 8.98959C4.73195 8.99584 4.81321 8.97084 4.90697 8.93958C5.00074 8.90833 5.19764 8.86457 5.34454 8.84269C5.50394 8.81769 5.72272 8.81144 5.89149 8.82082C6.04464 8.83332 6.27905 8.87082 6.4072 8.9052C6.53534 8.94271 6.75412 9.0271 6.89164 9.09586C7.02916 9.16462 7.22919 9.28964 7.33546 9.37402C7.44485 9.46154 7.61987 9.63969 7.72614 9.77721C7.83553 9.9116 7.98243 10.1398 8.05119 10.2835C8.12307 10.4273 8.21684 10.6586 8.26059 10.7961C8.30435 10.9336 8.36373 11.2087 8.39186 11.4056C8.43249 11.6712 8.44187 11.8681 8.42937 12.1557C8.41687 12.3807 8.38249 12.6589 8.34498 12.812C8.3106 12.9589 8.24497 13.1746 8.19808 13.2965C8.15433 13.4184 8.07619 13.5996 8.02306 13.7028C7.97305 13.8059 7.85116 14.0091 7.75427 14.156C7.65738 14.3029 7.43235 14.5685 7.25107 14.7498C7.06979 14.9311 6.81663 15.153 6.68849 15.2405C6.56034 15.328 6.31968 15.4655 6.15716 15.5468C5.99463 15.6281 5.74147 15.7343 5.59458 15.7812C5.44768 15.8312 5.17576 15.8969 4.98511 15.9344C4.74132 15.9812 4.51629 16 4.21 16C3.88182 16 3.69742 15.9812 3.413 15.925C3.21297 15.8844 2.93481 15.8125 2.79729 15.7656C2.65977 15.7187 2.41286 15.6124 2.25033 15.5312C2.08781 15.4468 1.84715 15.3061 1.719 15.2155C1.59086 15.1249 1.3752 14.9436 1.23768 14.8123C1.10329 14.6842 0.918886 14.481 0.825122 14.3591C0.734483 14.2372 0.593838 14.0278 0.515701 13.8903C0.437565 13.7528 0.328173 13.5215 0.26879 13.3746C0.209406 13.2277 0.125018 12.9464 0.081262 12.7495C0.0187528 12.4745 0 12.3026 0 12.015C0 11.8088 0.0218782 11.5056 0.0500074 11.3431C0.0750111 11.1805 0.146897 10.8992 0.20628 10.718C0.265664 10.5367 0.362553 10.3054 0.421937 10.2023C0.478196 10.0991 0.606339 9.90848 0.706354 9.78033C0.809494 9.65219 0.997022 9.46466 1.12517 9.36465C1.25331 9.26151 1.45646 9.13336 1.57836 9.07398C1.69713 9.01772 1.90966 8.93958 2.04718 8.89895C2.25658 8.83957 2.3691 8.83019 2.73478 8.83019C3.10983 8.83332 3.20672 8.84269 3.42238 8.91145C3.5599 8.95521 3.69429 8.99897 3.7193 9.01147C3.7568 9.0271 3.77243 8.98334 3.80681 8.77393C3.82869 8.63016 3.87557 8.39263 3.90995 8.24261C3.94121 8.08946 4.01309 7.83004 4.06623 7.6644C4.11936 7.49562 4.22875 7.2112 4.30376 7.02993C4.3819 6.84865 4.51629 6.57361 4.60068 6.42046C4.68819 6.26731 4.84134 6.0204 4.93823 5.87351C5.03512 5.72661 5.22577 5.47345 5.36329 5.31092C5.49769 5.1484 5.73522 4.88899 5.89149 4.73584C6.04464 4.58269 6.31343 4.34516 6.48533 4.20764C6.65723 4.07012 6.84476 3.92634 6.89789 3.89196C6.95415 3.85446 6.99791 3.81695 6.99166 3.80133C6.98853 3.78882 6.71037 3.63568 6.37594 3.45753C5.83211 3.17311 5.76023 3.12623 5.69772 3.01371C5.66021 2.94495 5.62583 2.83868 5.62583 2.7793C5.62583 2.71992 5.65083 2.6199 5.68521 2.56052C5.71647 2.50113 5.79773 2.41987 5.86337 2.38237C5.929 2.34174 6.03527 2.31048 6.09465 2.31048C6.16028 2.31048 6.2978 2.36049 6.43845 2.43237C6.56659 2.49801 6.86351 2.65428 7.0948 2.77617C7.32608 2.89807 7.51986 2.99496 7.52298 2.98871C7.52611 2.98558 7.55111 2.84806 7.57924 2.68554C7.60737 2.52301 7.68238 2.23234 7.74489 2.04482C7.8074 1.85729 7.92304 1.5885 8.00118 1.4541C8.07932 1.31658 8.24809 1.09468 8.37624 0.957156C8.50438 0.822762 8.69503 0.653987 8.79817 0.585227C8.90131 0.516466 9.07009 0.422703 9.17323 0.372695C9.27637 0.322688 9.45139 0.253928 9.56391 0.219548Z" fill="#A5B8EF"/>
</svg>
