<svg width="16" height="16" viewBox="0 0 16 16" fill="none" xmlns="http://www.w3.org/2000/svg">
<path fill-rule="evenodd" clip-rule="evenodd" d="M1.62381 0.00110358H5.15274C8.61739 -0.00227987 8.68167 -0.00227986 8.9422 0.0687725C9.0843 0.10599 9.29408 0.187193 9.40573 0.244712C9.51738 0.305614 9.70009 0.444335 9.81174 0.559372C9.9234 0.671026 10.0621 0.853732 10.123 0.965386C10.1805 1.07366 10.2584 1.25636 10.2922 1.36802C10.3463 1.55411 10.3531 1.71651 10.3531 4.85296L8.66137 4.87327C7.08469 4.89018 6.95612 4.89695 6.76664 4.95785C6.65499 4.99507 6.45537 5.08304 6.32679 5.15071C6.19822 5.21838 5.99183 5.3571 5.87341 5.45183C5.75499 5.54995 5.5892 5.72251 5.508 5.83416C5.42341 5.94582 5.30499 6.13529 5.24409 6.25709C5.18319 6.3789 5.10537 6.5616 5.07154 6.66311C5.01402 6.83228 5.00725 7.02175 4.97342 10.368H3.29861C1.99598 10.368 1.5832 10.3578 1.43772 10.3206C1.33621 10.2969 1.15351 10.2293 1.0317 10.1717C0.903131 10.1108 0.720425 9.98227 0.591855 9.85708C0.453133 9.72851 0.324562 9.5661 0.246743 9.41723C0.179074 9.28866 0.094488 9.06874 0.0572701 8.93002C-0.00363193 8.68641 -0.00701537 8.52739 0.00651841 5.15747C0.0132853 3.16801 0.033586 1.56426 0.0538866 1.46952C0.0708039 1.37478 0.135089 1.19208 0.195991 1.06351C0.260277 0.931551 0.392231 0.735311 0.493735 0.627041C0.595238 0.515387 0.757643 0.376666 0.855763 0.312381C0.9505 0.251479 1.16366 0.156742 1.32945 0.102607L1.62381 0.00110358ZM2.58809 2.20034C2.5035 2.24771 2.3817 2.34583 2.31741 2.42027C2.25313 2.49132 2.16177 2.63342 2.1144 2.73493C2.04335 2.89395 2.02982 2.97177 2.02982 3.22553C2.02982 3.48944 2.03997 3.5571 2.12117 3.72628C2.17192 3.83455 2.28358 3.99019 2.36816 4.07139C2.44937 4.15597 2.605 4.26763 2.71327 4.31838C2.88245 4.39958 2.95012 4.40973 3.21402 4.40973C3.46778 4.40973 3.5456 4.3962 3.70462 4.32515C3.80613 4.27778 3.95838 4.17628 4.04297 4.10184C4.12417 4.02402 4.23921 3.87177 4.29334 3.76349C4.37793 3.60109 4.39823 3.51312 4.40838 3.27628C4.41853 3.04959 4.405 2.95147 4.35086 2.8026C4.31026 2.68756 4.21552 2.54207 4.10387 2.42027C3.99222 2.29846 3.8535 2.19019 3.73846 2.13267C3.58959 2.06501 3.49147 2.04132 3.26478 2.03455C3.08545 2.02779 2.92982 2.04132 2.85876 2.06839C2.79109 2.09207 2.66929 2.15297 2.58809 2.20034ZM6.37755 2.2917C6.30988 2.34583 6.20837 2.46425 6.14409 2.5556C6.08319 2.64357 6.00875 2.8026 5.9783 2.9041C5.94108 3.03605 5.93431 3.16124 5.94785 3.32703C5.96138 3.48605 5.9986 3.62816 6.0595 3.74996C6.11025 3.85485 6.21852 4.00372 6.29973 4.08154C6.37755 4.15936 6.5298 4.26763 6.63807 4.31838C6.80724 4.39958 6.87153 4.40973 7.15574 4.40973C7.44671 4.40973 7.49408 4.40297 7.68017 4.30485C7.79859 4.24394 7.94746 4.12552 8.04558 4.01725C8.14032 3.91237 8.23506 3.75673 8.27566 3.64846C8.31964 3.53004 8.34333 3.38117 8.34333 3.22553C8.34333 3.07666 8.31964 2.9244 8.27566 2.8026C8.23167 2.68756 8.14032 2.54545 8.02867 2.42027C7.91701 2.29846 7.77829 2.19019 7.66326 2.13267C7.51438 2.06501 7.41288 2.04132 7.18957 2.03455C6.94258 2.0244 6.87153 2.03455 6.69897 2.10899C6.58394 2.15636 6.44183 2.23756 6.37755 2.2917ZM2.58809 6.12514C2.5035 6.17251 2.3817 6.27063 2.31741 6.34506C2.25313 6.41612 2.16177 6.55822 2.1144 6.65972C2.04335 6.81875 2.02982 6.89657 2.02982 7.15371C2.02982 7.42777 2.03997 7.4819 2.13471 7.67814C2.19561 7.80333 2.30388 7.9522 2.38846 8.03002C2.46967 8.10445 2.61854 8.20257 2.72342 8.24994C2.87906 8.32438 2.9535 8.33453 3.23094 8.33453C3.51853 8.33453 3.56929 8.32438 3.74861 8.23303C3.87041 8.17212 4.0159 8.06047 4.1174 7.94543C4.21214 7.84055 4.31026 7.68491 4.34748 7.5834C4.39146 7.46498 4.41515 7.3195 4.41515 7.15032C4.41515 6.98453 4.39146 6.83566 4.34748 6.72063C4.31026 6.61912 4.21214 6.46348 4.1174 6.35521C4.01252 6.24018 3.8738 6.13191 3.74861 6.071C3.58959 5.99319 3.49823 5.9695 3.28169 5.96273C3.12267 5.95597 2.9535 5.9695 2.87568 5.99319C2.80124 6.02025 2.66929 6.07777 2.58809 6.12514ZM14.4775 5.52965L14.7008 5.60409C14.8192 5.64469 15.0121 5.73604 15.1238 5.8071C15.2354 5.88153 15.4012 6.02364 15.4959 6.12176C15.5907 6.22326 15.7192 6.40597 15.7801 6.52439C15.841 6.64619 15.9189 6.85258 15.9493 6.98115C16.0034 7.20108 16.0068 7.48867 15.9933 10.7368C15.9865 12.7296 15.9662 14.33 15.9493 14.4247C15.9324 14.5195 15.8613 14.7089 15.7937 14.8477C15.7057 15.0371 15.611 15.1657 15.4316 15.3416C15.2997 15.4702 15.1068 15.6191 15.0053 15.6698C14.9004 15.7206 14.7042 15.795 14.5655 15.8289C14.3185 15.8931 14.1798 15.8965 10.8166 15.8965C7.37566 15.8965 7.31814 15.8965 7.061 15.8255C6.91551 15.7883 6.69897 15.7003 6.58055 15.6326C6.45875 15.565 6.27604 15.4262 6.17454 15.3213C6.06965 15.2165 5.9377 15.0405 5.88018 14.9322C5.81928 14.8206 5.74484 14.6379 5.71101 14.5262C5.65349 14.3368 5.65011 14.1236 5.65011 7.08265L5.72454 6.84581C5.76514 6.71724 5.84296 6.53454 5.8971 6.4398C5.95123 6.34845 6.04935 6.20973 6.11364 6.13529C6.17792 6.06085 6.32679 5.93567 6.44522 5.85446C6.56702 5.77665 6.74634 5.67852 6.85123 5.64131C6.95273 5.60409 7.11852 5.5601 7.22341 5.54657C7.32491 5.52965 8.99972 5.5195 14.4809 5.52965H14.4775ZM8.00837 7.89468C7.85273 8.05032 7.78506 8.14844 7.72754 8.30069C7.67679 8.43942 7.6531 8.58152 7.6531 8.74054C7.6531 8.89618 7.67679 9.04505 7.72077 9.16347C7.76138 9.27513 7.85611 9.42738 7.95085 9.53227C8.05912 9.65069 8.19107 9.74881 8.33318 9.81986C8.52942 9.9146 8.58355 9.92475 8.85761 9.92475C9.11814 9.92475 9.18919 9.9146 9.35159 9.83678C9.4531 9.78603 9.60874 9.67437 9.70009 9.58302C9.79144 9.49167 9.9031 9.33603 9.95385 9.23114C10.0317 9.07212 10.0452 9.00107 10.0452 8.74054C10.0452 8.46987 10.0317 8.41235 9.93693 8.21611C9.86926 8.07739 9.77114 7.94543 9.66625 7.85408C9.5749 7.77288 9.4328 7.67476 9.35159 7.63416C9.23994 7.5834 9.11475 7.55972 8.89483 7.55295C8.64107 7.5428 8.55649 7.55295 8.40423 7.61386C8.27904 7.66461 8.14709 7.75596 8.00837 7.89468ZM12.1599 11.6232C12.0922 11.6638 11.967 11.7755 11.8756 11.877C11.7877 11.9785 11.6862 12.1375 11.649 12.2356C11.605 12.3541 11.5847 12.4996 11.5847 12.6653C11.5847 12.8345 11.605 12.98 11.649 13.0984C11.6862 13.1965 11.7809 13.3522 11.8621 13.4435C11.9467 13.5383 12.1091 13.6668 12.2275 13.7311C12.4339 13.8428 12.4644 13.8495 12.7689 13.8495C13.0497 13.8495 13.114 13.8394 13.2832 13.7582C13.3914 13.7074 13.5437 13.5992 13.6215 13.5214C13.7027 13.4435 13.8144 13.2845 13.8685 13.1729C13.9565 12.9935 13.9666 12.936 13.9666 12.6653C13.9666 12.4082 13.9531 12.3338 13.8786 12.1747C13.8313 12.0732 13.7365 11.9277 13.6723 11.8533C13.608 11.7789 13.4591 11.6672 13.3407 11.6029C13.1478 11.5014 13.0869 11.4845 12.8365 11.4777C12.664 11.471 12.4914 11.4845 12.4136 11.5116C12.3392 11.5353 12.2241 11.586 12.1599 11.6232Z" fill="#A5B8EF"/>
</svg>
