<svg width="14" height="19" viewBox="0 0 14 19" fill="none" xmlns="http://www.w3.org/2000/svg">
<path d="M12.3078 5.581C12.066 3.574 10.322 2.9561 8.15798 2.79602L8.09938 0L6.37748 0.0174098L6.41148 2.72138C5.97258 2.74032 5.53368 2.75926 5.04878 2.79053L5.01488 0.0865598L3.33904 0.09164L3.39763 2.88766C3.0508 2.88193 2.67028 2.93457 2.32344 2.92884L0 2.91014L0.0420704 4.72402C0.0420704 4.72402 1.31269 4.67953 1.26666 4.69186C1.948 4.65728 2.16336 5.09286 2.24969 5.415L2.26887 8.6162L2.3202 13.042C2.27748 13.2508 2.17971 13.6223 1.68248 13.6075C1.69481 13.6536 0.45788 13.6397 0.45788 13.6397L0.21478 15.678L2.42152 15.6293C2.81437 15.6227 3.25325 15.6037 3.64611 15.5971L3.7047 18.3932L5.38048 18.3881L5.32188 15.5921C5.77308 15.6191 6.25808 15.5879 6.65088 15.5813L6.69718 18.3313L8.37298 18.3262L8.31438 15.5302C11.1655 15.3088 13.1412 14.5821 13.362 11.9085C13.5221 9.7445 12.4898 8.8373 10.8534 8.4371C11.8503 7.9234 12.4477 7.0234 12.3078 5.581ZM10.0285 11.6179C10.0525 13.7326 6.45508 13.5619 5.32258 13.5694L5.25978 9.8373C6.39228 9.8298 9.99208 9.4572 10.0285 11.6179ZM9.16588 6.3736C9.18658 8.2918 6.17848 8.1113 5.24238 8.1155L5.17388 4.73015C6.12228 4.77199 9.13278 4.40928 9.16588 6.3736Z" fill="white"/>
</svg>
