<svg width="18" height="19" viewBox="0 0 18 19" fill="none" xmlns="http://www.w3.org/2000/svg">
<path d="M6.69504 10.7313C6.69504 10.7729 6.57103 10.8145 6.48703 10.8145C6.36303 10.8145 6.07201 10.8145 5.86401 10.8145C5.19801 10.7313 4.53303 10.5234 4.03403 10.2738C3.74303 10.1491 3.53503 9.98271 3.41003 9.85801L3.32703 9.77481V9.65001C3.32703 9.44211 3.32703 9.10941 3.32703 9.02621C3.32703 8.94301 3.36803 8.85991 3.41003 8.77671C3.45203 8.73511 3.45203 8.73511 3.53503 8.73511C3.65903 8.73511 3.78402 8.77671 3.95102 8.81831C4.32502 8.94301 4.90702 9.23421 5.57202 9.60841C6.15502 9.94111 6.36302 10.1075 6.52902 10.357C6.65402 10.4402 6.69504 10.6481 6.69504 10.7313Z" fill="white"/>
<path d="M17.092 12.145C17.092 12.145 17.092 12.1034 17.092 12.0618C16.343 11.9786 14.264 11.9371 12.309 13.559C12.309 13.559 11.686 10.6895 8.73302 10.6895C5.78002 10.6895 4.69902 13.559 4.69902 13.559C3.03602 11.7707 0.831001 11.8955 0.0410009 12.0202V12.0618C8.9407e-07 12.5193 0.0410236 12.7272 0.0830236 12.9767C0.332024 13.8501 1.03902 14.8066 2.12102 15.7631C3.95002 17.3018 6.40401 18.4246 8.27501 18.5494C10.23 18.6742 13.1 17.5513 15.013 15.8878C15.304 15.6383 15.595 15.3472 15.844 15.0561C16.052 14.8482 16.302 14.4739 16.302 14.4739C16.302 14.4739 16.302 14.4739 16.302 14.4323C16.302 14.3907 16.343 14.3907 16.343 14.3491C16.385 14.2659 16.593 13.9332 16.593 13.8916C16.759 13.4758 16.884 13.1431 16.926 12.8104C17.092 12.5193 17.092 12.1866 17.092 12.145ZM9.398 15.8462C9.357 15.8878 9.315 15.8878 9.274 15.8878C9.274 15.8878 9.23202 15.8462 9.19002 15.8047L9.10701 15.7215L9.024 15.8047C8.858 16.0126 8.81601 16.0126 8.77501 16.0126C8.69101 16.0126 8.65 16.0126 8.567 15.8462C8.525 15.7631 8.48302 15.6799 8.48302 15.6799C8.48302 15.6799 8.44201 15.6799 8.40001 15.6799H8.317L8.27501 15.7631L8.23403 15.8462L8.15102 15.8047C8.10902 15.8047 8.02602 15.7631 7.98402 15.7215L7.90102 15.6799V15.5967H8.73302H9.56502V15.6799C9.52302 15.8047 9.565 15.8047 9.398 15.8462ZM10.937 15.3056C10.895 15.472 10.854 15.6383 10.854 15.6383C10.812 15.6383 10.771 15.6383 10.771 15.6383H10.688L10.563 15.971C10.48 16.1373 10.438 16.3037 10.396 16.3453V16.3869L10.313 16.2621L10.23 16.1373V15.3056H10.188C10.147 15.3056 9.773 15.3472 9.606 15.3888C8.941 15.472 8.275 15.4304 7.61 15.3472C7.485 15.3472 7.40202 15.3056 7.40202 15.3056C7.40202 15.3056 7.40202 15.5135 7.40202 15.7631V16.1789L7.36101 16.2621C7.31901 16.3037 7.31902 16.3453 7.31902 16.3453C7.31902 16.3453 7.27702 16.3037 7.19402 16.1789C7.11102 16.0126 7.069 15.8878 7.028 15.7215L6.98601 15.6383H6.903H6.82002L6.778 15.5135C6.778 15.472 6.73702 15.3472 6.73702 15.3056V15.2224L6.65401 15.1393C6.61201 15.0977 6.57002 15.0561 6.57002 15.0561L6.52901 15.0145V14.9729H6.903H7.27702V15.0145V15.0561H7.40202C7.48502 15.0561 7.69302 15.0561 7.90102 15.0561H8.27501L8.35903 14.8897L8.442 14.7234H8.567V14.3907V14.058L8.40001 13.9748C7.86001 13.7253 7.52702 13.4758 7.40202 13.1431C7.36102 13.0599 7.36101 13.0599 7.36101 12.7272C7.36101 12.4361 7.36101 12.3945 7.36101 12.3113C7.40201 12.145 7.52701 12.0202 7.69301 11.9786C7.73501 11.9786 7.90102 11.9786 8.60802 11.9786H9.44002L9.523 12.0202C9.648 12.0618 9.689 12.1034 9.773 12.1866C9.856 12.2697 9.856 12.3529 9.856 12.5609C9.856 12.8104 9.85601 13.0599 9.81401 13.1431C9.77301 13.2678 9.731 13.3926 9.648 13.4758C9.481 13.6837 9.232 13.8501 8.941 13.9748L8.85802 14.0164V14.3491V14.6818H8.941H9.024L9.10701 14.8066L9.19002 14.9313H9.606C9.814 14.9313 10.022 14.9313 10.064 14.9313C10.105 14.9313 10.105 14.9313 10.147 14.8897L10.188 14.8482H10.521C10.812 14.8482 10.854 14.8482 10.854 14.8482C11.02 14.9729 10.979 15.1393 10.937 15.3056Z" fill="white"/>
<path d="M17.05 11.8124C17.05 11.6877 17.05 11.4797 17.009 11.3966C16.884 10.0242 16.51 8.8598 15.844 7.6537C15.803 7.6121 15.803 7.5706 15.761 7.529C15.761 7.529 15.761 7.529 15.761 7.4874C15.844 7.1963 16.26 5.99026 16.551 4.65947C16.967 2.78806 17.258 0.625527 16.426 0.00172712C16.426 0.00172712 15.013 -0.123043 13.141 1.74838C12.642 2.24742 12.143 2.82964 11.727 3.41186L11.602 3.37028C10.854 3.12076 10.064 2.95441 9.27399 2.91282C9.02399 2.91282 8.15099 2.91282 7.85999 2.91282C6.98599 2.95441 6.32101 3.12076 5.53101 3.37028C5.48901 3.37028 5.489 3.41186 5.448 3.41186C5.032 2.82964 4.533 2.28901 3.992 1.74838C2.037 -0.123043 0.582001 0.00172712 0.582001 0.00172712C-0.290999 0.667117 7.45058e-07 2.9544 0.457001 4.86741C0.748001 6.11502 1.12198 7.2379 1.24698 7.6537C1.24698 7.6953 1.20599 7.6953 1.20599 7.7369C0.498994 9.1925 0.124 10.5648 0 12.062C0.79 11.9372 2.99398 11.8124 4.65698 13.6007C4.65698 13.6007 5.73898 10.7312 8.69098 10.7312C11.644 10.7312 12.268 13.6007 12.268 13.6007C14.222 11.9788 16.302 12.062 17.05 12.1036C17.05 11.9788 17.05 11.8956 17.05 11.8124ZM1.82898 6.44772C1.82898 6.44772 0.664986 3.57821 0.997986 1.95632C1.03899 1.66521 1.122 1.45727 1.289 1.24934C1.289 1.24934 2.57801 1.3741 4.69901 3.70297C4.69901 3.70297 4.283 3.9109 3.784 4.32678C3.119 4.74265 2.41198 5.44963 1.82898 6.44772ZM6.69501 10.7312C6.69501 10.7728 6.57 10.8144 6.487 10.8144C6.362 10.8144 6.07101 10.8144 5.86301 10.8144C5.19801 10.7312 4.533 10.5232 4.034 10.2737C3.742 10.149 3.535 9.9826 3.41 9.8579L3.327 9.7747V9.6499C3.327 9.442 3.327 9.1093 3.327 9.0261C3.327 8.9429 3.368 8.8598 3.41 8.7766C3.451 8.735 3.451 8.735 3.535 8.735C3.659 8.735 3.78398 8.7766 3.94998 8.8182C4.32498 8.9429 4.90699 9.234 5.57199 9.6083C6.15399 9.941 6.36199 10.1074 6.52899 10.3569C6.65399 10.4401 6.69501 10.648 6.69501 10.7312ZM13.931 9.6915C13.931 9.7331 13.765 9.8994 13.64 9.9826C13.224 10.2737 12.476 10.5648 11.686 10.7312C11.228 10.8143 10.812 10.8144 10.687 10.7728C10.604 10.7312 10.604 10.6896 10.604 10.6064C10.687 10.3569 10.895 10.1074 11.187 9.8994C11.353 9.7747 12.018 9.3588 12.351 9.1925C12.85 8.9014 13.266 8.735 13.557 8.6934C13.64 8.6934 13.765 8.6934 13.807 8.6934C13.848 8.735 13.931 8.8598 13.931 9.0677C13.931 9.1509 13.931 9.6083 13.931 9.6915ZM13.391 4.32678C12.85 3.9109 12.476 3.70297 12.476 3.70297C14.513 1.3741 15.761 1.24934 15.761 1.24934C15.886 1.41569 15.969 1.66521 16.052 1.95632C16.343 3.57821 15.22 6.44772 15.22 6.44772C14.763 5.61598 14.139 4.90899 13.391 4.32678Z" fill="white"/>
<path d="M12.143 8.0695C12.143 8.0695 11.145 8.1111 11.27 7.3625C11.395 6.61393 12.144 6.48917 12.393 6.53076C12.601 6.57235 13.474 6.86345 13.308 7.5288C13.142 8.1527 12.934 8.0695 12.809 8.0695C12.684 8.0695 12.143 8.0695 12.143 8.0695Z" fill="white"/>
<path d="M4.90701 8.0695C4.90701 8.0695 3.90903 8.1111 4.03403 7.3625C4.15903 6.61393 4.90701 6.48917 5.15701 6.53076C5.36501 6.57235 6.23802 6.86345 6.07202 7.5288C5.90502 8.1527 5.69703 8.0695 5.57303 8.0695C5.44803 8.0695 4.90701 8.0695 4.90701 8.0695Z" fill="white"/>
<path d="M13.2549 11.8369H4.25903V16.5716H13.2549V11.8369Z" fill="white"/>
</svg>
