<svg width="20" height="18" viewBox="0 0 20 18" fill="none" xmlns="http://www.w3.org/2000/svg">
<path d="M15.057 5.35429C14.694 5.14635 14.226 5.14635 13.811 5.35429L10.903 7.0697L8.92999 8.1614L6.07501 9.8768C5.71101 10.0848 5.24401 10.0848 4.82901 9.8768L2.59601 8.5253C2.23301 8.3173 1.97299 7.9015 1.97299 7.4336V4.83445C1.97299 4.41858 2.18101 4.00272 2.59601 3.7428L4.82901 2.44322C5.19201 2.23528 5.65901 2.23528 6.07501 2.44322L8.30701 3.79478C8.67101 4.00272 8.92999 4.41859 8.92999 4.88644V6.6019L10.903 5.45825V3.69082C10.903 3.27495 10.696 2.85908 10.28 2.59917L6.12701 0.155948C5.76301 -0.0519825 5.29601 -0.0519825 4.88101 0.155948L0.622986 2.65115C0.207986 2.85908 0 3.27495 0 3.69082V8.5773C0 8.9931 0.207986 9.409 0.622986 9.6689L4.82901 12.1121C5.19201 12.3201 5.65901 12.3201 6.07501 12.1121L8.92999 10.4487L10.903 9.305L13.759 7.6416C14.123 7.4336 14.59 7.4336 15.005 7.6416L17.238 8.9411C17.601 9.1491 17.861 9.5649 17.861 10.0328V12.632C17.861 13.0478 17.653 13.4637 17.238 13.7236L15.057 15.0232C14.694 15.2311 14.226 15.2311 13.811 15.0232L11.578 13.7236C11.215 13.5157 10.955 13.0998 10.955 12.632V10.9685L8.98199 12.1121V13.8276C8.98199 14.2434 9.19001 14.6593 9.60501 14.9192L13.811 17.3624C14.174 17.5704 14.642 17.5704 15.057 17.3624L19.263 14.9192C19.626 14.7113 19.886 14.2954 19.886 13.8276V8.8892C19.886 8.4733 19.678 8.0574 19.263 7.7975L15.057 5.35429Z" fill="white"/>
</svg>
