<svg width="20" height="18" viewBox="0 0 20 18" fill="none" xmlns="http://www.w3.org/2000/svg">
<path d="M11.4745 5.94266V3.57566H16.836V0H2.2548V3.57566H7.61629V5.94266C3.25699 6.14406 0 7.00026 0 8.05786C0 9.11536 3.25699 9.97156 7.61629 10.173V17.7272H11.4745V10.173C15.8339 9.97156 19.0908 9.11536 19.0908 8.05786C19.0908 7.00026 15.8339 6.14406 11.4745 5.94266ZM11.4745 9.51826C11.3743 9.51826 10.8231 9.56866 9.5705 9.56866C8.5683 9.56866 7.8668 9.51826 7.61629 9.51826C3.75799 9.36726 0.901894 8.66216 0.901894 7.85636C0.901894 7.05056 3.75799 6.39586 7.61629 6.19446V8.81326C7.8668 8.81326 8.5683 8.86356 9.5705 8.86356C10.773 8.86356 11.3743 8.81326 11.4745 8.81326V6.19446C15.3328 6.34556 18.1889 7.05056 18.1889 7.85636C18.1889 8.66216 15.3328 9.31686 11.4745 9.51826Z" fill="white"/>
</svg>
