<svg width="19" height="20" viewBox="0 0 19 20" fill="none" xmlns="http://www.w3.org/2000/svg">
<path d="M17.857 5.7383C16.964 4.91391 15.729 3.65499 14.723 2.76214L14.664 2.72047C14.565 2.64094 14.453 2.57857 14.333 2.53595C11.908 2.08357 0.619002 -0.0265273 0.399002 0.000252653C0.337002 0.00890265 0.278006 0.0312729 0.226006 0.0657329L0.170006 0.110373C0.100006 0.181093 0.0469994 0.266513 0.0149994 0.360373L0 0.399063V0.610373V0.643113C1.271 4.18178 6.289 15.774 7.277 18.4942C7.336 18.6787 7.45 19.0299 7.661 19.0478H7.709C7.822 19.0478 8.304 18.4109 8.304 18.4109C8.304 18.4109 16.923 7.9585 17.795 6.8454C17.908 6.7083 18.007 6.5609 18.092 6.405C18.114 6.283 18.104 6.1575 18.063 6.0407C18.021 5.9238 17.951 5.8197 17.857 5.7383ZM10.515 6.9556L14.194 3.90499L16.351 5.8931L10.515 6.9556ZM9.086 6.7562L2.753 1.56572L13 3.45559L9.086 6.7562ZM9.658 8.1163L16.14 7.0716L8.729 16.0002L9.658 8.1163ZM1.89301 2.08357L8.557 7.7383L7.592 16.0061L1.89301 2.08357Z" fill="white"/>
</svg>
