<svg width="16" height="16" viewBox="0 0 16 16" fill="none" xmlns="http://www.w3.org/2000/svg">
<path fill-rule="evenodd" clip-rule="evenodd" d="M7.46552 0.00344828L15.1379 0L15.3207 0.0862069C15.4172 0.134483 15.5552 0.217241 15.6207 0.268966C15.6862 0.324138 15.7966 0.468966 15.9828 0.810345V11.8793L15.8931 12.0517C15.8414 12.1448 15.7621 12.2724 15.7172 12.3276C15.669 12.3828 15.531 12.4862 15.1897 12.6724H7.43104L7.2069 12.5483C7.05747 12.4655 6.94023 12.3678 6.85517 12.2552C6.78276 12.1621 6.70345 12.0069 6.67241 11.9138C6.62414 11.7621 6.62069 11.1379 6.63793 0.810345L6.72414 0.637931C6.76897 0.541379 6.87241 0.403448 6.94828 0.327586C7.02414 0.251724 7.17241 0.148276 7.27586 0.0965517L7.46552 0.00344828ZM8.36552 1.2C8.33104 1.23103 8.17241 1.51724 8.01379 1.83448C7.85517 2.15172 7.72414 2.45172 7.72414 2.5C7.72414 2.54483 7.76207 2.62414 7.81035 2.67241C7.85862 2.72069 7.93793 2.75862 7.98966 2.75862C8.04483 2.75862 8.11724 2.73793 8.15517 2.71034C8.1931 2.68276 8.2931 2.52069 8.37931 2.34828C8.46552 2.17241 8.54138 2.03103 8.55173 2.03103C8.56207 2.03103 8.63793 2.17241 8.72414 2.34828C8.81035 2.52069 8.91035 2.68276 8.94828 2.71034C8.98621 2.73793 9.06207 2.75862 9.11379 2.75862C9.16897 2.75862 9.24483 2.72069 9.2931 2.67241C9.34138 2.62414 9.37931 2.54483 9.37931 2.5C9.37931 2.45172 9.24828 2.15172 9.08966 1.83448C8.93104 1.51724 8.77241 1.23103 8.73793 1.2C8.7 1.16897 8.64138 1.13793 8.60345 1.12759C8.56552 1.11724 8.51035 1.11724 8.48276 1.12759C8.45517 1.13793 8.40345 1.17241 8.36552 1.2ZM10.1897 4.81724C10.1138 4.85862 10.0034 4.94138 9.94483 5.00345C9.88276 5.06897 9.8 5.18966 9.75862 5.27586C9.71035 5.36897 9.67241 5.52069 9.66207 5.65517C9.65173 5.77586 9.66552 5.97931 9.68621 6.10345C9.71035 6.22414 9.77931 6.43448 9.84138 6.56897C9.90345 6.7 10.0276 6.90345 10.1172 7.01724C10.2069 7.13103 10.3448 7.28276 10.4241 7.35517C10.5034 7.42759 10.6552 7.55172 10.7586 7.63448C10.8621 7.71724 11.031 7.83103 11.131 7.88966L11.3103 8C11.6966 7.76207 11.9034 7.61379 12.0172 7.51724C12.131 7.42069 12.3138 7.23793 12.4241 7.11034C12.5345 6.98276 12.6828 6.75517 12.7586 6.60345C12.831 6.45172 12.9103 6.22414 12.9345 6.10345C12.9552 5.97931 12.969 5.77586 12.9586 5.65517C12.9483 5.52069 12.9103 5.36897 12.8621 5.27586C12.8207 5.18966 12.7379 5.06897 12.6759 5.00345C12.6172 4.94138 12.4897 4.84828 12.3966 4.8C12.2621 4.72759 12.1759 4.7069 12 4.7069C11.8552 4.7069 11.7379 4.72759 11.6621 4.76897C11.6034 4.8 11.4966 4.87241 11.431 4.93103L11.3103 5.03448C11.1241 4.87241 11.0172 4.8 10.9552 4.76897C10.8966 4.74138 10.769 4.71034 10.6724 4.70345C10.5759 4.69655 10.4621 4.70345 10.4138 4.71724C10.3655 4.73448 10.2655 4.77931 10.1897 4.81724ZM13.2448 10.1966C13.2448 10.2483 13.3862 10.569 13.5621 10.9138C13.8241 11.4241 13.8966 11.5379 13.9759 11.569C14.0379 11.592 14.1012 11.592 14.1655 11.569C14.2414 11.5379 14.3138 11.4241 14.5759 10.9138C14.7517 10.5724 14.8931 10.2483 14.8966 10.1966C14.8966 10.1414 14.8621 10.069 14.8103 10.0172C14.7621 9.96552 14.6828 9.93103 14.631 9.93103C14.5759 9.93103 14.5034 9.95172 14.4655 9.97586C14.4276 10.0034 14.3276 10.169 14.2414 10.3414C14.1552 10.5138 14.0793 10.6552 14.069 10.6552C14.0586 10.6552 13.9828 10.5138 13.8966 10.3414C13.8103 10.169 13.7103 10.0034 13.6724 9.97586C13.6345 9.95172 13.5586 9.93103 13.5069 9.93103C13.4517 9.93103 13.3759 9.96552 13.3276 10.0138C13.2793 10.0621 13.2448 10.1414 13.2448 10.1966ZM2.5931 3.68966C2.61034 3.68966 2.62759 3.71724 2.63793 3.74828C2.64483 3.78276 3.22759 5.95862 3.93103 8.58621C4.63448 11.2103 5.23448 13.4379 5.26207 13.5345C5.28966 13.6276 5.36207 13.7966 5.42414 13.9103C5.48621 14.0207 5.62069 14.1931 5.72414 14.2897C5.83104 14.3862 6 14.5069 6.10345 14.5552C6.2069 14.6034 6.36207 14.6655 6.44828 14.6862C6.53448 14.7103 6.72069 14.7276 6.86207 14.7276C7.07931 14.7241 7.35173 14.6621 8.60345 14.3276C9.41724 14.1103 10.1103 13.931 10.1345 13.931C10.1655 13.931 10.1724 13.9414 10.1517 13.9621C10.1345 13.9793 9.42069 14.3966 8.56897 14.8897C7.71379 15.3793 6.91724 15.831 6.7931 15.8931C6.61035 15.9793 6.52759 16 6.33448 16C6.14828 16 6.06552 15.9793 5.89655 15.8966C5.78276 15.8379 5.63103 15.731 5.55862 15.6586C5.47931 15.5759 4.46207 13.8483 2.82759 11.0138C1.39655 8.53103 0.172414 6.40345 0.110345 6.28276C0.0137931 6.09655 0 6.03448 0 5.81724C0.00344828 5.61379 0.0206897 5.53103 0.103448 5.36207C0.158621 5.24828 0.255172 5.10345 0.317241 5.04483C0.37931 4.98276 0.910345 4.65517 1.5 4.31379C2.08621 3.97241 2.57931 3.6931 2.5931 3.68966ZM1.70345 6C1.71724 6.23448 1.73793 6.55517 1.74828 6.7069C1.76437 6.8908 1.7931 7.00805 1.83448 7.05862C1.87931 7.11724 1.93103 7.13793 2.03448 7.13793C2.14483 7.13793 2.18621 7.11724 2.24483 7.04138C2.31034 6.95517 2.31379 6.92414 2.28621 6.57586C2.27241 6.37241 2.26897 6.2069 2.28276 6.2069C2.3 6.2069 2.44138 6.28966 2.60345 6.39655C2.76552 6.5 2.93448 6.58621 2.98276 6.58621C3.03103 6.58621 3.09655 6.57241 3.12759 6.55517C3.16207 6.53793 3.21035 6.47931 3.23448 6.42759C3.26552 6.35172 3.26897 6.3 3.24138 6.23103C3.21724 6.16207 3.04483 6.03103 2.63793 5.75862C2.18966 5.45862 2.04483 5.37931 1.95172 5.37931C1.86207 5.37931 1.81379 5.40345 1.75517 5.47241C1.68621 5.56207 1.68276 5.58966 1.70345 6ZM6.02414 1.31379C6.05862 1.31034 6.06897 1.57931 6.06897 3.7931L5.63448 3.3C5.39655 3.03103 5.16552 2.78965 5.11724 2.76552C5.07241 2.74138 5 2.73103 4.95517 2.74138C4.91379 2.74828 4.85172 2.78621 4.81724 2.81724C4.77931 2.85862 4.71035 3.1069 4.46552 4.27241L4.53793 4.36897C4.58966 4.43793 4.64483 4.46897 4.74483 4.47586C4.84138 4.48276 4.89655 4.46897 4.94138 4.42414C4.97241 4.38966 5.03103 4.22759 5.06897 4.06897C5.1069 3.9069 5.14483 3.74138 5.15517 3.69655C5.17241 3.62414 5.18621 3.63448 5.33448 3.8C5.42414 3.9 5.54828 4.03103 5.61035 4.0931C5.68276 4.16552 5.75862 4.2069 5.81724 4.2069C5.87241 4.2069 5.94828 4.18276 6.06897 4.10345V7.93793C6.06897 11.3103 6.07586 11.8 6.12414 11.9828C6.15172 12.0966 6.22759 12.2793 6.28621 12.3931C6.34828 12.5069 6.48621 12.6793 6.60345 12.7862C6.71724 12.8897 6.90345 13.0207 7.01724 13.0724C7.13104 13.1276 7.31035 13.1862 7.41379 13.2069C7.52414 13.2276 8.18621 13.2414 9.01379 13.2414C9.78966 13.2414 10.4172 13.2483 10.4103 13.2586C10.4034 13.2655 9.67586 13.469 8.7931 13.7069C7.69655 14.0069 7.1069 14.1483 6.93104 14.1621C6.73793 14.1759 6.62759 14.1655 6.5 14.1241C6.40345 14.0897 6.26207 14.0138 6.18276 13.9552C6.1069 13.8931 5.9931 13.7724 5.93448 13.6897C5.84483 13.5552 5.63793 12.8241 4.44138 8.37931C3.17586 3.66552 3.05862 3.2 3.05517 2.94828C3.05517 2.72414 3.06897 2.63793 3.13793 2.5C3.18276 2.40345 3.2931 2.25517 3.37931 2.17241C3.46552 2.08621 3.58966 1.9931 3.65517 1.96552C3.72069 1.93793 4.27241 1.77931 4.87931 1.61379C5.48621 1.45172 6.00345 1.31379 6.02414 1.31379Z" fill="#D2DCF7"/>
</svg>
