<svg width="20" height="20" viewBox="0 0 20 20" fill="none" xmlns="http://www.w3.org/2000/svg">
<path d="M8.31762 0.289592C8.47781 0.230988 8.79429 0.145036 9.02091 0.0942457C9.32957 0.0239212 9.564 0.000479678 9.95862 0.000479678C10.3454 -0.00342724 10.5877 0.0161074 10.8768 0.0747112C11.0917 0.117687 11.4082 0.199733 11.5801 0.254429C11.752 0.313033 12.0607 0.441962 12.2638 0.547448C12.467 0.649028 12.7522 0.817026 12.8929 0.922513C13.0375 1.02409 13.2406 1.19209 13.3422 1.28976C13.4477 1.38744 13.6274 1.57106 13.7447 1.69999C13.8619 1.82501 14.0377 2.05552 14.1393 2.20398C14.2409 2.35635 14.3854 2.60249 14.4597 2.75095C14.5378 2.89941 14.6511 3.1729 14.7175 3.35652C14.78 3.54015 14.866 3.83707 14.9051 4.0207C14.9598 4.27074 14.9754 4.51297 14.9754 5.01696C14.9754 5.56003 14.9559 5.75537 14.8816 6.09137C14.8347 6.31797 14.7879 6.54066 14.78 6.59145C14.7644 6.6735 14.7722 6.6774 15.0965 6.6774C15.2802 6.6774 15.5654 6.69694 15.7295 6.72038C15.8975 6.74382 16.1827 6.80633 16.3664 6.86103C16.55 6.91182 16.8196 7.00949 16.972 7.0681C17.1243 7.13061 17.3666 7.25563 17.519 7.34549C17.6713 7.43535 17.9331 7.61897 18.105 7.75181C18.2769 7.88464 18.527 8.11515 18.6638 8.26361C18.7966 8.41208 18.9959 8.65821 19.0974 8.80668C19.2029 8.95514 19.367 9.24034 19.4647 9.43178C19.5624 9.62322 19.6874 9.92406 19.746 10.096C19.8007 10.2679 19.8828 10.5843 19.9219 10.7992C19.9726 11.0532 20 11.3462 20 11.6392C20 11.8853 19.9726 12.2487 19.9375 12.4401C19.9023 12.6316 19.832 12.9402 19.7812 13.1238C19.7265 13.3074 19.5897 13.6474 19.4725 13.8857C19.3553 14.124 19.1443 14.4639 19.0076 14.6475C18.8708 14.8311 18.613 15.1203 18.4293 15.2922C18.2496 15.4641 17.9683 15.6907 17.8081 15.8001C17.6479 15.9055 17.3705 16.0657 17.1869 16.1556C17.0032 16.2455 16.7141 16.3627 16.5422 16.4174C16.3703 16.4721 16.0694 16.5463 15.878 16.5854C15.6552 16.6283 15.3427 16.6518 15.0184 16.6518C14.7175 16.6518 14.3503 16.6244 14.1197 16.5854C13.9048 16.5463 13.5259 16.4486 13.2797 16.3666C13.0336 16.2884 12.6819 16.1439 12.4983 16.054C12.3146 15.9602 12.0997 15.8469 12.0177 15.7962C11.9395 15.7454 11.8614 15.7102 11.8419 15.7219C11.8262 15.7336 11.8653 15.9251 11.9239 16.1439C11.9825 16.3627 12.1036 16.7182 12.1896 16.9331C12.2756 17.1479 12.424 17.4449 12.5178 17.5972C12.6116 17.7496 12.7835 17.9645 12.9046 18.0778C13.0257 18.1872 13.1625 18.2888 13.2094 18.2966C13.2602 18.3083 13.3969 18.3357 13.5141 18.363C13.686 18.3982 13.7642 18.445 13.9048 18.5896C14.0338 18.7146 14.1002 18.824 14.1315 18.9569C14.1588 19.0584 14.1666 19.2069 14.1549 19.2889C14.1432 19.3671 14.0924 19.5038 14.0416 19.5898C13.9908 19.6835 13.8736 19.7968 13.5532 20H6.44219L6.24292 19.875C6.1218 19.7968 6.00459 19.6835 5.95379 19.5898C5.903 19.5038 5.85221 19.3632 5.84049 19.2772C5.82095 19.1795 5.83658 19.0467 5.87565 18.9178C5.92254 18.7576 5.97724 18.6756 6.11789 18.5544C6.25464 18.4372 6.36404 18.3864 6.52033 18.3552C6.63754 18.3317 6.78602 18.2927 6.84853 18.2653C6.91105 18.2419 7.04389 18.1325 7.14157 18.0192C7.23925 17.9098 7.40335 17.6637 7.50493 17.4722C7.60261 17.2847 7.73545 16.98 7.80188 16.7963C7.86439 16.6127 7.95425 16.2962 8.00114 16.0931C8.04803 15.8899 8.07928 15.718 8.07538 15.7141C8.06756 15.7063 7.923 15.7883 7.75108 15.8899C7.57917 15.9915 7.27832 16.1439 7.08687 16.222C6.89542 16.3041 6.54377 16.4213 6.30544 16.4838C6.0671 16.5424 5.67248 16.6127 5.42633 16.6401C5.09813 16.6713 4.8637 16.6713 4.56676 16.6401C4.34014 16.6166 4.01585 16.5658 3.84393 16.5267C3.67202 16.4838 3.41805 16.4095 3.2774 16.3548C3.13674 16.3041 2.89059 16.1947 2.73039 16.1126C2.5702 16.0306 2.31233 15.8821 2.16386 15.7805C2.01148 15.6789 1.74189 15.4563 1.56216 15.2883C1.38243 15.1203 1.12456 14.8311 0.983898 14.6475C0.847148 14.4639 0.640069 14.124 0.522854 13.8857C0.40564 13.6474 0.26889 13.3074 0.218097 13.1238C0.163397 12.9402 0.0891607 12.6237 0.0539964 12.4206C-0.00070372 12.1315 -0.00851802 11.9283 0.00711058 11.5025C0.018832 11.2016 0.0579035 10.8226 0.0930679 10.6625C0.128232 10.5023 0.198561 10.2405 0.253261 10.0842C0.304054 9.93187 0.413454 9.6662 0.491597 9.50211C0.56974 9.33411 0.737748 9.04891 0.858869 8.86528C0.983898 8.68165 1.18707 8.41989 1.31601 8.27924C1.44103 8.13859 1.69109 7.91199 1.86691 7.77134C2.04664 7.63069 2.33187 7.43535 2.50769 7.32986C2.68351 7.22828 2.96873 7.09154 3.14065 7.02512C3.31256 6.9587 3.62122 6.86103 3.8244 6.80633C4.07445 6.74382 4.36749 6.70085 4.71523 6.68522C5.21143 6.65787 5.23488 6.65396 5.21925 6.57973C5.21143 6.53676 5.16064 6.31797 5.11376 6.09137C5.03952 5.75537 5.01998 5.56003 5.01998 5.01696C5.01998 4.51297 5.03561 4.27074 5.09031 4.0207C5.12938 3.83707 5.21534 3.54015 5.27786 3.35652C5.34428 3.1729 5.45759 2.89941 5.53182 2.75095C5.60996 2.60249 5.77407 2.329 5.89909 2.14538C6.02412 1.96175 6.27027 1.66873 6.45 1.49292C6.62973 1.31711 6.82509 1.13349 6.89151 1.07879C6.95793 1.028 7.11422 0.914699 7.24315 0.828747C7.37209 0.742794 7.60261 0.609959 7.75108 0.535728C7.89955 0.457589 8.15743 0.348196 8.31762 0.289592Z" fill="#FFB800"/>
</svg>
