<svg width="20" height="20" viewBox="0 0 20 20" fill="none" xmlns="http://www.w3.org/2000/svg">
<path fill-rule="evenodd" clip-rule="evenodd" d="M8.70999 1C8.93313 1 9.36602 1.02678 9.66503 1.06694C9.9685 1.10264 10.446 1.18744 10.7272 1.24992C11.0083 1.3124 11.4412 1.43289 11.6867 1.51769C11.9321 1.60248 12.365 1.78546 12.6462 1.9238C12.9274 2.06215 13.3915 2.32992 13.6726 2.51736C13.9538 2.70926 14.3778 3.03058 14.6098 3.24034C14.8419 3.44563 15.1543 3.75356 15.3016 3.92315C15.4533 4.09274 15.6675 4.35158 15.7791 4.49885C15.8907 4.64613 16.0781 4.91836 16.1986 5.10133C16.3146 5.28431 16.5289 5.66811 16.6672 5.94927C16.81 6.23043 17.0019 6.70349 17.1001 6.99803C17.1983 7.29258 17.292 7.60944 17.3322 7.86828H17.6535C17.832 7.86828 18.1176 7.89952 18.2917 7.93969C18.4657 7.97539 18.7246 8.06911 18.8674 8.14944C19.0146 8.22977 19.2199 8.37705 19.327 8.47969C19.4341 8.5868 19.5814 8.76531 19.6528 8.88134C19.7287 9.00184 19.8403 9.25622 19.8983 9.45259C20.0054 9.79622 20.0099 9.84978 19.992 10.8807C19.9831 11.8268 19.9697 11.9875 19.8849 12.2418C19.8313 12.4025 19.7332 12.6212 19.6618 12.7328C19.5903 12.8443 19.4341 13.0318 19.3137 13.1478C19.1932 13.2683 18.9566 13.4334 18.7826 13.5182C18.5907 13.6119 18.3408 13.6878 18.1355 13.719C17.9525 13.7458 17.5374 13.7592 16.6315 13.7369L16.4798 14.027C16.395 14.1876 16.2209 14.4777 16.087 14.6741C15.9576 14.8705 15.7345 15.1695 15.5961 15.339C15.4578 15.5086 15.1945 15.8032 15.0115 15.9862C14.8285 16.1736 14.525 16.4458 14.3421 16.5976C14.1591 16.7493 13.8155 16.9948 13.5834 17.151C13.3513 17.3027 12.9675 17.5214 12.7355 17.6419C12.5034 17.7579 12.1731 17.9096 11.9991 17.9766C11.825 18.0435 11.526 18.1506 11.3297 18.2086C11.1333 18.2667 10.7897 18.3559 10.571 18.4005C10.3523 18.4496 9.84801 18.5166 8.74123 18.6237L8.51809 18.521C8.36635 18.4496 8.26371 18.3648 8.18784 18.2399C8.09858 18.0971 8.08519 18.0212 8.09858 17.8115C8.11197 17.5928 8.13875 17.5348 8.27263 17.3964C8.35742 17.3116 8.48685 17.2224 8.56271 17.2C8.63412 17.1777 8.92867 17.1465 9.20982 17.1331C9.49098 17.1242 9.9328 17.0706 10.1916 17.0171C10.4505 16.9635 10.87 16.8519 11.1288 16.7671C11.3877 16.6779 11.7804 16.5217 11.9991 16.4146C12.2178 16.3119 12.6194 16.0754 12.8917 15.8969C13.2442 15.6648 13.5477 15.406 13.9672 14.9909C14.3822 14.5714 14.6411 14.268 14.8731 13.9154C15.0517 13.6432 15.2882 13.2415 15.3953 13.0228C15.5024 12.8042 15.6586 12.4114 15.7479 12.1526C15.8327 11.8937 15.9487 11.4742 16.0022 11.2154C16.0915 10.8137 16.1049 10.6129 16.1004 9.7873C16.1004 8.9706 16.087 8.76085 16.0067 8.38151C15.9531 8.13605 15.846 7.74332 15.7702 7.51126C15.6943 7.27919 15.5247 6.86861 15.3953 6.59638C15.2614 6.32415 15.0338 5.92249 14.8821 5.70381C14.7348 5.48514 14.467 5.13704 14.2885 4.93621C14.11 4.73538 13.811 4.44084 13.628 4.27571C13.445 4.11505 13.1014 3.85621 12.8693 3.70001C12.6373 3.54381 12.2847 3.33406 12.0883 3.23587C11.892 3.13769 11.5394 2.99042 11.3074 2.90116C11.0753 2.81637 10.6424 2.68695 10.3478 2.62C9.84354 2.49951 9.75429 2.49058 8.78586 2.49058C7.81742 2.49058 7.72817 2.49951 7.22387 2.62C6.92932 2.68695 6.49643 2.81637 6.26436 2.90116C6.03229 2.99042 5.70651 3.12877 5.53692 3.2091C5.3718 3.29389 5.10403 3.44563 4.93444 3.54381C4.76932 3.64645 4.49262 3.83389 4.32303 3.96331C4.14898 4.09274 3.83212 4.37836 3.61345 4.59257C3.39477 4.81125 3.10022 5.1415 2.96187 5.32447C2.82353 5.50745 2.61824 5.802 2.51559 5.97158C2.40848 6.14117 2.23443 6.46696 2.13179 6.68564C2.02468 6.90431 1.87741 7.27919 1.80154 7.51126C1.72567 7.74332 1.62303 8.12713 1.5784 8.35919C1.52931 8.59126 1.47575 9.05539 1.45344 9.38564C1.42666 9.86316 1.39989 10.0194 1.32848 10.1443C1.27939 10.2291 1.16782 10.3496 1.08303 10.4032C0.958066 10.4924 0.886661 10.5058 0.685834 10.4924C0.534098 10.4835 0.391288 10.4433 0.306494 10.3853C0.230626 10.3318 0.127981 10.2023 0.0788903 10.0952C-0.0103662 9.91226 -0.014829 9.8587 0.0208736 9.34101C0.0431877 9.03308 0.0922787 8.58233 0.132444 8.33688C0.17261 8.09142 0.270792 7.65853 0.351122 7.37737C0.431453 7.09621 0.587652 6.6544 0.699223 6.39555C0.810793 6.13671 0.993769 5.75737 1.1098 5.54762C1.22584 5.33786 1.38203 5.07902 1.4579 4.96745C1.53377 4.85588 1.71675 4.60596 1.86402 4.4096C2.01129 4.21323 2.33262 3.85174 2.58253 3.60183C2.82799 3.35637 3.23857 2.99934 3.49741 2.80744C3.75626 2.61554 4.14452 2.35224 4.36766 2.22281C4.58634 2.08893 4.90766 1.91934 5.08171 1.84347C5.2513 1.76314 5.58601 1.62926 5.81808 1.54446C6.05015 1.45967 6.44287 1.34364 6.68833 1.28116C6.93378 1.22314 7.39346 1.13835 7.71478 1.08926C8.03164 1.04463 8.48238 1.00446 8.70552 1L8.70999 1ZM8.74569 3.85621C9.01792 3.85621 9.44635 3.88298 9.7052 3.92315C9.96404 3.96331 10.3746 4.0615 10.6201 4.14183C10.8655 4.22216 11.2493 4.37836 11.468 4.48993C11.6867 4.59703 12.0303 4.80232 12.2267 4.94513C12.4231 5.08348 12.7578 5.37357 12.9764 5.58332C13.1907 5.79753 13.4763 6.12332 13.6057 6.3063C13.7396 6.48927 13.9404 6.81059 14.052 7.02035C14.1591 7.2301 14.3108 7.56035 14.3822 7.75671C14.4536 7.95308 14.5607 8.31457 14.6143 8.56002C14.6679 8.80548 14.7214 9.2473 14.7348 9.54184C14.7482 9.85424 14.7393 10.247 14.708 10.479C14.6812 10.6977 14.6188 11.0413 14.5697 11.2377C14.5206 11.4341 14.409 11.7777 14.3242 11.9964C14.2394 12.2151 14.0743 12.5587 13.9627 12.7551C13.8467 12.9514 13.628 13.2728 13.4763 13.4691C13.3245 13.6655 13.0389 13.9734 12.847 14.1564C12.6551 14.3349 12.3026 14.6116 12.0705 14.7678C11.8384 14.9195 11.4948 15.1159 11.3118 15.2007C11.1288 15.2855 10.8164 15.406 10.6201 15.4685C10.4237 15.5309 10.1024 15.6157 9.90602 15.6604C9.64272 15.7184 9.34817 15.7362 8.79032 15.7362C8.23247 15.7362 7.93792 15.7184 7.67461 15.6604C7.47825 15.6157 7.15693 15.5309 6.96056 15.4685C6.7642 15.406 6.4518 15.2855 6.26882 15.2007C6.08585 15.1159 5.73329 14.9151 5.48783 14.7544C5.2156 14.5714 4.8675 14.2814 4.5908 14.0091C4.33196 13.7458 4.02849 13.3843 3.86336 13.1344C3.70716 12.9023 3.52419 12.5989 3.45725 12.465C3.3903 12.3311 3.26088 12.0098 3.17163 11.7509C3.08237 11.4921 2.97526 11.1128 2.9351 10.903C2.88154 10.6397 2.85923 10.2961 2.85923 9.7873C2.85923 9.24283 2.87708 8.95275 2.93956 8.67159C2.98419 8.46184 3.08237 8.10928 3.15377 7.8906C3.22964 7.67192 3.35906 7.34613 3.44386 7.17655C3.52865 7.00696 3.71609 6.69456 3.85444 6.48481C3.99278 6.27506 4.28733 5.91357 4.51047 5.6815C4.73361 5.44943 5.0951 5.12811 5.31378 4.97637C5.53246 4.82018 5.92965 4.58365 6.20188 4.44976C6.47411 4.32034 6.87577 4.15968 7.09445 4.0972C7.31312 4.03026 7.66569 3.95439 7.87544 3.91869C8.08519 3.88745 8.47346 3.86067 8.74569 3.85621ZM6.03676 10.6352C5.99213 10.72 5.95643 10.8762 5.95643 10.9789C5.95643 11.1172 6.00998 11.2734 6.14387 11.5367C6.27329 11.7866 6.43395 12.0053 6.64816 12.2195C6.81775 12.3936 7.08106 12.6123 7.22833 12.6971C7.3756 12.7863 7.65676 12.9157 7.85313 12.9827C8.17445 13.0942 8.27263 13.1076 8.79032 13.1076C9.30801 13.1076 9.40619 13.0942 9.72751 12.9827C9.92388 12.9157 10.205 12.7863 10.3523 12.6971C10.4996 12.6123 10.7629 12.398 10.9325 12.224C11.1601 11.9919 11.2984 11.8045 11.4368 11.5278C11.5662 11.269 11.6287 11.0904 11.6242 10.9699C11.6242 10.8718 11.5885 10.72 11.5439 10.6352C11.4948 10.5504 11.3921 10.4344 11.3074 10.3764C11.2002 10.305 11.0931 10.2782 10.9414 10.2782C10.8254 10.2782 10.687 10.3005 10.629 10.3273C10.5754 10.3541 10.4817 10.421 10.4282 10.4746C10.3702 10.5237 10.272 10.6799 10.205 10.8137C10.1426 10.9476 10.0042 11.144 9.8971 11.2466C9.78999 11.3537 9.58916 11.4921 9.44635 11.559C9.22768 11.6661 9.13842 11.684 8.79032 11.684C8.44222 11.684 8.35296 11.6661 8.12982 11.559C7.99147 11.4921 7.79065 11.3537 7.68354 11.2466C7.57643 11.144 7.43808 10.9476 7.3756 10.8137C7.30866 10.6799 7.21048 10.5237 7.15246 10.4746C7.09891 10.421 7.00519 10.3541 6.94717 10.3273C6.89362 10.3005 6.75081 10.2782 6.63478 10.2782C6.48304 10.2782 6.37147 10.3094 6.26882 10.3764C6.18849 10.4344 6.08585 10.5504 6.03676 10.6352Z" fill="#D2DCF7"/>
</svg>
