<svg width="20" height="19" viewBox="0 0 20 19" fill="none" xmlns="http://www.w3.org/2000/svg">
<path d="M5.13672 0.0746431C5.32812 0.0512056 5.53906 0.0238619 5.60547 0.0160494C5.67188 0.0121432 5.75781 0.000424403 5.80078 0.000424403C5.84375 -0.00348185 6.10547 0.0199557 6.38672 0.0551119C6.66797 0.0863619 7.07031 0.156674 7.28516 0.211362C7.5 0.266049 7.80859 0.363706 7.96875 0.430112C8.12891 0.492612 8.39453 0.617612 8.55469 0.703549C8.71484 0.793393 8.97266 0.945737 9.12109 1.0473C9.26953 1.14886 9.52734 1.35199 9.6875 1.49261C9.84766 1.63324 9.98828 1.75042 10 1.75042C10.0117 1.75042 10.1523 1.63324 10.3125 1.49261C10.4727 1.35199 10.7266 1.14886 10.8789 1.0473C11.0312 0.945737 11.2852 0.793393 11.4453 0.703549C11.6055 0.617612 11.8711 0.492612 12.0312 0.430112C12.1914 0.363706 12.5 0.266049 12.7148 0.211362C12.9297 0.156674 13.3438 0.0863619 13.6328 0.0512056C13.9219 0.0199557 14.2461 0.000424403 14.3555 0.0121432C14.4609 0.0238619 14.6992 0.0551119 14.8828 0.0746431C15.0664 0.0980806 15.3555 0.152768 15.5273 0.191831C15.6992 0.234799 15.9805 0.320737 16.1523 0.379331C16.3242 0.441831 16.5977 0.555112 16.7578 0.637143C16.918 0.719174 17.1914 0.875424 17.3633 0.988706C17.5352 1.10199 17.8164 1.31683 17.9844 1.46136C18.1562 1.6098 18.418 1.87152 18.5664 2.04339C18.7148 2.21527 18.9102 2.46917 19.0039 2.6098C19.0977 2.75042 19.2539 3.01214 19.3516 3.19574C19.4492 3.37933 19.5977 3.73871 19.6836 3.99652C19.7695 4.25433 19.875 4.6723 19.9219 4.92621C19.9688 5.21527 20 5.55511 20 5.85199C20 6.1098 19.9727 6.50042 19.9414 6.72308C19.9062 6.94183 19.8438 7.28167 19.7969 7.47308C19.7539 7.66449 19.6562 8.00042 19.582 8.21527C19.5078 8.43011 19.3672 8.78167 19.2734 8.99652C19.1797 9.21136 18.9922 9.57855 18.8594 9.81683C18.7305 10.0551 18.4961 10.4301 18.3477 10.6567C18.1953 10.8832 17.9219 11.27 17.7305 11.516C17.543 11.7621 17.1367 12.2465 16.8281 12.5903C16.5156 12.934 16 13.4692 15.6797 13.7778C15.3594 14.0864 14.8672 14.5356 14.5898 14.7778C14.3125 15.016 13.8984 15.3637 13.6719 15.5473C13.4453 15.7309 12.9375 16.1215 12.5391 16.4145C12.1406 16.7114 11.4062 17.227 10 18.1762L9.08984 17.5629C8.59375 17.227 7.85938 16.7114 7.46094 16.4145C7.0625 16.1215 6.55469 15.7309 6.32812 15.5473C6.1058 15.3671 5.70668 15.029 5.42607 14.7912L5.41016 14.7778C5.12891 14.5356 4.64062 14.0864 4.32031 13.7778C4 13.4692 3.48438 12.934 3.17188 12.5903C2.86328 12.2465 2.45703 11.7621 2.26953 11.516C2.07812 11.27 1.80469 10.8832 1.65234 10.6567C1.50391 10.4301 1.28906 10.0864 1.17969 9.89496C1.07031 9.70355 0.902344 9.37542 0.808594 9.1723C0.710938 8.96917 0.570312 8.62542 0.488281 8.41058C0.410156 8.19574 0.300781 7.8598 0.25 7.66839C0.199219 7.47699 0.121094 7.10589 0.078125 6.84808C0.03125 6.55121 0 6.19964 0 5.89105C0 5.58246 0.0273438 5.23089 0.078125 4.93402C0.125 4.67621 0.230469 4.25433 0.316406 3.99652C0.402344 3.73871 0.550781 3.37933 0.648438 3.19574C0.746094 3.01214 0.902344 2.75042 0.996094 2.6098C1.08984 2.46917 1.28516 2.21527 1.43359 2.04339C1.58203 1.87152 1.84375 1.6098 2.01562 1.46136C2.18359 1.31683 2.46484 1.10199 2.63672 0.988706C2.80859 0.875424 3.08203 0.719174 3.24219 0.637143C3.40234 0.555112 3.67578 0.441831 3.84766 0.379331C4.01953 0.320737 4.30078 0.234799 4.47266 0.191831C4.64453 0.148862 4.94141 0.0980806 5.13672 0.0746431Z" fill="#D2DCF7"/>
</svg>
