<svg width="22" height="22" viewBox="0 0 22 22" fill="none" xmlns="http://www.w3.org/2000/svg">
<path fill-rule="evenodd" clip-rule="evenodd" d="M14.3309 0.027985C13.7148 0.128887 13.3206 0.294085 12.7756 0.679855C12.0984 1.1591 11.5399 1.95977 11.0575 3.14296L10.9976 3.28976L10.8379 2.99102C9.91325 1.26093 8.93876 0.310893 7.86022 0.0880006C6.88625 -0.113288 5.67071 0.188594 4.79739 0.848609C3.85962 1.5574 3.36453 2.45686 3.31728 3.5375C3.296 4.02438 3.30752 4.12023 3.43187 4.4894C3.68141 5.23005 4.28396 5.95622 5.03096 6.41639L5.33767 6.6053L3.24994 6.63108C1.19552 6.65645 1.15833 6.65877 0.918664 6.77664C0.600601 6.93302 0.188859 7.38587 0.0831998 7.69543C0.0149807 7.89538 0.000211128 8.1904 4.55987e-06 9.36003C-0.000305292 11.0669 0.0137415 11.1312 0.490397 11.6071C1.03253 12.1484 -0.0697122 12.097 10.9812 12.0967C22.0474 12.0964 20.9733 12.1461 21.5114 11.6089C21.9809 11.1401 21.9997 11.0532 22 9.34493C22.0002 8.14152 21.9876 7.91028 21.9096 7.69151C21.7951 7.37019 21.4033 6.9374 21.0831 6.77854C20.8407 6.65831 20.8136 6.65655 18.7793 6.63108L16.7209 6.6053L17.0752 6.36369C17.7574 5.89837 18.3063 5.24882 18.547 4.62175C18.7156 4.18267 18.7376 3.42041 18.5977 2.86779C18.2605 1.53657 17.2569 0.500891 15.9488 0.134198C15.5263 0.0157655 14.7263 -0.0367224 14.3309 0.027985ZM7.39911 2.25882C7.8139 2.38287 8.1301 2.76256 8.87194 4.02732C9.07784 4.37839 9.35536 5.0168 9.42668 5.30342C9.46117 5.44222 9.4571 5.44521 9.23065 5.44521C8.87302 5.44521 7.8156 5.24753 7.38506 5.10017C6.48469 4.792 5.77621 4.33379 5.5825 3.93435C5.48438 3.73198 5.47777 3.6748 5.52709 3.45511C5.65475 2.8863 6.14153 2.42974 6.79118 2.26944C7.12794 2.18633 7.15526 2.18586 7.39911 2.25882ZM15.5546 2.34492C16.0146 2.54178 16.3623 2.95957 16.4711 3.44624C16.5441 3.77256 16.4372 4.03737 16.1195 4.31713C15.8369 4.56601 14.7721 5.0994 14.3309 5.21309C13.8918 5.32626 13.1345 5.44475 12.8489 5.445L12.6064 5.44521L12.9422 4.45268C13.1268 3.90677 13.338 3.35575 13.4115 3.22814C13.7287 2.67743 14.1298 2.3325 14.558 2.24211C14.8322 2.18421 15.2893 2.23139 15.5546 2.34492ZM1.66381 16.3372L1.67863 19.4437L1.81408 19.7913C2.19474 20.7682 2.88245 21.4548 3.86091 21.8349L4.20908 21.9701L7.0623 21.985L9.91552 22V17.6154V13.2307H5.78225H1.64898L1.66381 16.3372ZM12.0845 17.615V21.9992L14.9119 21.9845C17.6783 21.9702 17.7465 21.9674 18.075 21.8553C19.0643 21.5178 19.868 20.7154 20.2065 19.7272C20.3195 19.3976 20.3216 19.3414 20.3358 16.3114L20.3503 13.2307H16.2174H12.0845V17.615Z" fill="#FFBF1F"/>
</svg>
