<svg width="20" height="20" viewBox="0 0 20 20" fill="none" xmlns="http://www.w3.org/2000/svg">
<path fill-rule="evenodd" clip-rule="evenodd" d="M9.94833 0.000624017C10.6761 -0.00384112 10.9083 0.0140194 11.4843 0.107787C11.8594 0.170299 12.3863 0.281928 12.6587 0.357835C12.931 0.433743 13.382 0.585557 13.6633 0.697186C13.9446 0.808814 14.3152 0.969559 14.4894 1.05886C14.6635 1.1437 14.985 1.32231 15.2038 1.46072C15.4226 1.59468 15.7977 1.84473 16.0299 2.02333C16.262 2.19747 16.6728 2.55022 16.9407 2.8092C17.2086 3.06817 17.5793 3.47004 17.7668 3.70222C17.9543 3.93441 18.2222 4.29609 18.3562 4.50595C18.4946 4.71581 18.7089 5.07749 18.834 5.30967C18.959 5.54186 19.151 5.95265 19.2581 6.22503C19.3698 6.4974 19.5216 6.92605 19.593 7.18503C19.6689 7.44401 19.7493 7.75211 19.7761 7.87713C19.8029 7.99769 19.8565 8.29239 19.8967 8.52457C19.9324 8.75676 19.977 9.31937 19.9904 9.77481C20.0128 10.4892 19.9994 10.6946 19.9145 11.293C19.8609 11.6725 19.7582 12.2038 19.6913 12.4762C19.6198 12.7486 19.4903 13.1683 19.401 13.4139C19.3117 13.6595 19.1108 14.1239 18.9545 14.4409C18.7938 14.7579 18.5303 15.2267 18.3651 15.4768C18.1999 15.7268 17.9097 16.1153 17.7266 16.343C17.5435 16.5663 17.1819 16.9548 16.9229 17.2048C16.6639 17.4504 16.262 17.7987 16.0299 17.9728C15.7977 18.1514 15.4137 18.4104 15.1815 18.5533C14.9493 18.6917 14.5564 18.906 14.3108 19.0221C14.0652 19.1382 13.6633 19.3079 13.4177 19.3972C13.1722 19.4865 12.739 19.6204 12.4577 19.6919C12.1764 19.7589 11.6719 19.8616 11.3415 19.9107C10.9173 19.9732 10.5199 20 9.98852 20C9.46163 20 9.07763 19.9732 8.6713 19.9107C8.35874 19.8616 7.96134 19.7901 7.79167 19.7499C7.61753 19.7142 7.27818 19.6204 7.03259 19.5445C6.78701 19.4686 6.37622 19.3213 6.11724 19.2097C5.85826 19.1025 5.47873 18.9194 5.26886 18.8078C5.059 18.6962 4.70626 18.4818 4.48746 18.3345C4.26421 18.1916 3.90253 17.9237 3.68374 17.7451C3.46048 17.5665 3.07202 17.2003 2.81304 16.9369C2.55406 16.669 2.20131 16.2582 2.02717 16.026C1.84857 15.7938 1.59852 15.4187 1.46457 15.2C1.32615 14.9812 1.15201 14.6686 1.07163 14.5079C0.991261 14.3471 0.839446 14.0078 0.736748 13.7488C0.629585 13.4898 0.491165 13.1103 0.428653 12.9004C0.366141 12.6905 0.272373 12.3289 0.227722 12.0967C0.178606 11.8645 0.107163 11.4537 0.0669771 11.1813C0.031256 10.909 0 10.4758 0 9.73016L0.187536 9.5337C0.325955 9.39081 0.428653 9.3283 0.558142 9.30597C0.656375 9.28811 0.803725 9.28811 0.879632 9.30151C0.960005 9.31491 1.09842 9.39528 1.18773 9.47118C1.27256 9.55156 1.36187 9.67658 1.38419 9.75249C1.40205 9.8284 1.43331 10.1276 1.44671 10.4223C1.4601 10.717 1.50922 11.1903 1.55833 11.4716C1.60745 11.7529 1.70568 12.186 1.78159 12.4316C1.85303 12.6772 2.00931 13.1103 2.12987 13.3916C2.25043 13.6729 2.46029 14.0971 2.59871 14.3293C2.73267 14.5614 2.97378 14.9231 3.1256 15.133C3.27741 15.3428 3.67034 15.776 3.99183 16.093C4.31332 16.4145 4.74644 16.7985 4.9563 16.9458C5.16617 17.0932 5.4564 17.2852 5.60375 17.3745C5.7511 17.4638 6.08152 17.6379 6.3405 17.7629C6.59948 17.8835 7.02813 18.0576 7.3005 18.1514C7.57288 18.2407 8.02386 18.3613 8.30516 18.4193C8.58646 18.4774 9.07763 18.5443 9.39912 18.5667C9.74293 18.5935 10.2073 18.5935 10.5377 18.5711C10.8458 18.5488 11.2789 18.4997 11.4977 18.464C11.7165 18.4238 12.1095 18.3345 12.3684 18.263C12.6274 18.1916 13.0784 18.0309 13.3731 17.9058C13.6678 17.7808 14.1188 17.5531 14.3777 17.3968C14.6367 17.245 15.0163 16.9905 15.2261 16.8297C15.436 16.6735 15.82 16.3341 16.079 16.0751C16.3379 15.8161 16.6907 15.4098 16.8648 15.1776C17.0345 14.9454 17.2667 14.6016 17.3783 14.4186C17.49 14.2355 17.6239 13.9944 17.682 13.8827C17.74 13.7711 17.874 13.463 17.9811 13.1906C18.0883 12.9183 18.2267 12.5164 18.2847 12.2976C18.3473 12.0788 18.4276 11.7261 18.4634 11.5162C18.4991 11.3064 18.5482 10.8732 18.5705 10.5562C18.5973 10.199 18.5973 9.75249 18.5705 9.39528C18.5482 9.07379 18.4812 8.58262 18.4232 8.30132C18.3651 8.02001 18.2446 7.56904 18.1553 7.29666C18.066 7.02429 17.865 6.54652 17.7087 6.22503C17.548 5.90354 17.3069 5.47488 17.164 5.26502C17.0256 5.05516 16.7934 4.7426 16.655 4.57293C16.5121 4.40325 16.1995 4.06837 15.9584 3.83171C15.7128 3.59953 15.3467 3.27804 15.1368 3.12622C14.927 2.96994 14.5742 2.73775 14.3554 2.60827C14.1322 2.47431 13.7526 2.27785 13.507 2.17068C13.2615 2.05905 12.8685 1.9117 12.6363 1.8358C12.4042 1.75989 12.0112 1.65719 11.7656 1.60807C11.5201 1.55896 11.1227 1.49645 10.8815 1.47412C10.6449 1.44733 10.2609 1.425 10.0332 1.425C9.80991 1.425 9.41251 1.44733 9.15354 1.46965C8.89456 1.49645 8.49269 1.55896 8.26051 1.60807C8.02832 1.66166 7.61306 1.77328 7.34515 1.85812C7.07278 1.94742 6.66199 2.1037 6.4298 2.21533C6.19761 2.3225 5.84487 2.50557 5.29119 2.83152L5.63501 2.85385C5.88952 2.87171 6.01008 2.8985 6.10385 2.96994C6.17082 3.02352 6.26906 3.12176 6.31817 3.18427C6.38515 3.27357 6.40747 3.37627 6.40747 3.56827C6.40747 3.76474 6.38515 3.8585 6.31371 3.95674C6.26013 4.02371 6.16189 4.12195 6.09938 4.17106C5.98329 4.2559 5.90738 4.26037 4.64374 4.26037C3.38011 4.26037 3.3042 4.2559 3.18811 4.17106C3.1256 4.12195 3.02736 4.02371 2.97378 3.95674C2.88448 3.83171 2.88001 3.78706 2.88001 2.49664C2.88001 1.233 2.88448 1.1571 2.96932 1.041C3.01843 0.978489 3.11667 0.880256 3.18364 0.826675C3.28188 0.755233 3.37565 0.732907 3.57211 0.732907C3.76411 0.732907 3.86681 0.755233 3.95611 0.82221C4.01863 0.871326 4.11686 0.969559 4.17044 1.03654C4.23742 1.12584 4.26867 1.25533 4.30886 1.77775L4.64374 1.56342C4.82682 1.44286 5.17063 1.2464 5.40282 1.12137C5.63501 0.99635 6.05919 0.808814 6.3405 0.697186C6.6218 0.585557 7.09511 0.429277 7.38981 0.35337C7.6845 0.272997 8.1846 0.161369 8.50609 0.107787C8.95707 0.03188 9.27856 0.00508916 9.94386 0.000624017H9.94833ZM9.91707 3.57274C10.1493 3.57274 10.5243 3.5906 10.7431 3.61292C10.9619 3.63971 11.337 3.70669 11.5692 3.7692C11.8014 3.82725 12.1541 3.93888 12.3506 4.01478C12.547 4.09069 12.8909 4.2559 13.1096 4.37646C13.3284 4.49702 13.6499 4.70242 13.8241 4.8319C13.9937 4.95693 14.284 5.20698 14.4671 5.37665C14.6457 5.55079 14.9538 5.89907 15.1458 6.15805C15.3422 6.41703 15.6101 6.85015 15.7441 7.11806C15.878 7.39043 16.0477 7.79229 16.1192 8.01108C16.1906 8.23434 16.2844 8.61388 16.329 8.85946C16.3915 9.18542 16.4139 9.50244 16.4139 10.0427C16.4094 10.5651 16.3871 10.8956 16.329 11.1813C16.2844 11.4046 16.1906 11.7663 16.1147 11.9851C16.0432 12.2083 15.9048 12.5566 15.8066 12.7665C15.7084 12.9763 15.494 13.3469 15.3288 13.5925C15.1413 13.8783 14.8555 14.2176 14.5385 14.5302C14.2259 14.8472 13.8866 15.133 13.6008 15.3205C13.3552 15.4857 12.9846 15.7001 12.7748 15.7983C12.5649 15.8965 12.2345 16.0305 12.038 16.093C11.8415 16.16 11.4888 16.2537 11.2566 16.3073C10.9128 16.3832 10.6806 16.4011 10.0064 16.4011C9.33214 16.4011 9.09995 16.3832 8.75614 16.3073C8.52395 16.2537 8.17121 16.16 7.97474 16.093C7.77827 16.0305 7.44785 15.8965 7.23799 15.7983C7.02813 15.7001 6.65752 15.4857 6.41194 15.325C6.12617 15.133 5.78682 14.8517 5.4698 14.5347C5.15277 14.2176 4.87147 13.8783 4.67947 13.5925C4.51872 13.3469 4.30439 12.9763 4.20616 12.7665C4.10793 12.5566 3.97397 12.2262 3.91146 12.0297C3.84448 11.8332 3.75072 11.4805 3.69714 11.2483C3.62123 10.909 3.60337 10.6634 3.60337 10.0204C3.60337 9.41314 3.62123 9.11844 3.68374 8.81481C3.72839 8.59602 3.82216 8.23434 3.89807 8.01108C3.96951 7.79229 4.10793 7.43955 4.20616 7.22968C4.30439 7.01982 4.51872 6.64922 4.68393 6.40363C4.84914 6.15805 5.15277 5.77851 5.36263 5.55972C5.57249 5.34093 5.90738 5.04177 6.10385 4.88995C6.30478 4.7426 6.62627 4.52828 6.81827 4.41665C7.01473 4.30502 7.34962 4.14427 7.57288 4.05051C7.79167 3.9612 8.17567 3.83618 8.42125 3.77367C8.66684 3.71115 9.00619 3.63971 9.18033 3.61739C9.35 3.59506 9.68489 3.5772 9.91707 3.57274ZM9.4393 5.97498C9.38572 6.05089 9.32768 6.18038 9.31428 6.26075C9.30089 6.33666 9.29195 7.26987 9.30089 8.33257C9.31428 10.1901 9.31875 10.266 9.40358 10.3865C9.45717 10.4535 10.0287 10.8688 10.6761 11.3064C11.6719 11.9761 11.8907 12.1056 12.0603 12.1235C12.2122 12.1413 12.3104 12.1235 12.4622 12.0431C12.6096 11.9672 12.6899 11.8868 12.7658 11.7395C12.8462 11.5787 12.8641 11.4984 12.8417 11.3376C12.8283 11.226 12.7703 11.0742 12.7123 11.0027C12.6542 10.9313 12.1854 10.5875 11.6674 10.2437L10.7253 9.61853C10.6985 6.21163 10.694 6.16252 10.6047 6.03749C10.5511 5.97052 10.4618 5.87675 10.4038 5.8321C10.3457 5.78744 10.1939 5.73833 10.0734 5.7294C9.9394 5.716 9.78759 5.73386 9.69828 5.77405C9.61344 5.80531 9.49735 5.89461 9.4393 5.97498Z" fill="#D2DCF7"/>
</svg>
