<svg width="16" height="14" viewBox="0 0 16 14" fill="none" xmlns="http://www.w3.org/2000/svg">
<path d="M3.87558 0.185738C3.98044 0.154281 4.17967 0.0983576 4.31249 0.0634052C4.46977 0.0249577 4.71444 0.0039863 4.99406 0.000491066C5.35057 -0.00300417 5.49737 0.0109768 5.78048 0.0808814C5.97272 0.129815 6.24185 0.2137 6.37467 0.269624C6.50749 0.325548 6.70672 0.423414 6.81158 0.486328C6.91643 0.549242 7.0912 0.66808 7.19605 0.748471C7.30091 0.832356 7.46868 0.982651 7.56655 1.08751C7.66791 1.18887 7.81471 1.36713 7.89859 1.48247C7.98248 1.59781 8.1118 1.81102 8.18171 1.95433C8.25161 2.09763 8.34249 2.31433 8.38094 2.43667C8.42288 2.55551 8.4788 2.78969 8.50676 2.95746C8.53473 3.12872 8.55919 3.38038 8.55919 3.52019C8.55919 3.6565 8.54172 3.89418 8.52075 4.04447C8.49977 4.19127 8.44385 4.43944 8.39492 4.59323C8.34598 4.74702 8.23763 5.00566 8.15375 5.16994C8.06986 5.33421 7.8951 5.59985 7.76228 5.76413C7.63296 5.9284 7.39179 6.16957 7.22751 6.2989C7.05974 6.43521 6.78711 6.60997 6.58439 6.70784C6.39215 6.80221 6.11603 6.91056 5.97272 6.94901C5.82942 6.98746 5.55329 7.03989 5.36106 7.06086C5.11289 7.08533 4.91716 7.08533 4.67949 7.06086C4.49773 7.03989 4.25307 6.99794 4.13772 6.96998C4.02238 6.93853 3.82665 6.87212 3.70082 6.82318C3.57499 6.77425 3.3478 6.6624 3.19751 6.57153C3.03323 6.47716 2.78507 6.28142 2.58934 6.09618C2.40409 5.92141 2.1769 5.65927 2.07204 5.50199C1.97068 5.3482 1.83087 5.08955 1.76446 4.92527C1.69805 4.761 1.61766 4.53381 1.58621 4.41846C1.55824 4.30312 1.5163 4.05845 1.49533 3.8767C1.47086 3.63903 1.47086 3.44329 1.49882 3.19513C1.5198 3.00289 1.56873 2.72677 1.60718 2.58347C1.64562 2.44016 1.75398 2.16404 1.84835 1.9718C1.94971 1.76908 2.12098 1.49995 2.26079 1.32518C2.39011 1.16091 2.63128 0.919737 2.79556 0.790413C2.95634 0.66109 3.22197 0.486328 3.38625 0.402443C3.55053 0.318557 3.77073 0.220691 3.87558 0.185738Z" fill="white"/>
<path d="M3.19401 7.59912C3.38625 7.55019 3.66237 7.49776 3.80568 7.48029C3.94898 7.46281 4.57113 7.45232 5.18629 7.45932C6.03214 7.4698 6.36768 7.48378 6.56691 7.52572C6.71022 7.55718 6.95488 7.62359 7.10867 7.67252C7.26246 7.72495 7.52111 7.8333 7.68538 7.9137C7.84966 7.99758 8.10132 8.14788 8.24462 8.24924C8.38793 8.3471 8.63958 8.5673 8.80386 8.73158C8.96813 8.89586 9.18833 9.16499 9.29669 9.32926C9.40504 9.49354 9.54135 9.72073 9.60077 9.83607C9.6567 9.95142 9.74757 10.1646 9.8 10.3079C9.84893 10.4512 9.92583 10.7204 9.96428 10.9021C10.0132 11.1328 10.0342 11.367 10.0377 11.6711C10.0377 12.0241 10.0237 12.1534 9.96428 12.3352C9.92233 12.461 9.83146 12.6637 9.75806 12.786C9.68466 12.9084 9.52388 13.1041 9.39805 13.223C9.27222 13.3383 9.07649 13.4851 8.96114 13.548C8.8458 13.6074 8.63259 13.6913 8.48929 13.7298C8.23414 13.8032 8.15724 13.8032 1.79592 13.8032L1.46387 13.6983C1.27863 13.6424 1.04095 13.534 0.922112 13.4571C0.806769 13.3837 0.632007 13.2369 0.537636 13.1321C0.43977 13.0272 0.306951 12.835 0.233551 12.7022C0.163646 12.5658 0.0797608 12.3561 0.0483037 12.2303C-0.000629529 12.0486 -0.00761999 11.9087 0.00636093 11.5313C0.0203419 11.1922 0.0483037 10.9685 0.111218 10.7274C0.156656 10.5456 0.240541 10.287 0.29297 10.1506C0.348894 10.0143 0.453751 9.79763 0.52715 9.66131C0.60055 9.525 0.74036 9.31528 0.831236 9.18946C0.925607 9.06363 1.12484 8.83993 1.27513 8.68964C1.42892 8.53585 1.70155 8.31215 1.8833 8.18982C2.06505 8.06749 2.35516 7.90671 2.52992 7.82981C2.70468 7.75291 3.00177 7.64806 3.19401 7.59912Z" fill="white"/>
<path d="M10.9709 0.849832C11.0583 0.82187 11.2226 0.786918 11.3379 0.769442C11.4532 0.748471 11.6804 0.74148 11.8447 0.751966C12.009 0.758956 12.2676 0.797404 12.4214 0.835851C12.5752 0.874299 12.8269 0.96867 12.9807 1.04557C13.1345 1.12246 13.3651 1.26926 13.4945 1.37761C13.6273 1.48247 13.809 1.66772 13.9069 1.79005C14.0013 1.90889 14.1411 2.13258 14.2215 2.28637C14.2984 2.44016 14.3927 2.69182 14.4347 2.84561C14.4871 3.04484 14.5081 3.23708 14.5116 3.5097C14.5151 3.77185 14.4941 3.97806 14.4522 4.15632C14.4172 4.29963 14.3263 4.55128 14.2494 4.71556C14.176 4.87983 14.0537 5.09304 13.9803 5.18741C13.9069 5.28528 13.7636 5.44606 13.6587 5.54393C13.5539 5.64529 13.3756 5.79209 13.2603 5.86898C13.1449 5.94588 12.9422 6.05423 12.8059 6.11016C12.6696 6.16958 12.4459 6.23948 12.3061 6.26744C12.1698 6.2989 11.9006 6.32337 11.7119 6.32337C11.4987 6.32337 11.268 6.2989 11.0932 6.25696C10.9394 6.21851 10.7262 6.1521 10.6214 6.10666C10.5165 6.05773 10.3348 5.95986 10.2194 5.88646C10.1041 5.81306 9.90835 5.65927 9.78602 5.54043C9.66369 5.4216 9.5064 5.23984 9.433 5.13499C9.3631 5.03013 9.26873 4.87634 9.22678 4.79595C9.15338 4.64915 9.15338 4.64216 9.2128 4.41147C9.25824 4.22972 9.27222 4.0235 9.27222 3.54466C9.27222 3.05183 9.26173 2.86309 9.14639 2.44016L9.25125 2.24093C9.30717 2.13258 9.44349 1.93335 9.54834 1.79704C9.6567 1.66422 9.81049 1.49645 9.89437 1.42655C9.97826 1.35664 10.132 1.24479 10.2369 1.17838C10.3418 1.11197 10.5165 1.0211 10.6214 0.979156C10.7262 0.933718 10.8835 0.874299 10.9709 0.849832Z" fill="white"/>
<path d="M9.8769 6.8861C9.99923 6.84415 10.2194 6.78823 10.3662 6.76376C10.5794 6.72182 10.9045 6.71483 11.8272 6.72182C12.9772 6.72881 13.0261 6.73231 13.3477 6.81969C13.5294 6.86862 13.7985 6.96299 13.9418 7.0294C14.0852 7.09581 14.3054 7.21814 14.4312 7.30203C14.557 7.38592 14.7667 7.55718 14.8995 7.68301C15.0289 7.80884 15.2071 8.00108 15.2875 8.10593C15.3714 8.21079 15.5007 8.41701 15.5776 8.56031C15.658 8.70362 15.7489 8.89236 15.7803 8.97974C15.8118 9.06712 15.8677 9.24538 15.9062 9.38169C15.9446 9.53199 15.9796 9.79763 15.9936 10.0633C16.0075 10.4058 16.0005 10.5491 15.9551 10.7274C15.9236 10.8532 15.8468 11.0559 15.7873 11.1817C15.7174 11.3215 15.5811 11.5068 15.4273 11.6641C15.2456 11.8528 15.1093 11.9577 14.903 12.0625C14.7492 12.1394 14.5221 12.2268 14.3962 12.2513C14.225 12.2862 13.7531 12.3002 10.7437 12.3002L10.7682 12.1324C10.7822 12.0416 10.7926 11.8493 10.7926 11.706C10.7926 11.5627 10.7717 11.2796 10.7437 11.0769C10.7158 10.8742 10.6633 10.5875 10.6249 10.4407C10.5829 10.2905 10.5025 10.0458 10.4431 9.89899C10.3837 9.74869 10.2649 9.49354 10.174 9.32926C10.0866 9.16499 9.90136 8.88188 9.76155 8.70012C9.62524 8.51837 9.40504 8.26671 9.27222 8.14089C9.1394 8.01506 8.94017 7.84379 8.6256 7.59912L8.73745 7.51174C8.79687 7.46281 8.93668 7.36494 9.04503 7.29154C9.15338 7.21814 9.33513 7.11329 9.45048 7.05736C9.56582 7.00494 9.75806 6.92455 9.8769 6.8861Z" fill="white"/>
</svg>
