<svg width="20" height="21" viewBox="0 0 20 21" fill="none" xmlns="http://www.w3.org/2000/svg">
<path fill-rule="evenodd" clip-rule="evenodd" d="M17.5953 0.000488678C18.0371 -0.00342075 18.2873 0.0161264 18.4906 0.0591301C18.647 0.0943149 18.8698 0.164685 18.9793 0.215507C19.0926 0.26633 19.2842 0.40316 19.4054 0.516533C19.5266 0.625997 19.6712 0.798012 19.726 0.895747C19.7807 0.993483 19.8628 1.17723 19.9019 1.30624C19.9605 1.48216 19.984 1.69718 19.9957 2.18586C20.0074 2.63153 19.9957 3.01857 19.9527 3.43687C19.9175 3.76918 19.8354 4.29695 19.7729 4.6097C19.7103 4.92246 19.597 5.3955 19.5188 5.66525C19.4406 5.935 19.2803 6.3924 19.1669 6.6817C19.0535 6.971 18.8737 7.39321 18.7682 7.61996C18.6626 7.84671 18.4632 8.22201 18.3303 8.46049C18.1935 8.69896 17.9315 9.11727 17.7478 9.39875C17.5601 9.68023 17.2396 10.1181 17.0363 10.3761C16.8291 10.6341 16.4147 11.1111 16.1137 11.4317C15.8126 11.7561 15.2809 12.2839 14.3036 13.1909L14.2997 14.3637C14.2997 15.0088 14.2801 15.6421 14.2606 15.7711C14.2371 15.9001 14.1785 16.0995 14.1238 16.2129C14.069 16.3223 13.9361 16.5061 13.8306 16.6116C13.6624 16.7797 13.4279 16.9088 12.0987 17.5734C10.7382 18.2536 10.5427 18.3396 10.3707 18.3435C10.2612 18.3435 10.1205 18.3162 10.0462 18.281C9.97977 18.2458 9.87421 18.148 9.70611 17.9291L9.69438 16.897C9.69047 16.0956 9.67483 15.8728 9.63574 15.8845C9.61228 15.8923 9.44027 15.9197 9.25652 15.947C9.01414 15.9783 8.84994 15.9783 8.65056 15.947C8.48637 15.9236 8.25962 15.8493 8.08369 15.7633C7.81003 15.6304 7.69275 15.5248 6.19153 14.0353C5.31191 13.1635 4.5183 12.3425 4.42056 12.2135C4.32674 12.0845 4.20945 11.8812 4.16645 11.764C4.09999 11.5958 4.08044 11.459 4.08044 11.1189C4.07653 10.8804 4.08826 10.6146 4.13517 10.3566L3.14609 10.3487C2.29383 10.337 2.14528 10.3292 2.0319 10.2706C1.96544 10.2315 1.85989 10.1337 1.79734 10.0555C1.72306 9.95389 1.68787 9.85224 1.67614 9.71541C1.66442 9.52385 1.69569 9.45348 2.46585 7.91317C3.193 6.45104 3.28292 6.29467 3.45493 6.1422C3.56049 6.04837 3.74423 5.92718 4.07653 5.76298L6.81704 5.72389L7.38782 5.11793C7.70057 4.78563 8.11497 4.3595 8.30653 4.17576C8.49418 3.99201 8.77175 3.73008 8.92422 3.59325C9.07278 3.45642 9.40117 3.18276 9.64746 2.98729C9.89376 2.78791 10.2886 2.4947 10.5271 2.33442C10.7617 2.17413 11.133 1.93956 11.3481 1.81055C11.5631 1.68545 12.0205 1.44698 12.3645 1.28278C12.7085 1.11858 13.2011 0.903566 13.4592 0.805831C13.7172 0.708095 14.1394 0.567356 14.3974 0.493076C14.6554 0.418797 15.0972 0.309333 15.3748 0.254601C15.6523 0.19596 16.1293 0.117771 16.4303 0.0786772C16.7313 0.0395829 17.2552 0.0043981 17.5914 0.000488678H17.5953ZM13.8149 2.63153C13.6859 2.67063 13.467 2.76054 13.3262 2.83482C13.1855 2.90519 12.9548 3.06157 12.8063 3.18276C12.6616 3.30004 12.4623 3.50724 12.3645 3.64016C12.2629 3.77699 12.1221 4.01156 12.0518 4.16012C11.9814 4.30868 11.8954 4.54715 11.8563 4.68789C11.8133 4.85209 11.7898 5.09447 11.7898 5.37204C11.7859 5.70434 11.8055 5.87245 11.8758 6.11483C11.9228 6.28685 12.0361 6.56833 12.126 6.74034C12.2472 6.97491 12.3723 7.1391 12.6225 7.3854C12.8063 7.56914 13.0682 7.78416 13.209 7.86625C13.3497 7.94835 13.6038 8.05782 13.7758 8.11255C13.9869 8.17901 14.2176 8.22201 14.4795 8.23374C14.761 8.24938 14.9604 8.23765 15.2028 8.19074C15.406 8.14773 15.668 8.05782 15.8869 7.95226C16.0785 7.85844 16.3521 7.68642 16.4929 7.57305C16.6336 7.45576 16.8291 7.24857 16.9307 7.11174C17.0324 6.971 17.1731 6.7247 17.2474 6.56442C17.3217 6.40413 17.4155 6.13047 17.4507 5.95846C17.5054 5.72389 17.5171 5.54406 17.4976 5.23521C17.4859 4.95764 17.4468 4.72699 17.3842 4.53151C17.3334 4.37123 17.22 4.11321 17.1379 3.96465C17.0519 3.81609 16.8604 3.56198 16.7079 3.4056C16.5593 3.24531 16.3209 3.04593 16.1801 2.95992C16.0394 2.87001 15.8126 2.75663 15.6719 2.7019C15.5312 2.65108 15.2849 2.58462 15.1246 2.55334C14.9643 2.52598 14.7414 2.50252 14.6359 2.50643C14.5264 2.50643 14.3505 2.52207 14.245 2.53771C14.1355 2.55334 13.9439 2.59635 13.8149 2.63153ZM3.33765 14.0588C3.48621 14.0666 3.74032 14.1096 3.89279 14.1526C4.04917 14.1917 4.29546 14.2855 4.44011 14.3598C4.58867 14.4341 4.8115 14.5787 4.94052 14.6843C5.06562 14.7859 5.25718 14.9775 5.35882 15.1065C5.46438 15.2355 5.60903 15.4623 5.68331 15.6147C5.75759 15.7672 5.84359 15.994 5.87878 16.123C5.91396 16.252 5.95306 16.5139 5.96479 16.7094C5.98042 16.9635 5.96869 17.1551 5.92178 17.3935C5.87878 17.6007 5.78886 17.8587 5.68331 18.0777C5.58948 18.2692 5.43701 18.5194 5.34319 18.6289C5.24936 18.7384 5.08516 18.9065 4.97961 18.9964C4.87015 19.0863 4.67077 19.231 4.53003 19.3131C4.38929 19.3952 4.13517 19.5163 3.96316 19.5867C3.79114 19.6532 3.4823 19.7509 3.27901 19.8056C3.07572 19.8565 2.80988 19.9034 2.47758 19.9151L2.36029 19.6805C2.26647 19.4851 2.24301 19.3873 2.23128 19.0941C2.21955 18.8987 2.20001 18.711 2.18046 18.6719C2.16091 18.6367 2.10227 18.5859 2.04754 18.5664C1.98238 18.5403 1.91071 18.5403 1.83252 18.5664C1.75042 18.5937 1.68787 18.6602 1.62141 18.7892C1.57059 18.8947 1.48849 19.0824 1.43767 19.2114C1.37903 19.3639 1.28911 19.5085 1.17183 19.6258C1.05455 19.7392 0.909897 19.8369 0.757429 19.8917C0.628418 19.9425 0.452494 19.9933 0.366487 20.005C0.245294 20.0207 0.190562 20.0089 0.128012 19.9503C0.0654607 19.8917 0.0380948 19.8056 0.0146382 19.5633C-0.000999511 19.3912 -0.00490894 18.9065 0.00681934 18.4882C0.0185476 17.9839 0.0537325 17.5734 0.104555 17.2762C0.151468 17.03 0.241385 16.6507 0.311755 16.4357C0.378215 16.2207 0.511135 15.8962 0.601052 15.7125C0.694878 15.5287 0.862984 15.259 0.980267 15.1065C1.09755 14.954 1.30866 14.7468 1.44549 14.6413C1.58232 14.5357 1.81688 14.3911 1.96935 14.3207C2.11791 14.2543 2.3212 14.1761 2.41894 14.1487C2.51667 14.1213 2.70041 14.0862 2.82943 14.0705C2.95844 14.051 3.18518 14.0471 3.33765 14.0588Z" fill="#D2DCF7"/>
</svg>
