<svg width="15" height="16" viewBox="0 0 15 16" fill="none" xmlns="http://www.w3.org/2000/svg">
<path fill-rule="evenodd" clip-rule="evenodd" d="M6.28346 0L8.20472 0.00314961L8.30866 0.0787402C8.3622 0.122835 8.4315 0.198425 8.45669 0.251969C8.48189 0.305512 8.50394 0.384252 8.50394 0.434646C8.50394 0.48189 8.32126 0.966929 8.09449 1.51181C7.86772 2.05669 7.65669 2.55118 7.62835 2.61102C7.6 2.67087 7.53071 2.74646 7.48031 2.77795C7.42677 2.80945 7.32598 2.83465 7.24409 2.83465C7.1622 2.83465 7.06142 2.80945 7.00787 2.7748C6.95433 2.74331 6.88819 2.66772 6.85984 2.61102C6.8315 2.55118 6.62047 2.05669 6.3937 1.51181C6.16693 0.966929 5.98425 0.48189 5.98425 0.431496C5.98425 0.384252 6.0063 0.302362 6.0315 0.251969C6.05669 0.198425 6.12598 0.122835 6.18268 0.0787402L6.28346 0ZM0.409449 6.4C0.422047 6.4063 1.47402 6.84094 5.05827 8.32441L5.05512 9.1874L2.74331 10.1449C1.47402 10.6709 0.425197 11.1055 0.412598 11.1118C0.4 11.115 0.346457 10.9606 0.289764 10.7654C0.23622 10.5701 0.173228 10.337 0.154331 10.252C0.135433 10.1638 0.0944882 9.90866 0.0598425 9.68504C0.0220472 9.42362 0 9.09921 0 8.7874C0 8.51968 0.0220472 8.12913 0.0472441 7.92126C0.0755906 7.71339 0.116535 7.44252 0.141732 7.32283C0.166929 7.2 0.233071 6.94173 0.286614 6.74646C0.343307 6.55118 0.39685 6.3937 0.409449 6.4ZM14.0913 6.39685C14.1071 6.3937 14.1606 6.55433 14.2079 6.74646C14.2551 6.94173 14.3118 7.1685 14.3276 7.25039C14.3465 7.33543 14.3906 7.5937 14.4252 7.82677C14.4661 8.11339 14.485 8.4126 14.485 8.74646C14.485 9.06457 14.463 9.39528 14.4252 9.66929C14.3906 9.90236 14.3496 10.1638 14.3307 10.252C14.3118 10.337 14.2488 10.5701 14.1953 10.7654C14.1386 10.9606 14.085 11.115 14.0756 11.1118C14.063 11.1055 13.0142 10.6709 9.43307 9.18425L9.41417 8.32441L11.7386 7.36378C13.0173 6.83465 14.0756 6.4 14.0913 6.39685ZM6.8126 10.9449H7.67244L8.62992 13.2567C9.15905 14.526 9.5937 15.5748 9.59685 15.5874C9.60315 15.5969 9.44567 15.6535 9.25039 15.7071C9.05512 15.7638 8.74646 15.8394 8.56693 15.8709C8.38425 15.9024 8.14173 15.9465 8.0315 15.9654C7.91811 15.9843 7.56535 16 7.25039 16C6.87874 16 6.56693 15.9811 6.3685 15.9496C6.19843 15.9244 5.95591 15.8803 5.82677 15.8551C5.69449 15.8299 5.42992 15.7638 5.23465 15.7071C5.03937 15.6504 4.88189 15.5969 4.88819 15.5874C4.89134 15.578 5.32598 14.5291 5.85512 13.2567L6.8126 10.9449ZM5.47717 1.73228C5.50866 1.73228 5.58425 1.87717 5.71339 2.17953C5.81417 2.42835 5.94961 2.74331 6.0126 2.88189C6.07559 3.02362 6.18583 3.2 6.26772 3.28504C6.34331 3.37008 6.47244 3.47717 6.54803 3.52756C6.62677 3.5748 6.7685 3.6378 6.86299 3.66614C6.96063 3.69449 7.13071 3.71654 7.24094 3.71654C7.35433 3.71654 7.52441 3.69449 7.6189 3.66614C7.71654 3.6378 7.85827 3.5748 7.93386 3.52756C8.0126 3.47717 8.13858 3.37008 8.21732 3.28504C8.29606 3.2 8.4063 3.02362 8.47244 2.88189C8.53228 2.74331 8.66772 2.4252 8.95748 1.72598L9.05197 1.74488C9.10551 1.75748 9.24409 1.79213 9.36063 1.82677C9.47717 1.86142 9.57165 1.90551 9.57165 1.92756C9.5748 1.94961 9.14646 3.00157 7.66929 6.56693H6.8126L5.85197 4.25512C5.32598 2.98268 4.89134 1.93386 4.88504 1.92441C4.88189 1.91496 5.00157 1.86772 5.15276 1.82047C5.30709 1.77323 5.45197 1.73543 5.47717 1.73228ZM4.04409 2.26772C4.06299 2.26772 4.51024 3.31024 5.03622 4.58583C5.56535 5.86457 5.9937 6.90709 5.9937 6.91024C5.99055 6.91024 5.85512 7.04882 5.39528 7.51181L3.09921 6.56063C1.83307 6.03465 0.787402 5.60315 0.768504 5.59685C0.752756 5.59055 0.768504 5.51811 0.812598 5.42992C0.853543 5.34488 0.95748 5.15591 1.04567 5.00787C1.13701 4.85984 1.32913 4.57638 1.48031 4.37795C1.6315 4.17953 1.92126 3.84882 2.12598 3.64094C2.33386 3.43622 2.63622 3.16535 2.8 3.03937C2.96693 2.91339 3.2 2.74646 3.31968 2.66772C3.44252 2.58898 3.64724 2.46929 3.77638 2.39685C3.90866 2.32756 4.02835 2.26772 4.04409 2.26772ZM10.4378 2.26772C10.4535 2.26772 10.5764 2.32756 10.7055 2.39685C10.8378 2.46929 11.0551 2.59843 11.1937 2.68661C11.3323 2.77795 11.5811 2.95748 11.7449 3.08661C11.9118 3.2189 12.1984 3.48031 12.3874 3.66929C12.5764 3.86142 12.8535 4.17953 13.0016 4.37795C13.1528 4.57638 13.348 4.85984 13.4362 5.00787C13.5244 5.15591 13.6315 5.34488 13.6724 5.42992C13.7134 5.51811 13.7323 5.59055 13.7134 5.59685C13.6976 5.60315 12.6488 6.0378 9.08976 7.51181L8.7937 7.2126C8.62992 7.04882 8.49449 6.90709 8.49134 6.90394C8.48819 6.89764 8.91654 5.85197 9.44567 4.57953C9.97165 3.30709 10.4189 2.26772 10.4378 2.26772ZM7.2252 7.43307C7.31339 7.43307 7.46772 7.45512 7.57165 7.48031C7.67559 7.50866 7.83622 7.5748 7.93071 7.6315C8.02205 7.68504 8.15433 7.79528 8.22362 7.87402C8.29291 7.95276 8.38425 8.08504 8.4252 8.17323C8.46929 8.25827 8.51969 8.42205 8.54173 8.53543C8.57008 8.69291 8.57008 8.79055 8.54173 8.96063C8.51969 9.08031 8.46614 9.25984 8.4189 9.35433C8.37165 9.44882 8.26142 9.6 8.17323 9.68504C8.08504 9.77323 7.93701 9.88346 7.83937 9.93071C7.74488 9.97795 7.5685 10.0346 7.44567 10.0535C7.27559 10.0819 7.17795 10.0819 7.02047 10.0535C6.91024 10.0346 6.74016 9.97795 6.64252 9.93071C6.54803 9.88346 6.4 9.77323 6.31181 9.68504C6.22362 9.6 6.11339 9.44882 6.06614 9.35433C6.0189 9.25984 5.9622 9.08031 5.94331 8.96063C5.91496 8.79055 5.91496 8.69291 5.94331 8.53543C5.9622 8.42205 6.01575 8.25827 6.05669 8.17323C6.10079 8.08504 6.19213 7.95276 6.25827 7.87402C6.32756 7.79528 6.45984 7.68504 6.55433 7.6315C6.64567 7.5748 6.8 7.50866 6.89449 7.48346C6.99213 7.45827 7.14016 7.43622 7.2252 7.43307ZM6.86299 8.54173C6.82835 8.59843 6.8 8.69606 6.8 8.75591C6.8 8.81575 6.82835 8.91024 6.86299 8.96693C6.89764 9.02362 6.97323 9.09921 7.02992 9.13386C7.08661 9.1685 7.1748 9.19685 7.2252 9.19685C7.27874 9.19685 7.37008 9.17165 7.42992 9.14016C7.48661 9.11181 7.5622 9.05197 7.59685 9.00787C7.62835 8.96378 7.66299 8.86614 7.66929 8.7874C7.68189 8.68032 7.66929 8.62047 7.62205 8.54173C7.5874 8.48504 7.51181 8.4126 7.45512 8.37795C7.39843 8.34331 7.30394 8.31496 7.24094 8.31496C7.1811 8.31496 7.08661 8.34331 7.02992 8.37795C6.97323 8.4126 6.89764 8.48504 6.86299 8.54173ZM5.37638 10L5.67244 10.2866C5.83307 10.4472 5.97165 10.589 5.97795 10.6047C5.9811 10.6173 5.55591 11.6693 5.03307 12.9386C4.17008 15.0236 4.06929 15.2441 4.0126 15.2283C3.97795 15.2189 3.79528 15.1244 3.60945 15.0142C3.42047 14.9071 3.09291 14.6898 2.88504 14.5323C2.67402 14.3717 2.33386 14.0756 2.12598 13.8709C1.92126 13.663 1.6315 13.3323 1.48031 13.1339C1.32913 12.9354 1.13701 12.652 1.04567 12.5039C0.95748 12.3559 0.853543 12.1669 0.812598 12.0819C0.768504 11.9937 0.752756 11.9213 0.768504 11.915C0.787402 11.9087 1.82992 11.474 3.08976 10.9512L5.37638 10ZM9.09606 10.0031C9.10551 10.0063 10.148 10.4378 11.4142 10.9606C12.6772 11.4866 13.7197 11.9213 13.7291 11.9276C13.7386 11.937 13.6882 12.0504 13.6189 12.1827C13.5496 12.315 13.3984 12.5638 13.2819 12.7402C13.1654 12.9134 12.9795 13.1685 12.8693 13.3071C12.7559 13.4457 12.5449 13.6819 12.4 13.8268C12.2551 13.9748 12.0031 14.2079 11.8394 14.3465C11.6756 14.4819 11.3921 14.6929 11.2094 14.8094C11.0268 14.9291 10.7748 15.0803 10.6457 15.1433C10.5165 15.2094 10.4063 15.2472 10.4 15.2283C10.3937 15.2126 9.95905 14.1638 8.48504 10.6047L8.7811 10.3024C8.94488 10.1354 9.08661 10 9.09606 10.0031Z" fill="#D2DCF7"/>
</svg>
