<svg width="20" height="20" viewBox="0 0 20 20" fill="none" xmlns="http://www.w3.org/2000/svg">
<path d="M16.4395 3.59098C16.6173 3.12073 16.7556 2.81644 16.811 2.77297C16.8544 2.73346 16.9216 2.70184 16.9532 2.70184C16.9848 2.70184 17.0481 2.73346 17.0915 2.76902C17.135 2.80854 17.2219 2.97451 17.2852 3.13653C17.3484 3.29855 17.4827 3.64631 17.5815 3.90712C17.6843 4.17584 17.8305 4.47617 17.9214 4.59472C18.0083 4.71327 18.1585 4.87529 18.2573 4.95433C18.3561 5.02941 18.6683 5.20724 18.9488 5.34159C19.2334 5.4799 19.4942 5.62217 19.5337 5.65773C19.5732 5.6933 19.6048 5.76838 19.6048 5.8237C19.6048 5.87903 19.5614 5.95806 19.5139 6.00548C19.4626 6.04895 19.182 6.20307 18.8896 6.34533C18.4707 6.54687 18.3087 6.64961 18.1387 6.81954C18.0202 6.93809 17.8661 7.13963 17.7949 7.27003C17.7278 7.39649 17.5618 7.79561 17.4274 8.15522C17.2931 8.51483 17.1548 8.83887 17.1192 8.87839C17.0836 8.9179 17.0085 8.94952 16.9532 8.94952C16.8979 8.94952 16.8228 8.9179 16.7872 8.87839C16.7517 8.83887 16.6055 8.50297 16.4672 8.13546C16.3288 7.76795 16.1747 7.38463 16.1234 7.28584C16.072 7.18705 15.9258 6.99341 15.7914 6.85906C15.582 6.64171 15.4713 6.56663 14.9576 6.30977C14.6336 6.14775 14.353 5.99363 14.3372 5.96992C14.3214 5.94226 14.3056 5.87903 14.3056 5.8237C14.3056 5.76838 14.3332 5.69725 14.3727 5.65773C14.4123 5.62217 14.6849 5.47595 14.9774 5.33369C15.2698 5.19143 15.5899 5.0057 15.6887 4.92271C15.7875 4.83973 15.9297 4.67375 16.0127 4.5552C16.0917 4.4327 16.2775 4.01777 16.4395 3.59098Z" fill="#D2DCF7"/>
<path d="M6.94746 3.82018C6.97512 3.76881 7.0423 3.70163 7.10553 3.67002C7.17271 3.6305 7.27545 3.61469 7.39005 3.62655C7.50465 3.6384 7.59949 3.67792 7.65877 3.73719C7.71409 3.79252 7.99862 4.49593 8.4175 5.60636C8.78896 6.58639 9.16833 7.54666 9.25922 7.74029C9.35406 7.93392 9.52793 8.23821 9.64253 8.41208C9.76108 8.58596 9.96657 8.85468 10.097 9.00484C10.2313 9.15501 10.4803 9.39606 10.6542 9.53437C10.8241 9.67268 11.0889 9.87027 11.243 9.96906C11.3971 10.0639 12.0807 10.4196 12.7644 10.7515C13.448 11.0834 14.0566 11.3917 14.1198 11.4352C14.1791 11.4786 14.2463 11.5814 14.27 11.6644C14.3095 11.7869 14.3016 11.8343 14.2423 11.9647C14.1712 12.1148 14.1159 12.1425 12.7446 12.8183C11.7567 13.3083 11.2153 13.5967 10.9703 13.7706C10.7767 13.9089 10.4487 14.2014 10.2392 14.4187C10.0298 14.636 9.75713 14.964 9.63463 15.1498C9.51608 15.3355 9.35011 15.6082 9.27502 15.7623C9.19994 15.9164 8.82453 16.8727 8.44121 17.8962C7.87216 19.4137 7.722 19.7733 7.62715 19.8602C7.55998 19.9235 7.46118 19.9827 7.40191 19.9946C7.33078 20.0104 7.24384 19.9906 7.1569 19.9472C7.08577 19.9037 7.00278 19.8365 6.97512 19.793C6.94351 19.7496 6.61156 18.8881 6.2322 17.8765C5.85283 16.8648 5.48532 15.9243 5.41419 15.782C5.34306 15.6398 5.20475 15.4027 5.10596 15.2486C5.01111 15.0944 4.81748 14.8376 4.68312 14.6756C4.54876 14.5135 4.30771 14.2646 4.14569 14.1263C3.98367 13.988 3.7189 13.7825 3.55688 13.6718C3.39486 13.5651 2.65589 13.1779 1.91692 12.8183C0.944792 12.3401 0.54962 12.1267 0.482441 12.0437C0.423165 11.9686 0.391551 11.8777 0.395503 11.7829C0.395503 11.6762 0.427117 11.5972 0.506151 11.5142C0.577282 11.4312 1.01592 11.198 1.85764 10.7871C2.54129 10.4551 3.20123 10.1232 3.31978 10.052C3.43833 9.97696 3.66358 9.8268 3.81374 9.7122C3.96786 9.5976 4.25238 9.34074 4.44997 9.1392C4.64756 8.93371 4.92418 8.58991 5.07039 8.37257C5.21265 8.15522 5.38653 7.85094 5.45766 7.70077C5.52484 7.55061 5.88049 6.63381 6.24405 5.66564C6.60761 4.69746 6.92375 3.8676 6.94746 3.82018Z" fill="#D2DCF7"/>
</svg>
