<svg width="20" height="20" viewBox="0 0 20 20" fill="none" xmlns="http://www.w3.org/2000/svg">
<path d="M6.8166 0.430155C6.94964 0.283814 7.08711 0.186253 7.27336 0.110865L7.53944 0H10.9186C14.2623 0 14.3066 0 14.555 0.0931264C14.7323 0.159645 14.8787 0.257206 15.0206 0.403548C15.1802 0.567627 15.2512 0.682927 15.3044 0.873614C15.3488 1.02882 15.3665 1.21064 15.3532 1.33038C15.3399 1.45898 14.79 2.74945 13.7922 4.98891C12.9452 6.89135 12.2445 8.4745 12.2357 8.50554C12.2224 8.54545 12.6215 8.55876 14.1337 8.55876C16.0539 8.55876 16.0539 8.55876 16.2756 8.66519C16.3953 8.7184 16.5683 8.84257 16.657 8.94013C16.7412 9.03326 16.8476 9.21508 16.8964 9.33481C16.9585 9.49889 16.9718 9.62749 16.9541 9.82262C16.9408 9.96896 16.8964 10.1552 16.8565 10.2306C16.8166 10.3104 15.0428 12.4656 12.9142 15.02C10.7856 17.5787 8.98512 19.7118 8.91416 19.7605C8.83877 19.8137 8.7013 19.8891 8.60374 19.929C8.50618 19.969 8.33323 20 8.2135 20C8.08933 20 7.91194 19.9557 7.77004 19.8936C7.64587 19.8315 7.45518 19.694 7.34875 19.5831C7.22902 19.4501 7.14033 19.2993 7.09598 19.1441C7.0605 19.02 7.02946 18.8736 7.02946 18.8248C7.02946 18.7761 7.32214 17.4058 8.33766 12.8204L3.94742 12.7938L3.70352 12.6785C3.57048 12.612 3.39753 12.4834 3.31771 12.3902C3.24232 12.2927 3.14476 12.1286 3.10928 12.0177C3.06937 11.9069 3.03833 11.7295 3.03833 11.6186C3.03833 11.4767 3.54831 9.8847 4.8299 6.03104C6.60374 0.713969 6.63035 0.638581 6.8166 0.430155Z" fill="#D2DCF7"/>
</svg>
