<svg width="24" height="23" viewBox="0 0 24 23" fill="none" xmlns="http://www.w3.org/2000/svg">
<path fill-rule="evenodd" clip-rule="evenodd" d="M11.73 0.0891692C11.5951 0.171566 11.3592 0.621858 9.80191 3.76945L8.02757 7.35582L7.8461 7.38465C7.74629 7.40052 6.06134 7.62447 4.10178 7.88231C2.14221 8.14011 0.458811 8.37355 0.360879 8.40101C0.148843 8.4605 0.000234551 8.67191 1.5291e-07 8.91445C-0.000187365 9.06802 0.171673 9.25005 2.84728 11.931L5.6947 14.7841L4.92395 18.6483C4.20552 22.2505 4.15761 22.5231 4.21752 22.668C4.29155 22.847 4.51282 22.9998 4.69841 23C4.77309 23.0001 6.30845 22.2583 8.39065 21.2161C10.3511 20.2349 11.9885 19.432 12.0294 19.432C12.0702 19.432 13.7002 20.2349 15.6515 21.2161C17.6028 22.1974 19.2515 23.0001 19.3153 23C19.4903 22.9998 19.7122 22.8426 19.7845 22.6678C19.8446 22.5227 19.7972 22.2532 19.0817 18.6676L18.3145 14.823L21.0818 12.0452C22.6037 10.5174 23.8834 9.21521 23.9256 9.15136C24.1009 8.88567 23.9506 8.48857 23.6411 8.39998C23.5088 8.36214 16.1522 7.36601 16.0048 7.36601C15.9905 7.36601 15.1788 5.74949 14.201 3.77372C12.6476 0.635145 12.4038 0.169688 12.2706 0.0883711C12.0773 -0.0297069 11.9243 -0.0294721 11.73 0.0891692ZM7.57771 10.5551C7.73916 10.6537 7.75342 10.6866 8.46706 12.612C8.67033 13.1604 8.84876 13.6094 8.86362 13.6097C8.87843 13.61 9.14025 12.9424 9.44544 12.1261C9.94752 10.783 10.0141 10.6335 10.1451 10.5535C10.5116 10.3296 10.9515 10.5756 10.9355 10.9953C10.9323 11.0779 10.5694 12.1067 10.1291 13.2816C9.24452 15.6417 9.22633 15.6761 8.86005 15.6761C8.49683 15.6761 8.47817 15.6407 7.59618 13.2778C7.08154 11.8992 6.79735 11.0749 6.79735 10.9609C6.79735 10.8222 6.83186 10.7494 6.95674 10.6243C7.14407 10.4367 7.34683 10.4141 7.57771 10.5551ZM12.2089 10.5105C12.275 10.5356 12.3712 10.6254 12.4227 10.71C12.5128 10.8579 12.5163 10.9476 12.5163 13.0704C12.5163 15.1931 12.5128 15.2828 12.4227 15.4308C12.2446 15.7233 11.8902 15.7623 11.6447 15.5164L11.4853 15.3568V13.0704V10.7839L11.6447 10.6243C11.8134 10.4554 11.9774 10.4223 12.2089 10.5105ZM15.7596 10.5898C16.069 10.7328 16.3676 11.0256 16.5276 11.3431C16.6467 11.5796 16.6646 11.6669 16.665 12.014C16.6654 12.3466 16.6452 12.4561 16.5439 12.6713C16.2556 13.2834 15.6771 13.6103 14.8822 13.6103H14.6352L14.6188 14.4671C14.605 15.1894 14.5894 15.3431 14.5199 15.4458C14.3667 15.6722 14.0816 15.7364 13.8233 15.6025C13.5528 15.4624 13.548 15.4188 13.548 13.0789C13.548 11.6154 13.5646 10.9005 13.601 10.7959C13.6302 10.7121 13.7198 10.6025 13.8003 10.5522C13.9329 10.4693 14.0207 10.462 14.7434 10.4747C15.4426 10.4869 15.5673 10.501 15.7596 10.5898ZM14.6262 12.014V12.5305H14.9674C15.3452 12.5305 15.4715 12.473 15.5876 12.2482C15.6771 12.0747 15.6757 11.996 15.5792 11.7923C15.4807 11.5845 15.283 11.4976 14.909 11.4976H14.6262V12.014Z" fill="#FFBF1F"/>
</svg>
