<svg width="20" height="20" viewBox="0 0 20 20" fill="none" xmlns="http://www.w3.org/2000/svg">
<path fill-rule="evenodd" clip-rule="evenodd" d="M9.77502 1.32269C9.66255 1.38986 9.46601 1.75695 8.16826 4.32292L6.68964 7.24659L6.53841 7.27009C6.45524 7.28303 5.05112 7.4656 3.41815 7.6758C1.78517 7.88596 0.382342 8.07626 0.300733 8.09865C0.124036 8.14714 0.000195459 8.31949 1.27425e-07 8.51722C-0.000156138 8.64241 0.143061 8.7908 2.37273 10.9764L4.74558 13.3023L4.10329 16.4525C3.5046 19.389 3.46468 19.6112 3.5146 19.7294C3.57629 19.8753 3.76068 19.9998 3.91534 20C3.97758 20.0001 5.25704 19.3953 6.99221 18.5457C8.62588 17.7458 9.99043 17.0913 10.0245 17.0913C10.0585 17.0913 11.4168 17.7458 13.0429 18.5457C14.669 19.3457 16.0429 20.0001 16.0961 20C16.2419 19.9998 16.4268 19.8717 16.4871 19.7292C16.5371 19.6109 16.4977 19.3912 15.9014 16.4681L15.2621 13.334L17.5681 11.0695C18.8364 9.82401 19.9028 8.7624 19.938 8.71035C20.0841 8.49375 19.9588 8.17003 19.7009 8.09781C19.5907 8.06696 13.4601 7.2549 13.3373 7.2549C13.3254 7.2549 12.649 5.93709 11.8341 4.3264C10.5396 1.76778 10.3365 1.38833 10.2255 1.32204C10.0644 1.22578 9.93691 1.22597 9.77502 1.32269ZM6.31476 9.8547C6.4493 9.93508 6.46118 9.96191 7.05589 11.5315C7.22528 11.9786 7.37396 12.3446 7.38635 12.3448C7.39869 12.3451 7.61688 11.8009 7.8712 11.1354C8.2896 10.0405 8.34507 9.91858 8.45423 9.85336C8.75965 9.67091 9.12624 9.87143 9.11288 10.2136C9.11027 10.2809 8.80785 11.1196 8.4409 12.0774C7.70376 14.0014 7.6886 14.0294 7.38338 14.0294C7.08069 14.0294 7.06514 14.0005 6.33015 12.0743C5.90128 10.9504 5.66446 10.2785 5.66446 10.1855C5.66446 10.0725 5.69321 10.0131 5.79729 9.91112C5.95339 9.75817 6.12236 9.73976 6.31476 9.8547ZM10.174 9.8183C10.2292 9.83882 10.3094 9.91204 10.3523 9.98097C10.4273 10.1016 10.4303 10.1747 10.4303 11.9052C10.4303 13.6357 10.4273 13.7088 10.3523 13.8294C10.2039 14.0679 9.90851 14.0997 9.70392 13.8993L9.57109 13.7691V11.9052V10.0412L9.70392 9.91112C9.84448 9.77341 9.98113 9.74642 10.174 9.8183ZM13.133 9.88299C13.3908 9.99953 13.6397 10.2382 13.773 10.4971C13.8723 10.6899 13.8872 10.761 13.8875 11.044C13.8878 11.3151 13.871 11.4045 13.7866 11.5799C13.5463 12.0788 13.0642 12.3453 12.4018 12.3453H12.196L12.1823 13.0438C12.1708 13.6327 12.1579 13.758 12.0999 13.8417C11.9722 14.0263 11.7347 14.0785 11.5194 13.9695C11.294 13.8553 11.29 13.8197 11.29 11.9121C11.29 10.719 11.3038 10.1363 11.3342 10.051C11.3585 9.98273 11.4332 9.89332 11.5002 9.85233C11.6107 9.78474 11.6839 9.77884 12.2862 9.78914C12.8688 9.79909 12.9728 9.81061 13.133 9.88299ZM12.1885 11.044V11.465H12.4728C12.7877 11.465 12.8929 11.4182 12.9896 11.235C13.0643 11.0935 13.0631 11.0293 12.9827 10.8633C12.9006 10.6939 12.7359 10.623 12.4242 10.623H12.1885V11.044Z" fill="#D2DCF7"/>
</svg>
