<svg width="30" height="30" viewBox="0 0 30 30" fill="none" xmlns="http://www.w3.org/2000/svg">
<path d="M17.9323 0.411652C18.1433 0.341329 18.6004 0.224124 18.9579 0.147941C19.456 0.0424568 19.7959 0.0072954 20.464 0.00143516C21.2903 -0.00442508 21.343 0.00143515 21.5657 0.142081C21.7122 0.235845 21.8411 0.382351 21.9173 0.534717C22.0052 0.733965 22.0345 0.915632 22.0345 1.37273C22.0345 1.69504 22.0052 2.18144 21.9759 2.45688C21.9407 2.73231 21.847 3.21871 21.7708 3.54102C21.6887 3.86333 21.5598 4.29699 21.4719 4.50796C21.3899 4.71893 21.2082 5.0764 21.0793 5.29909C20.9445 5.52178 20.6515 5.9027 20.4229 6.14297C20.2002 6.37738 19.8545 6.67625 19.6611 6.80517C19.4677 6.9341 19.1161 7.12749 18.8817 7.23883C18.6531 7.35018 18.2605 7.49668 18.0202 7.567C17.78 7.64319 17.5807 7.71351 17.5807 7.73109C17.5749 7.74867 17.7272 7.88346 17.9148 8.02996C18.1023 8.18233 18.5418 8.58669 18.8934 8.9383C19.245 9.28991 19.7021 9.78803 19.9072 10.0459C20.1182 10.3037 20.4815 10.8019 20.7159 11.1593C20.9562 11.5168 21.3078 12.1204 21.4954 12.5072C21.6887 12.894 21.9466 13.4741 22.0638 13.7964C22.1869 14.1188 22.3685 14.7224 22.474 15.1443C22.5795 15.5604 22.7026 16.1405 22.7436 16.4218C22.8081 16.8379 22.8432 16.9258 22.9135 16.8965C22.9604 16.8731 23.2124 16.791 23.4703 16.709C23.8746 16.5801 24.0563 16.5625 24.7595 16.5566C25.4452 16.5566 25.6561 16.5742 26.0488 16.6855C26.3066 16.7617 26.7286 16.9258 26.9864 17.0547C27.2443 17.1837 27.6193 17.4181 27.8186 17.5763C28.0237 17.7404 28.3518 18.0744 28.5511 18.3323C28.7562 18.5843 29.0316 19.0121 29.1606 19.2816C29.2953 19.5512 29.4594 19.9438 29.5297 20.1548C29.5942 20.3658 29.7056 20.8111 29.77 21.151C29.8462 21.5495 29.8872 22.0125 29.8872 22.4579C29.8872 22.9208 29.8462 23.3369 29.7642 23.7413C29.6997 24.0753 29.5883 24.5031 29.5239 24.6965C29.4594 24.8899 29.3012 25.2708 29.1723 25.5462C29.0433 25.8216 28.7914 26.267 28.6097 26.5425C28.428 26.8179 28.0002 27.316 27.6603 27.6559C27.3204 27.9958 26.8458 28.4119 26.6055 28.576C26.3652 28.74 25.914 28.9979 25.6092 29.1503C25.3045 29.3026 24.8298 29.5019 24.5544 29.5898C24.279 29.6835 23.7691 29.8066 23.4117 29.8769C22.9546 29.9648 22.5326 30 21.9583 30C21.343 30 20.9972 29.9648 20.464 29.8594C20.0889 29.7832 19.5673 29.6484 19.3095 29.5605C19.0516 29.4726 18.5887 29.2733 18.2839 29.121C17.9792 28.9627 17.5338 28.7049 17.2994 28.5408C17.0709 28.3767 16.6958 28.072 16.0571 27.4801L16.2036 27.234C16.2915 27.0933 16.4731 26.7593 16.6079 26.4839C16.7486 26.2084 16.9595 25.7103 17.0767 25.3704C17.1939 25.0305 17.3522 24.4914 17.4166 24.1691C17.5221 23.6885 17.5456 23.3838 17.5456 22.4696C17.5456 21.5554 17.5221 21.2448 17.4166 20.7115C17.3463 20.354 17.2115 19.8442 17.1178 19.5688C17.0299 19.2933 16.8833 18.9241 16.8072 18.7483C16.7251 18.5725 16.5552 18.2502 16.4204 18.0334C16.2856 17.8107 16.1743 17.6173 16.1743 17.5939C16.1684 17.5646 16.3325 17.4356 16.5376 17.3009C16.7427 17.1602 17.1178 16.9668 17.3756 16.8672C17.6335 16.7676 18.0437 16.6504 18.2839 16.6035C18.5242 16.5625 18.8993 16.5273 19.1161 16.5215C19.3388 16.5215 19.708 16.5508 19.9365 16.5859C20.1709 16.6211 20.5108 16.7031 20.6866 16.7617C20.8625 16.8262 21.0148 16.8731 21.0207 16.8731C21.0324 16.8731 21.0207 16.7852 21.0031 16.6855C20.9855 16.5801 20.9152 16.2402 20.8566 15.9354C20.7921 15.6307 20.6515 15.1033 20.5343 14.7634C20.4229 14.4235 20.1768 13.8316 19.9893 13.4448C19.7959 13.058 19.4794 12.4896 19.2802 12.1849C19.0751 11.8801 18.7645 11.4406 18.5828 11.2179C18.4012 10.9952 18.0554 10.6026 17.8151 10.3448C17.5749 10.0928 17.1236 9.67083 16.8189 9.41884C16.5142 9.16099 15.9633 8.75663 14.9436 8.0827L14.2814 8.5105C13.9239 8.74491 13.3848 9.13755 13.0976 9.38368C12.8105 9.62395 12.3182 10.0869 12.0076 10.4034C11.7029 10.7198 11.2399 11.2648 10.9821 11.6106C10.7301 11.9563 10.3668 12.5072 10.1851 12.8412C9.99757 13.1753 9.73972 13.7085 9.60493 14.0308C9.47601 14.3532 9.28848 14.8923 9.19472 15.2322C9.10095 15.5721 8.98961 16.0702 8.94273 16.3456C8.89584 16.6211 8.86068 16.8496 8.86654 16.8555C8.8724 16.8672 9.02477 16.8203 9.20058 16.7617C9.37638 16.7031 9.74558 16.6211 10.021 16.5801C10.3199 16.5332 10.7301 16.5215 11.0466 16.539C11.3337 16.5625 11.7732 16.6328 12.0135 16.6973C12.2538 16.7676 12.664 16.9258 12.9218 17.0547C13.1797 17.1837 13.5547 17.4181 13.754 17.5763C13.9591 17.7404 14.2873 18.0744 14.4865 18.3323C14.6916 18.5843 14.9671 19.0121 15.096 19.2816C15.2308 19.5512 15.4066 19.9849 15.4886 20.2427C15.5707 20.5006 15.682 21.0163 15.7347 21.3854C15.8109 21.8836 15.8285 22.2528 15.8051 22.7919C15.7816 23.2138 15.7172 23.7354 15.6468 24.0226C15.5824 24.298 15.4593 24.7023 15.3714 24.9309C15.2894 25.1594 15.1429 25.4993 15.0432 25.6927C14.9495 25.8861 14.7209 26.267 14.5393 26.5425C14.3576 26.8179 13.9356 27.316 13.5958 27.6559C13.2559 27.9958 12.7812 28.4119 12.5409 28.576C12.3006 28.74 11.8494 28.9979 11.5447 29.1503C11.2399 29.3026 10.7653 29.5019 10.4898 29.5898C10.2144 29.6835 9.70456 29.8066 9.34708 29.8769C8.88998 29.9648 8.46805 30 7.89374 30C7.27842 30 6.93266 29.9648 6.39938 29.8594C6.02433 29.7832 5.50276 29.6484 5.24491 29.5605C4.98706 29.4726 4.5241 29.2733 4.21937 29.121C3.91464 28.9627 3.4634 28.699 3.22313 28.5291C2.98286 28.3591 2.57851 28.0192 2.32065 27.7731C2.06866 27.5328 1.72291 27.1519 1.5471 26.9234C1.37716 26.6948 1.11345 26.3022 0.966939 26.0443C0.820433 25.7865 0.615325 25.3528 0.503981 25.0774C0.392636 24.802 0.23441 24.2745 0.152366 23.9054C0.0351614 23.3897 0 23.0673 0 22.5282C0 22.1414 0.0410217 21.573 0.0937638 21.2682C0.140646 20.9635 0.275431 20.4361 0.386776 20.0962C0.49812 19.7563 0.679788 19.3226 0.791132 19.1293C0.896617 18.9359 1.13689 18.5784 1.32441 18.3381C1.5178 18.0979 1.86942 17.7462 2.10969 17.5587C2.34996 17.3653 2.73087 17.1251 2.95942 17.0137C3.18211 16.9082 3.58061 16.7617 3.83846 16.6855C4.23109 16.5742 4.44206 16.5566 5.12771 16.5566C5.83094 16.5625 6.01261 16.5801 6.41696 16.709C6.67481 16.791 6.9268 16.8731 6.97368 16.8965C7.04401 16.9258 7.07331 16.8438 7.13777 16.4511C7.17879 16.1816 7.2667 15.7362 7.33116 15.4549C7.38976 15.1677 7.52455 14.6813 7.62417 14.3707C7.7238 14.0543 7.9289 13.521 8.06955 13.1811C8.21605 12.8412 8.46805 12.3255 8.62627 12.0384C8.79036 11.7512 9.07751 11.2883 9.25918 11.0128C9.44085 10.7374 9.79832 10.2627 10.0562 9.95798C10.3082 9.65325 10.7535 9.16685 11.0466 8.8797C11.3337 8.59255 11.8377 8.14717 12.16 7.88932C12.4823 7.63147 12.8339 7.3619 12.9335 7.29743C13.039 7.22711 13.1211 7.15679 13.1094 7.12749C13.1035 7.10404 12.5819 6.81689 11.9549 6.48286C10.9352 5.94958 10.8004 5.86167 10.6832 5.65071C10.6129 5.52178 10.5484 5.32253 10.5484 5.21119C10.5484 5.09984 10.5953 4.91232 10.6598 4.80097C10.7184 4.68963 10.8707 4.53726 10.9938 4.46694C11.1169 4.39075 11.3161 4.33215 11.4275 4.33215C11.5505 4.33215 11.8084 4.42592 12.0721 4.5607C12.3124 4.68377 12.8691 4.97678 13.3027 5.20533C13.7364 5.43388 14.0997 5.61554 14.1056 5.60382C14.1115 5.59796 14.1583 5.34011 14.2111 5.03538C14.2638 4.73065 14.4045 4.18565 14.5217 3.83403C14.6389 3.48242 14.8557 2.97844 15.0022 2.72645C15.1487 2.4686 15.4652 2.05252 15.7054 1.79467C15.9457 1.54268 16.3032 1.22623 16.4966 1.0973C16.69 0.968375 17.0064 0.792567 17.1998 0.698804C17.3932 0.60504 17.7214 0.476115 17.9323 0.411652Z" fill="#D2DCF7"/>
</svg>
