<svg width="20" height="20" viewBox="0 0 20 20" fill="none" xmlns="http://www.w3.org/2000/svg">
<path d="M0.0885417 0.458333C0.145833 0.328125 0.255208 0.192708 0.364583 0.125L0.546875 0.00520833L6.09375 0L6.29167 0.119792C6.41667 0.197917 6.51562 0.317708 6.57812 0.458333C6.625 0.578125 6.66667 0.755208 6.66667 0.84375C6.66667 0.9375 6.61979 1.11458 6.5625 1.23438C6.48438 1.40104 6.40104 1.48438 6.23958 1.5625C6.03125 1.65625 5.90104 1.66667 2.83854 1.66667L5.14062 3.96875C7.0625 5.89583 7.44792 6.30729 7.47396 6.45833C7.49479 6.55729 7.49479 6.72917 7.47917 6.83333C7.45833 6.96875 7.38021 7.09896 7.23958 7.23958C7.09896 7.38021 6.96875 7.45833 6.83854 7.47917C6.72917 7.49479 6.55729 7.49479 6.45833 7.47396C6.30729 7.44792 5.89583 7.0625 1.66667 2.83854V4.42708C1.66667 5.90104 1.65625 6.03125 1.5625 6.23437C1.48438 6.40104 1.40104 6.48438 1.23958 6.5625C1.11458 6.61979 0.932292 6.66667 0.833333 6.66667C0.734375 6.66667 0.552083 6.61979 0.432292 6.5625C0.270833 6.48958 0.177083 6.39583 0.104167 6.25C0.00520833 6.05208 0 5.9375 0 3.35938C0 0.921875 0.0104167 0.65625 0.0885417 0.458333Z" fill="white"/>
<path d="M13.4271 0.463542C13.4792 0.328125 13.5885 0.197917 13.6979 0.125L13.8802 0.0104167L19.4271 0L19.6146 0.119792C19.7188 0.182292 19.849 0.322917 19.901 0.432292C19.9948 0.614583 20 0.802083 20 3.32292C20 5.89583 19.9948 6.02604 19.8958 6.23958C19.8177 6.40625 19.7344 6.48438 19.5729 6.5625C19.4479 6.61979 19.2656 6.66667 19.1667 6.66667C19.0677 6.66667 18.8854 6.61979 18.7656 6.5625C18.599 6.48438 18.5156 6.40625 18.4375 6.23958C18.3438 6.03125 18.3333 5.90104 18.3333 2.83854L16.0312 5.14062C14.1042 7.0625 13.6927 7.44792 13.5417 7.47917C13.4427 7.49479 13.2708 7.5 13.1667 7.47917C13.0312 7.45833 12.901 7.38021 12.7604 7.23958C12.6198 7.09896 12.5417 6.96875 12.5208 6.83854C12.5052 6.72917 12.5052 6.5625 12.526 6.45833C12.5521 6.30729 12.9375 5.89583 17.151 1.66667H15.5677C14.099 1.66667 13.9687 1.65625 13.7656 1.5625C13.599 1.48438 13.5156 1.40625 13.4375 1.23958C13.3802 1.11458 13.3333 0.942708 13.3333 0.848958C13.3333 0.755208 13.375 0.583333 13.4271 0.463542Z" fill="white"/>
<path d="M3.91667 14.9115C5.15625 13.6719 6.23958 12.625 6.32812 12.5781C6.41667 12.5365 6.5625 12.5 6.65625 12.5C6.74479 12.5 6.91146 12.5417 7.01562 12.5885C7.11979 12.6406 7.26042 12.75 7.32292 12.8385C7.39062 12.9219 7.45833 13.0625 7.47917 13.151C7.49479 13.2344 7.49479 13.401 7.47396 13.5156C7.44271 13.7031 7.22917 13.9323 2.83854 18.3333H4.42708C5.90104 18.3333 6.03125 18.3438 6.23437 18.4375C6.40104 18.5156 6.48438 18.599 6.5625 18.7604C6.61979 18.8854 6.66667 19.0573 6.66667 19.151C6.66667 19.2448 6.625 19.4219 6.57812 19.5417C6.51562 19.6771 6.41667 19.8021 6.09375 20H0.572917L0.385417 19.8802C0.28125 19.8177 0.151042 19.6771 0.0989583 19.5677C0.00520833 19.3854 0 19.1979 0 16.6771C0 14.1042 0.00520833 13.974 0.104167 13.7604C0.182292 13.599 0.265625 13.5156 0.432292 13.4375C0.552083 13.3802 0.734375 13.3333 0.833333 13.3333C0.932292 13.3333 1.11458 13.3802 1.23958 13.4375C1.40104 13.5156 1.48438 13.599 1.5625 13.7604C1.65625 13.9688 1.66667 14.099 1.66667 17.1615L3.91667 14.9115Z" fill="white"/>
<path d="M12.6771 12.8385C12.7396 12.75 12.875 12.6406 12.974 12.5885C13.0729 12.5417 13.2292 12.5 13.3229 12.5C13.4115 12.5 13.5521 12.5208 13.6354 12.5521C13.7135 12.5833 14.8021 13.6302 18.3333 17.1615V15.5729C18.3333 14.099 18.3438 13.9688 18.4375 13.7604C18.5156 13.599 18.599 13.5156 18.7656 13.4375C18.8854 13.3802 19.0677 13.3333 19.1667 13.3333C19.2656 13.3333 19.4479 13.3802 19.5729 13.4375C19.7292 13.5104 19.8229 13.599 19.8958 13.75C19.9948 13.9479 20 14.0625 20 16.6406C20 19.0781 19.9896 19.3438 19.9115 19.5417C19.849 19.6771 19.75 19.8021 19.4271 20H13.9062L13.7135 19.8802C13.5833 19.8021 13.4844 19.6771 13.4271 19.5417C13.375 19.4219 13.3333 19.2448 13.3333 19.151C13.3333 19.0573 13.3802 18.8854 13.4375 18.7604C13.5156 18.599 13.599 18.5156 13.7656 18.4375C13.9687 18.3438 14.099 18.3333 17.1615 18.3333L14.8594 16.026C12.7708 13.9323 12.5573 13.7031 12.526 13.5156C12.5052 13.401 12.5052 13.2344 12.5208 13.151C12.5417 13.0625 12.6094 12.9219 12.6771 12.8385Z" fill="white"/>
</svg>
