<svg width="30" height="31" viewBox="0 0 30 31" fill="none" xmlns="http://www.w3.org/2000/svg">
<path d="M3.01999 8.45355C3.25522 8.36289 3.51005 8.25018 3.78938 8.10806C2.88277 11.1317 2.34861 14.2975 1.90266 17.2721C1.74094 18.3674 1.58657 19.4382 1.50571 20.531C1.49101 20.7319 1.46651 20.9377 1.44201 21.1411C1.36605 21.7782 1.28764 22.4373 1.44446 23.1259C1.61107 23.8609 2.12318 24.3338 2.75046 24.3338C3.04449 24.3338 3.34098 24.2309 3.62766 24.0251C4.3995 23.4738 4.41175 22.5427 4.424 21.8615C4.42645 21.7218 4.42645 21.5871 4.43625 21.4597C4.50731 20.4379 4.62737 19.3671 4.80379 18.1812L4.8577 17.8136C5.44822 13.8491 6.05834 9.74975 7.88135 6.21154L8.04307 5.8979C8.66789 4.70952 9.52304 3.08008 8.98643 1.57805C8.78551 1.01694 8.2636 0.654297 7.65593 0.654297C7.39129 0.654297 7.12421 0.727805 6.88164 0.867472C6.45529 1.11985 6.15635 1.507 5.89417 1.84759C5.76186 2.01911 5.63689 2.18327 5.50948 2.30824C4.72784 3.08988 3.9609 3.84212 3.14005 4.46939C2.76026 4.76097 2.35106 5.0305 2.00067 5.26083C1.94676 5.29759 1.86835 5.33924 1.78014 5.38825C1.59882 5.49116 1.39055 5.60877 1.23128 5.72884C1.15532 5.78764 1.06956 5.844 0.988703 5.90035C0.547652 6.19929 -0.189884 6.6967 0.0453433 7.68416C0.123752 8.00515 0.390833 8.56136 1.31704 8.66673C1.93206 8.73533 2.43682 8.67163 3.01999 8.45355Z" fill="#FFBF1F"/>
<path d="M7.25914 16.9217C7.78595 17.9753 8.66071 18.6957 9.8638 19.0632C10.1872 19.1612 10.5156 19.2127 10.8464 19.2127C14.0489 19.2127 16.3521 14.7115 16.9672 12.9792C17.2097 12.3004 17.4082 11.6536 17.5699 11.0312C17.5822 11.1929 17.5969 11.3522 17.6189 11.5139C17.8052 12.8615 18.3785 13.974 19.2802 14.7287C19.8708 15.2236 20.7431 15.5838 21.6178 15.6941C21.9608 15.7382 22.321 15.7602 22.6665 15.7602C23.3159 15.7602 23.8745 15.6843 24.3205 15.5324C24.7174 15.3976 25.1046 15.2163 25.4721 14.9908C27.1309 13.9691 28.067 12.2906 28.5595 11.0606C29.7356 8.13494 29.9316 3.90085 27.5891 1.51918C27.0276 0.948504 26.3278 0.533147 25.5579 0.313636C25.4108 0.271982 25.2614 0.242578 25.1095 0.213175L24.9477 0.181321C24.8865 0.16907 24.8228 0.144567 24.7615 0.124964C24.6807 0.0980114 24.5974 0.0710583 24.5165 0.0490057C24.3866 0.017152 24.2666 0 24.1343 0H24.1318C23.7618 0.00490057 23.4482 0.102912 23.1688 0.191122C23.0267 0.235227 22.8846 0.281783 22.7351 0.308736C21.8996 0.463104 21.1081 0.747337 20.3461 1.02177C19.8953 1.18594 19.4665 1.34031 19.0279 1.47017C17.8738 1.81076 16.9304 1.82546 15.573 1.50447L15.4725 1.47997C15.1858 1.40891 14.9383 1.34521 14.4777 1.45057C14.2523 1.49957 13.946 1.56818 13.6862 1.90387L13.6176 2.01413L13.5931 2.06314L13.527 2.09744C10.9958 3.4794 8.88858 6.19677 7.59483 9.74478C7.09252 11.1047 6.06831 14.5302 7.25914 16.9217ZM9.70698 13.3638C9.9079 11.0091 11.0154 8.47308 12.7527 6.40749C13.4412 5.5891 13.9288 5.175 14.2057 5.175C14.316 5.175 14.5095 5.36857 14.6982 5.91254C15.0608 6.95881 15.105 8.19865 14.8281 9.59776C14.7301 10.0903 14.5928 10.5975 14.4164 11.0998C13.995 12.3102 13.4927 13.5721 12.662 14.5865C12.341 14.9786 11.873 15.3069 11.3781 15.4833C10.8243 15.6818 10.42 15.6451 10.1431 15.3412C9.80009 14.9712 9.63347 14.2141 9.70698 13.3638ZM21.1498 7.41946C21.3752 6.66722 21.7452 5.90273 22.25 5.1505L22.3186 5.05004C22.5906 4.64574 23.2203 3.69993 23.605 3.53576C23.7422 3.47695 23.8721 3.42305 23.9921 3.37404H23.9946C24.6415 3.37404 25.1315 3.58477 25.4942 4.01847C26.3126 4.99858 26.3175 6.90245 26.07 8.2354C25.6461 10.5436 24.5998 11.95 22.8724 12.5283C22.1887 12.7562 21.7158 12.6778 21.3801 12.2294C20.6156 11.2002 20.7578 8.73036 21.1498 7.41946ZM17.9791 6.30948C17.9301 5.92969 17.8591 5.55969 17.766 5.20685C17.7439 5.12354 17.7121 5.03778 17.6777 4.94957C17.7807 4.92507 17.9105 4.91282 18.0453 4.90057C18.1923 4.88832 18.3369 4.87362 18.4741 4.84666C18.6162 4.81971 18.751 4.78786 18.8735 4.756C18.4765 5.46658 18.2242 6.23597 18.0379 6.97106C18.0257 6.74563 18.0085 6.52511 17.9791 6.30948ZM23.5192 17.3578L22.7082 17.4828C18.0355 18.186 13.9362 19.1539 10.1799 20.4427C9.13851 20.798 8.01873 21.2121 6.75193 21.7022C6.65637 21.7389 6.56081 21.7683 6.46525 21.7977C6.0291 21.9325 5.12004 22.2118 5.23521 23.3145C5.31362 24.0348 5.81593 24.5396 6.45545 24.5396H6.51916C6.76419 24.5273 6.99206 24.4318 7.19299 24.3485C7.27139 24.3166 7.34735 24.2823 7.41596 24.2627C7.76635 24.1696 8.13634 24.0544 8.5823 23.9001C12.6522 22.4985 16.7368 21.2268 20.721 20.1242L21.9829 19.7787C22.6445 19.5974 23.3085 19.4185 23.9676 19.2323C24.4405 19.0975 24.7223 18.6736 24.6586 18.2032C24.5827 17.6616 24.095 17.2696 23.5192 17.3578ZM28.1478 19.7419L26.1214 20.1781C22.152 21.0308 18.0453 21.9129 14.0807 23.1135C11.5545 23.878 9.12626 24.7969 6.4432 25.8333C5.10779 26.3479 3.83365 27.0266 2.76042 27.6245C2.67466 27.6735 2.5693 27.7225 2.45659 27.774C1.96653 28.0043 1.29515 28.3204 1.07953 28.9428C0.819796 29.6901 1.2976 30.435 1.90772 30.7241C2.116 30.8221 2.31692 30.8711 2.51784 30.8711C2.82413 30.8711 3.07896 30.7584 3.26763 30.6604C3.4563 30.5599 3.65477 30.4717 3.85325 30.3835C4.03947 30.3002 4.22569 30.2169 4.40456 30.1262C9.63102 27.5118 15.2936 25.6398 20.1868 24.0912C21.7183 23.606 23.3698 23.1184 25.2418 22.6014L25.5407 22.5181C26.5723 22.2314 27.6063 21.9472 28.6379 21.6556C29.1206 21.5184 29.4097 21.0773 29.3387 20.5848C29.3221 20.4484 29.2772 20.317 29.2068 20.199C29.1364 20.081 29.0421 19.979 28.9299 19.8997C28.8178 19.8203 28.6902 19.7652 28.5555 19.7381C28.4209 19.7109 28.282 19.7122 28.1478 19.7419Z" fill="#FFBF1F"/>
</svg>
