<svg width="30" height="30" viewBox="0 0 30 30" fill="none" xmlns="http://www.w3.org/2000/svg">
<path d="M9.77252 0.583594C9.86629 0.449639 10.0739 0.262103 10.2414 0.175032C10.4624 0.0477757 10.6432 0.00758935 10.958 0.000891621C11.3264 -0.0058061 11.4135 0.0209848 11.7417 0.228614C11.9694 0.375964 12.1703 0.570198 12.2775 0.744339C12.3645 0.905084 12.5052 1.27346 12.5789 1.56816C12.6525 1.86286 12.7329 2.40537 12.753 2.77375C12.7798 3.2225 12.7597 3.66455 12.6927 4.11329C12.6325 4.48167 12.4918 5.07107 12.3779 5.41935C12.2641 5.76763 11.9292 6.54457 11.6345 7.14067C11.3465 7.74346 11.025 8.30607 10.9245 8.39984C10.8174 8.49361 10.6298 8.58737 10.5026 8.60747C10.3753 8.63426 10.1811 8.63426 10.0672 8.61417C9.95336 8.58737 9.76583 8.47351 9.64527 8.35295C9.51801 8.2257 9.41085 8.03146 9.38406 7.89751C9.36396 7.77025 9.37736 7.54253 9.41085 7.39518C9.45103 7.24783 9.57159 6.81248 9.68545 6.42401C9.79931 6.03554 9.93997 5.46624 10.0002 5.15144C10.0538 4.83665 10.1007 4.35441 10.1007 4.07981C10.1007 3.8052 10.0538 3.39664 10.0069 3.17561C9.95336 2.95459 9.79931 2.54603 9.67206 2.27142C9.5314 1.97672 9.43094 1.66863 9.43094 1.53467C9.43764 1.40741 9.47113 1.19309 9.51801 1.06583C9.56489 0.931875 9.67875 0.717548 9.77252 0.583594Z" fill="#FFBF1F"/>
<path d="M2.53228 19.6185C3.86513 16.4706 4.98365 13.825 5.01714 13.7446C5.05063 13.6576 5.09751 13.5906 5.1243 13.5906C5.15779 13.5906 6.49064 14.91 8.09139 16.5175C9.69215 18.1316 12.2239 20.6768 16.4301 24.903L16.1622 25.0169C16.0148 25.0772 14.6418 25.6532 13.1147 26.2962C11.5876 26.9458 9.17643 27.9639 7.75651 28.56C6.33659 29.1628 4.98365 29.7321 4.74253 29.8259C4.39425 29.9665 4.20002 30 3.77136 30C3.29582 30 3.17526 29.9665 2.73321 29.7589C2.31126 29.5513 2.09023 29.3771 1.34679 28.6337C0.636827 27.9237 0.422499 27.6692 0.261754 27.3209C0.1278 27.0463 0.0407291 26.7248 0.0139382 26.4502C-0.0128527 26.2091 0.000542761 25.8675 0.0407291 25.68C0.0809155 25.4991 1.19944 22.7665 2.53228 19.6185Z" fill="#FFBF1F"/>
<path d="M24.5343 17.6226C24.9027 17.502 25.4452 17.3614 25.7399 17.3078C26.0882 17.2475 26.557 17.2207 27.0794 17.2408C27.5885 17.2542 28.0774 17.3212 28.419 17.4083C28.7137 17.482 29.0888 17.6293 29.2562 17.7298C29.4236 17.8302 29.638 18.0513 29.7451 18.2187C29.859 18.3995 29.9461 18.6541 29.9729 18.8818C30.0064 19.1899 29.9863 19.3104 29.8456 19.6185C29.7451 19.8529 29.5911 20.0606 29.4236 20.1878C29.2763 20.295 29.0553 20.4223 28.9213 20.4691C28.7941 20.516 28.5797 20.5495 28.4525 20.5562C28.3185 20.5562 28.0104 20.4557 27.7157 20.3151C27.4411 20.1878 27.0326 20.0338 26.8115 19.9802C26.5905 19.9333 26.1819 19.8864 25.9073 19.8864C25.6327 19.8864 25.1505 19.9333 24.8357 19.9936C24.5209 20.0472 24.099 20.1409 23.898 20.1945C23.6971 20.2548 23.2885 20.3754 22.9938 20.4691C22.6455 20.583 22.3642 20.6299 22.1901 20.6098C22.0428 20.5964 21.8418 20.5227 21.7414 20.449C21.6409 20.3821 21.5069 20.2146 21.4467 20.0874C21.373 19.94 21.3462 19.7525 21.3663 19.585C21.3864 19.4377 21.4534 19.2301 21.527 19.1229C21.6208 18.9822 21.9624 18.7813 22.7594 18.3861C23.3689 18.0847 24.1659 17.7432 24.5343 17.6226Z" fill="#FFBF1F"/>
<path d="M15.7 2.97468C15.5928 2.72017 15.5259 2.45226 15.546 2.38528V2.39198C15.5728 2.325 15.6196 2.27142 15.6598 2.27142C15.6933 2.27142 15.9478 2.36519 16.2157 2.47905C16.5908 2.64649 16.7917 2.69338 17.1333 2.69338C17.4615 2.68668 17.6959 2.6398 18.0911 2.47905C18.3724 2.36519 18.6403 2.29151 18.6805 2.325C18.7207 2.35179 18.7408 2.44556 18.7207 2.53933C18.7006 2.6331 18.6068 2.9077 18.5131 3.16222C18.4193 3.41003 18.3389 3.74492 18.3389 3.91236C18.3389 4.07981 18.3992 4.3879 18.4796 4.60223C18.5532 4.80986 18.6537 5.08446 18.6939 5.19833C18.7475 5.34568 18.7519 5.44391 18.7073 5.49303C18.6604 5.54661 18.493 5.50642 18.1045 5.35237C17.716 5.19163 17.4548 5.13135 17.1668 5.13135C16.852 5.12465 16.6444 5.17823 16.209 5.35907C15.767 5.53991 15.6397 5.5667 15.5728 5.49972C15.5125 5.43944 15.5125 5.36577 15.5728 5.19833C15.6129 5.08446 15.7134 4.80316 15.7938 4.58214C15.9009 4.29413 15.9344 4.07981 15.9143 3.8119C15.9009 3.61097 15.8005 3.23589 15.7 2.97468Z" fill="#FFBF1F"/>
<path d="M4.57509 5.16484C4.68895 5.08446 4.86979 4.984 4.97695 4.94381C5.09081 4.91032 5.34533 4.89693 5.54626 4.91032C5.80747 4.93042 5.98831 4.9907 6.17585 5.12465C6.32319 5.22512 6.51073 5.44614 6.5978 5.61358C6.69827 5.80782 6.75185 6.02884 6.75185 6.23647C6.75185 6.41061 6.69827 6.66513 6.62459 6.80578C6.55092 6.93973 6.41026 7.13397 6.3031 7.23443C6.20264 7.3349 6.0285 7.44876 5.91463 7.48895C5.80747 7.52913 5.57975 7.56932 5.4123 7.56262C5.24486 7.56262 5.02384 7.52913 4.90998 7.48895C4.80281 7.44876 4.62197 7.3349 4.52151 7.23443C4.41434 7.13397 4.27369 6.93973 4.20002 6.80578C4.12634 6.65843 4.07276 6.41731 4.07276 6.23647C4.07276 6.03554 4.13304 5.80112 4.22681 5.62028C4.30718 5.45284 4.46793 5.25191 4.57509 5.16484Z" fill="#FFBF1F"/>
<path d="M22.4714 5.49972C22.6054 5.39256 22.9135 5.25861 23.1546 5.19833C23.3957 5.13805 23.7641 5.08447 23.965 5.08447C24.2195 5.07777 24.4004 5.11795 24.5544 5.21172C24.6683 5.2854 24.8089 5.42605 24.8625 5.53321C24.9161 5.63368 24.963 5.78773 24.9764 5.88149C24.9831 5.97526 24.9831 6.12931 24.9831 6.23647C24.9764 6.34364 24.8692 6.52448 24.7218 6.69192C24.5142 6.90625 24.3937 6.97322 23.7105 7.12057L23.5899 7.75686C23.5029 8.2257 23.4158 8.47351 23.2684 8.69454C23.1412 8.87538 22.9135 9.08301 22.6924 9.21026C22.4446 9.35761 22.1566 9.45138 21.8016 9.51166C21.5069 9.55854 21.2524 9.62552 21.2189 9.66571C21.1921 9.70589 21.1386 9.95371 21.0917 10.2216C21.0515 10.4828 20.9443 10.8445 20.8573 11.0253C20.7702 11.1995 20.6027 11.4272 20.4755 11.5344C20.3482 11.6415 20.1741 11.7621 20.0803 11.809C19.9866 11.8559 19.6383 11.9496 18.6805 12.1439L18.6068 12.5792C18.5666 12.8203 18.493 13.1485 18.4394 13.316C18.3858 13.4834 18.2451 13.7379 18.1246 13.8786C18.004 14.0192 17.7629 14.2135 17.5888 14.2938C17.4079 14.3809 17.0463 14.4881 16.785 14.5283C16.5171 14.5751 16.1889 14.5885 16.0617 14.5617C15.9344 14.535 15.767 14.468 15.6933 14.401C15.6196 14.3407 15.5058 14.2135 15.4388 14.1197C15.3651 14.0125 15.3249 13.825 15.3249 13.604C15.3249 13.2892 15.3517 13.2222 15.5795 12.9811C15.7737 12.7601 15.9009 12.6931 16.1956 12.6328C16.3966 12.5926 16.5707 12.5524 16.5774 12.5524C16.5841 12.5457 16.6377 12.3046 16.6913 12.0099C16.7449 11.7152 16.8252 11.387 16.8654 11.2732C16.9056 11.166 17.0195 10.9718 17.1065 10.8512C17.2003 10.7306 17.3878 10.5565 17.5218 10.4694C17.6557 10.3824 17.9638 10.2618 18.205 10.2082C18.4461 10.1546 18.7475 10.0944 19.1092 10.0341L19.1962 9.51836C19.2431 9.23036 19.357 8.84859 19.444 8.66105C19.5311 8.48021 19.6986 8.23909 19.8258 8.13193C19.9464 8.02477 20.1674 7.88411 20.3147 7.81714C20.4621 7.75686 20.8171 7.66309 21.6208 7.52244L21.661 7.28802C21.6811 7.16076 21.7414 6.86606 21.7949 6.63834C21.8485 6.40392 21.9624 6.09582 22.0562 5.94847C22.1499 5.80112 22.3375 5.60019 22.4714 5.49972Z" fill="#FFBF1F"/>
<path d="M6.33659 10.8847C6.43706 10.7842 6.63799 10.6369 6.78534 10.5699C6.95948 10.4828 7.1872 10.4359 7.45511 10.4359C7.71632 10.4359 7.95074 10.4828 8.12488 10.5699C8.29902 10.657 10.2749 12.5859 13.8648 16.1759C17.7495 20.0673 19.3704 21.7283 19.444 21.9025C19.4976 22.0431 19.5445 22.3244 19.5445 22.5253C19.5445 22.7263 19.5043 22.9942 19.4574 23.108C19.4039 23.2286 19.2766 23.4295 19.1694 23.5568C19.0556 23.6907 18.781 23.8783 18.5064 24.0055C18.2518 24.1261 17.8902 24.2801 17.3677 24.4945L5.47928 12.6127L5.81417 11.8425C6.0017 11.4205 6.23612 10.9852 6.33659 10.8847Z" fill="#FFBF1F"/>
<path d="M24.6415 11.8961C24.5276 11.608 24.4472 11.3468 24.4673 11.3067C24.4941 11.2665 24.541 11.2397 24.5879 11.2397C24.6348 11.2397 24.9161 11.3267 25.2242 11.4406C25.5256 11.5478 25.9006 11.6415 26.0614 11.6415C26.2154 11.6415 26.624 11.5478 26.9589 11.4272C27.3741 11.2799 27.6019 11.2263 27.6488 11.2732C27.7023 11.32 27.6554 11.5009 27.5081 11.876C27.3474 12.2845 27.3005 12.5189 27.2938 12.8471C27.2938 13.1954 27.3407 13.3896 27.5215 13.8049C27.7023 14.2202 27.7291 14.3407 27.6621 14.4077C27.6019 14.468 27.5349 14.468 27.3608 14.4077C27.2469 14.3675 26.9723 14.267 26.7647 14.1934C26.5503 14.113 26.2422 14.0527 26.0748 14.0527C25.9073 14.0527 25.5992 14.113 25.3916 14.1934C25.1773 14.267 24.9027 14.3675 24.7888 14.4077C24.6214 14.468 24.5477 14.468 24.4874 14.4077C24.4204 14.3407 24.4472 14.2135 24.6281 13.7714C24.8089 13.3361 24.8625 13.1284 24.8558 12.8136C24.8558 12.5256 24.7955 12.2644 24.6415 11.8961Z" fill="#FFBF1F"/>
<path d="M22.7996 23.6171C22.9068 23.5166 23.0876 23.3893 23.1948 23.3358C23.3086 23.2755 23.5497 23.2286 23.7306 23.2286C23.9516 23.2286 24.1659 23.2755 24.3669 23.3826C24.5343 23.4697 24.7553 23.664 24.8692 23.8247C25.0433 24.0725 25.0701 24.1663 25.0701 24.5681C25.0701 24.97 25.0433 25.0638 24.8692 25.3116C24.7553 25.4723 24.5343 25.6666 24.3669 25.7536C24.1726 25.8541 23.9516 25.9077 23.7507 25.9077C23.5698 25.9077 23.3153 25.8541 23.1814 25.7804C23.0407 25.7068 22.8465 25.5661 22.746 25.4589C22.6455 25.3585 22.5317 25.191 22.4982 25.0906C22.458 24.9834 22.4245 24.7557 22.4245 24.5681C22.4245 24.3873 22.4647 24.1328 22.5183 24.0189C22.5652 23.8984 22.6924 23.7175 22.7996 23.6171Z" fill="#FFBF1F"/>
</svg>
