<svg width="29" height="30" viewBox="0 0 29 30" fill="none" xmlns="http://www.w3.org/2000/svg">
<path fill-rule="evenodd" clip-rule="evenodd" d="M14.3872 0.000696226C14.8268 -0.00516416 14.985 0.0241378 15.3542 0.158927C15.5945 0.246832 15.9344 0.422644 16.1102 0.551572C16.3094 0.698082 16.7314 1.15519 17.2295 1.78225C17.7335 2.40931 18.0969 2.80196 18.2024 2.84884C18.2961 2.88401 18.4309 2.93089 18.5012 2.94847C18.5774 2.97191 19.1693 2.84298 19.8491 2.66131C20.8337 2.40345 21.156 2.33899 21.5369 2.33899C21.8358 2.33899 22.1405 2.38001 22.3867 2.45034C22.5976 2.5148 22.9375 2.67889 23.1427 2.81954C23.3536 2.96019 23.6115 3.17702 23.7228 3.30595C23.8283 3.43488 23.9924 3.68688 24.0862 3.86269C24.1741 4.0385 24.2796 4.30222 24.3206 4.44873C24.3616 4.59524 24.4261 5.2809 24.4612 5.97243C24.5198 6.92181 24.5609 7.27929 24.6312 7.4258C24.6898 7.52543 24.8011 7.66022 24.8891 7.71882C24.9828 7.78329 25.4868 7.99426 26.0201 8.19937C26.5534 8.39863 27.1453 8.65062 27.3387 8.75025C27.5321 8.84988 27.8192 9.06671 27.9833 9.2308C28.1416 9.39489 28.3584 9.68205 28.458 9.87544C28.5635 10.063 28.6924 10.3912 28.751 10.6021C28.8272 10.8834 28.8448 11.1003 28.8214 11.4226C28.7979 11.6629 28.7335 12.0086 28.6631 12.1844C28.5987 12.3602 28.3408 12.8232 28.0947 13.21C27.8485 13.5968 27.5262 14.1008 27.3856 14.3235C27.1805 14.6517 27.1336 14.7864 27.1336 14.9974C27.1336 15.1732 27.1863 15.349 27.2918 15.5249C27.3797 15.6714 27.6552 16.105 27.913 16.4918C28.1709 16.8786 28.4346 17.3123 28.5108 17.4588C28.587 17.6053 28.6866 17.869 28.7393 18.0448C28.7921 18.2206 28.8331 18.5254 28.8331 18.7188C28.8331 18.9122 28.7921 19.2286 28.7393 19.422C28.6866 19.6154 28.5635 19.9319 28.4639 20.1194C28.3584 20.3128 28.1416 20.5999 27.9833 20.764C27.8192 20.9281 27.5321 21.145 27.3387 21.2504C27.1453 21.3501 26.5534 21.5962 26.0201 21.8013C25.4868 22.0006 24.9828 22.2115 24.8891 22.2702C24.8011 22.3346 24.6898 22.4694 24.6312 22.569C24.5609 22.7155 24.5198 23.073 24.4671 24.0224C24.4202 24.7843 24.3558 25.4113 24.303 25.6047C24.2503 25.7805 24.1155 26.0853 23.9983 26.2787C23.8811 26.472 23.717 26.7065 23.6291 26.7944C23.5412 26.8881 23.3126 27.0639 23.1192 27.1929C22.9258 27.3218 22.5976 27.48 22.3867 27.5445C22.1405 27.6148 21.8358 27.6558 21.5369 27.6558C21.156 27.6558 20.8337 27.5914 19.8491 27.3335C18.8118 27.0581 18.6067 27.0171 18.4133 27.0698C18.2961 27.0991 18.1496 27.1577 18.0969 27.1987C18.0383 27.2398 17.628 27.7203 17.1885 28.2653C16.6376 28.9393 16.2743 29.3319 16.0575 29.4784C15.8816 29.6015 15.5359 29.7714 15.2956 29.8535C14.9791 29.959 14.733 30 14.4165 30C14.1001 30 13.8539 29.959 13.5375 29.8535C13.2972 29.7714 12.9514 29.6015 12.7756 29.4784C12.5588 29.3319 12.1955 28.9393 11.6446 28.2653C11.2051 27.7203 10.7948 27.2398 10.7362 27.1987C10.6835 27.1577 10.537 27.0991 10.4139 27.0698C10.2264 27.0171 10.0213 27.0581 8.97811 27.3335C7.99942 27.5914 7.6771 27.6558 7.29618 27.6558C6.9973 27.6558 6.69256 27.6148 6.44642 27.5445C6.23545 27.48 5.89555 27.3159 5.69043 27.1753C5.47946 27.0346 5.2216 26.8178 5.11025 26.6889C4.99891 26.56 4.8231 26.2728 4.71175 26.0442C4.60626 25.8157 4.48905 25.4641 4.45975 25.2531C4.43045 25.0421 4.38357 24.4502 4.36599 23.9345C4.34254 23.4188 4.30152 22.8972 4.27222 22.7741C4.24292 22.6569 4.14915 22.4811 4.05539 22.3815C3.93818 22.2526 3.62758 22.1002 2.81298 21.7896C2.21522 21.561 1.59988 21.3032 1.43579 21.2211C1.27756 21.1332 1.01385 20.9281 0.849756 20.764C0.691525 20.5999 0.474691 20.3128 0.375065 20.1194C0.269578 19.9319 0.14651 19.6213 0.0937661 19.4337C0.0410227 19.2521 0 18.9473 0 18.7598C0 18.5781 0.0410227 18.2734 0.0879058 18.0858C0.134789 17.9042 0.240276 17.6287 0.316461 17.4705C0.392646 17.3181 0.662223 16.8786 0.92008 16.4918C1.17794 16.105 1.45338 15.6714 1.54128 15.5249C1.64677 15.3432 1.69951 15.1791 1.69951 14.9974C1.69951 14.8157 1.64677 14.6517 1.54128 14.47C1.45338 14.3235 1.17794 13.8898 0.92008 13.503C0.662223 13.1162 0.398506 12.6826 0.322321 12.5361C0.246136 12.3895 0.14651 12.1258 0.0937661 11.95C0.0410227 11.7742 0 11.4695 0 11.2761C0 11.0827 0.0410227 10.7662 0.0937661 10.5728C0.14651 10.3794 0.269578 10.063 0.369204 9.87544C0.474691 9.68205 0.691525 9.39489 0.849756 9.2308C1.01385 9.06671 1.27756 8.8616 1.43579 8.77369C1.59988 8.69165 2.21522 8.43379 2.81298 8.20523C3.62758 7.89463 3.93818 7.74226 4.05539 7.61333C4.14915 7.51371 4.24292 7.3379 4.27222 7.21483C4.30152 7.09762 4.34254 6.54674 4.36599 6.00173C4.38943 5.45671 4.44217 4.83551 4.48319 4.62454C4.52422 4.41357 4.63556 4.08538 4.73519 3.89199C4.83482 3.6986 5.00477 3.43488 5.11025 3.30595C5.2216 3.17702 5.47946 2.96019 5.69043 2.81954C5.89555 2.67889 6.23545 2.5148 6.44642 2.45034C6.69256 2.38001 6.9973 2.33899 7.29618 2.33899C7.6771 2.33899 7.99942 2.40345 8.97811 2.66131C10.0213 2.93675 10.2264 2.97777 10.4139 2.92503C10.537 2.89573 10.6835 2.83712 10.7362 2.7961C10.7948 2.75508 11.2051 2.27453 11.6446 1.72951C12.2013 1.04384 12.5529 0.66878 12.7756 0.51641C12.9514 0.393342 13.2679 0.229251 13.4789 0.147206C13.7719 0.0358585 13.977 0.00655661 14.3872 0.000696226ZM13.2972 14.6282C9.40005 18.5312 8.61476 19.3458 8.55616 19.5392C8.51514 19.6681 8.49756 19.8791 8.521 20.008C8.53858 20.137 8.62648 20.3304 8.71439 20.4417C8.80816 20.5531 8.96639 20.682 9.07187 20.723C9.1715 20.764 9.36489 20.7992 9.49382 20.7992C9.62275 20.7992 9.78684 20.7699 9.86303 20.7347C9.93335 20.6996 12.1076 18.5547 14.6978 15.9702C17.2881 13.3917 19.4448 11.2058 19.4916 11.1178C19.5385 11.0241 19.5737 10.8307 19.5737 10.6783C19.5737 10.4791 19.5385 10.3384 19.4448 10.1978C19.3686 10.0864 19.2338 9.93991 19.1459 9.87544C19.0345 9.7934 18.8704 9.74651 18.677 9.73479C18.4602 9.72893 18.3137 9.75237 18.1672 9.83442C18.0558 9.89888 15.8641 12.0555 13.2972 14.6282ZM9.34145 10.0864C9.21252 10.1743 9.03671 10.3384 8.95467 10.4439C8.87262 10.5435 8.74369 10.7486 8.66751 10.8952C8.55616 11.1061 8.53272 11.2526 8.52686 11.657C8.52686 12.0731 8.5503 12.2079 8.67337 12.4775C8.75541 12.6533 8.94295 12.917 9.0836 13.0576C9.2301 13.1983 9.47624 13.3741 9.64033 13.4503C9.79856 13.5265 10.0799 13.6026 10.2557 13.6261C10.5018 13.6554 10.6776 13.6378 10.9999 13.5382C11.3516 13.4386 11.4864 13.3565 11.7559 13.1104C11.9435 12.9287 12.1486 12.665 12.2365 12.4775C12.3654 12.2079 12.3947 12.0789 12.3947 11.6863C12.3889 11.3288 12.3595 11.1471 12.2541 10.9245C12.1837 10.7662 12.0314 10.5201 11.92 10.3853C11.7872 10.2173 11.5879 10.0708 11.3223 9.94577C11.0234 9.79926 10.8358 9.75237 10.5194 9.74065C10.2459 9.72893 10.0213 9.75433 9.84544 9.81684C9.69894 9.86958 9.47624 9.99265 9.34145 10.0864ZM16.2626 17.4881C16.0575 17.6873 15.9227 17.8924 15.8289 18.1327C15.7234 18.4199 15.7 18.5723 15.7176 18.9532C15.7293 19.3048 15.7703 19.4982 15.8816 19.715C15.9578 19.8791 16.1336 20.1135 16.2626 20.2425C16.3974 20.3714 16.6318 20.5413 16.79 20.6234C17.042 20.7465 17.1651 20.7699 17.6398 20.7699C18.132 20.7699 18.2317 20.7523 18.5071 20.6058C18.6712 20.5179 18.9056 20.3538 19.0169 20.2425C19.1283 20.1311 19.2924 19.8967 19.3803 19.7326C19.5268 19.4572 19.5444 19.3575 19.5444 18.8653C19.5444 18.3906 19.5209 18.2675 19.3979 18.0155C19.3217 17.8573 19.1517 17.617 19.0169 17.4881C18.888 17.3533 18.6536 17.1833 18.4895 17.1072C18.261 16.9899 18.091 16.9606 17.6984 16.9489C17.2999 16.9372 17.1358 16.9548 16.8779 17.0603C16.6787 17.1423 16.4442 17.3005 16.2626 17.4881Z" fill="#FFC83D"/>
</svg>
