<svg width="21" height="30" viewBox="0 0 21 30" fill="none" xmlns="http://www.w3.org/2000/svg">
<path d="M5.66741 0.645233C5.86696 0.425721 6.07317 0.279379 6.35255 0.166297L6.75166 0H11.8204C16.8359 0 16.9024 0 17.2749 0.13969C17.541 0.239468 17.7605 0.385809 17.9734 0.605322C18.2129 0.851441 18.3193 1.02439 18.3991 1.31042C18.4656 1.54324 18.4922 1.81596 18.4723 1.99557C18.4523 2.18847 17.6275 4.12417 16.1308 7.48337C14.8603 10.337 13.8093 12.7118 13.796 12.7583C13.7761 12.8182 14.3747 12.8381 16.643 12.8381H16.6431C19.5233 12.8381 19.5233 12.8381 19.8559 12.9978C20.0355 13.0776 20.2949 13.2639 20.4279 13.4102C20.5543 13.5499 20.714 13.8226 20.7871 14.0022C20.8803 14.2483 20.9002 14.4412 20.8736 14.7339C20.8537 14.9534 20.7871 15.2328 20.7273 15.3459C20.6674 15.4656 18.0067 18.6985 14.8137 22.5299C11.6208 26.3681 8.92018 29.5676 8.81375 29.6408C8.70066 29.7206 8.49446 29.8337 8.34811 29.8936C8.20177 29.9534 7.94235 30 7.76275 30C7.5765 30 7.31042 29.9335 7.09756 29.8404C6.91131 29.7472 6.62528 29.541 6.46563 29.3747C6.28603 29.1752 6.15299 28.949 6.08647 28.7162C6.03326 28.5299 5.9867 28.3104 5.9867 28.2373C5.9867 28.1641 6.42572 26.1087 7.949 19.2306L1.36364 19.1907L0.997783 19.0177C0.798226 18.918 0.538803 18.7251 0.419069 18.5854C0.305987 18.439 0.159645 18.1929 0.10643 18.0266C0.0465632 17.8603 0 17.5942 0 17.4279C0 17.2151 0.764967 14.8271 2.68736 9.04656C5.34811 1.07095 5.38803 0.957871 5.66741 0.645233Z" fill="#FFC83D"/>
</svg>
