<svg width="20" height="10" viewBox="0 0 20 10" fill="none" xmlns="http://www.w3.org/2000/svg">
<path d="M3.75781 0.15625C3.9375 0.117188 4.15234 0.0664062 4.23828 0.046875C4.32422 0.0234375 4.62109 0.0078125 4.90234 0.00390625C5.27344 0 5.51953 0.0195312 5.82031 0.0820312C6.04688 0.125 6.35938 0.203125 6.51172 0.257812C6.66797 0.308594 6.91406 0.40625 7.05859 0.472656C7.20703 0.535156 7.5 0.707031 7.71484 0.851562C7.96875 1.01953 8.29297 1.29688 9.18359 2.16797L7.20703 4.13672L6.71875 3.65625C6.375 3.31641 6.16016 3.14062 5.99609 3.05859C5.86719 2.99219 5.65625 2.90625 5.52734 2.86719C5.36719 2.82031 5.17578 2.79687 4.92188 2.80078C4.62109 2.80469 4.49609 2.82422 4.25781 2.91016C4.09766 2.96875 3.875 3.07422 3.76953 3.14453C3.66016 3.21484 3.47656 3.375 3.35938 3.50391C3.24219 3.62891 3.08594 3.84766 3.01953 3.98438C2.94922 4.125 2.86719 4.36328 2.83203 4.51172C2.80078 4.66406 2.77344 4.86328 2.77344 4.96094C2.77344 5.05859 2.80078 5.25781 2.83203 5.41016C2.86719 5.5625 2.94922 5.79688 3.01953 5.93359C3.08594 6.07031 3.23438 6.28125 3.34375 6.40234C3.45312 6.52344 3.63672 6.68359 3.75391 6.76172C3.87109 6.83984 4.09766 6.95312 4.25781 7.01172C4.49609 7.09766 4.62109 7.11719 4.92188 7.12109C5.17578 7.125 5.36719 7.10156 5.52734 7.05469C5.65625 7.01562 5.86719 6.92969 5.99609 6.86719C6.19922 6.76562 6.63281 6.35156 9.0625 3.92578C11.6523 1.34766 11.9297 1.08203 12.3047 0.835938C12.5312 0.6875 12.8633 0.503906 13.0469 0.425781C13.2305 0.347656 13.4766 0.253906 13.5938 0.21875C13.7109 0.183594 13.9766 0.121094 14.1797 0.078125C14.4375 0.0234375 14.6992 0 15.0391 0C15.3789 0 15.6406 0.0234375 15.8984 0.078125C16.1016 0.121094 16.3828 0.191406 16.5234 0.230469C16.6641 0.273438 16.8984 0.363281 17.0508 0.429688C17.2031 0.496094 17.4297 0.617188 17.5586 0.695312C17.6875 0.769531 17.8984 0.914062 18.0273 1.01172C18.1562 1.10938 18.3555 1.27734 18.4727 1.38672C18.5859 1.49219 18.7891 1.72266 18.9258 1.89453C19.0586 2.06641 19.2305 2.3125 19.3086 2.44141C19.3828 2.57031 19.5039 2.80078 19.5703 2.94922C19.6367 3.10156 19.7266 3.33594 19.7695 3.47656C19.8125 3.61719 19.8828 3.90625 19.9219 4.12109C19.9727 4.37109 20 4.66797 20 4.94141C20 5.17969 19.9727 5.53125 19.9375 5.72266C19.9023 5.91406 19.8359 6.21484 19.7852 6.38672C19.7344 6.55859 19.6367 6.82031 19.5703 6.97266C19.5039 7.125 19.3828 7.35156 19.3086 7.48047C19.2305 7.60938 19.0586 7.85547 18.9258 8.02734C18.7891 8.19922 18.5859 8.42969 18.4727 8.53516C18.3555 8.64453 18.1562 8.8125 18.0273 8.91016C17.8984 9.00781 17.6719 9.16016 17.5195 9.25C17.3672 9.33984 17.0977 9.47266 16.9141 9.54688C16.7305 9.62109 16.4766 9.70703 16.3477 9.74219C16.2188 9.77344 15.9805 9.82812 15.8203 9.85938C15.6523 9.89453 15.3281 9.92188 15.0586 9.92188C14.7383 9.92188 14.4609 9.89844 14.1797 9.83984C13.9531 9.79688 13.6406 9.71875 13.4844 9.66406C13.332 9.61328 13.0859 9.51562 12.9375 9.44922C12.793 9.38672 12.5 9.21484 12.2852 9.07031C12.0312 8.90234 11.707 8.625 10.8164 7.75391L12.793 5.78516L13.2812 6.26562C13.625 6.60547 13.8398 6.78125 14.0039 6.86328C14.1328 6.92969 14.3438 7.01562 14.4727 7.05469C14.6094 7.09375 14.8398 7.125 15.0195 7.125C15.1914 7.125 15.4297 7.10156 15.5469 7.07422C15.6641 7.04297 15.8828 6.96094 16.0352 6.88281C16.2227 6.78906 16.3945 6.66016 16.582 6.46875C16.7539 6.29297 16.9023 6.09766 16.9805 5.9375C17.0508 5.79688 17.1328 5.5625 17.168 5.41016C17.1992 5.25781 17.2266 5.05859 17.2266 4.96094C17.2266 4.86328 17.1992 4.66406 17.168 4.51172C17.1328 4.36328 17.0508 4.125 16.9805 3.98438C16.8984 3.81641 16.7578 3.63281 16.5625 3.4375C16.3711 3.24609 16.1875 3.10547 16.0352 3.03125C15.9062 2.96875 15.7109 2.89062 15.6055 2.85938C15.4961 2.82812 15.2539 2.80078 15.0586 2.80078C14.8281 2.79687 14.625 2.82031 14.4727 2.86719C14.3438 2.90625 14.1328 2.99219 14.0039 3.05469C13.8008 3.15625 13.3672 3.57031 10.9375 5.99609C8.41016 8.51172 8.0625 8.84375 7.71484 9.07422C7.5 9.21484 7.20703 9.38672 7.05859 9.44922C6.91406 9.51562 6.66797 9.61328 6.51562 9.66406C6.35938 9.71875 6.04688 9.79688 5.82031 9.83984C5.53906 9.89844 5.26172 9.92188 4.94141 9.92188C4.67188 9.92188 4.34766 9.89453 4.17969 9.85938C4.01953 9.82812 3.78125 9.77344 3.65234 9.74219C3.52344 9.70703 3.26953 9.62109 3.08594 9.54688C2.90234 9.47266 2.62891 9.33984 2.48047 9.25C2.32812 9.16016 2.10156 9.00781 1.97266 8.91016C1.84375 8.8125 1.64453 8.64453 1.52734 8.53516C1.41406 8.42969 1.21094 8.19922 1.07422 8.02734C0.941406 7.85547 0.769531 7.60938 0.691406 7.48047C0.617188 7.35156 0.496094 7.125 0.429688 6.97266C0.363281 6.82031 0.265625 6.55859 0.214844 6.38672C0.164062 6.21484 0.09375 5.92578 0.0585938 5.74219C0.0273438 5.55859 0 5.21875 0 4.98047C0 4.74609 0.0273438 4.39453 0.0585938 4.19922C0.09375 4.00781 0.164062 3.69922 0.21875 3.51562C0.277344 3.33203 0.371094 3.07031 0.4375 2.92969C0.5 2.78906 0.617188 2.57031 0.691406 2.44141C0.769531 2.3125 0.941406 2.06641 1.07422 1.89453C1.21094 1.72266 1.41406 1.49219 1.52734 1.38672C1.64453 1.27734 1.84375 1.10938 1.97266 1.01172C2.10156 0.914062 2.32812 0.761719 2.48047 0.671875C2.62891 0.582031 2.90625 0.449219 3.09766 0.371094C3.28516 0.296875 3.58203 0.199219 3.75781 0.15625Z" fill="#57FF3D"/>
</svg>
