<svg width="20" height="20" viewBox="0 0 20 20" fill="none" xmlns="http://www.w3.org/2000/svg">
<path fill-rule="evenodd" clip-rule="evenodd" d="M6.99756 0.000479686C7.81022 -0.0034273 8.1931 0.0161076 8.73226 0.0747124C9.11515 0.121596 9.63087 0.191922 9.87701 0.234899C10.1231 0.277875 10.5568 0.371643 10.8342 0.445876C11.1116 0.516201 11.5023 0.633411 11.6938 0.69983C11.8852 0.770155 12.2134 0.902993 12.4165 1.00067C12.6197 1.09443 12.9284 1.26634 13.1003 1.38355C13.2722 1.49685 13.5222 1.70392 13.6512 1.84067C13.8113 2.00085 13.9364 2.18058 14.0223 2.3603C14.1239 2.57909 14.1512 2.68458 14.1512 2.88774C14.1512 3.02839 14.12 3.23155 14.0848 3.33704C14.0458 3.44253 13.9246 3.65351 13.8113 3.80197C13.6863 3.96607 13.4832 4.16532 13.2917 4.30988C13.1159 4.44272 12.7916 4.63807 12.5689 4.75137C12.3462 4.86077 11.9868 5.01705 11.7719 5.09518C11.557 5.17332 11.1898 5.29053 10.9514 5.35305C10.7131 5.41556 10.3029 5.50932 10.0333 5.56012C9.76371 5.61481 9.29096 5.68905 8.9784 5.72812C8.53691 5.78281 8.12277 5.79844 7.08352 5.79844C6.03254 5.79844 5.63793 5.78281 5.18863 5.72812C4.87607 5.68905 4.43849 5.62263 4.21188 5.57965C3.98528 5.53667 3.59849 5.45072 3.35235 5.38821C3.10621 5.3257 2.71942 5.21239 2.49281 5.13425C2.26621 5.05611 1.90677 4.90374 1.69188 4.80216C1.477 4.69667 1.18788 4.53649 1.04723 4.44272C0.906578 4.35286 0.676066 4.16142 0.535415 4.02076C0.363508 3.84886 0.234577 3.67695 0.144717 3.49332C0.0275072 3.25109 0.0118793 3.18467 0.0118793 2.90727C0.0118793 2.62597 0.0275072 2.56346 0.148624 2.32123C0.234577 2.14932 0.371322 1.96178 0.519787 1.81332C0.648717 1.68439 0.887043 1.49295 1.04723 1.38746C1.20742 1.28197 1.51607 1.11006 1.73095 1.00848C1.94584 0.9069 2.30528 0.758434 2.53188 0.680295C2.75849 0.602155 3.14528 0.488852 3.39142 0.426341C3.63756 0.363829 4.03216 0.277875 4.27049 0.234899C4.50491 0.191922 4.96203 0.12941 5.2863 0.0942473C5.60668 0.0590844 5.88798 0.0239216 5.91142 0.0161076C5.93486 0.00829365 6.41933 0.000479686 6.99366 0.000479686H6.99756ZM0.0118793 5.23193C0.0236002 5.23193 0.129089 5.29835 0.242391 5.3843C0.351787 5.46635 0.570578 5.60309 0.719043 5.68905C0.871415 5.77109 1.16053 5.91565 1.3637 6.00942C1.56686 6.10319 1.93802 6.25165 2.18416 6.3337C2.4303 6.41965 2.83663 6.53686 3.08277 6.59937C3.32891 6.66188 3.7704 6.75565 4.05951 6.81035C4.34863 6.86505 4.84091 6.93928 5.15347 6.97835C5.60668 7.03305 6.00128 7.04868 8.53301 7.04868L8.20091 7.32607C8.01729 7.47844 7.73989 7.74412 7.5797 7.91212C7.41952 8.08012 7.14994 8.4044 6.98194 8.631C6.81394 8.85761 6.5717 9.22486 6.44277 9.45147C6.31775 9.67807 6.20835 9.88515 6.20835 9.91249C6.20835 9.94375 6.14584 9.95938 6.02472 9.95938C5.91924 9.95938 5.59886 9.93203 5.30975 9.90077C5.02063 9.86561 4.57133 9.8031 4.31347 9.76012C4.05561 9.71714 3.61802 9.62338 3.33672 9.54914C3.05933 9.47882 2.67253 9.36161 2.47719 9.29519C2.28574 9.22486 1.96928 9.09593 1.77393 9.00607C1.58249 8.91621 1.26993 8.7404 1.08239 8.61928C0.89095 8.49817 0.633089 8.28719 0.500252 8.15435C0.363508 8.00979 0.211135 7.80272 0.0157862 7.40421L0.00406529 6.31807C-0.00374868 5.7203 0.000158304 5.23193 0.0118793 5.23193ZM13.4753 6.69705C14.0497 6.70877 14.331 6.73221 14.6279 6.79081C14.8428 6.8377 15.1944 6.92756 15.4093 6.99789C15.6242 7.06821 16.0188 7.2323 16.2884 7.36514C16.5579 7.49798 16.9174 7.70896 17.0893 7.82617C17.2612 7.94728 17.5581 8.1817 17.7496 8.3497C17.941 8.51379 18.2301 8.81073 18.3903 9.00217C18.5544 9.19361 18.7888 9.51398 18.9178 9.70542C19.0428 9.89687 19.2342 10.2329 19.3358 10.4478C19.4413 10.6626 19.578 10.9986 19.6445 11.1901C19.707 11.3815 19.7968 11.7019 19.8398 11.8933C19.8828 12.0848 19.9336 12.4169 19.957 12.6278C19.9805 12.8349 20 13.1592 20 13.3506C20 13.5382 19.9805 13.8507 19.9609 14.0422C19.9375 14.2336 19.8906 14.5266 19.8593 14.6868C19.8281 14.847 19.7343 15.183 19.6523 15.4292C19.5702 15.6753 19.41 16.0582 19.3006 16.2809C19.1913 16.4997 19.0389 16.781 18.9568 16.906C18.8787 17.0271 18.7068 17.2693 18.574 17.4412C18.4372 17.6132 18.1637 17.914 17.9645 18.1093C17.7613 18.3047 17.4487 18.5743 17.2651 18.7071C17.0815 18.8439 16.7924 19.0314 16.6205 19.1291C16.4486 19.2267 16.1282 19.383 15.9055 19.4768C15.6867 19.5706 15.3077 19.6995 15.0655 19.762C14.8272 19.8284 14.4638 19.9066 14.2646 19.9378C14.0497 19.9769 13.6668 20.0003 13.3191 20.0003C12.9479 20.0003 12.608 19.9769 12.3892 19.9378C12.2017 19.9026 11.8735 19.8323 11.6586 19.7776C11.4437 19.7268 11.0921 19.6135 10.8772 19.5276C10.6623 19.4416 10.3458 19.2932 10.1739 19.1994C10.002 19.1056 9.72464 18.9337 9.56054 18.8204C9.39645 18.7071 9.10733 18.4805 8.9198 18.3203C8.73617 18.1601 8.45877 17.8827 8.3025 17.703C8.15012 17.5233 7.92352 17.2264 7.79849 17.0388C7.67347 16.8513 7.48594 16.5309 7.38045 16.3278C7.27887 16.1246 7.11868 15.7456 7.03273 15.4878C6.94287 15.2299 6.82956 14.8275 6.78268 14.5892C6.70845 14.2219 6.69673 14.0383 6.70063 13.2998C6.70063 12.5575 6.71235 12.3856 6.79049 12.0301C6.83738 11.8035 6.93896 11.4362 7.0171 11.2096C7.09133 10.983 7.25152 10.6079 7.36873 10.3696C7.48594 10.1313 7.67347 9.80701 7.78287 9.64682C7.88836 9.48663 8.05636 9.25612 8.15403 9.13891C8.2517 9.0217 8.42752 8.82245 8.54863 8.69742C8.66975 8.5724 8.90026 8.35752 9.06045 8.22468C9.22064 8.08793 9.48631 7.89258 9.6465 7.78319C9.80668 7.67379 10.0958 7.50579 10.2911 7.40812C10.4826 7.31044 10.7756 7.17761 10.9358 7.11509C11.096 7.04868 11.3968 6.95491 11.6 6.90021C11.8032 6.84551 12.0923 6.783 12.2446 6.75956C12.397 6.73612 12.5611 6.70877 12.6158 6.70095C12.6705 6.68923 13.0573 6.68923 13.4753 6.69705ZM12.7799 9.52961C12.7096 9.67417 12.6939 9.76794 12.6939 10.0766V10.4478C12.4048 10.522 12.2173 10.6118 12.0884 10.6939C11.9594 10.7759 11.7797 10.9322 11.6859 11.0377C11.5922 11.1432 11.475 11.3229 11.4203 11.4362C11.3695 11.5456 11.307 11.7566 11.2796 11.9051C11.2445 12.1082 11.2445 12.2293 11.2796 12.4598C11.307 12.62 11.3695 12.8427 11.4242 12.9482C11.475 13.0576 11.5765 13.2139 11.6469 13.2959C11.7172 13.3819 11.8539 13.5147 11.9516 13.5929C12.0493 13.671 12.2329 13.7726 12.3618 13.8273C12.5611 13.9015 12.6939 13.9211 13.2019 13.9406C13.6863 13.9601 13.8309 13.9797 13.9168 14.0344C13.9754 14.0695 14.0536 14.1477 14.0887 14.2102C14.1278 14.2688 14.1552 14.386 14.1552 14.4719C14.1552 14.5579 14.1278 14.6751 14.0887 14.7376C14.0536 14.7962 13.9754 14.8744 13.9168 14.9134C13.8231 14.972 13.6707 14.9838 12.7291 14.9994C11.7016 15.0189 11.6391 15.0228 11.5336 15.101C11.475 15.1479 11.389 15.2338 11.346 15.2885C11.2874 15.3666 11.2679 15.4565 11.2679 15.6245C11.2679 15.7925 11.2874 15.8824 11.346 15.9605C11.389 16.0152 11.475 16.1012 11.5336 16.148C11.6312 16.2223 11.7055 16.2301 12.1704 16.2418L12.6939 16.2496C12.7135 16.9763 12.7291 17.0779 12.7955 17.1873C12.8463 17.2732 12.9518 17.3592 13.069 17.4178C13.2175 17.4881 13.2956 17.5077 13.4167 17.4881C13.5027 17.4764 13.616 17.4295 13.6707 17.3905C13.7254 17.3514 13.8074 17.2576 13.8582 17.1834C13.9364 17.0662 13.9481 17.0037 13.9442 16.6325V16.2106C14.2333 16.1441 14.3857 16.0894 14.4716 16.0465C14.5576 15.9996 14.7295 15.8667 14.8545 15.7456C14.9795 15.6245 15.1241 15.4565 15.171 15.3705C15.2218 15.2846 15.2882 15.1283 15.3233 15.0189C15.3585 14.9134 15.3937 14.7376 15.4093 14.6282C15.4249 14.5071 15.4093 14.3235 15.3702 14.1398C15.339 13.9797 15.253 13.7452 15.1827 13.6163C15.1124 13.4913 14.9639 13.3038 14.8506 13.1983C14.7412 13.0928 14.538 12.956 14.4013 12.8896C14.2685 12.8271 14.0536 12.7568 13.9246 12.7333C13.7957 12.7138 13.5066 12.6943 13.28 12.6943C12.9401 12.6943 12.8502 12.6825 12.7408 12.6161C12.6744 12.5731 12.5885 12.4755 12.5572 12.4012C12.5259 12.327 12.4986 12.2176 12.4986 12.159C12.4986 12.0965 12.5338 11.991 12.5767 11.9246C12.6197 11.8543 12.7096 11.7683 12.7721 11.7371C12.8659 11.6902 13.0729 11.6785 13.8543 11.6785C14.3974 11.6785 14.8819 11.6628 14.96 11.6394C15.0342 11.6159 15.1553 11.5417 15.2257 11.4714C15.296 11.405 15.3702 11.2799 15.3898 11.2018C15.4132 11.108 15.4171 10.9986 15.3937 10.9088C15.3702 10.8267 15.3155 10.7095 15.2647 10.647C15.2139 10.5845 15.1397 10.5142 15.0967 10.4907C15.0538 10.4673 14.7803 10.4399 14.4912 10.4282L13.9637 10.4087C13.9285 9.62729 13.909 9.52961 13.8426 9.43194C13.7957 9.36942 13.698 9.28347 13.616 9.24831C13.5379 9.20924 13.4011 9.17798 13.3073 9.17798C13.1979 9.17798 13.0925 9.20924 13.0026 9.26784C12.9284 9.31473 12.8307 9.43194 12.7799 9.52961ZM0.00406529 9.36161L0.144717 9.47882C0.226763 9.54133 0.429926 9.68198 0.601834 9.78747C0.773741 9.89296 1.11756 10.0688 1.3637 10.1782C1.60983 10.2876 2.05914 10.4595 2.35998 10.5571C2.66081 10.6548 3.19607 10.7955 3.5516 10.8736C3.90714 10.9478 4.46975 11.0455 4.80184 11.0924C5.13393 11.1354 5.47384 11.1705 5.55198 11.1705C5.63403 11.1705 5.70045 11.1823 5.70045 11.2018C5.70045 11.2174 5.65747 11.4128 5.60668 11.6394C5.55589 11.866 5.49337 12.2411 5.46603 12.4794C5.44258 12.7177 5.42696 13.1709 5.44649 14.0695L5.15347 14.0461C4.99328 14.0344 4.62212 13.9797 4.333 13.9289C4.04388 13.8781 3.62193 13.7882 3.39533 13.7335C3.16872 13.6749 2.80146 13.5655 2.57486 13.4913C2.34825 13.4171 1.96146 13.2569 1.71532 13.1397C1.46918 13.0185 1.13709 12.831 0.976904 12.7216C0.816718 12.6083 0.590113 12.413 0.468996 12.284C0.34788 12.1551 0.195507 11.9441 0.0157862 11.5808L0.00406529 9.36161Z" fill="#57FF3D"/>
</svg>
