<svg width="23" height="23" viewBox="0 0 23 23" fill="none" xmlns="http://www.w3.org/2000/svg">
<path fill-rule="evenodd" clip-rule="evenodd" d="M11.2412 0.000464625C11.4082 -0.00392991 11.5137 0.0224373 11.6323 0.0971443C11.7246 0.154273 11.8477 0.268531 11.9092 0.352027C12.0103 0.488258 12.019 0.540992 12.0278 1.05955C12.041 1.60447 12.0454 1.62205 12.1377 1.63962C12.1948 1.65281 12.3574 1.67478 12.5024 1.68796C12.6475 1.70554 12.9551 1.75388 13.1836 1.80222C13.4121 1.85056 13.8296 1.95603 14.1064 2.04392C14.3833 2.13181 14.8184 2.29002 15.0732 2.39988C15.3281 2.50974 15.6621 2.66794 15.8203 2.75584C15.9785 2.83933 16.2949 3.03269 16.5234 3.1865C16.752 3.33591 17.0552 3.54685 17.1914 3.66111C17.332 3.77097 17.4595 3.86326 17.4771 3.86326C17.499 3.86326 17.6616 3.71384 17.8418 3.52927C18.022 3.3491 18.2241 3.16892 18.29 3.13377C18.3604 3.09861 18.5098 3.07224 18.6328 3.07224C18.7515 3.07224 18.9053 3.09861 18.9712 3.13377C19.0415 3.16892 19.147 3.25242 19.2085 3.32273C19.2744 3.38865 19.3491 3.48972 19.3755 3.54246C19.4019 3.59959 19.4238 3.73142 19.4238 3.84128C19.4238 3.95115 19.3975 4.10496 19.3623 4.17966C19.3271 4.25877 19.1514 4.4741 18.9668 4.65427C18.7822 4.83445 18.6328 4.99705 18.6328 5.01462C18.6328 5.0366 18.7734 5.23435 18.9448 5.45408C19.1162 5.6782 19.3535 6.02097 19.4678 6.21433C19.5864 6.40769 19.8018 6.81199 19.9468 7.11521C20.0918 7.41843 20.2983 7.93259 20.4082 8.25779C20.5137 8.58298 20.6411 9.05759 20.6938 9.31248C20.7422 9.56736 20.7949 9.88377 20.8081 10.0156C20.8257 10.1474 20.8433 10.3012 20.8564 10.354C20.874 10.4507 20.8916 10.4551 21.4365 10.4638C21.9771 10.477 22.0078 10.4814 22.1616 10.5957C22.2495 10.666 22.3638 10.7978 22.4121 10.8945C22.4604 10.9912 22.5 11.145 22.5 11.2329C22.5 11.3252 22.4648 11.479 22.4209 11.5757C22.377 11.6723 22.2627 11.813 22.1704 11.8833C22.0034 12.0107 21.9902 12.0151 21.4365 12.0239C20.8916 12.0371 20.874 12.0415 20.8564 12.1338C20.8433 12.1909 20.8257 12.3447 20.8081 12.4765C20.7949 12.6084 20.7422 12.9248 20.6938 13.1797C20.6411 13.4345 20.5137 13.9092 20.4082 14.2344C20.3027 14.5595 20.0874 15.0913 19.9292 15.4077C19.771 15.7285 19.6436 16.0097 19.6436 16.0361C19.6436 16.0625 20.0742 16.0844 22.0034 16.102L22.1616 16.2207C22.2495 16.291 22.3638 16.4228 22.4121 16.5195C22.4956 16.6909 22.5 16.7832 22.5 21.8589L22.3989 22.0522C22.3418 22.1709 22.2275 22.2983 21.9287 22.4961H0.571289L0.382324 22.373C0.272461 22.2983 0.158203 22.1709 0 21.8589V19.2881C0 16.915 0.00878906 16.7041 0.0791016 16.5415C0.123047 16.4448 0.237305 16.3042 0.496582 16.102L1.67871 16.0888C2.42578 16.0844 2.85645 16.0625 2.85645 16.0361C2.85645 16.0097 2.729 15.7285 2.5708 15.4077C2.4126 15.0913 2.19727 14.5595 2.0918 14.2344C1.98633 13.9092 1.85889 13.4345 1.80615 13.1797C1.75781 12.9248 1.70508 12.6084 1.69189 12.4765C1.67432 12.3447 1.65674 12.1909 1.64355 12.1338C1.62598 12.0415 1.6084 12.0371 1.06348 12.0239C0.522949 12.0151 0.492188 12.0107 0.338379 11.8921C0.250488 11.8261 0.13623 11.6943 0.0878906 11.5976C0.0395508 11.501 0 11.3471 0 11.2549C0 11.167 0.0351562 11.0132 0.0791016 10.9165C0.123047 10.8198 0.237305 10.6836 0.32959 10.6089C0.496582 10.4814 0.509766 10.477 1.06348 10.4638C1.6084 10.4551 1.62598 10.4507 1.64355 10.354C1.65674 10.3012 1.67432 10.1474 1.69189 10.0156C1.70508 9.88377 1.75781 9.56736 1.80615 9.31248C1.85889 9.05759 1.98193 8.59617 2.0874 8.27976C2.18848 7.96336 2.35986 7.51951 2.46533 7.29099C2.5708 7.05808 2.76855 6.67576 2.90039 6.43845C3.03223 6.20115 3.30469 5.79246 3.50244 5.52878C3.70459 5.26511 3.86719 5.0366 3.86719 5.01462C3.86719 4.99705 3.71777 4.83445 3.5332 4.65427C3.34863 4.4741 3.17285 4.25877 3.1377 4.17966C3.10254 4.10496 3.07617 3.94675 3.07617 3.8281C3.08057 3.69627 3.11572 3.56003 3.17725 3.45017C3.22998 3.35789 3.35303 3.23484 3.44971 3.17771C3.57275 3.103 3.69141 3.07224 3.854 3.07224C3.98145 3.07224 4.13965 3.09861 4.20557 3.13377C4.27588 3.16892 4.47803 3.3491 4.6582 3.52927C4.83838 3.71384 5.00098 3.86326 5.01855 3.86326C5.04053 3.86326 5.21631 3.73582 5.41406 3.58201C5.61621 3.4282 5.9458 3.19968 6.15234 3.07224C6.35889 2.9448 6.73242 2.73386 6.9873 2.61082C7.24219 2.48337 7.6377 2.31199 7.86621 2.2241C8.09473 2.1406 8.45947 2.01755 8.6792 1.96043C8.89453 1.8989 9.23291 1.8198 9.42627 1.78025C9.61963 1.74509 9.8877 1.70115 10.0195 1.68796C10.1514 1.67039 10.3052 1.65281 10.3579 1.63962C10.4546 1.62205 10.459 1.60447 10.4678 1.05955C10.481 0.545386 10.4897 0.488258 10.5908 0.356422C10.6479 0.27732 10.7666 0.163062 10.8545 0.105933C10.9644 0.0312263 11.0698 0.000464625 11.2368 0.000464625H11.2412ZM9.14502 3.48972C8.98682 3.52927 8.67041 3.63474 8.44189 3.71824C8.21338 3.80613 7.87061 3.95115 7.68164 4.04343C7.49707 4.14011 7.21143 4.29392 7.04443 4.395C6.88184 4.49607 6.61816 4.67625 6.45117 4.80369L6.15234 5.02781L9.89648 8.76316L10.4634 8.54343C10.4634 3.40183 10.459 3.24802 10.3843 3.25242C10.3447 3.25242 10.1118 3.29197 9.87012 3.33591C9.62842 3.37546 9.30322 3.44578 9.14502 3.48972ZM12.0454 8.54343L12.6123 8.76316C15.4775 5.90232 16.3081 5.04978 16.3081 5.02781C16.3081 5.00584 16.1851 4.89158 16.0312 4.78171C15.8818 4.67185 15.6226 4.49168 15.4512 4.3906C15.2798 4.28513 14.9458 4.10496 14.7041 3.9907C14.4624 3.87644 14.0581 3.70945 13.8032 3.62595C13.5483 3.54246 13.144 3.43259 12.9023 3.38425C12.6606 3.34031 12.3706 3.28757 12.2563 3.27L12.0498 3.24363L12.0454 8.54343ZM4.81201 6.44285C4.68896 6.60544 4.50439 6.87791 4.39893 7.04929C4.29346 7.21628 4.11328 7.55466 3.99902 7.79636C3.88477 8.03806 3.71777 8.44236 3.63428 8.69724C3.55078 8.95212 3.44092 9.35642 3.39697 9.59812C3.34863 9.83982 3.2959 10.1299 3.28271 10.2441L3.25635 10.4551L8.55176 10.4507L8.77148 9.88816L5.03613 6.14402L4.81201 6.44285ZM13.7285 9.90574L13.957 10.4551H19.2524C19.2129 10.1299 19.1602 9.83982 19.1118 9.59812C19.0635 9.35642 18.9624 8.96091 18.8833 8.71921C18.8042 8.47752 18.6284 8.05125 18.4966 7.77439C18.3647 7.49753 18.1143 7.06248 17.9429 6.80759C17.7715 6.55271 17.5957 6.30222 17.5518 6.24509L17.4727 6.14841L13.7285 9.90574ZM3.27832 12.2436C3.2959 12.3623 3.34863 12.6523 3.39258 12.894C3.44092 13.1357 3.55078 13.54 3.63428 13.7949C3.71777 14.0498 3.87598 14.4453 3.98584 14.6738C4.0957 14.9023 4.2583 15.2099 4.34619 15.355C4.42969 15.5 4.5791 15.7241 4.67139 15.8471C4.83398 16.0757 4.84277 16.0801 5.06689 16.0801H5.2998L8.77148 12.5996L8.55176 12.0371H3.25195L3.27832 12.2436ZM13.7329 12.5996L17.2046 16.0757C17.666 16.0757 17.6704 16.0757 17.833 15.8471C17.9253 15.7197 18.0747 15.4956 18.1626 15.3506C18.2505 15.2055 18.4087 14.9023 18.5186 14.6694C18.6284 14.4409 18.7866 14.0454 18.8701 13.7905C18.9536 13.54 19.0635 13.1313 19.1118 12.8896C19.1602 12.6479 19.2085 12.3579 19.2217 12.2436L19.248 12.0327H13.9526L13.7329 12.5996ZM7.6333 16.0493C7.65527 16.0669 8.29688 16.0801 9.06592 16.0801H10.459V13.9487C10.0679 13.7949 9.93604 13.751 9.90967 13.751C9.8833 13.751 9.35596 14.2607 8.73193 14.8803C8.10791 15.5044 7.61572 16.0273 7.6333 16.0493ZM12.019 13.9487L12.041 16.0801C14.2075 16.0801 14.8535 16.0625 14.8711 16.0449C14.8887 16.0273 14.3921 15.5044 13.7681 14.8803C13.144 14.2607 12.6035 13.751 12.5684 13.7553C12.5332 13.7553 12.3926 13.8037 12.2607 13.852L12.019 13.9487Z" fill="#FFC83D"/>
</svg>
