<svg width="16" height="16" viewBox="0 0 16 16" fill="none" xmlns="http://www.w3.org/2000/svg">
<path d="M3.94582 1.78803C6.22423 0.69231 7.45804 0.119218 7.63543 0.0723616H7.63148C7.78128 0.0327137 7.94289 0.000274525 7.99808 0.000274525C8.05327 -0.00332983 8.21882 0.0291094 8.37256 0.0651529C8.56965 0.115614 9.62608 0.605806 12.0582 1.77362C14.1829 2.79725 15.535 3.46766 15.6414 3.55417C15.736 3.62986 15.8503 3.75601 15.8976 3.83531C15.9567 3.94344 15.9804 4.04436 15.9804 4.24981C15.9804 4.45526 15.9567 4.55618 15.8976 4.66431C15.8503 4.7436 15.7518 4.86255 15.6808 4.93103C15.6059 4.99951 15.4679 5.08962 15.3694 5.12927C15.192 5.20496 15.192 5.20496 8.09663 5.21577C2.04978 5.22298 0.973645 5.21577 0.804144 5.17252C0.693771 5.14369 0.528212 5.06439 0.429665 4.99951C0.319292 4.92382 0.20892 4.80127 0.141908 4.67873C0.0827795 4.5742 0.0236513 4.41921 0.00788376 4.33992C-0.00394188 4.24981 0.0118256 4.12726 0.0551864 4.01552C0.0906633 3.9146 0.153733 3.78845 0.193152 3.72718C0.232571 3.6659 0.323234 3.57579 0.394188 3.52533C0.469084 3.47487 2.06555 2.69273 3.94582 1.78803Z" fill="#1463FF"/>
<path d="M0.630701 13.841C0.729248 13.7905 0.886924 13.7293 0.985471 13.704C1.12344 13.6716 2.7672 13.6644 15.0383 13.6752L15.2236 13.7581C15.33 13.8013 15.4955 13.9095 15.598 13.996C15.7123 14.0897 15.8267 14.2303 15.8818 14.3456C15.9331 14.4537 15.9843 14.6303 15.9962 14.7385C16.008 14.861 15.9922 15.0124 15.9528 15.135C15.9213 15.2431 15.8306 15.4053 15.7596 15.4954C15.6847 15.5855 15.5389 15.7117 15.4325 15.7765C15.3221 15.8414 15.1408 15.9171 15.0265 15.9459C14.8491 15.9928 13.8597 16 1.20227 16L0.926342 15.9207C0.693771 15.8522 0.614934 15.809 0.413898 15.6251C0.224687 15.4521 0.157675 15.3548 0.0867214 15.171C0.0394188 15.0412 0 14.8826 0 14.8214C0 14.7565 0.0394188 14.6015 0.0906633 14.479C0.137966 14.3528 0.240455 14.1798 0.315351 14.0933C0.390246 14.0068 0.532154 13.8951 0.630701 13.841Z" fill="#1463FF"/>
<path d="M2.29418 6.93145C2.37696 6.88459 2.53857 6.81971 2.64894 6.79088C2.77903 6.75844 2.94064 6.74402 3.07467 6.75483C3.19687 6.76565 3.3979 6.81971 3.53587 6.88099C3.69354 6.94947 3.83545 7.04318 3.92217 7.1441C3.99707 7.227 4.09167 7.38199 4.13898 7.48652C4.21387 7.66673 4.21781 7.74963 4.21781 9.44008C4.21781 11.0945 4.21387 11.217 4.14292 11.3972C4.09562 11.509 3.99313 11.6531 3.8867 11.7577C3.78815 11.8514 3.60288 11.9703 3.47674 12.0244C3.29936 12.1001 3.19292 12.1217 2.97612 12.1217C2.75932 12.1217 2.64895 12.1001 2.46368 12.0244C2.33359 11.9667 2.17592 11.8802 2.11285 11.8262C2.05372 11.7721 1.95912 11.6676 1.90787 11.5955C1.85663 11.5198 1.78567 11.3648 1.75414 11.2531C1.70684 11.0801 1.69501 10.7521 1.69501 9.44008C1.69501 8.12809 1.70684 7.8001 1.75414 7.63069C1.78567 7.51535 1.8448 7.37839 1.88028 7.32432C1.91575 7.26665 1.99065 7.17654 2.04584 7.11887C2.10102 7.06481 2.21534 6.9783 2.29418 6.93145Z" fill="#1463FF"/>
<path d="M7.33978 6.93145C7.42256 6.88459 7.58418 6.81971 7.69455 6.79088C7.82464 6.75844 7.98625 6.74402 8.12028 6.75483C8.24248 6.76565 8.44351 6.81971 8.58148 6.88099C8.73915 6.94947 8.88106 7.04318 8.96778 7.1441C9.04268 7.227 9.13728 7.38199 9.18459 7.48652C9.25948 7.66673 9.26342 7.74963 9.26342 9.44008C9.26342 11.0945 9.25948 11.217 9.18853 11.3972C9.14123 11.509 9.03874 11.6531 8.93231 11.7577C8.83376 11.8514 8.64849 11.9703 8.52235 12.0244C8.34496 12.1001 8.23853 12.1217 8.02173 12.1217C7.80493 12.1217 7.69455 12.1001 7.50929 12.0244C7.3792 11.9667 7.22153 11.8802 7.15846 11.8262C7.09933 11.7721 7.00472 11.6676 6.95348 11.5955C6.90224 11.5198 6.83128 11.3648 6.79975 11.2531C6.75244 11.0801 6.74062 10.7521 6.74062 9.44008C6.74062 8.12809 6.75244 7.8001 6.79975 7.63069C6.83128 7.51535 6.89041 7.37839 6.92589 7.32432C6.96136 7.26665 7.03626 7.17654 7.09145 7.11887C7.14663 7.06481 7.26095 6.9783 7.33978 6.93145Z" fill="#1463FF"/>
<path d="M12.3854 6.93145C12.4682 6.88459 12.6298 6.81971 12.7402 6.79088C12.8702 6.75844 13.0319 6.74402 13.1659 6.75483C13.2881 6.76565 13.4891 6.81971 13.6271 6.88099C13.7848 6.94947 13.9267 7.04318 14.0134 7.1441C14.0883 7.227 14.1829 7.38199 14.2302 7.48652C14.3051 7.66673 14.309 7.74963 14.309 9.44008C14.309 11.0945 14.3051 11.217 14.2341 11.3972C14.1868 11.509 14.0843 11.6531 13.9779 11.7577C13.8794 11.8514 13.6941 11.9703 13.568 12.0244C13.3906 12.1001 13.2841 12.1217 13.0673 12.1217C12.8505 12.1217 12.7402 12.1001 12.5549 12.0244C12.4248 11.9667 12.2671 11.8802 12.2041 11.8262C12.1449 11.7721 12.0503 11.6676 11.9991 11.5955C11.9478 11.5198 11.8769 11.3648 11.8454 11.2531C11.7981 11.0801 11.7862 10.7521 11.7862 9.44008C11.7862 8.12809 11.7981 7.8001 11.8454 7.63069C11.8769 7.51535 11.936 7.37839 11.9715 7.32432C12.007 7.26665 12.0819 7.17654 12.1371 7.11887C12.1922 7.06481 12.3066 6.9783 12.3854 6.93145Z" fill="#1463FF"/>
</svg>
