<svg width="16" height="16" viewBox="0 0 16 16" fill="none" xmlns="http://www.w3.org/2000/svg">
<path fill-rule="evenodd" clip-rule="evenodd" d="M8.09353 0.00315659C8.35915 0.0106389 8.72204 0.0368269 8.89788 0.0592738C9.07371 0.0779796 9.39171 0.134097 9.60869 0.175249C9.82568 0.220143 10.2297 0.328637 10.5066 0.418424C10.7834 0.511953 11.2324 0.691528 11.498 0.822468C11.7636 0.953409 12.1602 1.17788 12.3771 1.32004C12.5941 1.4622 12.9234 1.70538 13.1067 1.86251C13.29 2.0159 13.593 2.30022 13.7763 2.49476C13.9597 2.6893 14.2066 2.97363 14.3225 3.12702C14.4423 3.2804 14.6256 3.54228 14.7341 3.70689C14.8388 3.87151 15.0371 4.22317 15.168 4.49254C15.299 4.7619 15.4711 5.18091 15.5534 5.42782C15.6357 5.67474 15.7442 6.0713 15.7966 6.30699C15.8489 6.54269 15.92 7.01407 15.9537 7.35452C16.0098 7.8895 16.0135 8.03541 15.9724 8.45815C15.9462 8.72378 15.9013 9.09789 15.8714 9.28121C15.8414 9.46452 15.7741 9.77878 15.7255 9.97332C15.6768 10.1679 15.5758 10.4971 15.501 10.7028C15.4262 10.9086 15.3027 11.2116 15.2242 11.3763C15.1493 11.5409 14.9922 11.8364 14.8762 12.031C14.764 12.2255 14.5433 12.5547 14.3899 12.7605C14.2365 12.9662 13.9634 13.2917 13.7763 13.4863C13.593 13.6808 13.29 13.9651 13.1067 14.1223C12.9234 14.2756 12.5941 14.5188 12.3771 14.661C12.1602 14.8031 11.7636 15.0239 11.498 15.1548C11.2324 15.2858 10.8096 15.4616 10.5627 15.5439C10.3158 15.6262 9.91921 15.7347 9.68352 15.7871C9.44782 15.8394 9.02133 15.9068 8.73701 15.9367C8.45642 15.9704 8.11598 15.9966 7.98129 15.9966C7.84661 15.9966 7.52487 15.9704 7.25925 15.9405C6.99737 15.9068 6.64945 15.8581 6.48483 15.8245C6.32022 15.7908 6.01345 15.716 5.8002 15.6561C5.5907 15.5963 5.26148 15.4878 5.07442 15.413C4.88362 15.3381 4.60678 15.2184 4.46461 15.1473C4.32245 15.0725 4.06057 14.9303 3.88474 14.8256C3.7089 14.7171 3.39839 14.5076 3.19262 14.3542C2.98686 14.2008 2.61649 13.8716 2.36583 13.6247C2.11891 13.374 1.78969 13.0037 1.6363 12.7979C1.48292 12.5921 1.27341 12.2816 1.16492 12.1058C1.06017 11.9299 0.918004 11.6718 0.843181 11.5259C0.772099 11.38 0.652382 11.1069 0.577559 10.9198C0.502736 10.729 0.397984 10.426 0.345608 10.2464C0.293232 10.0631 0.218409 9.76382 0.180998 9.5805C0.143586 9.39718 0.0837277 8.98192 0.0463162 8.66392C-0.00980108 8.15886 -0.0135422 8.0167 0.0276104 7.54157C0.0537985 7.24228 0.0986923 6.85694 0.128621 6.68111C0.158551 6.50527 0.22215 6.20224 0.274526 6.0077C0.323161 5.81316 0.41669 5.49891 0.48029 5.31559C0.54763 5.13227 0.689794 4.79557 0.794546 4.56736C0.903039 4.33915 1.0901 3.99496 1.20981 3.80042C1.33327 3.60588 1.53529 3.31033 1.65875 3.14572C1.78221 2.98111 2.03287 2.6893 2.21992 2.49476C2.40698 2.30022 2.70627 2.0159 2.89333 1.85877C3.08039 1.70538 3.40587 1.46221 3.62286 1.32378C3.83984 1.18162 4.23266 0.95715 4.50203 0.82621C4.77139 0.695269 5.1904 0.519435 5.43731 0.43713C5.68423 0.354825 6.04712 0.250072 6.24166 0.20892C6.4362 0.164026 6.82528 0.0966853 7.10212 0.0592738C7.45753 0.0106389 7.74934 -0.00806685 8.09353 0.00315659ZM6.47361 3.54977C6.42498 3.59466 6.35764 3.68445 6.32771 3.74431C6.29404 3.80791 6.25662 3.99496 6.2454 4.16332L6.22295 4.47009C5.25774 4.49254 5.18666 4.50002 5.09313 4.5711C5.03701 4.61599 4.95845 4.69082 4.92103 4.73945C4.88362 4.78809 4.84247 4.90406 4.83125 4.99759C4.82002 5.10234 4.83125 5.21458 4.86492 5.29688C4.89485 5.36797 4.98463 5.4802 5.0632 5.54006C5.19414 5.64107 5.23529 5.65229 5.51962 5.66352L5.83013 5.671V10.31C5.23529 10.3287 5.19414 10.34 5.0632 10.441C4.98463 10.5008 4.89485 10.6131 4.86492 10.6841C4.83125 10.7664 4.82002 10.8787 4.83125 10.9834C4.84247 11.077 4.88362 11.1929 4.92478 11.2453C4.96593 11.2977 5.04449 11.3725 5.09687 11.4137C5.18666 11.4773 5.26896 11.4885 5.71042 11.4997L6.22295 11.5109C6.26037 12.0235 6.29029 12.1694 6.33893 12.2554C6.38008 12.3265 6.47361 12.4238 6.54469 12.4724C6.61577 12.5173 6.72053 12.5659 6.78413 12.5809C6.86269 12.5959 6.95248 12.5772 7.07968 12.5136C7.18443 12.4649 7.30041 12.3751 7.34156 12.319C7.40142 12.2367 7.42386 12.1357 7.43883 11.8701L7.45753 11.5259L7.92518 11.5072C7.92518 12.0235 7.94388 12.1245 8.01122 12.2517C8.05612 12.3452 8.14965 12.4462 8.22447 12.4911C8.30677 12.5397 8.41901 12.5697 8.52376 12.5697C8.61729 12.5697 8.74823 12.5397 8.81183 12.5061C8.87917 12.4724 8.9727 12.3864 9.01759 12.3228C9.08867 12.218 9.10364 12.1432 9.11112 11.8551L9.12234 11.5072C9.3094 11.5072 9.47027 11.481 9.59747 11.4511C9.72841 11.4211 9.93792 11.3426 10.0651 11.279C10.211 11.2042 10.4018 11.0583 10.5664 10.8936C10.761 10.7028 10.8695 10.5495 10.9667 10.3474C11.0416 10.194 11.1201 9.95087 11.1463 9.80497C11.1688 9.65906 11.18 9.42711 11.1688 9.28121C11.1538 9.1353 11.1089 8.91832 11.0677 8.79486C11.0266 8.6714 10.9443 8.49557 10.8919 8.40204C10.8358 8.30851 10.6936 8.12893 10.5739 8.00173L10.3569 7.76604C10.5253 7.4892 10.6151 7.30214 10.66 7.16746C10.7273 6.97666 10.746 6.84198 10.746 6.53146C10.7497 6.22095 10.731 6.08627 10.6674 5.89547C10.6188 5.76079 10.529 5.56999 10.4654 5.46524C10.4018 5.36422 10.2784 5.20335 10.1961 5.11357C10.11 5.02378 9.93792 4.88536 9.81446 4.80305C9.691 4.72449 9.48524 4.62722 9.3543 4.58606L9.12234 4.51124C9.12234 3.9164 9.10738 3.83035 9.0363 3.71064C8.99141 3.62833 8.89413 3.52732 8.82305 3.48617C8.74449 3.44127 8.62477 3.41134 8.52376 3.41134C8.41153 3.41134 8.30677 3.44127 8.2095 3.50113C8.11598 3.56099 8.03367 3.65078 7.99252 3.74431C7.94762 3.84532 7.92518 3.98748 7.92518 4.18576V4.47383L7.45753 4.45512C7.42386 3.84532 7.40142 3.74431 7.34156 3.662C7.30041 3.60588 7.19191 3.51984 7.09838 3.4712C7.0086 3.42631 6.9001 3.3889 6.85895 3.39264C6.8178 3.39264 6.73549 3.41134 6.67189 3.43005C6.60829 3.44876 6.51851 3.50113 6.47361 3.54977ZM7.0273 5.671H8.91658L9.1186 5.77201C9.25329 5.84309 9.35804 5.92914 9.42912 6.03763C9.48524 6.12368 9.54884 6.26584 9.56754 6.35563C9.58251 6.44167 9.58625 6.5801 9.57128 6.6624C9.56006 6.74471 9.51891 6.86443 9.48898 6.92428C9.45531 6.98788 9.38048 7.08515 9.32437 7.14501C9.26451 7.20113 9.1635 7.27969 9.10364 7.31336C9.01011 7.362 8.83802 7.37322 7.0273 7.39193V5.671ZM7.0273 8.5891H8.14216C8.78564 8.5891 9.3094 8.60406 9.38422 8.62651C9.45531 8.64895 9.57502 8.70507 9.64611 8.75745C9.71719 8.80608 9.8182 8.91832 9.86683 9.0081C9.91921 9.09789 9.97159 9.23631 9.98655 9.31862C9.99777 9.40092 9.99403 9.53935 9.97907 9.62913C9.96036 9.71518 9.89676 9.85734 9.84065 9.94713C9.76956 10.0519 9.66481 10.1379 9.32811 10.31H7.0273V8.5891Z" fill="#FFC83D"/>
</svg>
