<svg width="25" height="19" viewBox="0 0 25 19" fill="none" xmlns="http://www.w3.org/2000/svg">
<path d="M20.2947 0.157879C20.3788 0.113776 20.5413 0.0586469 20.659 0.0310825C20.7711 -0.0019948 20.9785 -0.00750766 21.1187 0.00903099C21.2588 0.0255696 21.4718 0.0862113 21.5951 0.146853C21.7241 0.207495 22.2902 0.725705 22.918 1.34315C23.5851 2.00469 24.0559 2.51188 24.1176 2.64419C24.1737 2.76547 24.2353 3.00252 24.2465 3.16791C24.269 3.40497 24.2465 3.53176 24.1512 3.74676C24.0447 3.9783 22.8564 5.1746 16.8417 11.0899C11.5894 16.25 9.58824 18.185 9.40326 18.2732C9.22949 18.3614 9.05011 18.4 8.81468 18.4C8.61289 18.4 8.38867 18.3614 8.25414 18.3008C8.09719 18.2291 6.86398 17.0604 0.165451 10.4725L0.070158 10.1417C0.00849783 9.9267 -0.0139239 9.72824 0.00849792 9.57939C0.0253143 9.44708 0.0925799 9.24862 0.148635 9.13836C0.210295 9.02259 0.770841 8.4272 1.39865 7.81527C2.12736 7.10411 2.60943 6.6741 2.74957 6.61897C2.86168 6.56936 3.11393 6.53077 3.31012 6.53077C3.55115 6.53077 3.72492 6.56385 3.88187 6.64654C4.0108 6.71269 5.08705 7.72155 8.81468 11.3821L14.4762 5.80858C17.5928 2.74893 20.205 0.201982 20.2947 0.157879Z" fill="white"/>
</svg>
