<svg width="16" height="16" viewBox="0 0 16 16" fill="none" xmlns="http://www.w3.org/2000/svg">
<path fill-rule="evenodd" clip-rule="evenodd" d="M6.75844 0.00103793C11.2809 -0.00208748 11.3809 -0.00208748 11.6091 0.0604207C11.7372 0.0948002 11.931 0.160434 12.0404 0.204189C12.1466 0.247945 12.3248 0.344833 12.4373 0.419843C12.5498 0.491727 12.7405 0.657374 12.8592 0.78239C12.9811 0.910532 13.1312 1.09806 13.1905 1.20119C13.253 1.30433 13.3406 1.48561 13.3874 1.6075C13.4374 1.72939 13.5 1.97004 13.5781 2.46073L13.7812 2.47949C13.8938 2.48886 14.075 2.52324 14.1875 2.5545C14.3001 2.58888 14.4876 2.66076 14.6032 2.72014C14.722 2.77953 14.9126 2.89829 15.0251 2.9858C15.1408 3.07331 15.3158 3.24209 15.4158 3.36085C15.519 3.48274 15.6596 3.70152 15.7346 3.85779C15.8096 4.01094 15.9003 4.25159 15.9378 4.38911C16.0034 4.63914 16.0034 4.64852 15.994 9.28037C15.9846 13.5028 15.9784 13.9372 15.9315 14.0935C15.9034 14.1873 15.8503 14.3435 15.8159 14.4373C15.7815 14.5311 15.6846 14.7155 15.6002 14.8436C15.5158 14.9717 15.3658 15.1624 15.2627 15.2624C15.1627 15.3655 14.972 15.5156 14.8439 15.5999C14.7157 15.6843 14.5313 15.7812 14.4376 15.8156C14.3438 15.85 14.1625 15.9062 14.0406 15.9406C13.8187 15.9969 13.6562 16 9.21814 16C4.7238 16 4.61754 16 4.38939 15.9375C4.26124 15.9031 4.07372 15.8437 3.97683 15.8031C3.87682 15.7625 3.71117 15.675 3.60803 15.6093C3.50489 15.5437 3.32987 15.4062 3.22361 15.2999C3.11422 15.1936 2.9767 15.0468 2.92044 14.9686C2.86419 14.8905 2.7673 14.7311 2.70792 14.6092C2.64541 14.4873 2.56727 14.2842 2.53289 14.156C2.49851 14.0279 2.46413 13.8372 2.43288 13.5466L2.22348 13.5247C2.10784 13.5122 1.91719 13.4715 1.7953 13.434C1.67653 13.3997 1.47025 13.3153 1.34211 13.2465C1.21397 13.1809 1.02332 13.059 0.920183 12.9746C0.817044 12.8933 0.657648 12.734 0.567012 12.6214C0.476375 12.512 0.338857 12.2933 0.263847 12.1401C0.188837 11.987 0.0982005 11.7463 0.0606956 11.6088C-0.00493801 11.3588 -0.00493801 11.3494 0.00443821 6.71754C0.0138144 2.49511 0.0200653 2.06068 0.0669464 1.90441C0.095075 1.81065 0.148207 1.65438 0.182586 1.56062C0.216966 1.46685 0.316979 1.27933 0.40449 1.14494C0.488876 1.01367 0.642021 0.826146 0.742034 0.726133C0.838922 0.629245 1.02645 0.482351 1.15459 0.397965C1.28273 0.313579 1.46713 0.216691 1.56089 0.182312C1.65465 0.147932 1.82343 0.0916748 1.93594 0.0604207C2.12659 0.00728874 2.3985 0.00416333 6.75844 0.00103793ZM1.89218 1.41372C1.79217 1.46998 1.65153 1.57624 1.58277 1.65438C1.51088 1.73251 1.41087 1.88566 1.35774 1.99817L1.26398 2.20133C1.24835 10.6868 1.2546 11.19 1.29836 11.3588C1.32336 11.4619 1.37962 11.6026 1.42025 11.6713C1.46088 11.7401 1.56402 11.862 1.65153 11.9432C1.73904 12.0276 1.89218 12.1307 1.98907 12.1776L2.17035 12.2651H11.3903C11.6685 12.1307 11.8154 12.0307 11.8966 11.9557C11.981 11.8807 12.0904 11.7369 12.1435 11.6369C12.1998 11.5338 12.2592 11.3775 12.2779 11.2869C12.3029 11.1744 12.3123 9.83357 12.3123 6.75817C12.3123 2.91704 12.306 2.36697 12.2654 2.20133C12.2373 2.09819 12.1717 1.93879 12.1154 1.84503C12.0591 1.75439 11.9591 1.62938 11.8904 1.56999C11.8216 1.50748 11.6747 1.41372 11.5622 1.36059L11.359 1.2637C4.04247 1.25433 2.27974 1.2637 2.2016 1.28246C2.13284 1.30121 1.99532 1.35746 1.89218 1.41372ZM13.5468 11.4525C13.4093 11.8901 13.3281 12.0932 13.278 12.187C13.228 12.2808 13.1124 12.4558 13.0218 12.5777C12.9343 12.6964 12.7686 12.8683 12.6561 12.959C12.5436 13.0527 12.3467 13.1809 12.2185 13.2465C12.0904 13.3153 11.8872 13.4028 11.7653 13.4434L11.5466 13.5153L3.68617 13.5309C3.71742 13.7372 3.7518 13.8685 3.78306 13.9529C3.81431 14.0404 3.88619 14.1716 3.94558 14.2498C4.00496 14.3279 4.10497 14.431 4.17373 14.4811C4.23937 14.5342 4.37376 14.6092 4.46752 14.653L4.63942 14.7342H13.7969C14.1125 14.5873 14.2719 14.4811 14.3532 14.406C14.4532 14.3154 14.547 14.1841 14.6188 14.0341L14.7345 13.7997C14.7501 5.31111 14.7439 4.80792 14.7001 4.63914C14.6751 4.53601 14.6188 4.39536 14.5782 4.3266C14.5376 4.25784 14.4344 4.13595 14.3469 4.05469C14.2594 3.97031 14.1125 3.87029 14.0219 3.82654C13.9344 3.78591 13.7937 3.74215 13.7156 3.72965L13.575 3.70777L13.5468 11.4525Z" fill="#BBCAF3"/>
</svg>
