<svg width="29" height="21" viewBox="0 0 29 21" fill="none" xmlns="http://www.w3.org/2000/svg">
<path d="M27.9729 6.26565L20.4316 9.33621C20.2006 9.43094 19.9372 9.34083 19.8101 9.12596L14.7618 0.246987C14.5654 -0.0880254 14.0756 -0.0810938 13.8908 0.26085L8.59761 9.14907C8.47516 9.37549 8.1979 9.47253 7.95993 9.37087L0.698255 6.26565C0.305482 6.09699 -0.103464 6.46897 0.0236098 6.8756L4.31639 20.5464C4.38108 20.7543 4.57515 20.8976 4.79464 20.8976L23.1718 20.9022C23.382 20.9022 23.5692 20.7705 23.6431 20.5741L28.6336 6.90102C28.7815 6.49207 28.3772 6.10161 27.9752 6.26565H27.9729ZM17.4003 12.8943L13.8099 19.2479C13.7591 19.3381 13.6251 19.3034 13.6205 19.2017L13.4749 15.3549H12.2204V15.341C12.188 15.3456 12.1557 15.3549 12.121 15.3549H9.51716C9.44092 15.3549 9.3924 15.2717 9.42705 15.2047L13.297 8.03544C13.4333 7.79978 13.6829 7.65653 13.9532 7.65653H16.557C16.6333 7.65653 16.6818 7.7397 16.6471 7.80671L13.9809 12.7441H17.3102C17.3888 12.7441 17.4373 12.8273 17.398 12.8966L17.4003 12.8943Z" fill="#112F82"/>
</svg>
