<svg width="16" height="16" viewBox="0 0 16 16" fill="none" xmlns="http://www.w3.org/2000/svg">
<path fill-rule="evenodd" clip-rule="evenodd" d="M7.91767 0.000303938C8.01312 -0.00287755 8.31536 0.0193929 8.58578 0.0448447C8.85621 0.0734781 9.23481 0.1212 9.42888 0.156197C9.62295 0.191193 9.92837 0.261186 10.1129 0.31209C10.2974 0.362993 10.5615 0.448894 10.7015 0.499797C10.8415 0.553883 11.0769 0.649327 11.2264 0.712957C11.3759 0.779768 11.64 0.913391 11.815 1.00884C11.99 1.10428 12.254 1.26654 12.4036 1.36516C12.5531 1.46379 12.8172 1.66104 12.9921 1.80103C13.1671 1.94101 13.4885 2.24325 13.708 2.46596C13.9275 2.69184 14.2075 3.01317 14.3347 3.17861C14.4588 3.34405 14.6433 3.61129 14.742 3.76718C14.8406 3.92626 15.0283 4.26986 15.1556 4.53074C15.286 4.7948 15.4483 5.17976 15.5214 5.38974C15.5946 5.59972 15.6932 5.94332 15.7441 6.1533C15.795 6.36328 15.865 6.73869 15.9 6.99003C15.9477 7.30182 15.9668 7.60724 15.9668 7.97629C15.9668 8.26899 15.9446 8.6794 15.9191 8.88938C15.8905 9.09936 15.8396 9.42069 15.8046 9.60521C15.7664 9.78974 15.6869 10.1047 15.6264 10.3051C15.566 10.5056 15.4514 10.8269 15.3751 11.021C15.2955 11.215 15.1524 11.5205 15.0537 11.705C14.9583 11.8895 14.7865 12.1822 14.672 12.3572C14.5574 12.5322 14.3697 12.7962 14.252 12.9458C14.1375 13.0953 13.8511 13.4103 13.6125 13.6489C13.3771 13.8843 13.0621 14.1738 12.9126 14.2884C12.7631 14.4029 12.5054 14.5842 12.3399 14.6924C12.1745 14.8038 11.9232 14.9533 11.7832 15.0296C11.6432 15.106 11.3823 15.2333 11.201 15.3128C11.0228 15.3955 10.7078 15.5164 10.5042 15.5832C10.2974 15.6532 9.96337 15.7455 9.76293 15.79C9.5625 15.8346 9.19663 15.9014 8.95166 15.9364C8.64623 15.9809 8.34081 16 7.9813 16C7.62179 16 7.31637 15.9809 7.01095 15.9364C6.76597 15.9014 6.4001 15.8346 6.19967 15.79C5.99924 15.7455 5.66518 15.6532 5.45838 15.5832C5.25477 15.5164 4.92389 15.386 4.72982 15.3001C4.53257 15.211 4.23987 15.0646 4.08398 14.9756C3.92809 14.8865 3.66084 14.721 3.49541 14.6065C3.32997 14.492 3.09454 14.3202 2.97046 14.2215C2.84956 14.1229 2.60777 13.9066 2.43279 13.7411C2.26099 13.5757 2.00329 13.3021 1.86648 13.1367C1.7265 12.9712 1.49425 12.6563 1.3479 12.4367C1.20155 12.2172 1.0043 11.8895 0.905675 11.705C0.81023 11.5205 0.667063 11.215 0.587526 11.021C0.51117 10.8269 0.396637 10.5056 0.336189 10.3051C0.27574 10.1047 0.196203 9.78974 0.158025 9.60521C0.123029 9.42069 0.0689437 9.09299 0.0403103 8.87347C0.00213249 8.57123 -0.00741197 8.32625 0.00531398 7.83949C0.0148584 7.48952 0.0434918 7.05366 0.0721252 6.86913C0.10394 6.68461 0.164388 6.37918 0.208929 6.18511C0.25347 5.99104 0.355278 5.65062 0.431633 5.42156C0.507989 5.19249 0.670245 4.80753 0.78796 4.56256C0.905675 4.31758 1.09338 3.97398 1.20155 3.799C1.31291 3.62402 1.50379 3.34405 1.62787 3.17861C1.75513 3.01317 2.0351 2.69184 2.25463 2.46596C2.47415 2.24325 2.79548 1.94101 2.97046 1.80103C3.14544 1.66104 3.4095 1.46379 3.55903 1.36516C3.70856 1.26654 3.89309 1.14882 3.97263 1.10428C4.05217 1.05974 4.27169 0.945205 4.46576 0.846579C4.65983 0.751135 4.95253 0.620694 5.11796 0.553883C5.2834 0.490253 5.58564 0.388445 5.78608 0.331179C5.98651 0.273912 6.32375 0.197556 6.53373 0.159378C6.7437 0.1212 7.10003 0.0702966 7.3291 0.0480262C7.55816 0.0225743 7.82223 0.00348542 7.91767 0.000303938ZM7.47226 2.63776C7.38636 2.72047 7.31001 2.83501 7.28774 2.90818C7.26865 2.97818 7.24956 3.16906 7.24956 3.32814V3.62402C7.11276 3.65265 6.99504 3.68447 6.8996 3.70992C6.80415 3.73855 6.61644 3.80536 6.486 3.85945C6.35556 3.91671 6.14558 4.02488 6.02469 4.1076C5.90379 4.18714 5.70654 4.35576 5.58882 4.47984C5.43929 4.63573 5.3343 4.78526 5.24522 4.9666C5.17523 5.11295 5.09569 5.33248 5.07024 5.45337C5.04479 5.57427 5.02252 5.78743 5.02252 5.92105C5.02252 6.05785 5.04479 6.28056 5.07024 6.41418C5.10206 6.56371 5.17841 6.78005 5.26749 6.96458C5.39157 7.2191 5.45838 7.31136 5.68745 7.53725C5.85925 7.70586 6.0565 7.86176 6.21558 7.9572C6.35556 8.03674 6.556 8.13855 6.66098 8.17991C6.76597 8.22445 6.99504 8.29444 7.17002 8.34216C7.345 8.3867 7.65997 8.44715 7.86995 8.47578C8.07993 8.50442 8.3599 8.56487 8.49034 8.60623C8.62078 8.65077 8.78622 8.72076 8.85621 8.75894C8.9262 8.80029 9.0471 8.90528 9.12664 8.99119C9.20617 9.07709 9.3048 9.21707 9.34616 9.30297C9.38752 9.39205 9.43524 9.54795 9.45433 9.65293C9.48296 9.80883 9.47978 9.88518 9.43206 10.0665C9.40025 10.197 9.33662 10.3433 9.28253 10.4165C9.23163 10.4865 9.12664 10.5915 9.05346 10.6487C8.98029 10.706 8.84985 10.7887 8.76077 10.8301C8.67168 10.8714 8.50943 10.9287 8.3949 10.9542C8.28036 10.9828 8.05766 11.0051 7.90176 11.0051C7.74587 11.0051 7.49135 10.9828 7.33546 10.9573C7.18275 10.9319 6.95368 10.8714 6.8296 10.8237C6.67689 10.7665 6.49555 10.6583 6.29511 10.5088C6.12968 10.3815 5.93879 10.2574 5.87516 10.2288C5.80835 10.2001 5.69063 10.1779 5.61109 10.1779C5.53156 10.1779 5.43293 10.1906 5.38839 10.2097C5.34385 10.2288 5.25159 10.2956 5.18159 10.3592C5.10206 10.4324 5.03206 10.5374 5.00343 10.6233C4.97798 10.7028 4.95889 10.8015 4.95889 10.846C4.95889 10.8905 4.9748 10.9828 4.99389 11.0528C5.01934 11.1355 5.09887 11.25 5.22613 11.3805C5.33112 11.4918 5.51247 11.6445 5.627 11.7177C5.74153 11.7941 5.93561 11.9054 6.0565 11.9691C6.1774 12.0295 6.37147 12.1122 6.486 12.1504C6.60054 12.1886 6.8137 12.2427 6.96323 12.2745L7.23365 12.3286C7.26229 12.8821 7.28456 13.0253 7.31955 13.0889C7.34819 13.1398 7.41818 13.2289 7.47863 13.2862C7.53589 13.3435 7.6377 13.4103 7.70451 13.4357C7.76814 13.4644 7.8954 13.4866 7.9813 13.4866C8.07038 13.4866 8.19446 13.4644 8.26127 13.4357C8.3249 13.4103 8.42035 13.3498 8.46807 13.3021C8.51897 13.2544 8.58897 13.1589 8.62714 13.0889C8.67805 12.9903 8.69396 12.8853 8.70668 12.6276L8.71941 12.2936C9.0471 12.2077 9.25072 12.1345 9.38116 12.0772C9.5116 12.02 9.71839 11.9086 9.84247 11.8259C9.96655 11.7464 10.1574 11.5809 10.272 11.46C10.3865 11.3359 10.5329 11.1451 10.5997 11.0337C10.6665 10.9223 10.7556 10.7156 10.8001 10.5756C10.8669 10.3783 10.8892 10.232 10.9019 9.92336C10.9115 9.6243 10.9019 9.45886 10.8637 9.25525C10.8287 9.08981 10.7556 8.87029 10.6665 8.68894C10.5647 8.4726 10.4692 8.3358 10.3133 8.17036C10.1924 8.04628 9.98246 7.86812 9.84247 7.77268C9.70249 7.68041 9.47978 7.55952 9.34934 7.50543C9.2189 7.45134 9.0121 7.38135 8.88803 7.34954C8.76395 7.31454 8.44262 7.25727 8.17219 7.2191C7.90177 7.18092 7.54862 7.10774 7.39273 7.05684C7.22729 7.00594 7.03322 6.91686 6.93459 6.84686C6.83915 6.78005 6.71189 6.66552 6.65462 6.58916C6.59735 6.51599 6.53372 6.40145 6.51464 6.33464C6.49873 6.27101 6.47328 6.13103 6.46373 6.02604C6.45101 5.89878 6.46161 5.77682 6.49555 5.66017C6.52736 5.552 6.59417 5.4311 6.67053 5.34202C6.73734 5.26248 6.8646 5.16068 6.9505 5.11295C7.0364 5.06523 7.22093 4.99842 7.36091 4.96024C7.54226 4.9157 7.71406 4.89661 7.94949 4.89661C8.13401 4.89661 8.38217 4.91888 8.50625 4.94752C8.63032 4.97297 8.80849 5.0366 8.90393 5.0875C8.99938 5.14159 9.19345 5.29748 9.33343 5.44065C9.47342 5.58381 9.64204 5.72698 9.70885 5.75879C9.77248 5.79061 9.88065 5.81924 9.94746 5.81924C10.0111 5.81924 10.1383 5.78425 10.2242 5.74607C10.3133 5.70471 10.431 5.61563 10.4883 5.54564C10.5456 5.47882 10.606 5.36747 10.6219 5.30066C10.641 5.23703 10.6442 5.12886 10.6347 5.06205C10.6251 4.99842 10.5838 4.88707 10.5424 4.81707C10.5042 4.74708 10.3642 4.57528 10.237 4.43848C10.1065 4.29849 9.90292 4.12033 9.77884 4.03761C9.65476 3.95807 9.44797 3.84672 9.31753 3.79264C9.18709 3.73855 8.9962 3.67492 8.89757 3.65265L8.71941 3.60811C8.69714 2.96227 8.69077 2.92409 8.59851 2.77774C8.53806 2.6823 8.4458 2.58685 8.34717 2.5264C8.22946 2.45323 8.14992 2.43096 8.0163 2.4246C7.91767 2.42142 7.78723 2.43414 7.72678 2.45641C7.66633 2.4755 7.5518 2.55822 7.47226 2.63776Z" fill="#1463FF"/>
</svg>
