<svg width="16" height="16" viewBox="0 0 16 16" fill="none" xmlns="http://www.w3.org/2000/svg">
<path fill-rule="evenodd" clip-rule="evenodd" d="M7.95312 0.000383677C8.42813 -0.00274132 8.68125 0.0128837 9.00937 0.0597587C9.24375 0.0941337 9.575 0.153509 9.74375 0.187884C9.90937 0.225384 10.2219 0.309759 10.4375 0.378509C10.6531 0.447259 10.9906 0.575384 11.1875 0.659759C11.3844 0.744134 11.6875 0.891009 11.8594 0.987884C12.0312 1.08476 12.2906 1.24101 12.4375 1.34101C12.5844 1.43788 12.8438 1.63163 13.0156 1.76913C13.1875 1.90663 13.475 2.16601 13.6531 2.34413C13.8313 2.52226 14.0906 2.80976 14.2281 2.98163C14.3656 3.15351 14.5594 3.41288 14.6562 3.55976C14.7531 3.70663 14.9062 3.95663 14.9937 4.11601C15.0844 4.27226 15.2219 4.54726 15.3 4.72538C15.3813 4.90038 15.5125 5.24726 15.5938 5.49726C15.6781 5.74726 15.7719 6.08476 15.8062 6.24726C15.8438 6.40976 15.9 6.74413 15.9344 6.99101C15.9812 7.30351 16 7.59413 16 7.97538C16 8.27851 15.9781 8.67538 15.9531 8.88788C15.925 9.09413 15.8687 9.43476 15.8281 9.64726C15.7844 9.85663 15.6813 10.2348 15.5969 10.491C15.5125 10.7441 15.3875 11.0785 15.3188 11.2316C15.2469 11.3848 15.1094 11.6598 15.0125 11.841C14.9156 12.0223 14.7531 12.2879 14.6562 12.4348C14.5594 12.5816 14.3656 12.841 14.2281 13.0129C14.0906 13.1848 13.8313 13.4723 13.6531 13.6504C13.475 13.8285 13.1875 14.0879 13.0156 14.2254C12.8438 14.3629 12.5844 14.5566 12.4375 14.6535C12.2906 14.7535 12.0188 14.9191 11.8281 15.0223C11.6375 15.1254 11.3375 15.2723 11.1562 15.3504C10.975 15.4254 10.6531 15.5473 10.4375 15.616C10.2219 15.6848 9.90937 15.7691 9.74375 15.8066C9.575 15.841 9.24375 15.9004 9.00937 15.9348C8.7 15.9785 8.4125 15.9973 8 15.9973C7.575 15.9973 7.30625 15.9816 6.98438 15.9316C6.74375 15.8973 6.4125 15.841 6.25 15.8035C6.0875 15.7691 5.75 15.6754 5.5 15.591C5.25 15.5098 4.90312 15.3785 4.725 15.2973C4.55 15.2191 4.275 15.0816 4.11875 14.991C3.95938 14.9035 3.70937 14.7504 3.5625 14.6535C3.41563 14.5566 3.15625 14.3629 2.98438 14.2254C2.8125 14.0879 2.525 13.8285 2.34687 13.6504C2.16875 13.4723 1.90938 13.1848 1.77188 13.0129C1.63437 12.841 1.44062 12.5816 1.34375 12.4348C1.24375 12.2879 1.09375 12.0379 1.00312 11.8816C0.915625 11.7223 0.778125 11.4473 0.7 11.2723C0.61875 11.0941 0.4875 10.7473 0.40625 10.4973C0.321875 10.2473 0.228125 9.90976 0.19375 9.74726C0.15625 9.58476 0.1 9.25038 0.065625 9.00663C0.01875 8.69101 0 8.40038 0 8.02226C0 7.71601 0.021875 7.31913 0.046875 7.10663C0.075 6.90038 0.13125 6.56288 0.171875 6.35663C0.2125 6.15038 0.30625 5.80038 0.378125 5.57538C0.45 5.35038 0.575 5.01601 0.653125 4.82538C0.734375 4.63476 0.884375 4.33476 0.984375 4.15351C1.08438 3.97226 1.24375 3.70663 1.34375 3.55976C1.44062 3.41288 1.63437 3.15351 1.77188 2.98163C1.90938 2.80976 2.16875 2.52226 2.34687 2.34413C2.525 2.16601 2.8125 1.90663 2.98438 1.76913C3.15625 1.63163 3.41563 1.43788 3.5625 1.34101C3.70937 1.24101 3.975 1.08163 4.15625 0.981634C4.3375 0.881634 4.6375 0.731634 4.82812 0.650384C5.01875 0.572259 5.34688 0.447259 5.5625 0.378509C5.77812 0.309759 6.09375 0.225384 6.26562 0.187884C6.4375 0.150384 6.74687 0.0941337 6.95312 0.0628837C7.21562 0.0222587 7.51562 0.00350868 7.95312 0.000383677ZM7 1.32538C6.81875 1.35038 6.50938 1.41288 6.3125 1.46601C6.11562 1.51601 5.78438 1.62226 5.57812 1.70038C5.37187 1.77851 5.05625 1.92226 4.875 2.01601C4.69375 2.11288 4.4125 2.27851 4.25 2.38788C4.0875 2.49726 3.81875 2.69726 3.65625 2.83476C3.49375 2.96913 3.24688 3.20038 3.1125 3.34413C2.975 3.48788 2.76875 3.73163 2.64687 3.88788C2.52812 4.04101 2.35625 4.28788 2.26562 4.43476C2.175 4.58163 2.04375 4.81913 1.96875 4.96601C1.89688 5.11288 1.775 5.38476 1.7 5.57538C1.625 5.76601 1.52187 6.08788 1.47187 6.29413C1.41875 6.50038 1.35 6.82226 1.32187 7.01288C1.28437 7.25663 1.26875 7.54413 1.26875 7.99726C1.26875 8.45038 1.28437 8.73788 1.32187 8.98163C1.35 9.17226 1.41875 9.49413 1.47187 9.70038C1.52187 9.90663 1.625 10.2285 1.7 10.4191C1.775 10.6098 1.89688 10.8816 1.96875 11.0285C2.04375 11.1754 2.175 11.4129 2.26562 11.5598C2.35625 11.7066 2.52812 11.9535 2.64687 12.1066C2.76875 12.2598 2.975 12.5066 3.1125 12.6504C3.24688 12.7941 3.49375 13.0254 3.65625 13.1598C3.81875 13.2973 4.0875 13.4973 4.25 13.6066C4.4125 13.7129 4.69375 13.8816 4.875 13.9785C5.05625 14.0723 5.37187 14.216 5.57812 14.2941C5.78438 14.3723 6.11562 14.4785 6.3125 14.5285C6.50938 14.5785 6.81875 14.6441 7 14.6754C7.23125 14.7129 7.525 14.7285 7.98438 14.7285C8.45938 14.7285 8.73438 14.716 8.98438 14.6754C9.175 14.6473 9.49687 14.5785 9.70312 14.5254C9.90938 14.4754 10.2406 14.3691 10.4375 14.291C10.6344 14.2129 10.9312 14.0816 11.0938 13.9973C11.2563 13.9129 11.5375 13.7473 11.7188 13.6285C11.9 13.5066 12.1812 13.2973 12.3438 13.1629C12.5063 13.0254 12.7625 12.7816 12.9156 12.6191C13.0656 12.4566 13.2937 12.1848 13.4219 12.0129C13.55 11.841 13.7438 11.5473 13.85 11.3566C13.9594 11.1691 14.1219 10.841 14.2125 10.6316C14.3 10.4191 14.4156 10.1035 14.4656 9.92538C14.5188 9.75038 14.5875 9.46601 14.6219 9.29413C14.6562 9.12226 14.7 8.80663 14.7219 8.59101C14.7438 8.35663 14.75 8.01913 14.7406 7.74726C14.7281 7.49726 14.6969 7.15351 14.6719 6.98163C14.6469 6.80976 14.5813 6.50038 14.5281 6.29413C14.475 6.08788 14.3687 5.75663 14.2937 5.55976C14.2156 5.36288 14.0844 5.06601 14 4.90351C13.9156 4.74101 13.75 4.45976 13.6313 4.27851C13.5094 4.09726 13.3 3.81601 13.1656 3.65351C13.0281 3.49101 12.7969 3.24413 12.6531 3.10976C12.5094 2.97226 12.2625 2.76601 12.1094 2.64413C11.9563 2.52538 11.7094 2.35351 11.5625 2.26288C11.4156 2.17226 11.1781 2.04101 11.0312 1.96601C10.8844 1.89413 10.6031 1.76913 10.4062 1.69413C10.2094 1.61601 9.88437 1.51288 9.6875 1.46288C9.49063 1.41288 9.1875 1.35038 9.01562 1.32538C8.84375 1.29726 8.45 1.26913 8.14062 1.26288C7.83125 1.25976 7.52187 1.25976 7.45312 1.26601C7.38438 1.27226 7.18125 1.30038 7 1.32538ZM7.98438 4.25038C8.06875 4.24726 8.20312 4.26913 8.28125 4.29413C8.35938 4.31913 8.47188 4.38163 8.53125 4.43163C8.59062 4.47851 8.68125 4.59413 8.73438 4.68788C8.81563 4.83476 8.82812 4.88788 8.82812 5.09101C8.82812 5.26913 8.80937 5.35663 8.75937 5.45038C8.72187 5.51913 8.64687 5.62226 8.5875 5.68163C8.53125 5.74101 8.42813 5.81288 8.35938 5.84413C8.29062 5.87538 8.17188 5.90976 8.09375 5.92226C8 5.93476 7.89062 5.92538 7.77187 5.89101C7.65 5.85663 7.55 5.80038 7.45 5.70976C7.36875 5.63476 7.275 5.51913 7.24062 5.45038C7.19062 5.35663 7.17188 5.26913 7.17188 5.09101C7.17188 4.88788 7.18437 4.83476 7.26562 4.68788C7.31875 4.59413 7.40938 4.47851 7.46875 4.43163C7.52812 4.38163 7.63438 4.31913 7.70312 4.29726C7.77187 4.27226 7.9 4.25038 7.98438 4.25038ZM7.98438 6.68476C8.01875 6.68476 8.1 6.70038 8.16562 6.71601C8.22812 6.73476 8.3375 6.80038 8.40938 6.86288C8.47813 6.92851 8.55625 7.03788 8.58125 7.10663C8.61875 7.21288 8.625 7.55038 8.60938 11.5535L8.51562 11.6879C8.46562 11.7598 8.35938 11.8535 8.28125 11.8973C8.16875 11.9566 8.10312 11.9691 7.9625 11.9598C7.82812 11.9535 7.75625 11.9285 7.65312 11.8566C7.57812 11.8035 7.4875 11.7004 7.375 11.4816V9.34101C7.375 7.32538 7.38125 7.19413 7.43437 7.07538C7.46562 7.00663 7.53125 6.91288 7.58125 6.86288C7.63125 6.81601 7.72813 6.75663 7.79688 6.73163C7.86562 6.70663 7.95 6.68788 7.98438 6.68476Z" fill="#A5B8EF"/>
</svg>
