<svg width="22" height="29" viewBox="0 0 22 29" fill="none" xmlns="http://www.w3.org/2000/svg">
<path fill-rule="evenodd" clip-rule="evenodd" d="M10.7109 0.000647497C10.8059 -0.00529074 11.18 0.0303387 11.5423 0.0778446C11.9045 0.12535 12.3736 0.208486 12.5993 0.255992C12.819 0.309436 13.2466 0.446015 13.5435 0.56478C13.8463 0.677607 14.2798 0.879507 14.5114 1.01015C14.743 1.14673 15.0993 1.37832 15.3131 1.52677C15.5268 1.67523 15.9247 2.02559 16.2038 2.30468C16.4829 2.58972 16.8867 3.08259 17.1064 3.4092C17.3261 3.7358 17.5933 4.20492 17.7062 4.44839C17.819 4.69186 17.9675 5.06596 18.0328 5.27974C18.104 5.49352 18.205 5.85575 18.2644 6.0814C18.3416 6.41394 18.3653 6.96026 18.4306 11.2358L18.8166 11.3189C19.0304 11.3605 19.4045 11.4911 19.648 11.6099C19.9805 11.7702 20.2062 11.9365 20.5446 12.275C20.8475 12.5838 21.0553 12.8569 21.18 13.1182C21.281 13.332 21.4116 13.6645 21.471 13.8605C21.5542 14.1574 21.572 14.579 21.5957 16.503C21.6076 17.9579 21.5957 19.0565 21.5482 19.5315C21.5126 19.9412 21.4294 20.5529 21.3582 20.8973C21.2929 21.2417 21.1622 21.7643 21.0672 22.0553C20.9663 22.3462 20.7584 22.8569 20.604 23.1835C20.4496 23.5101 20.2062 23.9614 20.0637 24.193C19.9271 24.4246 19.642 24.8225 19.4401 25.0838C19.2323 25.345 18.8285 25.7904 18.5375 26.0755C18.2525 26.3545 17.7596 26.7762 17.4508 27.0137C17.1361 27.2453 16.5304 27.6135 16.085 27.8332C15.6456 28.0588 15.0161 28.326 14.6895 28.427C14.3629 28.5339 13.8938 28.6586 13.6504 28.7061C13.4069 28.7595 12.8724 28.8367 12.4627 28.8842C12.053 28.9317 11.3048 28.9733 10.8 28.9733C10.2952 28.9733 9.53516 28.9317 9.1076 28.8783C8.68005 28.8308 8.10998 28.7417 7.83088 28.6823C7.55178 28.617 7.11236 28.4983 6.85107 28.4092C6.58979 28.326 6.10879 28.1241 5.78219 27.9697C5.45559 27.8154 4.99834 27.5719 4.77269 27.4294C4.54704 27.2928 4.14324 27.0078 3.88195 26.8059C3.62067 26.598 3.16343 26.1823 2.86651 25.8795C2.57554 25.5707 2.20737 25.161 2.05891 24.965C1.9164 24.769 1.68481 24.4365 1.54823 24.2227C1.41758 24.0089 1.17412 23.5576 1.00785 23.2132C0.847513 22.8688 0.633737 22.3462 0.532787 22.0553C0.437775 21.7643 0.307134 21.2417 0.241813 20.8973C0.176493 20.5529 0.0874189 19.965 0.0517895 19.5909C0.0042836 19.1455 -0.00759287 18.0945 0.0042836 16.5624C0.0280366 14.5909 0.0458513 14.1574 0.128987 13.8605C0.188369 13.6645 0.31901 13.332 0.41996 13.1182C0.544663 12.8569 0.752502 12.5838 1.05535 12.275C1.39383 11.9365 1.61948 11.7702 1.95203 11.6099C2.19549 11.4911 2.5696 11.3605 3.16936 11.2358L3.20499 8.86644C3.23469 6.96026 3.25844 6.41394 3.33564 6.0814C3.39502 5.85575 3.49597 5.49352 3.56723 5.27974C3.63255 5.06596 3.781 4.69186 3.89383 4.44839C4.00666 4.20492 4.27388 3.7358 4.49359 3.4092C4.71331 3.08259 5.11711 2.58972 5.3962 2.31062C5.6753 2.03152 6.06722 1.68711 6.27506 1.53865C6.47696 1.3902 6.82732 1.17048 7.04703 1.03984C7.26675 0.915136 7.65867 0.725112 7.91995 0.618224C8.18124 0.505398 8.60879 0.36288 8.87007 0.297559C9.13136 0.226301 9.61235 0.137227 9.93896 0.0897211C10.2656 0.0481534 10.61 0.00658573 10.7109 0.000647497ZM9.40451 3.59328C9.24418 3.64673 8.94727 3.77143 8.75131 3.87238C8.55535 3.96739 8.22281 4.18711 8.01497 4.35338C7.80713 4.51965 7.51615 4.81656 7.37364 5.01252C7.22518 5.20848 7.02922 5.52915 6.94015 5.72511C6.84513 5.92107 6.70855 6.29518 6.6373 6.55646C6.51259 6.99589 6.50072 7.17998 6.4829 9.12772L6.46509 11.218H15.1349C15.0993 7.18592 15.0874 6.99589 14.9627 6.55646C14.8914 6.29518 14.743 5.89138 14.6302 5.66573C14.5173 5.44007 14.2976 5.09566 14.1432 4.90563C13.9829 4.71561 13.7276 4.45433 13.5613 4.32368C13.4009 4.19304 13.0922 3.99708 12.8784 3.89019C12.6646 3.77737 12.3083 3.62891 12.0767 3.55765C11.7679 3.46264 11.477 3.42107 10.9485 3.40326C10.5565 3.39138 10.1171 3.4092 9.96865 3.43889C9.82019 3.47452 9.57079 3.53984 9.40451 3.59328ZM9.76081 16.7524C9.65986 16.7999 9.45202 16.9721 9.29763 17.1325C9.13729 17.2928 8.93539 17.5719 8.85226 17.75C8.70974 18.041 8.69193 18.1479 8.69193 18.7002C8.69193 19.2405 8.70974 19.3652 8.83444 19.6206C8.91758 19.7869 9.15511 20.0838 9.38076 20.3035L9.77862 20.6895C9.82019 22.8154 9.83207 22.9698 9.93896 23.1479C10.0043 23.2607 10.1349 23.4032 10.224 23.4745C10.3546 23.5695 10.4793 23.5992 10.7881 23.5992C11.1029 23.5992 11.2276 23.5695 11.3819 23.4686C11.4829 23.3914 11.6195 23.2429 11.6729 23.142C11.762 22.9816 11.7798 22.7441 11.7976 21.8177L11.8214 20.6895C12.4449 20.0838 12.6824 19.7869 12.7656 19.6206C12.8903 19.3652 12.9081 19.2405 12.9081 18.7002C12.9081 18.1479 12.8903 18.041 12.7477 17.75C12.6646 17.5719 12.4686 17.2987 12.3202 17.1443C12.1717 16.984 11.8926 16.788 11.7086 16.699C11.4413 16.5743 11.2572 16.5327 10.8891 16.5208C10.604 16.5089 10.319 16.5386 10.1765 16.5802C10.0458 16.6277 9.86176 16.7049 9.76081 16.7524Z" fill="white"/>
</svg>
