<svg width="20" height="12" viewBox="0 0 20 12" fill="none" xmlns="http://www.w3.org/2000/svg">
<path d="M14.0789 1.63744e-05C15.6488 1.63744e-05 17.1545 0.623678 18.2646 1.7338C19.3747 2.84393 19.9984 4.34958 19.9984 5.91954C19.9984 7.48949 19.3747 8.99514 18.2646 10.1053C17.1545 11.2154 15.6488 11.8391 14.0789 11.8391C12.7194 11.842 11.4013 11.3722 10.3502 10.5102C11.1397 9.75188 11.7215 8.80374 12.04 7.75639H11.5481C11.2418 8.68887 10.7077 9.53021 9.99419 10.2042C9.28509 9.52982 8.75488 8.68967 8.45131 7.75939H7.95935C8.27378 8.80235 8.84923 9.74779 9.63122 10.5062C8.58433 11.3645 7.27331 11.8353 5.91952 11.8391C4.34956 11.8391 2.84391 11.2154 1.73379 10.1053C0.623662 8.99514 0 7.48949 0 5.91954C0 4.34958 0.623662 2.84393 1.73379 1.7338C2.84391 0.623678 4.34956 1.63744e-05 5.91952 1.63744e-05C7.3294 1.63744e-05 8.6143 0.509975 9.63122 1.33291C8.84923 2.09128 8.27378 3.03672 7.95935 4.07968H8.45131C8.75488 3.1494 9.28509 2.30925 9.99419 1.63488C10.7077 2.30886 11.2418 3.1502 11.5481 4.08268H12.04C11.7215 3.03533 11.1397 2.08719 10.3502 1.32891C11.4015 0.466604 12.7201 -0.0031969 14.0799 1.63744e-05M16.0577 5.1156L15.6487 7.30542H16.2507L16.4357 6.3035C16.6036 5.68155 16.8626 5.68355 17.0146 5.68655H17.0376L17.1996 5.1166C16.8986 5.1166 16.7206 5.22359 16.6286 5.33158L16.5747 5.1156H16.0577ZM8.32432 4.55965H7.72837L7.3164 6.63648C7.20141 7.23143 7.65238 7.31642 7.78937 7.31642C7.9441 7.32144 8.09727 7.2841 8.23233 7.20843L8.27033 6.76647C7.92735 6.81946 7.91136 6.66647 7.94235 6.49849L8.11034 5.61256H8.41532L8.52231 5.1396H8.20233L8.32432 4.55965ZM9.49223 5.1096C8.5593 5.1096 8.41632 6.00653 8.38832 6.18651L8.38532 6.20051C8.36232 6.3385 8.34732 7.30842 9.37824 7.30842C9.63022 7.31542 9.99619 7.28542 10.1422 7.20843L10.2332 6.75847C10.0111 6.79501 9.7863 6.81274 9.56122 6.81146H9.54122C9.30324 6.81146 8.94527 6.81246 9.01127 6.3315H10.3092C10.3792 5.97953 10.5391 5.1096 9.49223 5.1096ZM7.30141 5.1846C7.05443 5.0906 6.85444 5.0966 6.75145 5.0996H6.70845C6.60746 5.0996 5.91152 5.0996 5.80353 5.61956C5.71953 6.02453 5.86752 6.19151 6.00951 6.25351C6.1595 6.3185 6.26649 6.3795 6.35748 6.43149C6.40415 6.45949 6.44881 6.48416 6.49147 6.50549C6.64146 6.58048 6.61446 6.83346 6.41448 6.83346L6.34248 6.83646C6.1885 6.84546 5.87452 6.86246 5.62854 6.78047L5.54455 7.23043C5.81953 7.30742 6.04051 7.30742 6.24649 7.30742H6.26949C6.45447 7.30942 7.10642 7.31542 7.20041 6.68847C7.24941 6.3685 7.10942 6.22251 6.99443 6.15452C6.85797 6.06539 6.71528 5.98619 6.56747 5.91754C6.44548 5.86354 6.35348 5.65756 6.57447 5.59756C6.71245 5.58156 6.99443 5.58156 7.16242 5.62756L7.30141 5.1846ZM3.79669 4.66464H2.81877L2.09383 6.26851L1.97884 4.66464H1.02492L0.512958 7.30742H1.10891L1.47488 5.39758L1.63487 7.30742H2.20082L3.03275 5.44357L2.68178 7.30742H3.29873L3.79669 4.66464ZM3.86469 5.65056L4.00867 5.63256C4.18866 5.60956 4.44964 5.57556 4.60563 5.58156L4.66562 5.58256C4.8526 5.58656 5.03459 5.59056 4.9726 5.88654C4.95193 5.88787 4.9186 5.88787 4.8726 5.88654C4.55963 5.87654 3.7287 5.85154 3.58271 6.65048C3.51371 7.10044 3.90268 7.33042 4.20866 7.31442C4.51363 7.29942 4.59863 7.26143 4.70462 7.18443L4.78161 7.30742H5.33857L5.57555 6.11552C5.63654 5.81854 5.73553 5.1006 4.73561 5.1006L4.63962 5.1036C4.47764 5.1076 4.27965 5.1136 3.95668 5.1766L3.86469 5.65056ZM13.1499 5.1696C13.3489 5.1696 13.4549 5.18459 13.6079 5.27559L13.9979 4.88662C13.8449 4.71863 13.6689 4.55365 13.1809 4.53565C12.768 4.51965 12.061 4.82062 11.837 5.64256C11.5311 6.75747 12.203 7.30742 12.822 7.30742C13.1499 7.30742 13.3489 7.26143 13.5469 7.16943L13.3709 6.63548C12.761 6.84146 12.325 6.52849 12.425 5.89454C12.508 5.35858 12.9509 5.1686 13.1499 5.1686M18.6015 5.28759C18.5215 5.20359 18.4295 5.1076 18.2195 5.1076H18.1655C17.8375 5.1036 17.3646 5.0986 17.0896 6.03853C16.8956 6.70147 17.2886 7.30642 17.7156 7.30642C17.9145 7.29842 18.1125 7.21443 18.2355 7.13044L18.3115 7.30642H18.9525L19.4724 4.52665H18.8455L18.6855 5.36658C18.656 5.34156 18.6279 5.31485 18.6015 5.28659M13.9439 5.64856L14.0879 5.63056C14.2678 5.60756 14.5278 5.57356 14.6848 5.57956L14.7448 5.58056C14.9318 5.58456 15.1138 5.58856 15.0508 5.88454C15.0308 5.88587 14.9974 5.88587 14.9508 5.88454C14.6388 5.87454 13.8079 5.84954 13.6609 6.64848C13.5929 7.09844 13.9819 7.32842 14.2878 7.31242C14.5928 7.29742 14.6768 7.25943 14.7838 7.18243L14.8608 7.30542H15.4177L15.6547 6.11352C15.7147 5.81654 15.8147 5.0986 14.8148 5.0986L14.7188 5.1016C14.5568 5.1056 14.3588 5.1116 14.0359 5.1746L13.9439 5.64856ZM10.7311 5.1366L10.3262 7.30542H10.9221L11.1051 6.3125C11.2701 5.70255 11.5311 5.70655 11.681 5.70855H11.708L11.861 5.1366C11.5641 5.1366 11.3881 5.24359 11.2961 5.35058L11.2431 5.1366H10.7311Z" fill="#FFC727"/>
</svg>
