<svg width="12" height="12" viewBox="0 0 12 12" fill="none" xmlns="http://www.w3.org/2000/svg">
<path fill-rule="evenodd" clip-rule="evenodd" d="M5.97188 0.000286518C6.31172 -0.00205723 6.50156 0.00966152 6.75469 0.0471615C6.93984 0.0729428 7.20469 0.119818 7.34766 0.15263C7.49062 0.183099 7.74375 0.255755 7.91016 0.312005C8.07656 0.368255 8.31094 0.457318 8.42578 0.50888C8.54062 0.562787 8.74687 0.665911 8.88281 0.738568C9.01875 0.811224 9.21797 0.933099 9.32812 1.00576C9.43828 1.07841 9.63281 1.22372 9.76172 1.32685C9.89062 1.42997 10.1062 1.62451 10.2398 1.7581C10.3734 1.89169 10.568 2.10732 10.6711 2.23622C10.7742 2.36513 10.9195 2.55966 10.9922 2.66982C11.0648 2.77997 11.1867 2.97919 11.2594 3.11513C11.332 3.25107 11.4352 3.45732 11.4891 3.57216C11.5406 3.68701 11.6344 3.93544 11.6953 4.12294C11.7586 4.31044 11.8359 4.59404 11.8687 4.75576C11.9016 4.91747 11.9438 5.17529 11.9648 5.32997C11.9836 5.48466 12 5.77997 12 5.98622C12 6.19247 11.9836 6.49247 11.9648 6.65419C11.9438 6.81591 11.9016 7.07841 11.8687 7.24013C11.8359 7.40185 11.7586 7.68544 11.6953 7.87294C11.6344 8.06044 11.5406 8.30888 11.4891 8.42372C11.4352 8.53857 11.332 8.74482 11.2594 8.88076C11.1867 9.01669 11.0648 9.21591 10.9922 9.32607C10.9195 9.43622 10.7742 9.63076 10.6711 9.75966C10.568 9.88857 10.3734 10.1042 10.2398 10.2378C10.1062 10.3714 9.89062 10.5659 9.76172 10.669C9.63281 10.7722 9.43828 10.9175 9.32812 10.9901C9.21797 11.0628 9.01875 11.1847 8.88281 11.2573C8.74687 11.33 8.54062 11.4331 8.42578 11.487C8.31094 11.5386 8.07656 11.6276 7.91016 11.6839C7.74375 11.7401 7.49062 11.8128 7.34766 11.8433C7.20469 11.8761 6.93984 11.9229 6.75469 11.9487C6.51797 11.9839 6.30234 11.9979 6 11.9979C5.69766 11.9979 5.48203 11.9839 5.24297 11.9487C5.06016 11.9229 4.79531 11.8761 4.65234 11.8433C4.50938 11.8128 4.25625 11.7401 4.08984 11.6839C3.92109 11.6276 3.68906 11.5386 3.57422 11.487C3.45937 11.4331 3.25312 11.33 3.11719 11.2573C2.98125 11.1847 2.78203 11.0628 2.67188 10.9901C2.56172 10.9175 2.36719 10.7722 2.23828 10.669C2.10938 10.5659 1.89375 10.3714 1.76016 10.2378C1.62656 10.1042 1.43203 9.88857 1.32891 9.75966C1.22578 9.63076 1.08047 9.43622 1.00781 9.32607C0.935156 9.21591 0.813281 9.01669 0.740625 8.88076C0.667969 8.74482 0.564844 8.53857 0.510937 8.42372C0.459375 8.30888 0.365625 8.06044 0.304688 7.87294C0.241406 7.68544 0.164062 7.40185 0.13125 7.24013C0.0984375 7.07841 0.05625 6.8206 0.0351562 6.66591C0.0164062 6.51122 0 6.21591 0 6.00966C0 5.80341 0.0164062 5.50341 0.0351562 5.34169C0.05625 5.17997 0.0984375 4.91747 0.13125 4.75576C0.164062 4.59404 0.241406 4.31044 0.304688 4.12294C0.365625 3.93544 0.459375 3.68701 0.510937 3.57216C0.564844 3.45732 0.667969 3.25107 0.740625 3.11513C0.813281 2.97919 0.935156 2.77997 1.00781 2.66982C1.08047 2.55966 1.22578 2.36513 1.32891 2.23622C1.43203 2.10732 1.62656 1.89169 1.76016 1.7581C1.89375 1.62451 2.10938 1.42997 2.23828 1.32685C2.36719 1.22372 2.56172 1.07841 2.67188 1.00576C2.78203 0.933099 2.98125 0.811224 3.11719 0.738568C3.25312 0.665911 3.45937 0.562787 3.57422 0.50888C3.68906 0.457318 3.9375 0.363568 4.125 0.30263C4.3125 0.241693 4.57031 0.169037 4.69922 0.140912C4.82812 0.112787 5.06484 0.070599 5.22656 0.0471615C5.42578 0.0166928 5.6625 0.00263027 5.96953 0.000286518H5.97188ZM5.25234 0.994036C5.11641 1.01279 4.87969 1.06201 4.725 1.10185C4.57031 1.13935 4.32891 1.21669 4.18594 1.27294C4.04297 1.32919 3.83906 1.4206 3.72891 1.47451C3.61875 1.53076 3.45 1.62451 3.35391 1.6831C3.25781 1.74404 3.06797 1.87763 2.93203 1.97841C2.79609 2.08154 2.56875 2.28076 2.42812 2.42372C2.28516 2.56435 2.08594 2.79169 1.98281 2.92763C1.88203 3.06357 1.74844 3.25341 1.6875 3.34951C1.62891 3.4456 1.53516 3.61435 1.47891 3.72451C1.425 3.83466 1.33359 4.03857 1.27734 4.18154C1.22109 4.32451 1.14375 4.56591 1.10625 4.7206C1.06641 4.87529 1.01484 5.11669 0.99375 5.25966C0.965625 5.44247 0.953906 5.6581 0.953906 5.99794C0.953906 6.33779 0.965625 6.55341 0.99375 6.73622C1.01484 6.87919 1.06641 7.1206 1.10625 7.27529C1.14375 7.42997 1.22109 7.67138 1.27734 7.81435C1.33359 7.95732 1.425 8.16122 1.47891 8.27138C1.53516 8.38154 1.62891 8.55029 1.6875 8.64638C1.74844 8.74247 1.88203 8.93232 1.98281 9.06826C2.08594 9.20419 2.28516 9.43154 2.42812 9.57216C2.56875 9.71513 2.79609 9.91435 2.93203 10.0175C3.06797 10.1183 3.25781 10.2518 3.35391 10.3128C3.45 10.3714 3.61875 10.4651 3.72891 10.5214C3.83906 10.5753 4.04297 10.6667 4.18594 10.7229C4.32891 10.7792 4.57031 10.8565 4.725 10.894C4.87969 10.9339 5.12109 10.9854 5.26406 11.0065C5.44688 11.0347 5.6625 11.0464 6.00234 11.0464C6.34219 11.0464 6.55781 11.0347 6.74063 11.0065C6.88359 10.9854 7.125 10.9339 7.27969 10.894C7.43438 10.8565 7.67578 10.7792 7.81875 10.7229C7.96172 10.6667 8.16563 10.5753 8.27578 10.5214C8.38594 10.4651 8.55469 10.3714 8.65078 10.3128C8.74687 10.2518 8.93672 10.1183 9.07266 10.0175C9.20859 9.91435 9.43594 9.71513 9.57656 9.57216C9.71953 9.43154 9.91875 9.20419 10.0219 9.06826C10.1227 8.93232 10.2563 8.74247 10.3172 8.64638C10.3758 8.55029 10.4695 8.38154 10.5258 8.27138C10.5797 8.16122 10.6711 7.95732 10.7273 7.81435C10.7836 7.67138 10.8609 7.42997 10.8984 7.27529C10.9383 7.1206 10.9898 6.87919 11.0109 6.73622C11.0391 6.55341 11.0508 6.33779 11.0508 5.99794C11.0508 5.6581 11.0391 5.44247 11.0109 5.25966C10.9898 5.11669 10.9383 4.87529 10.8984 4.7206C10.8609 4.56591 10.7836 4.32451 10.7273 4.18154C10.6711 4.03857 10.5797 3.83466 10.5258 3.72451C10.4695 3.61435 10.3758 3.4456 10.3172 3.34951C10.2563 3.25341 10.1227 3.06357 10.0219 2.92763C9.91875 2.79169 9.71953 2.56435 9.57656 2.42372C9.43594 2.28076 9.20859 2.08154 9.07266 1.97841C8.93672 1.87763 8.74687 1.74404 8.65078 1.6831C8.55469 1.62451 8.38594 1.53076 8.27578 1.47451C8.16563 1.4206 7.95469 1.32685 7.80703 1.2706C7.65938 1.21201 7.41563 1.13466 7.26797 1.09716C7.12031 1.05966 6.89297 1.01279 6.76406 0.994036C6.63516 0.972943 6.33984 0.951849 6.10781 0.947161C5.87578 0.944818 5.64375 0.944818 5.59219 0.949505C5.54063 0.954193 5.38828 0.975286 5.25234 0.994036ZM6.06094 3.03076C6.34219 3.03779 6.41719 3.04716 6.57656 3.10107C6.67969 3.13622 6.82266 3.19716 6.89297 3.23701C6.96328 3.27685 7.08047 3.35419 7.15078 3.4081C7.22109 3.46201 7.32188 3.55341 7.37344 3.60966C7.42734 3.66591 7.50469 3.76435 7.54922 3.82997C7.59375 3.89326 7.66172 4.02216 7.70391 4.11122C7.74609 4.20029 7.79766 4.34326 7.82109 4.42763C7.85156 4.53779 7.86328 4.66435 7.86328 4.88466C7.86328 5.10497 7.85156 5.23154 7.82109 5.34169C7.79766 5.42607 7.74375 5.57372 7.69687 5.66982C7.65234 5.76591 7.57031 5.90888 7.51641 5.98622C7.46016 6.06357 7.35703 6.17841 7.28906 6.24404C7.21875 6.30732 7.09219 6.40576 7.01016 6.46201C6.92578 6.51591 6.77109 6.5956 6.47109 6.71279V7.13466C6.47109 7.52607 6.46875 7.56357 6.41953 7.65966C6.38906 7.71826 6.32578 7.79794 6.27656 7.83544C6.19219 7.90341 6.17109 7.9081 6.00234 7.9081C5.83359 7.9081 5.8125 7.90341 5.72812 7.83544C5.67891 7.79794 5.61562 7.71826 5.58516 7.65966C5.53359 7.55888 5.53359 7.53779 5.53359 6.87685C5.53359 6.27451 5.53828 6.18544 5.57578 6.10341C5.59922 6.05185 5.66016 5.9745 5.71172 5.93466C5.76094 5.89247 5.82891 5.85263 5.86172 5.8456C5.89453 5.83857 6 5.82216 6.09609 5.81044C6.20156 5.79638 6.32812 5.76122 6.4125 5.72138C6.48984 5.68388 6.6 5.60419 6.65859 5.5456C6.71719 5.48701 6.79219 5.38388 6.82969 5.31357C6.86484 5.2456 6.90469 5.12138 6.91875 5.03701C6.93984 4.92451 6.93984 4.84482 6.91875 4.73232C6.90469 4.64794 6.86484 4.52372 6.82734 4.45576C6.79219 4.38544 6.71719 4.28232 6.65859 4.22372C6.6 4.16513 6.48516 4.0831 6.40078 4.04326C6.26016 3.97529 6.22969 3.9706 6.00234 3.9706C5.775 3.9706 5.74453 3.97529 5.60391 4.04326C5.51953 4.0831 5.40469 4.16513 5.34609 4.22372C5.2875 4.28232 5.21016 4.38544 5.175 4.45576C5.13281 4.53544 5.1 4.6456 5.08594 4.76747C5.07188 4.8706 5.04609 4.99951 5.02734 5.05341C5.00625 5.11904 4.95937 5.18232 4.89375 5.23622C4.83984 5.2831 4.75781 5.32529 4.71328 5.33466C4.66875 5.34169 4.57734 5.34169 4.51406 5.33466C4.43203 5.32529 4.37109 5.29951 4.31484 5.25497C4.27031 5.21747 4.20937 5.14013 4.17891 5.08154C4.12969 4.99013 4.125 4.95497 4.13437 4.77919C4.14141 4.66904 4.16484 4.51201 4.18594 4.42763C4.20703 4.34326 4.25859 4.20029 4.30078 4.11122C4.34297 4.02216 4.41094 3.89326 4.45547 3.82997C4.5 3.76435 4.57734 3.66591 4.63125 3.60966C4.68281 3.55341 4.78359 3.46201 4.85391 3.4081C4.92422 3.35419 5.04141 3.27685 5.11172 3.23701C5.18203 3.19716 5.30859 3.14326 5.39297 3.11513C5.47734 3.08701 5.5875 3.05419 5.63906 3.04482C5.69063 3.0331 5.88047 3.02607 6.06094 3.03076ZM5.99531 8.29482C6.07734 8.29482 6.17812 8.30888 6.21797 8.32529C6.26016 8.34404 6.33516 8.39326 6.38672 8.43779C6.43594 8.48232 6.49922 8.55966 6.525 8.61122C6.5625 8.67919 6.57422 8.74716 6.57422 8.86904C6.57422 8.99091 6.5625 9.05888 6.525 9.12685C6.49922 9.17841 6.43594 9.25576 6.38672 9.30029C6.33516 9.34482 6.26016 9.39404 6.21797 9.41279C6.17812 9.42919 6.07969 9.44326 6.00234 9.44326C5.925 9.44326 5.82656 9.42919 5.78438 9.41279C5.74453 9.39404 5.66953 9.34482 5.61797 9.30029C5.56875 9.25576 5.50547 9.17841 5.47969 9.12685C5.44219 9.05888 5.43047 8.99091 5.43047 8.86904C5.43047 8.74716 5.44219 8.67919 5.47969 8.61122C5.50547 8.55966 5.56875 8.48232 5.61797 8.43779C5.66953 8.39326 5.73984 8.34404 5.77969 8.32763C5.81719 8.31122 5.91563 8.29716 5.99531 8.29482Z" fill="#7795E8"/>
</svg>
