<svg width="16" height="16" viewBox="0 0 16 16" fill="none" xmlns="http://www.w3.org/2000/svg">
<path fill-rule="evenodd" clip-rule="evenodd" d="M1.54627 0.00624756L4.5451 0L4.68567 0.0874658C4.76376 0.134323 4.8606 0.23116 4.90433 0.296759C4.96681 0.39672 4.98243 0.462319 4.98243 0.62788C4.98243 0.79344 4.96681 0.855916 4.90121 0.955877C4.85748 1.02148 4.76689 1.11207 4.57634 1.23389L1.66497 1.26513L1.54315 1.34635C1.47755 1.39008 1.38696 1.48067 1.26513 1.67122L1.23389 4.58258L1.15267 4.70441C1.10894 4.77001 1.01835 4.8606 0.949629 4.90433C0.852792 4.96681 0.787192 4.98243 0.618508 4.98243C0.437329 4.98243 0.393596 4.96993 0.278016 4.88872C0.203046 4.83561 0.112456 4.73253 0 4.51386V3.09254C0 1.76181 0.00312378 1.6556 0.0624756 1.42132C0.099961 1.28387 0.171808 1.08708 0.228036 0.983991C0.284264 0.880906 0.415463 0.705974 0.521671 0.593518C0.624756 0.481062 0.79344 0.340492 0.893401 0.28114C0.993362 0.221788 1.18079 0.134323 1.31199 0.0874658L1.54627 0.00624756ZM11.4487 0.00312378H14.4162L14.6661 0.0874658C14.8036 0.134323 14.9973 0.221788 15.0972 0.284264C15.1972 0.343616 15.3659 0.484186 15.4721 0.596642C15.5783 0.709098 15.7095 0.88403 15.7657 0.987114C15.8188 1.0902 15.8938 1.27763 15.9282 1.40882C15.9906 1.63061 15.9938 1.70246 15.9781 4.57946L15.9 4.70129C15.8563 4.77001 15.7657 4.8606 15.697 4.90433C15.597 4.96993 15.5377 4.98555 15.369 4.98555C15.2034 4.98555 15.141 4.96993 15.041 4.90746C14.9754 4.86373 14.8817 4.77314 14.7599 4.58258L14.7286 1.6681L14.6474 1.54627C14.6037 1.47755 14.5131 1.38696 14.3225 1.26825L11.4112 1.23702L11.2893 1.1558C11.2206 1.11207 11.13 1.02148 11.0894 0.952753C11.0269 0.852792 11.0113 0.790316 11.0113 0.62788C11.0113 0.462319 11.0269 0.399844 11.0894 0.299883C11.13 0.23116 11.23 0.137446 11.3081 0.0874658L11.4487 0.00312378ZM0.687232 11.0176C0.796564 11.0269 0.899649 11.0582 0.968372 11.1019C1.02772 11.1425 1.11207 11.23 1.23389 11.4205L1.26513 14.3257L1.34323 14.4506C1.38383 14.5162 1.47442 14.6099 1.66497 14.7317L4.57946 14.763L4.70129 14.8442C4.77001 14.8879 4.8606 14.9785 4.90433 15.0472C4.96681 15.1472 4.98243 15.2097 4.98243 15.3721C4.98243 15.5377 4.96681 15.6002 4.90433 15.7001C4.8606 15.7688 4.76064 15.8626 4.5451 16L1.57751 15.9969L1.32761 15.9125C1.18704 15.8657 0.993362 15.7782 0.893401 15.7157C0.79344 15.6564 0.624756 15.5158 0.518547 15.4034C0.412339 15.2909 0.28114 15.116 0.228036 15.0129C0.174932 14.9098 0.099961 14.7224 0.0624756 14.5912C0.00312378 14.3725 0 14.2788 0 12.9512C0 12.1203 0.0124951 11.4986 0.0312378 11.4299C0.0468567 11.3643 0.11558 11.2581 0.187427 11.1863C0.25615 11.1175 0.356111 11.0488 0.412339 11.0332C0.468567 11.0144 0.590394 11.0082 0.687232 11.0176ZM15.4315 11.0144C15.5533 11.0269 15.6376 11.0551 15.7251 11.1175C15.7938 11.1644 15.8813 11.2675 15.9938 11.483V12.9043C15.9938 14.2382 15.9906 14.3413 15.9282 14.5756C15.8938 14.713 15.8188 14.9098 15.7657 15.0129C15.7095 15.116 15.5783 15.2909 15.4721 15.4034C15.3659 15.5158 15.1972 15.6564 15.0972 15.7157C14.9973 15.7782 14.8036 15.8657 14.4162 15.9969L11.4487 16L11.3081 15.9125C11.23 15.8626 11.13 15.7688 11.0894 15.7001C11.0269 15.6002 11.0113 15.5377 11.0113 15.3721C11.0113 15.2097 11.0269 15.1472 11.0894 15.0472C11.13 14.9785 11.2206 14.8879 11.4112 14.763L14.3257 14.7317L14.4475 14.6537C14.5162 14.6099 14.6068 14.5162 14.7286 14.3257L14.7599 11.4205L14.838 11.2987C14.8786 11.2331 14.9567 11.1488 15.0098 11.1144C15.0597 11.08 15.1378 11.0394 15.1816 11.0269C15.2222 11.0144 15.3346 11.0082 15.4315 11.0144ZM6.95353 2.39282L7.07536 2.47403C7.14408 2.51777 7.23467 2.60836 7.3565 2.79891V6.95353L7.27841 7.07849C7.23467 7.14408 7.14408 7.2378 6.95353 7.35963H2.79578L2.67083 7.28153C2.60523 7.24092 2.51152 7.15033 2.38969 6.95978L2.38032 4.94182C2.3772 3.67044 2.38344 2.88325 2.40531 2.80828C2.42093 2.74268 2.48965 2.63647 2.5615 2.56462C2.63022 2.4959 2.73018 2.42718 2.78641 2.41156C2.84576 2.39594 3.75478 2.38657 6.95353 2.39282ZM3.62358 6.12573H6.12261V3.62671H3.62358V6.12573ZM13.2011 2.39282L13.3229 2.47403C13.3916 2.51777 13.4822 2.60836 13.6041 2.79891V6.95353L13.526 7.07849C13.4822 7.14408 13.3916 7.2378 13.2011 7.35963H9.04334L8.91839 7.28153C8.85279 7.24092 8.75908 7.15033 8.63725 6.95978L8.62788 4.94182C8.62476 3.67044 8.631 2.88325 8.65287 2.80828C8.66849 2.74268 8.73721 2.63647 8.80906 2.56462C8.87778 2.4959 8.97774 2.42718 9.03397 2.41156C9.09332 2.39594 10.0023 2.38657 13.2011 2.39282ZM9.87114 6.12573H12.3702V3.62671H9.87114V6.12573ZM6.95353 8.64038L7.07536 8.72159C7.14408 8.76533 7.23467 8.85592 7.3565 9.04647V13.2011L7.27841 13.326C7.23467 13.3916 7.14408 13.4854 6.95353 13.6072H2.79578L2.67083 13.5291C2.60523 13.4885 2.51152 13.3979 2.38969 13.2073L2.38032 11.1894C2.3772 9.918 2.38344 9.13081 2.40531 9.05584C2.42093 8.99024 2.48965 8.88403 2.5615 8.81218C2.63022 8.74346 2.73018 8.67474 2.78641 8.65912C2.84576 8.6435 3.75478 8.63413 6.95353 8.64038ZM3.62358 12.3733H6.12261V9.87427H3.62358V12.3733ZM13.2011 8.64038L13.3229 8.72159C13.3916 8.76533 13.4822 8.85592 13.526 8.92464C13.5884 9.0246 13.6041 9.08708 13.6041 9.24951C13.6041 9.41507 13.5884 9.47755 13.526 9.57751C13.4822 9.64311 13.3916 9.73682 13.2011 9.85865L9.87114 9.87427V11.1238L13.2011 11.1394L13.3229 11.2206C13.3916 11.2643 13.4822 11.3549 13.6041 11.5455V13.2011L13.526 13.326C13.4822 13.3916 13.3916 13.4854 13.3229 13.5291C13.223 13.5947 13.1636 13.6072 12.9949 13.6072C12.8325 13.6072 12.7669 13.5947 12.6669 13.5291C12.6013 13.4885 12.5076 13.3979 12.4639 13.3292C12.392 13.2167 12.3858 13.1792 12.3702 12.3733H11.1207L11.1113 12.7919C11.105 13.1792 11.0988 13.2167 11.0238 13.3292C10.9801 13.3979 10.8895 13.4885 10.8208 13.5291C10.7239 13.5947 10.6583 13.6072 10.4959 13.6072C10.3335 13.6072 10.2679 13.5947 10.1679 13.5291C10.1023 13.4885 10.0086 13.3979 9.96486 13.3292C9.89301 13.2167 9.88676 13.1792 9.87114 12.3733L9.45256 12.367C9.06833 12.3608 9.02772 12.3545 8.91527 12.2796C8.84654 12.2358 8.75595 12.1421 8.63725 11.9516L8.62788 10.5771C8.61851 9.67122 8.62788 9.15892 8.64975 9.07146C8.67161 8.98711 8.72784 8.8934 8.80906 8.81218C8.87778 8.74346 8.97774 8.67474 9.03397 8.65912C9.09332 8.6435 10.0023 8.63413 13.2011 8.64038Z" fill="#BBCAF3"/>
</svg>
