<svg width="14" height="14" viewBox="0 0 14 14" fill="none" xmlns="http://www.w3.org/2000/svg">
<path d="M4.62256 1.74873C5.70839 0.840955 6.64535 0.0762041 6.70373 0.049934C6.76503 0.0236639 6.89054 0.000312739 6.9927 0.000312739C7.1153 -0.00260616 7.21746 0.0149072 7.29919 0.0528529C7.36924 0.0820418 8.30037 0.838036 9.38036 1.73706C11.2689 3.31034 11.3389 3.37456 11.4236 3.54385C11.4849 3.67228 11.5082 3.76277 11.5082 3.87953C11.5082 3.96709 11.4907 4.09261 11.4674 4.15682C11.4469 4.22104 11.374 4.33196 11.3098 4.40201C11.2426 4.47206 11.1375 4.55671 11.0733 4.58882C10.9858 4.63552 10.904 4.65303 10.7376 4.65303C10.5684 4.65303 10.4925 4.63844 10.402 4.58882C10.3378 4.55379 9.72771 4.0605 7.80416 2.4551L7.78956 6.06578C7.77497 9.45754 7.77205 9.67937 7.72243 9.79029C7.69324 9.85451 7.62026 9.95667 7.56189 10.018C7.50351 10.0793 7.40135 10.1581 7.33713 10.1931C7.24665 10.2427 7.17075 10.2573 7.00146 10.2573C6.83216 10.2573 6.75627 10.2427 6.66578 10.1931C6.60157 10.1581 6.49941 10.0793 6.44103 10.018C6.38265 9.95667 6.30968 9.85451 6.28049 9.79029C6.23087 9.67937 6.22795 9.46629 6.21336 2.44927L4.96407 3.48839C4.27813 4.05758 3.66516 4.55379 3.60094 4.58882C3.51046 4.63844 3.43457 4.65303 3.26527 4.65303C3.09889 4.65303 3.01716 4.63552 2.9296 4.58882C2.86538 4.55671 2.76906 4.48374 2.7136 4.4312C2.66106 4.37574 2.58809 4.27358 2.55598 4.2006C2.51803 4.11596 2.49468 4.00504 2.49468 3.89412C2.49468 3.76277 2.51511 3.67812 2.57057 3.55845C2.64063 3.40667 2.76322 3.29867 4.62256 1.74873Z" fill="#1463FF"/>
<path d="M0.229618 9.57137C0.32886 9.47213 0.419346 9.41084 0.512751 9.38457C0.591561 9.36121 0.705398 9.34078 0.769614 9.34078C0.83383 9.33786 0.944748 9.35538 1.01772 9.38165C1.09069 9.405 1.20745 9.47505 1.2775 9.53343C1.35047 9.59473 1.43804 9.70856 1.47599 9.79029C1.5402 9.93332 1.54312 9.95083 1.54312 10.9724C1.54312 11.5883 1.5548 12.0495 1.57231 12.1108C1.58982 12.1663 1.64528 12.2568 1.69782 12.3093C1.74744 12.3618 1.83793 12.4173 1.89339 12.4319C1.9576 12.4494 3.88991 12.4611 7.00146 12.4611C10.113 12.4611 12.0453 12.4494 12.1095 12.4319C12.165 12.4173 12.2555 12.3618 12.3051 12.3093C12.3576 12.2568 12.4131 12.1663 12.4306 12.1108C12.4481 12.0495 12.4598 11.5883 12.4598 10.9724C12.4598 9.95083 12.4627 9.93332 12.5269 9.79029C12.5649 9.70856 12.6524 9.59473 12.7254 9.53343C12.7955 9.47505 12.9122 9.405 12.9852 9.38165C13.0582 9.35538 13.1632 9.33786 13.2187 9.33786C13.2742 9.33786 13.3909 9.3583 13.4727 9.38165C13.5836 9.41375 13.6682 9.46338 13.7675 9.56554C13.8609 9.65602 13.9251 9.75235 13.9572 9.84867C14.0039 9.9771 14.0068 10.126 13.9922 12.3589L13.9134 12.5924C13.8696 12.7209 13.785 12.9106 13.7237 13.0128C13.6624 13.1178 13.5194 13.293 13.4084 13.4068C13.2946 13.5206 13.1195 13.6637 13.0144 13.725C12.9093 13.7863 12.6991 13.8738 12.2701 14.0081H1.73285L1.45555 13.9205C1.30377 13.8738 1.09361 13.7863 0.99145 13.725C0.88637 13.6637 0.708317 13.5206 0.597399 13.4068C0.483562 13.2959 0.340536 13.1178 0.279239 13.0128C0.217942 12.9106 0.133294 12.7209 0.0107006 12.3589L0.00194396 11.1914C-0.00389384 10.2165 0.00194396 9.99753 0.0398896 9.87202C0.0719975 9.75818 0.121619 9.67937 0.229618 9.57137Z" fill="#1463FF"/>
</svg>
