<svg width="18" height="15" viewBox="0 0 18 15" fill="none" xmlns="http://www.w3.org/2000/svg">
<path fill-rule="evenodd" clip-rule="evenodd" d="M0 1.79997C0 0.809985 0.809985 0 1.79997 0H16.1997C16.6771 0 17.1349 0.189639 17.4725 0.527198C17.81 0.864758 17.9997 1.32259 17.9997 1.79997V12.5998C17.9997 13.0772 17.81 13.535 17.4725 13.8725C17.1349 14.2101 16.6771 14.3997 16.1997 14.3997H1.79997C1.32259 14.3997 0.864758 14.2101 0.527198 13.8725C0.189639 13.535 0 13.0772 0 12.5998V1.79997ZM11.2498 4.67991C11.6098 4.67991 11.9698 4.67991 12.2398 4.85991L12.1498 5.7599H12.0598C11.789 5.5918 11.4784 5.49863 11.1598 5.4899C10.7098 5.4899 10.5298 5.7599 10.5298 5.93989C10.5298 6.11989 10.7098 6.20989 11.1598 6.38988C11.7898 6.74988 12.0598 7.10987 12.0598 7.55986C12.0598 8.45985 11.3398 9.08984 10.0798 9.08984C9.53983 9.08984 9.08984 8.90984 8.81984 8.81984L8.99984 7.91986H9.08984C9.44983 8.09985 9.71982 8.18985 10.1698 8.18985C10.5298 8.18985 10.8898 8.00985 10.8898 7.73986C10.8898 7.55986 10.7098 7.46986 10.2598 7.19987C9.80982 7.01987 9.26983 6.65988 9.26983 6.02989C9.26983 5.21991 10.1698 4.67991 11.2498 4.67991ZM14.3997 4.67991H15.2997L16.1997 8.99984H15.1197L14.9397 8.36985H13.4998L13.2298 8.99984H12.0598L13.7697 5.03991C13.8597 4.76991 14.0397 4.76991 14.3997 4.76991V4.67991ZM8.81984 4.67991H7.64986L6.92987 8.99984H8.09985L8.81984 4.67991ZM4.76991 7.64986L4.67991 7.01987L4.22992 5.03991C4.22992 4.76991 3.95993 4.76991 3.68993 4.67991H1.88997V4.76991L2.96995 5.21991L3.05994 5.3999L4.04993 8.99984H5.3999L7.19987 4.76991H6.02989L4.85991 7.64986H4.76991Z" fill="#FFC727"/>
</svg>
