<svg width="12" height="12" viewBox="0 0 12 12" fill="none" xmlns="http://www.w3.org/2000/svg">
<path fill-rule="evenodd" clip-rule="evenodd" d="M5.96484 0.000287758C6.32109 -0.00205599 6.51094 0.00966276 6.75703 0.044819C6.93281 0.0706003 7.18125 0.115131 7.30781 0.140913C7.43203 0.169038 7.66641 0.232319 7.82812 0.283881C7.98984 0.335444 8.24297 0.431538 8.39062 0.494819C8.53828 0.5581 8.76562 0.668256 8.89453 0.740913C9.02344 0.813569 9.21797 0.930756 9.32812 1.00576C9.43828 1.07841 9.63281 1.22373 9.76172 1.32685C9.89062 1.42998 10.1062 1.62451 10.2398 1.7581C10.3734 1.89169 10.568 2.10732 10.6711 2.23623C10.7742 2.36513 10.9195 2.55966 10.9922 2.66982C11.0648 2.77997 11.1797 2.96748 11.2453 3.08701C11.3133 3.20419 11.4164 3.41044 11.475 3.54404C11.5359 3.67529 11.6344 3.93544 11.6953 4.12294C11.7586 4.31044 11.8289 4.56357 11.8547 4.68544C11.8828 4.80732 11.925 5.0581 11.9508 5.24326C11.9859 5.47763 12 5.6956 12 5.98154C12 6.20888 11.9836 6.50654 11.9648 6.66591C11.9438 6.8206 11.9016 7.07607 11.8711 7.23544C11.8383 7.39247 11.7609 7.67607 11.6977 7.86826C11.6344 8.0581 11.5406 8.30888 11.4891 8.42373C11.4352 8.53857 11.332 8.74482 11.2594 8.88076C11.1867 9.01669 11.0648 9.21591 10.9922 9.32607C10.9195 9.43622 10.7742 9.63076 10.6711 9.75966C10.568 9.88857 10.3734 10.1042 10.2398 10.2378C10.1062 10.3714 9.89062 10.5659 9.76172 10.669C9.63281 10.7722 9.43828 10.9175 9.32812 10.9901C9.21797 11.0651 9.01406 11.1893 8.87109 11.2667C8.72812 11.344 8.50313 11.4542 8.36719 11.5128C8.23125 11.569 7.98984 11.6604 7.82812 11.712C7.66641 11.7636 7.43203 11.8268 7.30781 11.855C7.18125 11.8808 6.93281 11.9253 6.75703 11.9511C6.525 11.9839 6.30937 11.9979 6 11.9979C5.68125 11.9979 5.47969 11.9862 5.23828 11.9487C5.05781 11.9229 4.80937 11.8808 4.6875 11.8526C4.56563 11.8268 4.3125 11.7565 4.125 11.6933C3.9375 11.6323 3.67734 11.5339 3.54375 11.4729C3.4125 11.4143 3.20625 11.3112 3.08906 11.2433C2.96953 11.1776 2.78203 11.0628 2.67188 10.9901C2.56172 10.9175 2.36719 10.7722 2.23828 10.669C2.10938 10.5659 1.89375 10.3714 1.76016 10.2378C1.62656 10.1042 1.43203 9.88857 1.32891 9.75966C1.22578 9.63076 1.08047 9.43622 1.00781 9.32607C0.932813 9.21591 0.820312 9.02841 0.752344 8.91122C0.686719 8.79169 0.583594 8.58544 0.525 8.45419C0.464062 8.3206 0.365625 8.06044 0.304688 7.87294C0.241406 7.68544 0.171094 7.43232 0.145312 7.31044C0.117187 7.18857 0.075 6.93779 0.0492187 6.75497C0.0140625 6.51826 0 6.30029 0 6.01669C0 5.78701 0.0164062 5.48935 0.0351562 5.32997C0.05625 5.17529 0.0984375 4.92216 0.128906 4.76747C0.159375 4.61279 0.229688 4.35029 0.283594 4.18154C0.3375 4.01279 0.43125 3.76201 0.489844 3.61904C0.550781 3.47607 0.663281 3.25107 0.738281 3.11513C0.813281 2.97919 0.932813 2.77997 1.00781 2.66982C1.08047 2.55966 1.22578 2.36513 1.32891 2.23623C1.43203 2.10732 1.62656 1.89169 1.76016 1.7581C1.89375 1.62451 2.10938 1.42998 2.23828 1.32685C2.36719 1.22373 2.56172 1.07841 2.67188 1.00576C2.78203 0.930756 2.98125 0.811225 3.11719 0.736225C3.25312 0.661225 3.47813 0.548725 3.62109 0.487788C3.76406 0.429194 4.01016 0.335444 4.17188 0.283881C4.33359 0.232319 4.57031 0.169038 4.69922 0.140913C4.82812 0.112788 5.06016 0.0706002 5.21484 0.0471628C5.41172 0.016694 5.63672 0.00263151 5.96484 0.000287758ZM5.25 0.994038C5.11406 1.01279 4.88203 1.05966 4.73438 1.09951C4.58672 1.13701 4.33828 1.21669 4.18359 1.27529C4.02891 1.33388 3.79219 1.44169 3.65625 1.51201C3.52031 1.58466 3.30938 1.70888 3.1875 1.79091C3.06562 1.87294 2.86406 2.02294 2.74219 2.12607C2.62031 2.22685 2.43516 2.40029 2.33437 2.5081C2.23125 2.61591 2.07656 2.79873 1.98516 2.91591C1.89609 3.03076 1.76719 3.21591 1.69922 3.32607C1.63125 3.43622 1.53281 3.61435 1.47656 3.72451C1.42266 3.83466 1.33125 4.03857 1.275 4.18154C1.21875 4.32451 1.14141 4.56591 1.10391 4.7206C1.06406 4.87529 1.0125 5.11669 0.991406 5.25966C0.963281 5.44247 0.951562 5.6581 0.951562 5.99794C0.951562 6.33779 0.963281 6.55341 0.991406 6.73623C1.0125 6.87919 1.06406 7.1206 1.10391 7.27529C1.14141 7.42998 1.21875 7.67138 1.275 7.81435C1.33125 7.95732 1.42266 8.16123 1.47656 8.27138C1.53281 8.38154 1.63125 8.55966 1.69922 8.66982C1.76719 8.77997 1.89609 8.96513 1.98516 9.07998C2.07656 9.19482 2.23125 9.37997 2.33437 9.48779C2.43516 9.5956 2.62031 9.76904 2.74219 9.86982C2.86406 9.97294 3.06562 10.1229 3.1875 10.205C3.30938 10.2847 3.52031 10.4112 3.65625 10.4839C3.79219 10.5542 4.02891 10.662 4.18359 10.7206C4.33828 10.7792 4.58672 10.8589 4.73438 10.8964C4.88203 10.9339 5.11406 10.9831 5.25 11.0065C5.42344 11.0347 5.64375 11.0464 5.98828 11.0464C6.34453 11.0464 6.55078 11.037 6.73828 11.0065C6.88125 10.9854 7.12266 10.9339 7.27734 10.894C7.43203 10.8565 7.68047 10.7768 7.82812 10.7183C7.97578 10.6597 8.19844 10.5612 8.32031 10.4979C8.44219 10.4347 8.65312 10.3104 8.78906 10.2214C8.925 10.13 9.13594 9.97294 9.25781 9.87216C9.37969 9.76904 9.57187 9.58622 9.68672 9.46435C9.79922 9.34247 9.97031 9.13857 10.0664 9.00966C10.1625 8.88076 10.3078 8.66044 10.3875 8.51748C10.4695 8.37685 10.5914 8.13076 10.6594 7.97372C10.725 7.81435 10.8117 7.57763 10.8492 7.44404C10.8891 7.31279 10.9406 7.09951 10.9664 6.9706C10.9922 6.84169 11.025 6.60498 11.0414 6.44326C11.0578 6.26748 11.0625 6.01435 11.0555 5.81044C11.0461 5.62294 11.0227 5.36513 11.0039 5.23622C10.9852 5.10732 10.9359 4.87529 10.8961 4.7206C10.8562 4.56591 10.7766 4.31747 10.7203 4.16982C10.6617 4.02216 10.5633 3.79951 10.5 3.67763C10.4367 3.55576 10.3125 3.34482 10.2234 3.20888C10.132 3.07294 9.975 2.86201 9.87422 2.74013C9.77109 2.61826 9.59766 2.4331 9.48984 2.33232C9.38203 2.22919 9.19687 2.07451 9.08203 1.9831C8.96719 1.89404 8.78203 1.76513 8.67188 1.69716C8.56172 1.62919 8.38359 1.53076 8.27344 1.47451C8.16328 1.4206 7.95234 1.32685 7.80469 1.2706C7.65703 1.21201 7.41328 1.13466 7.26562 1.09716C7.11797 1.05966 6.89062 1.01279 6.76172 0.994038C6.63281 0.972944 6.3375 0.95185 6.10547 0.947163C5.87344 0.944819 5.64141 0.944819 5.58984 0.949506C5.53828 0.954194 5.38594 0.975288 5.25 0.994038ZM6 3.02138C6.06563 3.02138 6.14531 3.04013 6.21094 3.07529C6.26953 3.10576 6.34688 3.17372 6.45703 3.33076L6.46406 4.93857C6.46875 6.01669 6.46406 6.57685 6.44766 6.63779C6.43359 6.68466 6.38672 6.76201 6.34453 6.80888C6.30469 6.85576 6.23672 6.90966 6.19922 6.93076C6.16172 6.94951 6.07031 6.96591 6 6.96591C5.92969 6.96591 5.84062 6.94951 5.80078 6.93076C5.76094 6.90966 5.69531 6.85576 5.65312 6.80888C5.61328 6.76201 5.56641 6.68466 5.55234 6.63779C5.53594 6.57685 5.53125 6.01435 5.54297 3.33076L5.61328 3.22997C5.65312 3.17607 5.73047 3.10576 5.78906 3.07529C5.85234 3.04247 5.93437 3.02138 6 3.02138ZM6.03516 7.55185C6.10078 7.55888 6.19922 7.58232 6.25781 7.6081C6.31641 7.63388 6.39844 7.69013 6.44062 7.73466C6.48516 7.77919 6.54141 7.85654 6.56953 7.9081C6.60703 7.97841 6.62109 8.04404 6.62109 8.17763C6.62109 8.32998 6.61172 8.36982 6.55078 8.47997C6.51094 8.55029 6.44297 8.63701 6.39844 8.67216C6.35391 8.70966 6.26953 8.75654 6.21094 8.77529C6.15234 8.79404 6.05859 8.81044 6 8.81044C5.94141 8.81044 5.84766 8.79404 5.78906 8.77294C5.73047 8.75419 5.64609 8.70732 5.60156 8.67216C5.55703 8.63466 5.48906 8.54794 5.44922 8.47997C5.38828 8.36982 5.37891 8.32998 5.37891 8.17763C5.37891 8.04404 5.39297 7.98076 5.43047 7.9081C5.45859 7.85654 5.52187 7.77451 5.57109 7.72529C5.62031 7.67607 5.71641 7.61748 5.78906 7.58935C5.87578 7.55888 5.95547 7.54716 6.03516 7.55185Z" fill="#7795E8"/>
</svg>
