<svg width="20" height="20" viewBox="0 0 20 20" fill="none" xmlns="http://www.w3.org/2000/svg">
<path fill-rule="evenodd" clip-rule="evenodd" d="M10.5502 0.038545C10.1436 0.134293 9.74634 0.441977 9.54707 0.815512C9.42183 1.05031 9.28087 1.62918 9.33719 1.67752C9.3537 1.69171 9.47283 1.72516 9.6019 1.75189C10.1199 1.85917 10.7467 2.25154 11.0898 2.68323C11.3886 3.05915 11.5468 3.44722 11.8161 4.46434L12.0627 5.39575L12.1817 5.36359C12.2471 5.34589 12.459 5.33123 12.6526 5.33104C12.9589 5.33068 13.0334 5.34479 13.2261 5.43933C13.495 5.57127 13.7414 5.8097 13.8691 6.06157L13.9641 6.24893L14.174 6.07811C14.4752 5.83291 14.691 5.76038 15.1166 5.76124C15.4201 5.76186 15.499 5.77675 15.6887 5.8693C16.1049 6.07224 16.4311 6.5316 16.4856 6.99158C16.5337 7.39693 16.3051 8.10914 15.9519 8.65463C15.4907 9.367 14.7075 10.1383 13.8538 10.721C13.6987 10.8268 13.5717 10.9373 13.5717 10.9666C13.5717 10.9958 13.8634 12.105 14.22 13.4315C14.5805 14.7729 14.8878 15.9957 14.9125 16.1867C14.9505 16.4816 14.968 16.5323 15.0367 16.5472C15.4579 16.6386 16.1072 16.7298 16.3291 16.7286C16.9177 16.7256 17.4581 16.3779 17.7022 15.8454C17.7766 15.6828 18.0372 14.2818 18.9136 9.33155C20.1672 2.25072 20.1061 2.7159 19.8513 2.20077C19.768 2.03237 19.6425 1.85674 19.5341 1.75693C19.1645 1.41654 19.2452 1.43549 14.9596 0.682989C12.8082 0.305194 10.969 -0.00213824 10.8724 1.12065e-05C10.776 0.00219974 10.631 0.0195126 10.5502 0.038545ZM8.36989 2.94249C8.18704 2.99243 6.47982 3.45042 4.57606 3.96023C2.6723 4.47004 1.02074 4.92952 0.905903 4.9813C0.791111 5.03308 0.641509 5.12199 0.573455 5.17889C0.23772 5.45969 0 5.95891 0 6.38305C0 6.66303 3.28541 18.9262 3.43314 19.1977C3.57946 19.4665 3.93862 19.7852 4.21291 19.8896C4.67204 20.0642 4.82461 20.05 6.08565 19.7142C10.8476 18.4462 12.6419 17.9599 12.8221 17.8882C13.1325 17.7648 13.4251 17.4768 13.6006 17.1219C13.7363 16.8475 13.7475 16.7992 13.7466 16.4904C13.7456 16.1744 13.6547 15.818 12.091 10.0008C10.9623 5.80176 10.4033 3.78445 10.3321 3.65329C10.1843 3.38109 9.93443 3.14677 9.63495 2.99943C9.28615 2.82787 8.85972 2.80868 8.36989 2.94249ZM6.36014 8.25132C6.61694 8.45004 9.03373 10.5929 9.10925 10.6888C9.15435 10.7461 9.19123 10.8354 9.19123 10.8873C9.19123 11.0259 8.0268 14.4596 7.9517 14.5425C7.86601 14.6371 7.6286 14.7042 7.52187 14.664C7.42413 14.6272 4.72253 12.2636 4.63422 12.1377C4.60222 12.092 4.57606 12.0076 4.57606 11.9501C4.57606 11.8925 4.84018 11.0654 5.16297 10.1122C5.66923 8.61719 5.76607 8.36418 5.8676 8.27148C6.01494 8.13697 6.20244 8.1293 6.36014 8.25132Z" fill="#FFB800"/>
</svg>
