<svg width="20" height="20" viewBox="0 0 20 20" fill="none" xmlns="http://www.w3.org/2000/svg">
<path fill-rule="evenodd" clip-rule="evenodd" d="M5.43399 2.93482C5.59943 2.93106 5.86264 2.95738 6.0168 2.99122C6.17096 3.0213 6.37401 3.07018 6.46801 3.0965C6.56201 3.12659 6.87034 3.24315 7.15611 3.35971C7.43811 3.47627 7.81036 3.61164 7.97956 3.66052C8.15253 3.7094 8.4571 3.76956 8.66014 3.79212C8.85942 3.81468 9.4648 3.83348 10.0025 3.83348C10.5402 3.83348 11.1456 3.81468 11.3486 3.79212C11.5479 3.76956 11.8562 3.7094 12.0329 3.65676C12.2097 3.60788 12.5819 3.47251 12.8602 3.35595C13.1384 3.24315 13.443 3.12659 13.537 3.0965C13.631 3.07018 13.834 3.0213 13.9882 2.99122C14.1423 2.95738 14.3867 2.93106 14.5334 2.93106C14.68 2.93106 14.932 2.95738 15.0974 2.98746C15.2628 3.01378 15.4734 3.05514 15.5674 3.0777C15.6614 3.0965 15.8645 3.16043 16.0186 3.21683C16.1728 3.26947 16.4097 3.37099 16.545 3.43867C16.6804 3.50635 16.906 3.64924 17.0526 3.75076C17.1993 3.85228 17.4249 4.04405 17.5565 4.17565C17.6919 4.30725 17.8949 4.54414 18.0077 4.6983C18.1243 4.85246 18.2897 5.11567 18.3762 5.28111C18.4589 5.44656 18.583 5.7248 18.6432 5.90153C18.7071 6.07825 18.7898 6.40538 18.8349 6.63474C18.8763 6.86411 18.9552 7.30404 19.0079 7.61236C19.0568 7.92445 19.132 8.40574 19.1733 8.68399C19.2147 8.96223 19.2824 9.46985 19.3237 9.81201C19.3651 10.1542 19.4253 10.7182 19.4591 11.0716C19.4892 11.4251 19.5343 11.9477 19.5569 12.2373C19.5757 12.5268 19.6057 13.1171 19.617 13.5533C19.6321 14.185 19.6245 14.3993 19.5757 14.6249C19.5456 14.7791 19.4441 15.0573 19.3501 15.2453C19.2561 15.4296 19.0831 15.7003 18.9628 15.8469C18.8387 15.9936 18.598 16.2192 18.4213 16.3508C18.2484 16.4824 18.0039 16.6403 17.8799 16.7042C17.7558 16.7644 17.5866 16.8396 17.5039 16.8697C17.4211 16.8998 17.2294 16.9562 17.079 16.9975C16.9323 17.0351 16.733 17.069 16.639 17.069C16.545 17.069 16.3457 17.0351 16.1953 16.9938C16.0487 16.9524 15.8156 16.8659 15.6802 16.802C15.5449 16.7381 15.308 16.599 15.1538 16.4937C14.9996 16.3846 14.5936 16.0199 14.2514 15.674C13.9092 15.3318 13.3189 14.7302 12.9354 14.3392C12.4503 13.8428 12.1721 13.5871 11.7923 13.3653L8.31045 13.3465L8.11117 13.4405C8.00589 13.4894 7.8066 13.621 7.67124 13.7338C7.53587 13.8428 7.19747 14.1775 6.91922 14.4745C6.64097 14.7753 6.17472 15.2604 5.8852 15.5574C5.59567 15.8545 5.22342 16.2042 5.05798 16.3358C4.89254 16.4674 4.61429 16.6478 4.43757 16.7418C4.26084 16.8358 3.98636 16.9487 3.82467 16.99C3.66675 17.0351 3.45994 17.069 3.36594 17.069C3.27194 17.069 3.06514 17.0351 2.90345 16.99C2.74553 16.9487 2.50488 16.8659 2.36952 16.8133C2.23416 16.7569 1.98223 16.614 1.80551 16.4974C1.62502 16.3809 1.3543 16.1515 1.18509 15.971C0.967009 15.7454 0.835406 15.5649 0.711323 15.3205C0.613561 15.1325 0.496999 14.8392 0.448118 14.6625C0.369156 14.3655 0.365396 14.294 0.387956 13.5721C0.399236 13.1472 0.429317 12.5569 0.448118 12.2561C0.470678 11.9553 0.515799 11.4251 0.54588 11.0716C0.57972 10.7182 0.647402 10.094 0.700043 9.68041C0.748924 9.2668 0.835406 8.65015 0.888047 8.30798C0.940688 7.96581 1.04221 7.35668 1.11365 6.95435C1.18509 6.55202 1.29414 6.07449 1.3543 5.89401C1.41822 5.70976 1.51222 5.47288 1.56486 5.36759C1.62126 5.25855 1.75287 5.03295 1.85815 4.8675C1.96719 4.70206 2.16272 4.45013 2.29808 4.30725C2.42968 4.16437 2.66657 3.9538 2.82073 3.83724C2.97489 3.72068 3.25314 3.54771 3.44114 3.45371C3.62539 3.35595 3.91491 3.23563 4.08036 3.18299C4.2458 3.13035 4.47517 3.07018 4.58797 3.04762C4.70077 3.02506 4.86998 2.99122 4.96398 2.97242C5.05798 2.95362 5.26854 2.93858 5.43399 2.93482ZM5.09558 6.12337L4.98278 6.28505L4.96398 7.59356C3.78331 7.59356 3.73067 7.59732 3.57275 7.68005C3.47874 7.72893 3.35466 7.83797 3.29074 7.92821C3.18922 8.07109 3.17794 8.11998 3.17794 8.36438C3.17794 8.60879 3.18922 8.65767 3.29074 8.80055C3.3509 8.89079 3.4637 8.99607 3.53515 9.03744C3.64795 9.10512 3.74947 9.12016 4.30596 9.1352L4.94518 9.154L4.98278 10.4437C5.1595 10.6994 5.27982 10.8084 5.35879 10.8536C5.44151 10.8987 5.56935 10.9438 5.64079 10.9551C5.71223 10.9664 5.85512 10.9513 5.9604 10.9212C6.07696 10.8874 6.20481 10.8122 6.29129 10.722C6.38153 10.6355 6.45297 10.5151 6.48681 10.3948C6.52441 10.267 6.54321 10.0339 6.54321 9.67289V9.1352C7.5622 9.1352 7.78404 9.12016 7.86676 9.08632C7.93444 9.05624 8.05477 8.96223 8.12997 8.87951C8.20893 8.79303 8.28789 8.65767 8.31045 8.58247C8.32925 8.5035 8.34805 8.40574 8.34805 8.36438C8.34805 8.32302 8.32925 8.22526 8.31045 8.15006C8.28789 8.07109 8.21645 7.94701 8.14877 7.87181C8.08485 7.79661 7.96452 7.70261 7.88556 7.66501C7.769 7.60484 7.6562 7.59356 7.14483 7.59356H6.54321C6.54321 6.70242 6.52441 6.45802 6.49057 6.33394C6.45297 6.20233 6.38905 6.10457 6.28377 6.00681C6.19729 5.92785 6.08824 5.84889 6.0356 5.82632C5.98296 5.80752 5.85136 5.78872 5.74231 5.78872C5.60695 5.78872 5.49039 5.81504 5.37759 5.87521C5.28358 5.92409 5.1595 6.03689 5.09558 6.12337ZM15.041 6.00681C14.9696 6.06697 14.853 6.19857 14.7853 6.3001C14.7176 6.40538 14.6462 6.57458 14.6236 6.69114C14.5973 6.83779 14.5973 6.95059 14.6236 7.07843C14.6462 7.17619 14.6988 7.31908 14.7364 7.39804C14.774 7.47324 14.8718 7.60108 14.9545 7.68005C15.0335 7.75901 15.1726 7.85677 15.2666 7.90189C15.3869 7.95829 15.511 7.98461 15.699 7.98461C15.8945 7.98461 16.0111 7.96581 16.1502 7.90189C16.2555 7.85301 16.4097 7.74397 16.4999 7.65749C16.5864 7.571 16.6954 7.41684 16.7368 7.31156C16.7932 7.18371 16.8195 7.04459 16.8195 6.87915C16.8195 6.72122 16.7932 6.57458 16.7443 6.46554C16.703 6.37154 16.6127 6.23241 16.5413 6.14969C16.4698 6.07073 16.3382 5.96169 16.2442 5.90905C16.1089 5.83008 16.0149 5.80752 15.7742 5.8C15.5712 5.79248 15.4245 5.80752 15.323 5.84513C15.2403 5.87521 15.1124 5.95041 15.041 6.00681ZM13.3565 8.86823C13.27 8.90959 13.1384 9.01112 13.0632 9.09008C12.9918 9.16528 12.894 9.3044 12.8489 9.3984C12.7887 9.52625 12.7699 9.63905 12.7699 9.84961C12.7699 10.0752 12.7887 10.1692 12.8602 10.3196C12.9128 10.4249 13.0143 10.564 13.0858 10.6355C13.1572 10.7069 13.3114 10.8084 13.4242 10.8611C13.5783 10.9325 13.6911 10.9551 13.8754 10.9513C14.0333 10.9513 14.1799 10.925 14.289 10.8761C14.383 10.8385 14.5259 10.7445 14.6086 10.6693C14.6913 10.5941 14.8004 10.4512 14.853 10.3535C14.9132 10.2331 14.9508 10.0865 14.9583 9.92482C14.9696 9.76689 14.9545 9.61649 14.9169 9.49241C14.8831 9.38712 14.7853 9.22544 14.6951 9.12392C14.6048 9.01864 14.4507 8.90207 14.3454 8.85319C14.2401 8.80431 14.0822 8.75919 13.9882 8.74791C13.8942 8.73663 13.7513 8.74039 13.6686 8.75919C13.5858 8.77423 13.4467 8.82311 13.3565 8.86823Z" fill="#D2DCF7"/>
</svg>
