<svg width="20" height="20" viewBox="0 0 20 20" fill="none" xmlns="http://www.w3.org/2000/svg">
<path fill-rule="evenodd" clip-rule="evenodd" d="M13.0281 0.0254409C12.468 0.11717 12.1096 0.26735 11.6141 0.61805C10.9985 1.05373 10.4908 1.78161 10.0523 2.85724L9.99784 2.99069L9.85268 2.71911C9.01204 1.1463 8.12615 0.28263 7.14566 0.0800006C6.26023 -0.10299 5.15519 0.171449 4.36126 0.771463C3.50875 1.41582 3.05866 2.23351 3.01571 3.21591C2.99637 3.65853 3.00683 3.74566 3.11988 4.08127C3.34673 4.75459 3.89451 5.41474 4.5736 5.83308L4.85242 6.00482L2.95449 6.02826C1.08683 6.05132 1.05303 6.05343 0.835149 6.16058C0.546001 6.30274 0.17169 6.71442 0.0756362 6.99585C0.0136189 7.17762 0.000191934 7.44582 4.14533e-06 8.50912C-0.000277538 10.0608 0.0124923 10.1193 0.445815 10.5519C0.938667 11.044 -0.0633748 10.9973 9.98287 10.997C20.0431 10.9967 19.0666 11.0419 19.5558 10.5535C19.9827 10.1274 19.9997 10.0484 20 8.49539C20.0002 7.40139 19.9887 7.19116 19.9178 6.99228C19.8138 6.70017 19.4576 6.30673 19.1665 6.16231C18.9461 6.05301 18.9215 6.05141 17.0721 6.02826L15.2009 6.00482L15.5229 5.78518C16.1431 5.36215 16.642 4.77165 16.8609 4.20159C17.0142 3.80242 17.0342 3.10946 16.907 2.60708C16.6005 1.39688 15.6881 0.455355 14.4989 0.121998C14.1148 0.0143322 13.3875 -0.033384 13.0281 0.0254409ZM6.72646 2.05347C7.10354 2.16625 7.391 2.51142 8.0654 3.6612C8.25258 3.98035 8.50487 4.56073 8.56971 4.82129C8.60107 4.94747 8.59736 4.95019 8.3915 4.95019C8.06639 4.95019 7.10509 4.77048 6.71369 4.63652C5.89517 4.35636 5.2511 3.93981 5.075 3.57669C4.9858 3.39271 4.97979 3.34073 5.02463 3.14101C5.14068 2.62391 5.58321 2.20885 6.1738 2.06313C6.47994 1.98757 6.50478 1.98715 6.72646 2.05347ZM14.1406 2.13175C14.5587 2.31071 14.8748 2.69052 14.9737 3.13294C15.0401 3.4296 14.9429 3.67034 14.6541 3.92467C14.3972 4.15092 13.4292 4.63582 13.0281 4.73917C12.629 4.84206 11.9405 4.94977 11.6809 4.95L11.4603 4.95019L11.7656 4.0479C11.9335 3.55161 12.1255 3.05068 12.1923 2.93467C12.4806 2.43403 12.8452 2.12045 13.2345 2.03829C13.4839 1.98565 13.8994 2.02854 14.1406 2.13175ZM1.51255 14.852L1.52602 17.6761L1.64917 17.9921C1.99522 18.8802 2.62041 19.5044 3.50992 19.8499L3.82644 19.9728L6.42027 19.9864L9.01411 20V16.014V12.0279H5.25659H1.49908L1.51255 14.852ZM10.9859 16.0136V19.9993L13.5563 19.9859C16.0712 19.9729 16.1332 19.9703 16.4318 19.8685C17.3311 19.5616 18.0618 18.8322 18.3696 17.9339C18.4722 17.6342 18.4742 17.5831 18.4871 14.8286L18.5003 12.0279H14.7431H10.9859V16.0136Z" fill="#D2DCF7"/>
</svg>
